<?xml version="1.0" encoding="utf-8" standalone="no"?>
<!DOCTYPE svg PUBLIC "-//W3C//DTD SVG 1.1//EN"
  "http://www.w3.org/Graphics/SVG/1.1/DTD/svg11.dtd">
<!-- Created with matplotlib (https://matplotlib.org/) -->
<svg height="576pt" version="1.1" viewBox="0 0 720 576" width="720pt" xmlns="http://www.w3.org/2000/svg" xmlns:xlink="http://www.w3.org/1999/xlink">
 <defs>
  <style type="text/css">
*{stroke-linecap:butt;stroke-linejoin:round;}
  </style>
 </defs>
 <g id="figure_1">
  <g id="patch_1">
   <path d="M 0 576 
L 720 576 
L 720 0 
L 0 0 
z
" style="fill:#ffffff;"/>
  </g>
  <g id="axes_1">
   <g id="patch_2">
    <path d="M 90 512.64 
L 648 512.64 
L 648 69.12 
L 90 69.12 
z
" style="fill:#ffffff;"/>
   </g>
   <g id="PathCollection_1">
    <defs>
     <path d="M 0 0.707107 
C 0.187527 0.707107 0.367398 0.632602 0.5 0.5 
C 0.632602 0.367398 0.707107 0.187527 0.707107 0 
C 0.707107 -0.187527 0.632602 -0.367398 0.5 -0.5 
C 0.367398 -0.632602 0.187527 -0.707107 0 -0.707107 
C -0.187527 -0.707107 -0.367398 -0.632602 -0.5 -0.5 
C -0.632602 -0.367398 -0.707107 -0.187527 -0.707107 0 
C -0.707107 0.187527 -0.632602 0.367398 -0.5 0.5 
C -0.367398 0.632602 -0.187527 0.707107 0 0.707107 
z
" id="m14f483d793" style="stroke:#0000ff;"/>
    </defs>
    <g clip-path="url(#pdc5e1158bf)">
     <use style="fill:#0000ff;stroke:#0000ff;" x="646.836901" xlink:href="#m14f483d793" y="352.928558"/>
     <use style="fill:#0000ff;stroke:#0000ff;" x="645.483702" xlink:href="#m14f483d793" y="351.961172"/>
     <use style="fill:#0000ff;stroke:#0000ff;" x="643.446314" xlink:href="#m14f483d793" y="350.507213"/>
     <use style="fill:#0000ff;stroke:#0000ff;" x="641.396298" xlink:href="#m14f483d793" y="349.05233"/>
     <use style="fill:#0000ff;stroke:#0000ff;" x="639.331976" xlink:href="#m14f483d793" y="347.597025"/>
     <use style="fill:#0000ff;stroke:#0000ff;" x="637.94807" xlink:href="#m14f483d793" y="346.626625"/>
     <use style="fill:#0000ff;stroke:#0000ff;" x="635.862343" xlink:href="#m14f483d793" y="345.169224"/>
     <use style="fill:#0000ff;stroke:#0000ff;" x="634.465827" xlink:href="#m14f483d793" y="344.195455"/>
     <use style="fill:#0000ff;stroke:#0000ff;" x="632.361924" xlink:href="#m14f483d793" y="342.732148"/>
     <use style="fill:#0000ff;stroke:#0000ff;" x="630.952077" xlink:href="#m14f483d793" y="341.755288"/>
     <use style="fill:#0000ff;stroke:#0000ff;" x="628.827854" xlink:href="#m14f483d793" y="340.287258"/>
     <use style="fill:#0000ff;stroke:#0000ff;" x="627.405849" xlink:href="#m14f483d793" y="339.305785"/>
     <use style="fill:#0000ff;stroke:#0000ff;" x="625.263919" xlink:href="#m14f483d793" y="337.829115"/>
     <use style="fill:#0000ff;stroke:#0000ff;" x="623.829857" xlink:href="#m14f483d793" y="336.842549"/>
     <use style="fill:#0000ff;stroke:#0000ff;" x="621.669881" xlink:href="#m14f483d793" y="335.35933"/>
     <use style="fill:#0000ff;stroke:#0000ff;" x="620.225342" xlink:href="#m14f483d793" y="334.367341"/>
     <use style="fill:#0000ff;stroke:#0000ff;" x="618.053328" xlink:href="#m14f483d793" y="332.875478"/>
     <use style="fill:#0000ff;stroke:#0000ff;" x="616.603069" xlink:href="#m14f483d793" y="331.878872"/>
     <use style="fill:#0000ff;stroke:#0000ff;" x="614.427504" xlink:href="#m14f483d793" y="330.380525"/>
     <use style="fill:#0000ff;stroke:#0000ff;" x="612.978614" xlink:href="#m14f483d793" y="329.378491"/>
     <use style="fill:#0000ff;stroke:#0000ff;" x="611.530956" xlink:href="#m14f483d793" y="328.375168"/>
     <use style="fill:#0000ff;stroke:#0000ff;" x="610.084601" xlink:href="#m14f483d793" y="327.372341"/>
     <use style="fill:#0000ff;stroke:#0000ff;" x="607.917694" xlink:href="#m14f483d793" y="325.866833"/>
     <use style="fill:#0000ff;stroke:#0000ff;" x="605.754026" xlink:href="#m14f483d793" y="324.360377"/>
     <use style="fill:#0000ff;stroke:#0000ff;" x="603.59482" xlink:href="#m14f483d793" y="322.851251"/>
     <use style="fill:#0000ff;stroke:#0000ff;" x="602.157756" xlink:href="#m14f483d793" y="321.845868"/>
     <use style="fill:#0000ff;stroke:#0000ff;" x="600.006484" xlink:href="#m14f483d793" y="320.342024"/>
     <use style="fill:#0000ff;stroke:#0000ff;" x="598.575937" xlink:href="#m14f483d793" y="319.342538"/>
     <use style="fill:#0000ff;stroke:#0000ff;" x="596.436874" xlink:href="#m14f483d793" y="317.847623"/>
     <use style="fill:#0000ff;stroke:#0000ff;" x="595.014943" xlink:href="#m14f483d793" y="316.854241"/>
     <use style="fill:#0000ff;stroke:#0000ff;" x="592.886599" xlink:href="#m14f483d793" y="315.368917"/>
     <use style="fill:#0000ff;stroke:#0000ff;" x="591.4707" xlink:href="#m14f483d793" y="314.381507"/>
     <use style="fill:#0000ff;stroke:#0000ff;" x="589.351773" xlink:href="#m14f483d793" y="312.904668"/>
     <use style="fill:#0000ff;stroke:#0000ff;" x="587.94124" xlink:href="#m14f483d793" y="311.924003"/>
     <use style="fill:#0000ff;stroke:#0000ff;" x="585.829239" xlink:href="#m14f483d793" y="310.459415"/>
     <use style="fill:#0000ff;stroke:#0000ff;" x="584.424211" xlink:href="#m14f483d793" y="309.485939"/>
     <use style="fill:#0000ff;stroke:#0000ff;" x="582.322603" xlink:href="#m14f483d793" y="308.029588"/>
     <use style="fill:#0000ff;stroke:#0000ff;" x="580.924571" xlink:href="#m14f483d793" y="307.062012"/>
     <use style="fill:#0000ff;stroke:#0000ff;" x="578.830585" xlink:href="#m14f483d793" y="305.61631"/>
     <use style="fill:#0000ff;stroke:#0000ff;" x="577.437104" xlink:href="#m14f483d793" y="304.656276"/>
     <use style="fill:#0000ff;stroke:#0000ff;" x="576.04571" xlink:href="#m14f483d793" y="303.698706"/>
     <use style="fill:#0000ff;stroke:#0000ff;" x="574.658279" xlink:href="#m14f483d793" y="302.743519"/>
     <use style="fill:#0000ff;stroke:#0000ff;" x="571.893102" xlink:href="#m14f483d793" y="300.839935"/>
     <use style="fill:#0000ff;stroke:#0000ff;" x="570.514333" xlink:href="#m14f483d793" y="299.891838"/>
     <use style="fill:#0000ff;stroke:#0000ff;" x="568.451216" xlink:href="#m14f483d793" y="298.474003"/>
     <use style="fill:#0000ff;stroke:#0000ff;" x="567.080058" xlink:href="#m14f483d793" y="297.531388"/>
     <use style="fill:#0000ff;stroke:#0000ff;" x="565.029182" xlink:href="#m14f483d793" y="296.121451"/>
     <use style="fill:#0000ff;stroke:#0000ff;" x="563.665491" xlink:href="#m14f483d793" y="295.183973"/>
     <use style="fill:#0000ff;stroke:#0000ff;" x="561.62547" xlink:href="#m14f483d793" y="293.781605"/>
     <use style="fill:#0000ff;stroke:#0000ff;" x="560.269529" xlink:href="#m14f483d793" y="292.849555"/>
     <use style="fill:#0000ff;stroke:#0000ff;" x="558.241846" xlink:href="#m14f483d793" y="291.454999"/>
     <use style="fill:#0000ff;stroke:#0000ff;" x="556.893501" xlink:href="#m14f483d793" y="290.527956"/>
     <use style="fill:#0000ff;stroke:#0000ff;" x="554.875678" xlink:href="#m14f483d793" y="289.141876"/>
     <use style="fill:#0000ff;stroke:#0000ff;" x="553.53402" xlink:href="#m14f483d793" y="288.221058"/>
     <use style="fill:#0000ff;stroke:#0000ff;" x="551.527818" xlink:href="#m14f483d793" y="286.843498"/>
     <use style="fill:#0000ff;stroke:#0000ff;" x="550.194736" xlink:href="#m14f483d793" y="285.927384"/>
     <use style="fill:#0000ff;stroke:#0000ff;" x="548.199522" xlink:href="#m14f483d793" y="284.557361"/>
     <use style="fill:#0000ff;stroke:#0000ff;" x="546.872754" xlink:href="#m14f483d793" y="283.648006"/>
     <use style="fill:#0000ff;stroke:#0000ff;" x="544.887455" xlink:href="#m14f483d793" y="282.288921"/>
     <use style="fill:#0000ff;stroke:#0000ff;" x="543.567798" xlink:href="#m14f483d793" y="281.385327"/>
     <use style="fill:#0000ff;stroke:#0000ff;" x="542.250599" xlink:href="#m14f483d793" y="280.484115"/>
     <use style="fill:#0000ff;stroke:#0000ff;" x="540.936319" xlink:href="#m14f483d793" y="279.586621"/>
     <use style="fill:#0000ff;stroke:#0000ff;" x="538.314551" xlink:href="#m14f483d793" y="277.800845"/>
     <use style="fill:#0000ff;stroke:#0000ff;" x="537.007658" xlink:href="#m14f483d793" y="276.911822"/>
     <use style="fill:#0000ff;stroke:#0000ff;" x="535.703666" xlink:href="#m14f483d793" y="276.025098"/>
     <use style="fill:#0000ff;stroke:#0000ff;" x="533.752045" xlink:href="#m14f483d793" y="274.699133"/>
     <use style="fill:#0000ff;stroke:#0000ff;" x="531.806057" xlink:href="#m14f483d793" y="273.379816"/>
     <use style="fill:#0000ff;stroke:#0000ff;" x="530.512012" xlink:href="#m14f483d793" y="272.503452"/>
     <use style="fill:#0000ff;stroke:#0000ff;" x="528.575786" xlink:href="#m14f483d793" y="271.193514"/>
     <use style="fill:#0000ff;stroke:#0000ff;" x="527.289134" xlink:href="#m14f483d793" y="270.323502"/>
     <use style="fill:#0000ff;stroke:#0000ff;" x="525.365018" xlink:href="#m14f483d793" y="269.022148"/>
     <use style="fill:#0000ff;stroke:#0000ff;" x="524.08666" xlink:href="#m14f483d793" y="268.156302"/>
     <use style="fill:#0000ff;stroke:#0000ff;" x="522.176549" xlink:href="#m14f483d793" y="266.85947"/>
     <use style="fill:#0000ff;stroke:#0000ff;" x="520.908109" xlink:href="#m14f483d793" y="265.996454"/>
     <use style="fill:#0000ff;stroke:#0000ff;" x="519.012313" xlink:href="#m14f483d793" y="264.7057"/>
     <use style="fill:#0000ff;stroke:#0000ff;" x="517.752258" xlink:href="#m14f483d793" y="263.847739"/>
     <use style="fill:#0000ff;stroke:#0000ff;" x="515.867854" xlink:href="#m14f483d793" y="262.564718"/>
     <use style="fill:#0000ff;stroke:#0000ff;" x="514.616094" xlink:href="#m14f483d793" y="261.711659"/>
     <use style="fill:#0000ff;stroke:#0000ff;" x="512.746223" xlink:href="#m14f483d793" y="260.434306"/>
     <use style="fill:#0000ff;stroke:#0000ff;" x="511.50415" xlink:href="#m14f483d793" y="259.583944"/>
     <use style="fill:#0000ff;stroke:#0000ff;" x="510.265825" xlink:href="#m14f483d793" y="258.735047"/>
     <use style="fill:#0000ff;stroke:#0000ff;" x="509.030654" xlink:href="#m14f483d793" y="257.889037"/>
     <use style="fill:#0000ff;stroke:#0000ff;" x="506.570667" xlink:href="#m14f483d793" y="256.201862"/>
     <use style="fill:#0000ff;stroke:#0000ff;" x="505.345872" xlink:href="#m14f483d793" y="255.360849"/>
     <use style="fill:#0000ff;stroke:#0000ff;" x="503.51504" xlink:href="#m14f483d793" y="254.102532"/>
     <use style="fill:#0000ff;stroke:#0000ff;" x="502.298289" xlink:href="#m14f483d793" y="253.266422"/>
     <use style="fill:#0000ff;stroke:#0000ff;" x="500.478937" xlink:href="#m14f483d793" y="252.017076"/>
     <use style="fill:#0000ff;stroke:#0000ff;" x="499.269308" xlink:href="#m14f483d793" y="251.186781"/>
     <use style="fill:#0000ff;stroke:#0000ff;" x="497.460398" xlink:href="#m14f483d793" y="249.945174"/>
     <use style="fill:#0000ff;stroke:#0000ff;" x="496.257926" xlink:href="#m14f483d793" y="249.120126"/>
     <use style="fill:#0000ff;stroke:#0000ff;" x="494.459904" xlink:href="#m14f483d793" y="247.88722"/>
     <use style="fill:#0000ff;stroke:#0000ff;" x="493.26463" xlink:href="#m14f483d793" y="247.067645"/>
     <use style="fill:#0000ff;stroke:#0000ff;" x="491.477445" xlink:href="#m14f483d793" y="245.842318"/>
     <use style="fill:#0000ff;stroke:#0000ff;" x="490.29037" xlink:href="#m14f483d793" y="245.028175"/>
     <use style="fill:#0000ff;stroke:#0000ff;" x="489.106624" xlink:href="#m14f483d793" y="244.216102"/>
     <use style="fill:#0000ff;stroke:#0000ff;" x="487.33595" xlink:href="#m14f483d793" y="243.00279"/>
     <use style="fill:#0000ff;stroke:#0000ff;" x="485.570903" xlink:href="#m14f483d793" y="241.795034"/>
     <use style="fill:#0000ff;stroke:#0000ff;" x="484.397742" xlink:href="#m14f483d793" y="240.993123"/>
     <use style="fill:#0000ff;stroke:#0000ff;" x="482.64451" xlink:href="#m14f483d793" y="239.794533"/>
     <use style="fill:#0000ff;stroke:#0000ff;" x="481.480082" xlink:href="#m14f483d793" y="238.997658"/>
     <use style="fill:#0000ff;stroke:#0000ff;" x="480.318968" xlink:href="#m14f483d793" y="238.202491"/>
     <use style="fill:#0000ff;stroke:#0000ff;" x="479.162448" xlink:href="#m14f483d793" y="237.409433"/>
     <use style="fill:#0000ff;stroke:#0000ff;" x="476.860672" xlink:href="#m14f483d793" y="235.82933"/>
     <use style="fill:#0000ff;stroke:#0000ff;" x="475.714695" xlink:href="#m14f483d793" y="235.042437"/>
     <use style="fill:#0000ff;stroke:#0000ff;" x="474.001649" xlink:href="#m14f483d793" y="233.865691"/>
     <use style="fill:#0000ff;stroke:#0000ff;" x="472.863793" xlink:href="#m14f483d793" y="233.084549"/>
     <use style="fill:#0000ff;stroke:#0000ff;" x="471.162552" xlink:href="#m14f483d793" y="231.917508"/>
     <use style="fill:#0000ff;stroke:#0000ff;" x="470.032526" xlink:href="#m14f483d793" y="231.14184"/>
     <use style="fill:#0000ff;stroke:#0000ff;" x="468.343872" xlink:href="#m14f483d793" y="229.982061"/>
     <use style="fill:#0000ff;stroke:#0000ff;" x="467.223143" xlink:href="#m14f483d793" y="229.211119"/>
     <use style="fill:#0000ff;stroke:#0000ff;" x="465.549993" xlink:href="#m14f483d793" y="228.058309"/>
     <use style="fill:#0000ff;stroke:#0000ff;" x="464.438292" xlink:href="#m14f483d793" y="227.292236"/>
     <use style="fill:#0000ff;stroke:#0000ff;" x="462.775437" xlink:href="#m14f483d793" y="226.14809"/>
     <use style="fill:#0000ff;stroke:#0000ff;" x="461.670045" xlink:href="#m14f483d793" y="225.389226"/>
     <use style="fill:#0000ff;stroke:#0000ff;" x="460.566335" xlink:href="#m14f483d793" y="224.633883"/>
     <use style="fill:#0000ff;stroke:#0000ff;" x="458.915278" xlink:href="#m14f483d793" y="223.50737"/>
     <use style="fill:#0000ff;stroke:#0000ff;" x="457.268556" xlink:href="#m14f483d793" y="222.387628"/>
     <use style="fill:#0000ff;stroke:#0000ff;" x="456.174319" xlink:href="#m14f483d793" y="221.64446"/>
     <use style="fill:#0000ff;stroke:#0000ff;" x="454.541574" xlink:href="#m14f483d793" y="220.532044"/>
     <use style="fill:#0000ff;stroke:#0000ff;" x="453.457806" xlink:href="#m14f483d793" y="219.791731"/>
     <use style="fill:#0000ff;stroke:#0000ff;" x="452.377097" xlink:href="#m14f483d793" y="219.05349"/>
     <use style="fill:#0000ff;stroke:#0000ff;" x="451.298562" xlink:href="#m14f483d793" y="218.319139"/>
     <use style="fill:#0000ff;stroke:#0000ff;" x="449.142929" xlink:href="#m14f483d793" y="216.863912"/>
     <use style="fill:#0000ff;stroke:#0000ff;" x="448.066587" xlink:href="#m14f483d793" y="216.142578"/>
     <use style="fill:#0000ff;stroke:#0000ff;" x="446.457026" xlink:href="#m14f483d793" y="215.065149"/>
     <use style="fill:#0000ff;stroke:#0000ff;" x="445.388358" xlink:href="#m14f483d793" y="214.349796"/>
     <use style="fill:#0000ff;stroke:#0000ff;" x="443.788815" xlink:href="#m14f483d793" y="213.282283"/>
     <use style="fill:#0000ff;stroke:#0000ff;" x="442.723027" xlink:href="#m14f483d793" y="212.575825"/>
     <use style="fill:#0000ff;stroke:#0000ff;" x="441.123594" xlink:href="#m14f483d793" y="211.525772"/>
     <use style="fill:#0000ff;stroke:#0000ff;" x="440.057072" xlink:href="#m14f483d793" y="210.832281"/>
     <use style="fill:#0000ff;stroke:#0000ff;" x="438.458665" xlink:href="#m14f483d793" y="209.799951"/>
     <use style="fill:#0000ff;stroke:#0000ff;" x="437.394994" xlink:href="#m14f483d793" y="209.116255"/>
     <use style="fill:#0000ff;stroke:#0000ff;" x="435.801571" xlink:href="#m14f483d793" y="208.096569"/>
     <use style="fill:#0000ff;stroke:#0000ff;" x="434.739895" xlink:href="#m14f483d793" y="207.422171"/>
     <use style="fill:#0000ff;stroke:#0000ff;" x="433.141922" xlink:href="#m14f483d793" y="206.425894"/>
     <use style="fill:#0000ff;stroke:#0000ff;" x="432.072048" xlink:href="#m14f483d793" y="205.773091"/>
     <use style="fill:#0000ff;stroke:#0000ff;" x="430.462982" xlink:href="#m14f483d793" y="204.808905"/>
     <use style="fill:#0000ff;stroke:#0000ff;" x="429.391004" xlink:href="#m14f483d793" y="204.172923"/>
     <use style="fill:#0000ff;stroke:#0000ff;" x="428.321362" xlink:href="#m14f483d793" y="203.539994"/>
     <use style="fill:#0000ff;stroke:#0000ff;" x="426.720503" xlink:href="#m14f483d793" y="202.596488"/>
     <use style="fill:#0000ff;stroke:#0000ff;" x="425.653229" xlink:href="#m14f483d793" y="201.973517"/>
     <use style="fill:#0000ff;stroke:#0000ff;" x="424.584045" xlink:href="#m14f483d793" y="201.358533"/>
     <use style="fill:#0000ff;stroke:#0000ff;" x="422.439857" xlink:href="#m14f483d793" y="200.152057"/>
     <use style="fill:#0000ff;stroke:#0000ff;" x="421.367105" xlink:href="#m14f483d793" y="199.557934"/>
     <use style="fill:#0000ff;stroke:#0000ff;" x="419.760534" xlink:href="#m14f483d793" y="198.675532"/>
     <use style="fill:#0000ff;stroke:#0000ff;" x="418.691217" xlink:href="#m14f483d793" y="198.094099"/>
     <use style="fill:#0000ff;stroke:#0000ff;" x="417.086487" xlink:href="#m14f483d793" y="197.234463"/>
     <use style="fill:#0000ff;stroke:#0000ff;" x="416.015755" xlink:href="#m14f483d793" y="196.670077"/>
     <use style="fill:#0000ff;stroke:#0000ff;" x="414.408126" xlink:href="#m14f483d793" y="195.83669"/>
     <use style="fill:#0000ff;stroke:#0000ff;" x="413.335965" xlink:href="#m14f483d793" y="195.290293"/>
     <use style="fill:#0000ff;stroke:#0000ff;" x="411.725954" xlink:href="#m14f483d793" y="194.485664"/>
     <use style="fill:#0000ff;stroke:#0000ff;" x="410.650845" xlink:href="#m14f483d793" y="193.959341"/>
     <use style="fill:#0000ff;stroke:#0000ff;" x="409.035123" xlink:href="#m14f483d793" y="193.18743"/>
     <use style="fill:#0000ff;stroke:#0000ff;" x="407.956536" xlink:href="#m14f483d793" y="192.685093"/>
     <use style="fill:#0000ff;stroke:#0000ff;" x="406.336555" xlink:href="#m14f483d793" y="191.949971"/>
     <use style="fill:#0000ff;stroke:#0000ff;" x="405.255283" xlink:href="#m14f483d793" y="191.472617"/>
     <use style="fill:#0000ff;stroke:#0000ff;" x="403.630308" xlink:href="#m14f483d793" y="190.773474"/>
     <use style="fill:#0000ff;stroke:#0000ff;" x="402.545346" xlink:href="#m14f483d793" y="190.317235"/>
     <use style="fill:#0000ff;stroke:#0000ff;" x="400.916291" xlink:href="#m14f483d793" y="189.644262"/>
     <use style="fill:#0000ff;stroke:#0000ff;" x="399.828577" xlink:href="#m14f483d793" y="189.20201"/>
     <use style="fill:#0000ff;stroke:#0000ff;" x="398.73915" xlink:href="#m14f483d793" y="188.764863"/>
     <use style="fill:#0000ff;stroke:#0000ff;" x="398.193214" xlink:href="#m14f483d793" y="188.548431"/>
     <use style="fill:#0000ff;stroke:#0000ff;" x="395.443539" xlink:href="#m14f483d793" y="187.503855"/>
     <use style="fill:#0000ff;stroke:#0000ff;" x="394.333089" xlink:href="#m14f483d793" y="187.107145"/>
     <use style="fill:#0000ff;stroke:#0000ff;" x="392.653564" xlink:href="#m14f483d793" y="186.534101"/>
     <use style="fill:#0000ff;stroke:#0000ff;" x="391.525391" xlink:href="#m14f483d793" y="186.162162"/>
     <use style="fill:#0000ff;stroke:#0000ff;" x="389.823338" xlink:href="#m14f483d793" y="185.610828"/>
     <use style="fill:#0000ff;stroke:#0000ff;" x="388.682855" xlink:href="#m14f483d793" y="185.245361"/>
     <use style="fill:#0000ff;stroke:#0000ff;" x="386.962076" xlink:href="#m14f483d793" y="184.703475"/>
     <use style="fill:#0000ff;stroke:#0000ff;" x="385.807251" xlink:href="#m14f483d793" y="184.349185"/>
     <use style="fill:#0000ff;stroke:#0000ff;" x="384.062649" xlink:href="#m14f483d793" y="183.832289"/>
     <use style="fill:#0000ff;stroke:#0000ff;" x="382.891028" xlink:href="#m14f483d793" y="183.498765"/>
     <use style="fill:#0000ff;stroke:#0000ff;" x="381.12101" xlink:href="#m14f483d793" y="183.015706"/>
     <use style="fill:#0000ff;stroke:#0000ff;" x="379.93423" xlink:href="#m14f483d793" y="182.703442"/>
     <use style="fill:#0000ff;stroke:#0000ff;" x="378.14619" xlink:href="#m14f483d793" y="182.246236"/>
     <use style="fill:#0000ff;stroke:#0000ff;" x="376.949652" xlink:href="#m14f483d793" y="181.947293"/>
     <use style="fill:#0000ff;stroke:#0000ff;" x="375.148075" xlink:href="#m14f483d793" y="181.508303"/>
     <use style="fill:#0000ff;stroke:#0000ff;" x="373.941977" xlink:href="#m14f483d793" y="181.22464"/>
     <use style="fill:#0000ff;stroke:#0000ff;" x="372.732101" xlink:href="#m14f483d793" y="180.94958"/>
     <use style="fill:#0000ff;stroke:#0000ff;" x="370.910752" xlink:href="#m14f483d793" y="180.55128"/>
     <use style="fill:#0000ff;stroke:#0000ff;" x="369.693321" xlink:href="#m14f483d793" y="180.293983"/>
     <use style="fill:#0000ff;stroke:#0000ff;" x="368.474094" xlink:href="#m14f483d793" y="180.043363"/>
     <use style="fill:#0000ff;stroke:#0000ff;" x="366.03006" xlink:href="#m14f483d793" y="179.561053"/>
     <use style="fill:#0000ff;stroke:#0000ff;" x="364.804392" xlink:href="#m14f483d793" y="179.330721"/>
     <use style="fill:#0000ff;stroke:#0000ff;" x="363.576077" xlink:href="#m14f483d793" y="179.108514"/>
     <use style="fill:#0000ff;stroke:#0000ff;" x="361.729005" xlink:href="#m14f483d793" y="178.788741"/>
     <use style="fill:#0000ff;stroke:#0000ff;" x="359.876371" xlink:href="#m14f483d793" y="178.484247"/>
     <use style="fill:#0000ff;stroke:#0000ff;" x="358.637828" xlink:href="#m14f483d793" y="178.289972"/>
     <use style="fill:#0000ff;stroke:#0000ff;" x="356.774559" xlink:href="#m14f483d793" y="178.012572"/>
     <use style="fill:#0000ff;stroke:#0000ff;" x="355.529293" xlink:href="#m14f483d793" y="177.836803"/>
     <use style="fill:#0000ff;stroke:#0000ff;" x="354.281902" xlink:href="#m14f483d793" y="177.667508"/>
     <use style="fill:#0000ff;stroke:#0000ff;" x="352.406677" xlink:href="#m14f483d793" y="177.425662"/>
     <use style="fill:#0000ff;stroke:#0000ff;" x="351.153928" xlink:href="#m14f483d793" y="177.272241"/>
     <use style="fill:#0000ff;stroke:#0000ff;" x="349.2711" xlink:href="#m14f483d793" y="177.054877"/>
     <use style="fill:#0000ff;stroke:#0000ff;" x="347.384306" xlink:href="#m14f483d793" y="176.854439"/>
     <use style="fill:#0000ff;stroke:#0000ff;" x="346.124198" xlink:href="#m14f483d793" y="176.729484"/>
     <use style="fill:#0000ff;stroke:#0000ff;" x="344.231642" xlink:href="#m14f483d793" y="176.553889"/>
     <use style="fill:#0000ff;stroke:#0000ff;" x="342.969241" xlink:href="#m14f483d793" y="176.446534"/>
     <use style="fill:#0000ff;stroke:#0000ff;" x="341.07357" xlink:href="#m14f483d793" y="176.305498"/>
     <use style="fill:#0000ff;stroke:#0000ff;" x="339.80877" xlink:href="#m14f483d793" y="176.226403"/>
     <use style="fill:#0000ff;stroke:#0000ff;" x="338.54376" xlink:href="#m14f483d793" y="176.158271"/>
     <use style="fill:#0000ff;stroke:#0000ff;" x="337.274723" xlink:href="#m14f483d793" y="176.097423"/>
     <use style="fill:#0000ff;stroke:#0000ff;" x="334.730359" xlink:href="#m14f483d793" y="175.995194"/>
     <use style="fill:#0000ff;stroke:#0000ff;" x="333.456803" xlink:href="#m14f483d793" y="175.956597"/>
     <use style="fill:#0000ff;stroke:#0000ff;" x="331.545326" xlink:href="#m14f483d793" y="175.916084"/>
     <use style="fill:#0000ff;stroke:#0000ff;" x="330.270637" xlink:href="#m14f483d793" y="175.901793"/>
     <use style="fill:#0000ff;stroke:#0000ff;" x="328.356782" xlink:href="#m14f483d793" y="175.898585"/>
     <use style="fill:#0000ff;stroke:#0000ff;" x="327.080346" xlink:href="#m14f483d793" y="175.907272"/>
     <use style="fill:#0000ff;stroke:#0000ff;" x="325.164558" xlink:href="#m14f483d793" y="175.936248"/>
     <use style="fill:#0000ff;stroke:#0000ff;" x="323.88664" xlink:href="#m14f483d793" y="175.967125"/>
     <use style="fill:#0000ff;stroke:#0000ff;" x="321.97051" xlink:href="#m14f483d793" y="176.039698"/>
     <use style="fill:#0000ff;stroke:#0000ff;" x="320.696789" xlink:href="#m14f483d793" y="176.107074"/>
     <use style="fill:#0000ff;stroke:#0000ff;" x="318.789505" xlink:href="#m14f483d793" y="176.231505"/>
     <use style="fill:#0000ff;stroke:#0000ff;" x="317.519121" xlink:href="#m14f483d793" y="176.326646"/>
     <use style="fill:#0000ff;stroke:#0000ff;" x="315.614061" xlink:href="#m14f483d793" y="176.485192"/>
     <use style="fill:#0000ff;stroke:#0000ff;" x="314.344745" xlink:href="#m14f483d793" y="176.599423"/>
     <use style="fill:#0000ff;stroke:#0000ff;" x="312.441248" xlink:href="#m14f483d793" y="176.779529"/>
     <use style="fill:#0000ff;stroke:#0000ff;" x="311.170743" xlink:href="#m14f483d793" y="176.907424"/>
     <use style="fill:#0000ff;stroke:#0000ff;" x="309.265121" xlink:href="#m14f483d793" y="177.121242"/>
     <use style="fill:#0000ff;stroke:#0000ff;" x="307.999249" xlink:href="#m14f483d793" y="177.285732"/>
     <use style="fill:#0000ff;stroke:#0000ff;" x="306.737569" xlink:href="#m14f483d793" y="177.469381"/>
     <use style="fill:#0000ff;stroke:#0000ff;" x="305.478956" xlink:href="#m14f483d793" y="177.671137"/>
     <use style="fill:#0000ff;stroke:#0000ff;" x="302.976995" xlink:href="#m14f483d793" y="178.12571"/>
     <use style="fill:#0000ff;stroke:#0000ff;" x="301.731968" xlink:href="#m14f483d793" y="178.374505"/>
     <use style="fill:#0000ff;stroke:#0000ff;" x="299.870198" xlink:href="#m14f483d793" y="178.765136"/>
     <use style="fill:#0000ff;stroke:#0000ff;" x="298.631405" xlink:href="#m14f483d793" y="179.03441"/>
     <use style="fill:#0000ff;stroke:#0000ff;" x="296.775857" xlink:href="#m14f483d793" y="179.446764"/>
     <use style="fill:#0000ff;stroke:#0000ff;" x="295.542247" xlink:href="#m14f483d793" y="179.728896"/>
     <use style="fill:#0000ff;stroke:#0000ff;" x="293.700251" xlink:href="#m14f483d793" y="180.169527"/>
     <use style="fill:#0000ff;stroke:#0000ff;" x="292.479673" xlink:href="#m14f483d793" y="180.480116"/>
     <use style="fill:#0000ff;stroke:#0000ff;" x="290.663922" xlink:href="#m14f483d793" y="180.977529"/>
     <use style="fill:#0000ff;stroke:#0000ff;" x="289.465429" xlink:href="#m14f483d793" y="181.332177"/>
     <use style="fill:#0000ff;stroke:#0000ff;" x="287.688069" xlink:href="#m14f483d793" y="181.902049"/>
     <use style="fill:#0000ff;stroke:#0000ff;" x="286.515423" xlink:href="#m14f483d793" y="182.30447"/>
     <use style="fill:#0000ff;stroke:#0000ff;" x="285.349097" xlink:href="#m14f483d793" y="182.718911"/>
     <use style="fill:#0000ff;stroke:#0000ff;" x="283.606584" xlink:href="#m14f483d793" y="183.351526"/>
     <use style="fill:#0000ff;stroke:#0000ff;" x="281.876483" xlink:href="#m14f483d793" y="184.003543"/>
     <use style="fill:#0000ff;stroke:#0000ff;" x="280.734462" xlink:href="#m14f483d793" y="184.455734"/>
     <use style="fill:#0000ff;stroke:#0000ff;" x="279.042207" xlink:href="#m14f483d793" y="185.165637"/>
     <use style="fill:#0000ff;stroke:#0000ff;" x="277.927023" xlink:href="#m14f483d793" y="185.657781"/>
     <use style="fill:#0000ff;stroke:#0000ff;" x="276.818968" xlink:href="#m14f483d793" y="186.160648"/>
     <use style="fill:#0000ff;stroke:#0000ff;" x="275.712707" xlink:href="#m14f483d793" y="186.672575"/>
     <use style="fill:#0000ff;stroke:#0000ff;" x="273.510064" xlink:href="#m14f483d793" y="187.725779"/>
     <use style="fill:#0000ff;stroke:#0000ff;" x="272.418323" xlink:href="#m14f483d793" y="188.270432"/>
     <use style="fill:#0000ff;stroke:#0000ff;" x="270.797973" xlink:href="#m14f483d793" y="189.112941"/>
     <use style="fill:#0000ff;stroke:#0000ff;" x="269.72841" xlink:href="#m14f483d793" y="189.690645"/>
     <use style="fill:#0000ff;stroke:#0000ff;" x="268.138664" xlink:href="#m14f483d793" y="190.578924"/>
     <use style="fill:#0000ff;stroke:#0000ff;" x="267.09001" xlink:href="#m14f483d793" y="191.185502"/>
     <use style="fill:#0000ff;stroke:#0000ff;" x="265.534492" xlink:href="#m14f483d793" y="192.117818"/>
     <use style="fill:#0000ff;stroke:#0000ff;" x="264.50598" xlink:href="#m14f483d793" y="192.751147"/>
     <use style="fill:#0000ff;stroke:#0000ff;" x="262.971229" xlink:href="#m14f483d793" y="193.713778"/>
     <use style="fill:#0000ff;stroke:#0000ff;" x="261.95429" xlink:href="#m14f483d793" y="194.363704"/>
     <use style="fill:#0000ff;stroke:#0000ff;" x="260.441175" xlink:href="#m14f483d793" y="195.352903"/>
     <use style="fill:#0000ff;stroke:#0000ff;" x="259.443883" xlink:href="#m14f483d793" y="196.024314"/>
     <use style="fill:#0000ff;stroke:#0000ff;" x="258.457115" xlink:href="#m14f483d793" y="196.706157"/>
     <use style="fill:#0000ff;stroke:#0000ff;" x="256.993762" xlink:href="#m14f483d793" y="197.746774"/>
     <use style="fill:#0000ff;stroke:#0000ff;" x="255.549281" xlink:href="#m14f483d793" y="198.80661"/>
     <use style="fill:#0000ff;stroke:#0000ff;" x="254.593681" xlink:href="#m14f483d793" y="199.522314"/>
     <use style="fill:#0000ff;stroke:#0000ff;" x="253.170563" xlink:href="#m14f483d793" y="200.6083"/>
     <use style="fill:#0000ff;stroke:#0000ff;" x="252.229666" xlink:href="#m14f483d793" y="201.340207"/>
     <use style="fill:#0000ff;stroke:#0000ff;" x="251.294676" xlink:href="#m14f483d793" y="202.078162"/>
     <use style="fill:#0000ff;stroke:#0000ff;" x="250.365299" xlink:href="#m14f483d793" y="202.822826"/>
     <use style="fill:#0000ff;stroke:#0000ff;" x="248.527804" xlink:href="#m14f483d793" y="204.33247"/>
     <use style="fill:#0000ff;stroke:#0000ff;" x="247.618825" xlink:href="#m14f483d793" y="205.096256"/>
     <use style="fill:#0000ff;stroke:#0000ff;" x="246.714176" xlink:href="#m14f483d793" y="205.864402"/>
     <use style="fill:#0000ff;stroke:#0000ff;" x="245.363153" xlink:href="#m14f483d793" y="207.022855"/>
     <use style="fill:#0000ff;stroke:#0000ff;" x="244.017254" xlink:href="#m14f483d793" y="208.18855"/>
     <use style="fill:#0000ff;stroke:#0000ff;" x="243.125075" xlink:href="#m14f483d793" y="208.970333"/>
     <use style="fill:#0000ff;stroke:#0000ff;" x="241.795451" xlink:href="#m14f483d793" y="210.15128"/>
     <use style="fill:#0000ff;stroke:#0000ff;" x="240.913285" xlink:href="#m14f483d793" y="210.943804"/>
     <use style="fill:#0000ff;stroke:#0000ff;" x="239.593345" xlink:href="#m14f483d793" y="212.137995"/>
     <use style="fill:#0000ff;stroke:#0000ff;" x="238.714759" xlink:href="#m14f483d793" y="212.936546"/>
     <use style="fill:#0000ff;stroke:#0000ff;" x="237.397828" xlink:href="#m14f483d793" y="214.137332"/>
     <use style="fill:#0000ff;stroke:#0000ff;" x="236.51874" xlink:href="#m14f483d793" y="214.940292"/>
     <use style="fill:#0000ff;stroke:#0000ff;" x="235.198263" xlink:href="#m14f483d793" y="216.149448"/>
     <use style="fill:#0000ff;stroke:#0000ff;" x="234.317408" xlink:href="#m14f483d793" y="216.959313"/>
     <use style="fill:#0000ff;stroke:#0000ff;" x="232.994551" xlink:href="#m14f483d793" y="218.180223"/>
     <use style="fill:#0000ff;stroke:#0000ff;" x="232.109065" xlink:href="#m14f483d793" y="218.998046"/>
     <use style="fill:#0000ff;stroke:#0000ff;" x="230.772583" xlink:href="#m14f483d793" y="220.229624"/>
     <use style="fill:#0000ff;stroke:#0000ff;" x="229.875492" xlink:href="#m14f483d793" y="221.053866"/>
     <use style="fill:#0000ff;stroke:#0000ff;" x="228.973075" xlink:href="#m14f483d793" y="221.880615"/>
     <use style="fill:#0000ff;stroke:#0000ff;" x="227.613371" xlink:href="#m14f483d793" y="223.129752"/>
     <use style="fill:#0000ff;stroke:#0000ff;" x="226.244708" xlink:href="#m14f483d793" y="224.38842"/>
     <use style="fill:#0000ff;stroke:#0000ff;" x="225.327285" xlink:href="#m14f483d793" y="225.231982"/>
     <use style="fill:#0000ff;stroke:#0000ff;" x="223.942825" xlink:href="#m14f483d793" y="226.503027"/>
     <use style="fill:#0000ff;stroke:#0000ff;" x="223.012714" xlink:href="#m14f483d793" y="227.354113"/>
     <use style="fill:#0000ff;stroke:#0000ff;" x="221.607852" xlink:href="#m14f483d793" y="228.635702"/>
     <use style="fill:#0000ff;stroke:#0000ff;" x="220.665823" xlink:href="#m14f483d793" y="229.493955"/>
     <use style="fill:#0000ff;stroke:#0000ff;" x="219.245612" xlink:href="#m14f483d793" y="230.787819"/>
     <use style="fill:#0000ff;stroke:#0000ff;" x="218.29331" xlink:href="#m14f483d793" y="231.654993"/>
     <use style="fill:#0000ff;stroke:#0000ff;" x="216.855275" xlink:href="#m14f483d793" y="232.96116"/>
     <use style="fill:#0000ff;stroke:#0000ff;" x="215.890114" xlink:href="#m14f483d793" y="233.834753"/>
     <use style="fill:#0000ff;stroke:#0000ff;" x="214.436094" xlink:href="#m14f483d793" y="235.149481"/>
     <use style="fill:#0000ff;stroke:#0000ff;" x="213.465297" xlink:href="#m14f483d793" y="236.029163"/>
     <use style="fill:#0000ff;stroke:#0000ff;" x="212.010102" xlink:href="#m14f483d793" y="237.353423"/>
     <use style="fill:#0000ff;stroke:#0000ff;" x="211.041918" xlink:href="#m14f483d793" y="238.238342"/>
     <use style="fill:#0000ff;stroke:#0000ff;" x="209.592849" xlink:href="#m14f483d793" y="239.566987"/>
     <use style="fill:#0000ff;stroke:#0000ff;" x="208.628782" xlink:href="#m14f483d793" y="240.453863"/>
     <use style="fill:#0000ff;stroke:#0000ff;" x="207.186423" xlink:href="#m14f483d793" y="241.785921"/>
     <use style="fill:#0000ff;stroke:#0000ff;" x="206.227636" xlink:href="#m14f483d793" y="242.675097"/>
     <use style="fill:#0000ff;stroke:#0000ff;" x="205.27107" xlink:href="#m14f483d793" y="243.565318"/>
     <use style="fill:#0000ff;stroke:#0000ff;" x="204.317171" xlink:href="#m14f483d793" y="244.458165"/>
     <use style="fill:#0000ff;stroke:#0000ff;" x="202.417023" xlink:href="#m14f483d793" y="246.253615"/>
     <use style="fill:#0000ff;stroke:#0000ff;" x="201.470388" xlink:href="#m14f483d793" y="247.157872"/>
     <use style="fill:#0000ff;stroke:#0000ff;" x="200.053809" xlink:href="#m14f483d793" y="248.523369"/>
     <use style="fill:#0000ff;stroke:#0000ff;" x="199.110056" xlink:href="#m14f483d793" y="249.440136"/>
     <use style="fill:#0000ff;stroke:#0000ff;" x="197.693653" xlink:href="#m14f483d793" y="250.824498"/>
     <use style="fill:#0000ff;stroke:#0000ff;" x="196.749115" xlink:href="#m14f483d793" y="251.753445"/>
     <use style="fill:#0000ff;stroke:#0000ff;" x="195.333576" xlink:href="#m14f483d793" y="253.157367"/>
     <use style="fill:#0000ff;stroke:#0000ff;" x="194.391572" xlink:href="#m14f483d793" y="254.10139"/>
     <use style="fill:#0000ff;stroke:#0000ff;" x="192.981753" xlink:href="#m14f483d793" y="255.530237"/>
     <use style="fill:#0000ff;stroke:#0000ff;" x="192.043705" xlink:href="#m14f483d793" y="256.490497"/>
     <use style="fill:#0000ff;stroke:#0000ff;" x="190.638705" xlink:href="#m14f483d793" y="257.942159"/>
     <use style="fill:#0000ff;stroke:#0000ff;" x="189.703658" xlink:href="#m14f483d793" y="258.918199"/>
     <use style="fill:#0000ff;stroke:#0000ff;" x="188.770275" xlink:href="#m14f483d793" y="259.900488"/>
     <use style="fill:#0000ff;stroke:#0000ff;" x="187.373511" xlink:href="#m14f483d793" y="261.38654"/>
     <use style="fill:#0000ff;stroke:#0000ff;" x="185.98027" xlink:href="#m14f483d793" y="262.885889"/>
     <use style="fill:#0000ff;stroke:#0000ff;" x="185.052018" xlink:href="#m14f483d793" y="263.892915"/>
     <use style="fill:#0000ff;stroke:#0000ff;" x="183.659792" xlink:href="#m14f483d793" y="265.413688"/>
     <use style="fill:#0000ff;stroke:#0000ff;" x="182.733666" xlink:href="#m14f483d793" y="266.43502"/>
     <use style="fill:#0000ff;stroke:#0000ff;" x="181.810521" xlink:href="#m14f483d793" y="267.46311"/>
     <use style="fill:#0000ff;stroke:#0000ff;" x="180.435501" xlink:href="#m14f483d793" y="269.020166"/>
     <use style="fill:#0000ff;stroke:#0000ff;" x="179.070198" xlink:href="#m14f483d793" y="270.594169"/>
     <use style="fill:#0000ff;stroke:#0000ff;" x="178.16343" xlink:href="#m14f483d793" y="271.651345"/>
     <use style="fill:#0000ff;stroke:#0000ff;" x="176.808776" xlink:href="#m14f483d793" y="273.248762"/>
     <use style="fill:#0000ff;stroke:#0000ff;" x="175.908929" xlink:href="#m14f483d793" y="274.321861"/>
     <use style="fill:#0000ff;stroke:#0000ff;" x="174.563902" xlink:href="#m14f483d793" y="275.943134"/>
     <use style="fill:#0000ff;stroke:#0000ff;" x="173.670023" xlink:href="#m14f483d793" y="277.031057"/>
     <use style="fill:#0000ff;stroke:#0000ff;" x="172.331341" xlink:href="#m14f483d793" y="278.67264"/>
     <use style="fill:#0000ff;stroke:#0000ff;" x="171.439724" xlink:href="#m14f483d793" y="279.773581"/>
     <use style="fill:#0000ff;stroke:#0000ff;" x="170.104036" xlink:href="#m14f483d793" y="281.435044"/>
     <use style="fill:#0000ff;stroke:#0000ff;" x="169.214965" xlink:href="#m14f483d793" y="282.548913"/>
     <use style="fill:#0000ff;stroke:#0000ff;" x="167.882716" xlink:href="#m14f483d793" y="284.228698"/>
     <use style="fill:#0000ff;stroke:#0000ff;" x="166.994662" xlink:href="#m14f483d793" y="285.354572"/>
     <use style="fill:#0000ff;stroke:#0000ff;" x="166.10598" xlink:href="#m14f483d793" y="286.484492"/>
     <use style="fill:#0000ff;stroke:#0000ff;" x="164.771592" xlink:href="#m14f483d793" y="288.186749"/>
     <use style="fill:#0000ff;stroke:#0000ff;" x="163.434194" xlink:href="#m14f483d793" y="289.896696"/>
     <use style="fill:#0000ff;stroke:#0000ff;" x="162.539912" xlink:href="#m14f483d793" y="291.040915"/>
     <use style="fill:#0000ff;stroke:#0000ff;" x="161.19415" xlink:href="#m14f483d793" y="292.762082"/>
     <use style="fill:#0000ff;stroke:#0000ff;" x="160.294685" xlink:href="#m14f483d793" y="293.911206"/>
     <use style="fill:#0000ff;stroke:#0000ff;" x="159.393911" xlink:href="#m14f483d793" y="295.061459"/>
     <use style="fill:#0000ff;stroke:#0000ff;" x="158.492553" xlink:href="#m14f483d793" y="296.211406"/>
     <use style="fill:#0000ff;stroke:#0000ff;" x="156.687797" xlink:href="#m14f483d793" y="298.509258"/>
     <use style="fill:#0000ff;stroke:#0000ff;" x="155.782243" xlink:href="#m14f483d793" y="299.656993"/>
     <use style="fill:#0000ff;stroke:#0000ff;" x="154.417421" xlink:href="#m14f483d793" y="301.377694"/>
     <use style="fill:#0000ff;stroke:#0000ff;" x="153.502128" xlink:href="#m14f483d793" y="302.524544"/>
     <use style="fill:#0000ff;stroke:#0000ff;" x="152.120323" xlink:href="#m14f483d793" y="304.245"/>
     <use style="fill:#0000ff;stroke:#0000ff;" x="151.192758" xlink:href="#m14f483d793" y="305.392228"/>
     <use style="fill:#0000ff;stroke:#0000ff;" x="149.790008" xlink:href="#m14f483d793" y="307.112831"/>
     <use style="fill:#0000ff;stroke:#0000ff;" x="148.846153" xlink:href="#m14f483d793" y="308.259818"/>
     <use style="fill:#0000ff;stroke:#0000ff;" x="147.415104" xlink:href="#m14f483d793" y="309.979975"/>
     <use style="fill:#0000ff;stroke:#0000ff;" x="146.450069" xlink:href="#m14f483d793" y="311.126131"/>
     <use style="fill:#0000ff;stroke:#0000ff;" x="144.984845" xlink:href="#m14f483d793" y="312.844818"/>
     <use style="fill:#0000ff;stroke:#0000ff;" x="143.996675" xlink:href="#m14f483d793" y="313.990504"/>
     <use style="fill:#0000ff;stroke:#0000ff;" x="142.497815" xlink:href="#m14f483d793" y="315.708872"/>
     <use style="fill:#0000ff;stroke:#0000ff;" x="141.486245" xlink:href="#m14f483d793" y="316.853736"/>
     <use style="fill:#0000ff;stroke:#0000ff;" x="139.950422" xlink:href="#m14f483d793" y="318.569294"/>
     <use style="fill:#0000ff;stroke:#0000ff;" x="138.914557" xlink:href="#m14f483d793" y="319.712191"/>
     <use style="fill:#0000ff;stroke:#0000ff;" x="137.343031" xlink:href="#m14f483d793" y="321.425297"/>
     <use style="fill:#0000ff;stroke:#0000ff;" x="136.282955" xlink:href="#m14f483d793" y="322.566291"/>
     <use style="fill:#0000ff;stroke:#0000ff;" x="135.212688" xlink:href="#m14f483d793" y="323.706038"/>
     <use style="fill:#0000ff;stroke:#0000ff;" x="133.590845" xlink:href="#m14f483d793" y="325.413214"/>
     <use style="fill:#0000ff;stroke:#0000ff;" x="131.946743" xlink:href="#m14f483d793" y="327.117947"/>
     <use style="fill:#0000ff;stroke:#0000ff;" x="130.837803" xlink:href="#m14f483d793" y="328.252647"/>
     <use style="fill:#0000ff;stroke:#0000ff;" x="129.155189" xlink:href="#m14f483d793" y="329.952424"/>
     <use style="fill:#0000ff;stroke:#0000ff;" x="128.021027" xlink:href="#m14f483d793" y="331.084115"/>
     <use style="fill:#0000ff;stroke:#0000ff;" x="126.302821" xlink:href="#m14f483d793" y="332.780628"/>
     <use style="fill:#0000ff;stroke:#0000ff;" x="125.147174" xlink:href="#m14f483d793" y="333.911814"/>
     <use style="fill:#0000ff;stroke:#0000ff;" x="123.400365" xlink:href="#m14f483d793" y="335.609344"/>
     <use style="fill:#0000ff;stroke:#0000ff;" x="122.226998" xlink:href="#m14f483d793" y="336.741491"/>
     <use style="fill:#0000ff;stroke:#0000ff;" x="120.452629" xlink:href="#m14f483d793" y="338.439384"/>
     <use style="fill:#0000ff;stroke:#0000ff;" x="119.260028" xlink:href="#m14f483d793" y="339.571011"/>
     <use style="fill:#0000ff;stroke:#0000ff;" x="117.456967" xlink:href="#m14f483d793" y="341.268896"/>
     <use style="fill:#0000ff;stroke:#0000ff;" x="116.246214" xlink:href="#m14f483d793" y="342.401325"/>
     <use style="fill:#0000ff;stroke:#0000ff;" x="114.418073" xlink:href="#m14f483d793" y="344.100888"/>
     <use style="fill:#0000ff;stroke:#0000ff;" x="113.190791" xlink:href="#m14f483d793" y="345.234872"/>
     <use style="fill:#0000ff;stroke:#0000ff;" x="111.33818" xlink:href="#m14f483d793" y="346.939484"/>
     <use style="fill:#0000ff;stroke:#0000ff;" x="110.097958" xlink:href="#m14f483d793" y="348.078727"/>
     <use style="fill:#0000ff;stroke:#0000ff;" x="108.231132" xlink:href="#m14f483d793" y="349.793217"/>
     <use style="fill:#0000ff;stroke:#0000ff;" x="106.981441" xlink:href="#m14f483d793" y="350.939203"/>
     <use style="fill:#0000ff;stroke:#0000ff;" x="105.727496" xlink:href="#m14f483d793" y="352.087207"/>
     <use style="fill:#0000ff;stroke:#0000ff;" x="104.470862" xlink:href="#m14f483d793" y="353.237267"/>
     <use style="fill:#0000ff;stroke:#0000ff;" x="101.953844" xlink:href="#m14f483d793" y="355.548788"/>
     <use style="fill:#0000ff;stroke:#0000ff;" x="100.694522" xlink:href="#m14f483d793" y="356.711813"/>
     <use style="fill:#0000ff;stroke:#0000ff;" x="98.800744" xlink:href="#m14f483d793" y="358.463318"/>
     <use style="fill:#0000ff;stroke:#0000ff;" x="97.534335" xlink:href="#m14f483d793" y="359.634564"/>
     <use style="fill:#0000ff;stroke:#0000ff;" x="95.627122" xlink:href="#m14f483d793" y="361.395853"/>
     <use style="fill:#0000ff;stroke:#0000ff;" x="94.349669" xlink:href="#m14f483d793" y="362.572701"/>
     <use style="fill:#0000ff;stroke:#0000ff;" x="92.426776" xlink:href="#m14f483d793" y="364.343055"/>
     <use style="fill:#0000ff;stroke:#0000ff;" x="91.142343" xlink:href="#m14f483d793" y="365.527895"/>
    </g>
   </g>
   <g id="matplotlib.axis_1">
    <g id="xtick_1">
     <g id="line2d_1">
      <defs>
       <path d="M 0 0 
L 0 3.5 
" id="m4b33e77b7d" style="stroke:#000000;stroke-width:0.8;"/>
      </defs>
      <g>
       <use style="stroke:#000000;stroke-width:0.8;" x="156.96" xlink:href="#m4b33e77b7d" y="512.64"/>
      </g>
     </g>
     <g id="text_1">
      <!-- −760 -->
      <defs>
       <path d="M 10.59375 35.5 
L 73.1875 35.5 
L 73.1875 27.203125 
L 10.59375 27.203125 
z
" id="DejaVuSans-8722"/>
       <path d="M 8.203125 72.90625 
L 55.078125 72.90625 
L 55.078125 68.703125 
L 28.609375 0 
L 18.3125 0 
L 43.21875 64.59375 
L 8.203125 64.59375 
z
" id="DejaVuSans-55"/>
       <path d="M 33.015625 40.375 
Q 26.375 40.375 22.484375 35.828125 
Q 18.609375 31.296875 18.609375 23.390625 
Q 18.609375 15.53125 22.484375 10.953125 
Q 26.375 6.390625 33.015625 6.390625 
Q 39.65625 6.390625 43.53125 10.953125 
Q 47.40625 15.53125 47.40625 23.390625 
Q 47.40625 31.296875 43.53125 35.828125 
Q 39.65625 40.375 33.015625 40.375 
z
M 52.59375 71.296875 
L 52.59375 62.3125 
Q 48.875 64.0625 45.09375 64.984375 
Q 41.3125 65.921875 37.59375 65.921875 
Q 27.828125 65.921875 22.671875 59.328125 
Q 17.53125 52.734375 16.796875 39.40625 
Q 19.671875 43.65625 24.015625 45.921875 
Q 28.375 48.1875 33.59375 48.1875 
Q 44.578125 48.1875 50.953125 41.515625 
Q 57.328125 34.859375 57.328125 23.390625 
Q 57.328125 12.15625 50.6875 5.359375 
Q 44.046875 -1.421875 33.015625 -1.421875 
Q 20.359375 -1.421875 13.671875 8.265625 
Q 6.984375 17.96875 6.984375 36.375 
Q 6.984375 53.65625 15.1875 63.9375 
Q 23.390625 74.21875 37.203125 74.21875 
Q 40.921875 74.21875 44.703125 73.484375 
Q 48.484375 72.75 52.59375 71.296875 
z
" id="DejaVuSans-54"/>
       <path d="M 31.78125 66.40625 
Q 24.171875 66.40625 20.328125 58.90625 
Q 16.5 51.421875 16.5 36.375 
Q 16.5 21.390625 20.328125 13.890625 
Q 24.171875 6.390625 31.78125 6.390625 
Q 39.453125 6.390625 43.28125 13.890625 
Q 47.125 21.390625 47.125 36.375 
Q 47.125 51.421875 43.28125 58.90625 
Q 39.453125 66.40625 31.78125 66.40625 
z
M 31.78125 74.21875 
Q 44.046875 74.21875 50.515625 64.515625 
Q 56.984375 54.828125 56.984375 36.375 
Q 56.984375 17.96875 50.515625 8.265625 
Q 44.046875 -1.421875 31.78125 -1.421875 
Q 19.53125 -1.421875 13.0625 8.265625 
Q 6.59375 17.96875 6.59375 36.375 
Q 6.59375 54.828125 13.0625 64.515625 
Q 19.53125 74.21875 31.78125 74.21875 
z
" id="DejaVuSans-48"/>
      </defs>
      <g transform="translate(143.226406 527.238438)scale(0.1 -0.1)">
       <use xlink:href="#DejaVuSans-8722"/>
       <use x="83.789062" xlink:href="#DejaVuSans-55"/>
       <use x="147.412109" xlink:href="#DejaVuSans-54"/>
       <use x="211.035156" xlink:href="#DejaVuSans-48"/>
      </g>
     </g>
    </g>
    <g id="xtick_2">
     <g id="line2d_2">
      <g>
       <use style="stroke:#000000;stroke-width:0.8;" x="246.24" xlink:href="#m4b33e77b7d" y="512.64"/>
      </g>
     </g>
     <g id="text_2">
      <!-- −740 -->
      <defs>
       <path d="M 37.796875 64.3125 
L 12.890625 25.390625 
L 37.796875 25.390625 
z
M 35.203125 72.90625 
L 47.609375 72.90625 
L 47.609375 25.390625 
L 58.015625 25.390625 
L 58.015625 17.1875 
L 47.609375 17.1875 
L 47.609375 0 
L 37.796875 0 
L 37.796875 17.1875 
L 4.890625 17.1875 
L 4.890625 26.703125 
z
" id="DejaVuSans-52"/>
      </defs>
      <g transform="translate(232.506406 527.238438)scale(0.1 -0.1)">
       <use xlink:href="#DejaVuSans-8722"/>
       <use x="83.789062" xlink:href="#DejaVuSans-55"/>
       <use x="147.412109" xlink:href="#DejaVuSans-52"/>
       <use x="211.035156" xlink:href="#DejaVuSans-48"/>
      </g>
     </g>
    </g>
    <g id="xtick_3">
     <g id="line2d_3">
      <g>
       <use style="stroke:#000000;stroke-width:0.8;" x="335.52" xlink:href="#m4b33e77b7d" y="512.64"/>
      </g>
     </g>
     <g id="text_3">
      <!-- −720 -->
      <defs>
       <path d="M 19.1875 8.296875 
L 53.609375 8.296875 
L 53.609375 0 
L 7.328125 0 
L 7.328125 8.296875 
Q 12.9375 14.109375 22.625 23.890625 
Q 32.328125 33.6875 34.8125 36.53125 
Q 39.546875 41.84375 41.421875 45.53125 
Q 43.3125 49.21875 43.3125 52.78125 
Q 43.3125 58.59375 39.234375 62.25 
Q 35.15625 65.921875 28.609375 65.921875 
Q 23.96875 65.921875 18.8125 64.3125 
Q 13.671875 62.703125 7.8125 59.421875 
L 7.8125 69.390625 
Q 13.765625 71.78125 18.9375 73 
Q 24.125 74.21875 28.421875 74.21875 
Q 39.75 74.21875 46.484375 68.546875 
Q 53.21875 62.890625 53.21875 53.421875 
Q 53.21875 48.921875 51.53125 44.890625 
Q 49.859375 40.875 45.40625 35.40625 
Q 44.1875 33.984375 37.640625 27.21875 
Q 31.109375 20.453125 19.1875 8.296875 
z
" id="DejaVuSans-50"/>
      </defs>
      <g transform="translate(321.786406 527.238438)scale(0.1 -0.1)">
       <use xlink:href="#DejaVuSans-8722"/>
       <use x="83.789062" xlink:href="#DejaVuSans-55"/>
       <use x="147.412109" xlink:href="#DejaVuSans-50"/>
       <use x="211.035156" xlink:href="#DejaVuSans-48"/>
      </g>
     </g>
    </g>
    <g id="xtick_4">
     <g id="line2d_4">
      <g>
       <use style="stroke:#000000;stroke-width:0.8;" x="424.8" xlink:href="#m4b33e77b7d" y="512.64"/>
      </g>
     </g>
     <g id="text_4">
      <!-- −700 -->
      <g transform="translate(411.066406 527.238438)scale(0.1 -0.1)">
       <use xlink:href="#DejaVuSans-8722"/>
       <use x="83.789062" xlink:href="#DejaVuSans-55"/>
       <use x="147.412109" xlink:href="#DejaVuSans-48"/>
       <use x="211.035156" xlink:href="#DejaVuSans-48"/>
      </g>
     </g>
    </g>
    <g id="xtick_5">
     <g id="line2d_5">
      <g>
       <use style="stroke:#000000;stroke-width:0.8;" x="514.08" xlink:href="#m4b33e77b7d" y="512.64"/>
      </g>
     </g>
     <g id="text_5">
      <!-- −680 -->
      <defs>
       <path d="M 31.78125 34.625 
Q 24.75 34.625 20.71875 30.859375 
Q 16.703125 27.09375 16.703125 20.515625 
Q 16.703125 13.921875 20.71875 10.15625 
Q 24.75 6.390625 31.78125 6.390625 
Q 38.8125 6.390625 42.859375 10.171875 
Q 46.921875 13.96875 46.921875 20.515625 
Q 46.921875 27.09375 42.890625 30.859375 
Q 38.875 34.625 31.78125 34.625 
z
M 21.921875 38.8125 
Q 15.578125 40.375 12.03125 44.71875 
Q 8.5 49.078125 8.5 55.328125 
Q 8.5 64.0625 14.71875 69.140625 
Q 20.953125 74.21875 31.78125 74.21875 
Q 42.671875 74.21875 48.875 69.140625 
Q 55.078125 64.0625 55.078125 55.328125 
Q 55.078125 49.078125 51.53125 44.71875 
Q 48 40.375 41.703125 38.8125 
Q 48.828125 37.15625 52.796875 32.3125 
Q 56.78125 27.484375 56.78125 20.515625 
Q 56.78125 9.90625 50.3125 4.234375 
Q 43.84375 -1.421875 31.78125 -1.421875 
Q 19.734375 -1.421875 13.25 4.234375 
Q 6.78125 9.90625 6.78125 20.515625 
Q 6.78125 27.484375 10.78125 32.3125 
Q 14.796875 37.15625 21.921875 38.8125 
z
M 18.3125 54.390625 
Q 18.3125 48.734375 21.84375 45.5625 
Q 25.390625 42.390625 31.78125 42.390625 
Q 38.140625 42.390625 41.71875 45.5625 
Q 45.3125 48.734375 45.3125 54.390625 
Q 45.3125 60.0625 41.71875 63.234375 
Q 38.140625 66.40625 31.78125 66.40625 
Q 25.390625 66.40625 21.84375 63.234375 
Q 18.3125 60.0625 18.3125 54.390625 
z
" id="DejaVuSans-56"/>
      </defs>
      <g transform="translate(500.346406 527.238438)scale(0.1 -0.1)">
       <use xlink:href="#DejaVuSans-8722"/>
       <use x="83.789062" xlink:href="#DejaVuSans-54"/>
       <use x="147.412109" xlink:href="#DejaVuSans-56"/>
       <use x="211.035156" xlink:href="#DejaVuSans-48"/>
      </g>
     </g>
    </g>
    <g id="xtick_6">
     <g id="line2d_6">
      <g>
       <use style="stroke:#000000;stroke-width:0.8;" x="603.36" xlink:href="#m4b33e77b7d" y="512.64"/>
      </g>
     </g>
     <g id="text_6">
      <!-- −660 -->
      <g transform="translate(589.626406 527.238438)scale(0.1 -0.1)">
       <use xlink:href="#DejaVuSans-8722"/>
       <use x="83.789062" xlink:href="#DejaVuSans-54"/>
       <use x="147.412109" xlink:href="#DejaVuSans-54"/>
       <use x="211.035156" xlink:href="#DejaVuSans-48"/>
      </g>
     </g>
    </g>
    <g id="text_7">
     <!-- x (m) -->
     <defs>
      <path d="M 54.890625 54.6875 
L 35.109375 28.078125 
L 55.90625 0 
L 45.3125 0 
L 29.390625 21.484375 
L 13.484375 0 
L 2.875 0 
L 24.125 28.609375 
L 4.6875 54.6875 
L 15.28125 54.6875 
L 29.78125 35.203125 
L 44.28125 54.6875 
z
" id="DejaVuSans-120"/>
      <path id="DejaVuSans-32"/>
      <path d="M 31 75.875 
Q 24.46875 64.65625 21.28125 53.65625 
Q 18.109375 42.671875 18.109375 31.390625 
Q 18.109375 20.125 21.3125 9.0625 
Q 24.515625 -2 31 -13.1875 
L 23.1875 -13.1875 
Q 15.875 -1.703125 12.234375 9.375 
Q 8.59375 20.453125 8.59375 31.390625 
Q 8.59375 42.28125 12.203125 53.3125 
Q 15.828125 64.359375 23.1875 75.875 
z
" id="DejaVuSans-40"/>
      <path d="M 52 44.1875 
Q 55.375 50.25 60.0625 53.125 
Q 64.75 56 71.09375 56 
Q 79.640625 56 84.28125 50.015625 
Q 88.921875 44.046875 88.921875 33.015625 
L 88.921875 0 
L 79.890625 0 
L 79.890625 32.71875 
Q 79.890625 40.578125 77.09375 44.375 
Q 74.3125 48.1875 68.609375 48.1875 
Q 61.625 48.1875 57.5625 43.546875 
Q 53.515625 38.921875 53.515625 30.90625 
L 53.515625 0 
L 44.484375 0 
L 44.484375 32.71875 
Q 44.484375 40.625 41.703125 44.40625 
Q 38.921875 48.1875 33.109375 48.1875 
Q 26.21875 48.1875 22.15625 43.53125 
Q 18.109375 38.875 18.109375 30.90625 
L 18.109375 0 
L 9.078125 0 
L 9.078125 54.6875 
L 18.109375 54.6875 
L 18.109375 46.1875 
Q 21.1875 51.21875 25.484375 53.609375 
Q 29.78125 56 35.6875 56 
Q 41.65625 56 45.828125 52.96875 
Q 50 49.953125 52 44.1875 
z
" id="DejaVuSans-109"/>
      <path d="M 8.015625 75.875 
L 15.828125 75.875 
Q 23.140625 64.359375 26.78125 53.3125 
Q 30.421875 42.28125 30.421875 31.390625 
Q 30.421875 20.453125 26.78125 9.375 
Q 23.140625 -1.703125 15.828125 -13.1875 
L 8.015625 -13.1875 
Q 14.5 -2 17.703125 9.0625 
Q 20.90625 20.125 20.90625 31.390625 
Q 20.90625 42.671875 17.703125 53.65625 
Q 14.5 64.65625 8.015625 75.875 
z
" id="DejaVuSans-41"/>
     </defs>
     <g transform="translate(355.679688 540.916563)scale(0.1 -0.1)">
      <use xlink:href="#DejaVuSans-120"/>
      <use x="59.179688" xlink:href="#DejaVuSans-32"/>
      <use x="90.966797" xlink:href="#DejaVuSans-40"/>
      <use x="129.980469" xlink:href="#DejaVuSans-109"/>
      <use x="227.392578" xlink:href="#DejaVuSans-41"/>
     </g>
    </g>
   </g>
   <g id="matplotlib.axis_2">
    <g id="ytick_1">
     <g id="line2d_7">
      <defs>
       <path d="M 0 0 
L -3.5 0 
" id="mae5e0b036b" style="stroke:#000000;stroke-width:0.8;"/>
      </defs>
      <g>
       <use style="stroke:#000000;stroke-width:0.8;" x="90" xlink:href="#mae5e0b036b" y="512.64"/>
      </g>
     </g>
     <g id="text_8">
      <!-- 900 -->
      <defs>
       <path d="M 10.984375 1.515625 
L 10.984375 10.5 
Q 14.703125 8.734375 18.5 7.8125 
Q 22.3125 6.890625 25.984375 6.890625 
Q 35.75 6.890625 40.890625 13.453125 
Q 46.046875 20.015625 46.78125 33.40625 
Q 43.953125 29.203125 39.59375 26.953125 
Q 35.25 24.703125 29.984375 24.703125 
Q 19.046875 24.703125 12.671875 31.3125 
Q 6.296875 37.9375 6.296875 49.421875 
Q 6.296875 60.640625 12.9375 67.421875 
Q 19.578125 74.21875 30.609375 74.21875 
Q 43.265625 74.21875 49.921875 64.515625 
Q 56.59375 54.828125 56.59375 36.375 
Q 56.59375 19.140625 48.40625 8.859375 
Q 40.234375 -1.421875 26.421875 -1.421875 
Q 22.703125 -1.421875 18.890625 -0.6875 
Q 15.09375 0.046875 10.984375 1.515625 
z
M 30.609375 32.421875 
Q 37.25 32.421875 41.125 36.953125 
Q 45.015625 41.5 45.015625 49.421875 
Q 45.015625 57.28125 41.125 61.84375 
Q 37.25 66.40625 30.609375 66.40625 
Q 23.96875 66.40625 20.09375 61.84375 
Q 16.21875 57.28125 16.21875 49.421875 
Q 16.21875 41.5 20.09375 36.953125 
Q 23.96875 32.421875 30.609375 32.421875 
z
" id="DejaVuSans-57"/>
      </defs>
      <g transform="translate(63.9125 516.439219)scale(0.1 -0.1)">
       <use xlink:href="#DejaVuSans-57"/>
       <use x="63.623047" xlink:href="#DejaVuSans-48"/>
       <use x="127.246094" xlink:href="#DejaVuSans-48"/>
      </g>
     </g>
    </g>
    <g id="ytick_2">
     <g id="line2d_8">
      <g>
       <use style="stroke:#000000;stroke-width:0.8;" x="90" xlink:href="#mae5e0b036b" y="441.6768"/>
      </g>
     </g>
     <g id="text_9">
      <!-- 920 -->
      <g transform="translate(63.9125 445.476019)scale(0.1 -0.1)">
       <use xlink:href="#DejaVuSans-57"/>
       <use x="63.623047" xlink:href="#DejaVuSans-50"/>
       <use x="127.246094" xlink:href="#DejaVuSans-48"/>
      </g>
     </g>
    </g>
    <g id="ytick_3">
     <g id="line2d_9">
      <g>
       <use style="stroke:#000000;stroke-width:0.8;" x="90" xlink:href="#mae5e0b036b" y="370.7136"/>
      </g>
     </g>
     <g id="text_10">
      <!-- 940 -->
      <g transform="translate(63.9125 374.512819)scale(0.1 -0.1)">
       <use xlink:href="#DejaVuSans-57"/>
       <use x="63.623047" xlink:href="#DejaVuSans-52"/>
       <use x="127.246094" xlink:href="#DejaVuSans-48"/>
      </g>
     </g>
    </g>
    <g id="ytick_4">
     <g id="line2d_10">
      <g>
       <use style="stroke:#000000;stroke-width:0.8;" x="90" xlink:href="#mae5e0b036b" y="299.7504"/>
      </g>
     </g>
     <g id="text_11">
      <!-- 960 -->
      <g transform="translate(63.9125 303.549619)scale(0.1 -0.1)">
       <use xlink:href="#DejaVuSans-57"/>
       <use x="63.623047" xlink:href="#DejaVuSans-54"/>
       <use x="127.246094" xlink:href="#DejaVuSans-48"/>
      </g>
     </g>
    </g>
    <g id="ytick_5">
     <g id="line2d_11">
      <g>
       <use style="stroke:#000000;stroke-width:0.8;" x="90" xlink:href="#mae5e0b036b" y="228.7872"/>
      </g>
     </g>
     <g id="text_12">
      <!-- 980 -->
      <g transform="translate(63.9125 232.586419)scale(0.1 -0.1)">
       <use xlink:href="#DejaVuSans-57"/>
       <use x="63.623047" xlink:href="#DejaVuSans-56"/>
       <use x="127.246094" xlink:href="#DejaVuSans-48"/>
      </g>
     </g>
    </g>
    <g id="ytick_6">
     <g id="line2d_12">
      <g>
       <use style="stroke:#000000;stroke-width:0.8;" x="90" xlink:href="#mae5e0b036b" y="157.824"/>
      </g>
     </g>
     <g id="text_13">
      <!-- 1000 -->
      <defs>
       <path d="M 12.40625 8.296875 
L 28.515625 8.296875 
L 28.515625 63.921875 
L 10.984375 60.40625 
L 10.984375 69.390625 
L 28.421875 72.90625 
L 38.28125 72.90625 
L 38.28125 8.296875 
L 54.390625 8.296875 
L 54.390625 0 
L 12.40625 0 
z
" id="DejaVuSans-49"/>
      </defs>
      <g transform="translate(57.55 161.623219)scale(0.1 -0.1)">
       <use xlink:href="#DejaVuSans-49"/>
       <use x="63.623047" xlink:href="#DejaVuSans-48"/>
       <use x="127.246094" xlink:href="#DejaVuSans-48"/>
       <use x="190.869141" xlink:href="#DejaVuSans-48"/>
      </g>
     </g>
    </g>
    <g id="ytick_7">
     <g id="line2d_13">
      <g>
       <use style="stroke:#000000;stroke-width:0.8;" x="90" xlink:href="#mae5e0b036b" y="86.8608"/>
      </g>
     </g>
     <g id="text_14">
      <!-- 1020 -->
      <g transform="translate(57.55 90.660019)scale(0.1 -0.1)">
       <use xlink:href="#DejaVuSans-49"/>
       <use x="63.623047" xlink:href="#DejaVuSans-48"/>
       <use x="127.246094" xlink:href="#DejaVuSans-50"/>
       <use x="190.869141" xlink:href="#DejaVuSans-48"/>
      </g>
     </g>
    </g>
    <g id="text_15">
     <!-- y (m) -->
     <defs>
      <path d="M 32.171875 -5.078125 
Q 28.375 -14.84375 24.75 -17.8125 
Q 21.140625 -20.796875 15.09375 -20.796875 
L 7.90625 -20.796875 
L 7.90625 -13.28125 
L 13.1875 -13.28125 
Q 16.890625 -13.28125 18.9375 -11.515625 
Q 21 -9.765625 23.484375 -3.21875 
L 25.09375 0.875 
L 2.984375 54.6875 
L 12.5 54.6875 
L 29.59375 11.921875 
L 46.6875 54.6875 
L 56.203125 54.6875 
z
" id="DejaVuSans-121"/>
     </defs>
     <g transform="translate(51.470312 304.200312)rotate(-90)scale(0.1 -0.1)">
      <use xlink:href="#DejaVuSans-121"/>
      <use x="59.179688" xlink:href="#DejaVuSans-32"/>
      <use x="90.966797" xlink:href="#DejaVuSans-40"/>
      <use x="129.980469" xlink:href="#DejaVuSans-109"/>
      <use x="227.392578" xlink:href="#DejaVuSans-41"/>
     </g>
    </g>
   </g>
   <g id="line2d_14">
    <path clip-path="url(#pdc5e1158bf)" d="M 721 406.000397 
L 695.354812 388.516211 
L 610.65839 330.760499 
L 549.639562 289.207254 
L 479.933294 242.080509 
L 445.977464 219.055829 
L 435.657912 212.289594 
L 426.896424 206.830608 
L 419.721605 202.657087 
L 414.21892 199.678274 
L 408.598905 196.855694 
L 402.854203 194.211077 
L 396.98184 191.762578 
L 390.983497 189.523123 
L 384.865551 187.49938 
L 378.63846 185.692198 
L 372.315419 184.098636 
L 365.910728 182.714734 
L 359.438506 181.538121 
L 352.912184 180.570026 
L 346.344647 179.816357 
L 339.748836 179.287926 
L 333.138591 178.999679 
L 326.52966 178.969124 
L 319.940738 179.21467 
L 313.394381 179.754481 
L 306.917376 180.605941 
L 302.652784 181.354724 
L 298.441928 182.253285 
L 294.29418 183.304741 
L 290.218354 184.510777 
L 286.222289 185.871227 
L 282.312524 187.383796 
L 278.49413 189.044051 
L 274.770652 190.845631 
L 271.144123 192.780639 
L 267.61504 194.840072 
L 262.501081 198.141008 
L 257.591234 201.66441 
L 252.862349 205.371889 
L 248.280487 209.222065 
L 242.328433 214.504002 
L 226.231953 229.2859 
L 208.738543 245.395166 
L 201.6562 252.219079 
L 194.7888 259.173969 
L 189.468248 264.845411 
L 184.304674 270.614818 
L 178.058253 277.95679 
L 172.002135 285.418336 
L 151.604598 310.923396 
L 145.280053 318.22914 
L 140.046743 323.968187 
L 133.287949 331.009947 
L 126.313416 337.920568 
L 117.732472 346.084966 
L 100.295818 362.24857 
L 80.031767 381.156452 
L 41.037072 417.673064 
L 14.799808 441.878209 
L 9.213196 447.39359 
L 3.838939 453.028083 
L -1 458.460011 
L -1 458.460011 
" style="fill:none;stroke:#008000;stroke-linecap:square;stroke-width:1.5;"/>
   </g>
   <g id="patch_3">
    <path d="M 90 512.64 
L 90 69.12 
" style="fill:none;stroke:#000000;stroke-linecap:square;stroke-linejoin:miter;stroke-width:0.8;"/>
   </g>
   <g id="patch_4">
    <path d="M 648 512.64 
L 648 69.12 
" style="fill:none;stroke:#000000;stroke-linecap:square;stroke-linejoin:miter;stroke-width:0.8;"/>
   </g>
   <g id="patch_5">
    <path d="M 90 512.64 
L 648 512.64 
" style="fill:none;stroke:#000000;stroke-linecap:square;stroke-linejoin:miter;stroke-width:0.8;"/>
   </g>
   <g id="patch_6">
    <path d="M 90 69.12 
L 648 69.12 
" style="fill:none;stroke:#000000;stroke-linecap:square;stroke-linejoin:miter;stroke-width:0.8;"/>
   </g>
   <g id="text_16">
    <!-- Vehicle Data vs Ground Truth Path -->
    <defs>
     <path d="M 28.609375 0 
L 0.78125 72.90625 
L 11.078125 72.90625 
L 34.1875 11.53125 
L 57.328125 72.90625 
L 67.578125 72.90625 
L 39.796875 0 
z
" id="DejaVuSans-86"/>
     <path d="M 56.203125 29.59375 
L 56.203125 25.203125 
L 14.890625 25.203125 
Q 15.484375 15.921875 20.484375 11.0625 
Q 25.484375 6.203125 34.421875 6.203125 
Q 39.59375 6.203125 44.453125 7.46875 
Q 49.3125 8.734375 54.109375 11.28125 
L 54.109375 2.78125 
Q 49.265625 0.734375 44.1875 -0.34375 
Q 39.109375 -1.421875 33.890625 -1.421875 
Q 20.796875 -1.421875 13.15625 6.1875 
Q 5.515625 13.8125 5.515625 26.8125 
Q 5.515625 40.234375 12.765625 48.109375 
Q 20.015625 56 32.328125 56 
Q 43.359375 56 49.78125 48.890625 
Q 56.203125 41.796875 56.203125 29.59375 
z
M 47.21875 32.234375 
Q 47.125 39.59375 43.09375 43.984375 
Q 39.0625 48.390625 32.421875 48.390625 
Q 24.90625 48.390625 20.390625 44.140625 
Q 15.875 39.890625 15.1875 32.171875 
z
" id="DejaVuSans-101"/>
     <path d="M 54.890625 33.015625 
L 54.890625 0 
L 45.90625 0 
L 45.90625 32.71875 
Q 45.90625 40.484375 42.875 44.328125 
Q 39.84375 48.1875 33.796875 48.1875 
Q 26.515625 48.1875 22.3125 43.546875 
Q 18.109375 38.921875 18.109375 30.90625 
L 18.109375 0 
L 9.078125 0 
L 9.078125 75.984375 
L 18.109375 75.984375 
L 18.109375 46.1875 
Q 21.34375 51.125 25.703125 53.5625 
Q 30.078125 56 35.796875 56 
Q 45.21875 56 50.046875 50.171875 
Q 54.890625 44.34375 54.890625 33.015625 
z
" id="DejaVuSans-104"/>
     <path d="M 9.421875 54.6875 
L 18.40625 54.6875 
L 18.40625 0 
L 9.421875 0 
z
M 9.421875 75.984375 
L 18.40625 75.984375 
L 18.40625 64.59375 
L 9.421875 64.59375 
z
" id="DejaVuSans-105"/>
     <path d="M 48.78125 52.59375 
L 48.78125 44.1875 
Q 44.96875 46.296875 41.140625 47.34375 
Q 37.3125 48.390625 33.40625 48.390625 
Q 24.65625 48.390625 19.8125 42.84375 
Q 14.984375 37.3125 14.984375 27.296875 
Q 14.984375 17.28125 19.8125 11.734375 
Q 24.65625 6.203125 33.40625 6.203125 
Q 37.3125 6.203125 41.140625 7.25 
Q 44.96875 8.296875 48.78125 10.40625 
L 48.78125 2.09375 
Q 45.015625 0.34375 40.984375 -0.53125 
Q 36.96875 -1.421875 32.421875 -1.421875 
Q 20.0625 -1.421875 12.78125 6.34375 
Q 5.515625 14.109375 5.515625 27.296875 
Q 5.515625 40.671875 12.859375 48.328125 
Q 20.21875 56 33.015625 56 
Q 37.15625 56 41.109375 55.140625 
Q 45.0625 54.296875 48.78125 52.59375 
z
" id="DejaVuSans-99"/>
     <path d="M 9.421875 75.984375 
L 18.40625 75.984375 
L 18.40625 0 
L 9.421875 0 
z
" id="DejaVuSans-108"/>
     <path d="M 19.671875 64.796875 
L 19.671875 8.109375 
L 31.59375 8.109375 
Q 46.6875 8.109375 53.6875 14.9375 
Q 60.6875 21.78125 60.6875 36.53125 
Q 60.6875 51.171875 53.6875 57.984375 
Q 46.6875 64.796875 31.59375 64.796875 
z
M 9.8125 72.90625 
L 30.078125 72.90625 
Q 51.265625 72.90625 61.171875 64.09375 
Q 71.09375 55.28125 71.09375 36.53125 
Q 71.09375 17.671875 61.125 8.828125 
Q 51.171875 0 30.078125 0 
L 9.8125 0 
z
" id="DejaVuSans-68"/>
     <path d="M 34.28125 27.484375 
Q 23.390625 27.484375 19.1875 25 
Q 14.984375 22.515625 14.984375 16.5 
Q 14.984375 11.71875 18.140625 8.90625 
Q 21.296875 6.109375 26.703125 6.109375 
Q 34.1875 6.109375 38.703125 11.40625 
Q 43.21875 16.703125 43.21875 25.484375 
L 43.21875 27.484375 
z
M 52.203125 31.203125 
L 52.203125 0 
L 43.21875 0 
L 43.21875 8.296875 
Q 40.140625 3.328125 35.546875 0.953125 
Q 30.953125 -1.421875 24.3125 -1.421875 
Q 15.921875 -1.421875 10.953125 3.296875 
Q 6 8.015625 6 15.921875 
Q 6 25.140625 12.171875 29.828125 
Q 18.359375 34.515625 30.609375 34.515625 
L 43.21875 34.515625 
L 43.21875 35.40625 
Q 43.21875 41.609375 39.140625 45 
Q 35.0625 48.390625 27.6875 48.390625 
Q 23 48.390625 18.546875 47.265625 
Q 14.109375 46.140625 10.015625 43.890625 
L 10.015625 52.203125 
Q 14.9375 54.109375 19.578125 55.046875 
Q 24.21875 56 28.609375 56 
Q 40.484375 56 46.34375 49.84375 
Q 52.203125 43.703125 52.203125 31.203125 
z
" id="DejaVuSans-97"/>
     <path d="M 18.3125 70.21875 
L 18.3125 54.6875 
L 36.8125 54.6875 
L 36.8125 47.703125 
L 18.3125 47.703125 
L 18.3125 18.015625 
Q 18.3125 11.328125 20.140625 9.421875 
Q 21.96875 7.515625 27.59375 7.515625 
L 36.8125 7.515625 
L 36.8125 0 
L 27.59375 0 
Q 17.1875 0 13.234375 3.875 
Q 9.28125 7.765625 9.28125 18.015625 
L 9.28125 47.703125 
L 2.6875 47.703125 
L 2.6875 54.6875 
L 9.28125 54.6875 
L 9.28125 70.21875 
z
" id="DejaVuSans-116"/>
     <path d="M 2.984375 54.6875 
L 12.5 54.6875 
L 29.59375 8.796875 
L 46.6875 54.6875 
L 56.203125 54.6875 
L 35.6875 0 
L 23.484375 0 
z
" id="DejaVuSans-118"/>
     <path d="M 44.28125 53.078125 
L 44.28125 44.578125 
Q 40.484375 46.53125 36.375 47.5 
Q 32.28125 48.484375 27.875 48.484375 
Q 21.1875 48.484375 17.84375 46.4375 
Q 14.5 44.390625 14.5 40.28125 
Q 14.5 37.15625 16.890625 35.375 
Q 19.28125 33.59375 26.515625 31.984375 
L 29.59375 31.296875 
Q 39.15625 29.25 43.1875 25.515625 
Q 47.21875 21.78125 47.21875 15.09375 
Q 47.21875 7.46875 41.1875 3.015625 
Q 35.15625 -1.421875 24.609375 -1.421875 
Q 20.21875 -1.421875 15.453125 -0.5625 
Q 10.6875 0.296875 5.421875 2 
L 5.421875 11.28125 
Q 10.40625 8.6875 15.234375 7.390625 
Q 20.0625 6.109375 24.8125 6.109375 
Q 31.15625 6.109375 34.5625 8.28125 
Q 37.984375 10.453125 37.984375 14.40625 
Q 37.984375 18.0625 35.515625 20.015625 
Q 33.0625 21.96875 24.703125 23.78125 
L 21.578125 24.515625 
Q 13.234375 26.265625 9.515625 29.90625 
Q 5.8125 33.546875 5.8125 39.890625 
Q 5.8125 47.609375 11.28125 51.796875 
Q 16.75 56 26.8125 56 
Q 31.78125 56 36.171875 55.265625 
Q 40.578125 54.546875 44.28125 53.078125 
z
" id="DejaVuSans-115"/>
     <path d="M 59.515625 10.40625 
L 59.515625 29.984375 
L 43.40625 29.984375 
L 43.40625 38.09375 
L 69.28125 38.09375 
L 69.28125 6.78125 
Q 63.578125 2.734375 56.6875 0.65625 
Q 49.8125 -1.421875 42 -1.421875 
Q 24.90625 -1.421875 15.25 8.5625 
Q 5.609375 18.5625 5.609375 36.375 
Q 5.609375 54.25 15.25 64.234375 
Q 24.90625 74.21875 42 74.21875 
Q 49.125 74.21875 55.546875 72.453125 
Q 61.96875 70.703125 67.390625 67.28125 
L 67.390625 56.78125 
Q 61.921875 61.421875 55.765625 63.765625 
Q 49.609375 66.109375 42.828125 66.109375 
Q 29.4375 66.109375 22.71875 58.640625 
Q 16.015625 51.171875 16.015625 36.375 
Q 16.015625 21.625 22.71875 14.15625 
Q 29.4375 6.6875 42.828125 6.6875 
Q 48.046875 6.6875 52.140625 7.59375 
Q 56.25 8.5 59.515625 10.40625 
z
" id="DejaVuSans-71"/>
     <path d="M 41.109375 46.296875 
Q 39.59375 47.171875 37.8125 47.578125 
Q 36.03125 48 33.890625 48 
Q 26.265625 48 22.1875 43.046875 
Q 18.109375 38.09375 18.109375 28.8125 
L 18.109375 0 
L 9.078125 0 
L 9.078125 54.6875 
L 18.109375 54.6875 
L 18.109375 46.1875 
Q 20.953125 51.171875 25.484375 53.578125 
Q 30.03125 56 36.53125 56 
Q 37.453125 56 38.578125 55.875 
Q 39.703125 55.765625 41.0625 55.515625 
z
" id="DejaVuSans-114"/>
     <path d="M 30.609375 48.390625 
Q 23.390625 48.390625 19.1875 42.75 
Q 14.984375 37.109375 14.984375 27.296875 
Q 14.984375 17.484375 19.15625 11.84375 
Q 23.34375 6.203125 30.609375 6.203125 
Q 37.796875 6.203125 41.984375 11.859375 
Q 46.1875 17.53125 46.1875 27.296875 
Q 46.1875 37.015625 41.984375 42.703125 
Q 37.796875 48.390625 30.609375 48.390625 
z
M 30.609375 56 
Q 42.328125 56 49.015625 48.375 
Q 55.71875 40.765625 55.71875 27.296875 
Q 55.71875 13.875 49.015625 6.21875 
Q 42.328125 -1.421875 30.609375 -1.421875 
Q 18.84375 -1.421875 12.171875 6.21875 
Q 5.515625 13.875 5.515625 27.296875 
Q 5.515625 40.765625 12.171875 48.375 
Q 18.84375 56 30.609375 56 
z
" id="DejaVuSans-111"/>
     <path d="M 8.5 21.578125 
L 8.5 54.6875 
L 17.484375 54.6875 
L 17.484375 21.921875 
Q 17.484375 14.15625 20.5 10.265625 
Q 23.53125 6.390625 29.59375 6.390625 
Q 36.859375 6.390625 41.078125 11.03125 
Q 45.3125 15.671875 45.3125 23.6875 
L 45.3125 54.6875 
L 54.296875 54.6875 
L 54.296875 0 
L 45.3125 0 
L 45.3125 8.40625 
Q 42.046875 3.421875 37.71875 1 
Q 33.40625 -1.421875 27.6875 -1.421875 
Q 18.265625 -1.421875 13.375 4.4375 
Q 8.5 10.296875 8.5 21.578125 
z
M 31.109375 56 
z
" id="DejaVuSans-117"/>
     <path d="M 54.890625 33.015625 
L 54.890625 0 
L 45.90625 0 
L 45.90625 32.71875 
Q 45.90625 40.484375 42.875 44.328125 
Q 39.84375 48.1875 33.796875 48.1875 
Q 26.515625 48.1875 22.3125 43.546875 
Q 18.109375 38.921875 18.109375 30.90625 
L 18.109375 0 
L 9.078125 0 
L 9.078125 54.6875 
L 18.109375 54.6875 
L 18.109375 46.1875 
Q 21.34375 51.125 25.703125 53.5625 
Q 30.078125 56 35.796875 56 
Q 45.21875 56 50.046875 50.171875 
Q 54.890625 44.34375 54.890625 33.015625 
z
" id="DejaVuSans-110"/>
     <path d="M 45.40625 46.390625 
L 45.40625 75.984375 
L 54.390625 75.984375 
L 54.390625 0 
L 45.40625 0 
L 45.40625 8.203125 
Q 42.578125 3.328125 38.25 0.953125 
Q 33.9375 -1.421875 27.875 -1.421875 
Q 17.96875 -1.421875 11.734375 6.484375 
Q 5.515625 14.40625 5.515625 27.296875 
Q 5.515625 40.1875 11.734375 48.09375 
Q 17.96875 56 27.875 56 
Q 33.9375 56 38.25 53.625 
Q 42.578125 51.265625 45.40625 46.390625 
z
M 14.796875 27.296875 
Q 14.796875 17.390625 18.875 11.75 
Q 22.953125 6.109375 30.078125 6.109375 
Q 37.203125 6.109375 41.296875 11.75 
Q 45.40625 17.390625 45.40625 27.296875 
Q 45.40625 37.203125 41.296875 42.84375 
Q 37.203125 48.484375 30.078125 48.484375 
Q 22.953125 48.484375 18.875 42.84375 
Q 14.796875 37.203125 14.796875 27.296875 
z
" id="DejaVuSans-100"/>
     <path d="M -0.296875 72.90625 
L 61.375 72.90625 
L 61.375 64.59375 
L 35.5 64.59375 
L 35.5 0 
L 25.59375 0 
L 25.59375 64.59375 
L -0.296875 64.59375 
z
" id="DejaVuSans-84"/>
     <path d="M 19.671875 64.796875 
L 19.671875 37.40625 
L 32.078125 37.40625 
Q 38.96875 37.40625 42.71875 40.96875 
Q 46.484375 44.53125 46.484375 51.125 
Q 46.484375 57.671875 42.71875 61.234375 
Q 38.96875 64.796875 32.078125 64.796875 
z
M 9.8125 72.90625 
L 32.078125 72.90625 
Q 44.34375 72.90625 50.609375 67.359375 
Q 56.890625 61.8125 56.890625 51.125 
Q 56.890625 40.328125 50.609375 34.8125 
Q 44.34375 29.296875 32.078125 29.296875 
L 19.671875 29.296875 
L 19.671875 0 
L 9.8125 0 
z
" id="DejaVuSans-80"/>
    </defs>
    <g transform="translate(264.825938 63.12)scale(0.12 -0.12)">
     <use xlink:href="#DejaVuSans-86"/>
     <use x="68.298828" xlink:href="#DejaVuSans-101"/>
     <use x="129.822266" xlink:href="#DejaVuSans-104"/>
     <use x="193.201172" xlink:href="#DejaVuSans-105"/>
     <use x="220.984375" xlink:href="#DejaVuSans-99"/>
     <use x="275.964844" xlink:href="#DejaVuSans-108"/>
     <use x="303.748047" xlink:href="#DejaVuSans-101"/>
     <use x="365.271484" xlink:href="#DejaVuSans-32"/>
     <use x="397.058594" xlink:href="#DejaVuSans-68"/>
     <use x="474.060547" xlink:href="#DejaVuSans-97"/>
     <use x="535.339844" xlink:href="#DejaVuSans-116"/>
     <use x="574.548828" xlink:href="#DejaVuSans-97"/>
     <use x="635.828125" xlink:href="#DejaVuSans-32"/>
     <use x="667.615234" xlink:href="#DejaVuSans-118"/>
     <use x="726.794922" xlink:href="#DejaVuSans-115"/>
     <use x="778.894531" xlink:href="#DejaVuSans-32"/>
     <use x="810.681641" xlink:href="#DejaVuSans-71"/>
     <use x="888.171875" xlink:href="#DejaVuSans-114"/>
     <use x="929.253906" xlink:href="#DejaVuSans-111"/>
     <use x="990.435547" xlink:href="#DejaVuSans-117"/>
     <use x="1053.814453" xlink:href="#DejaVuSans-110"/>
     <use x="1117.193359" xlink:href="#DejaVuSans-100"/>
     <use x="1180.669922" xlink:href="#DejaVuSans-32"/>
     <use x="1212.457031" xlink:href="#DejaVuSans-84"/>
     <use x="1273.322266" xlink:href="#DejaVuSans-114"/>
     <use x="1314.435547" xlink:href="#DejaVuSans-117"/>
     <use x="1377.814453" xlink:href="#DejaVuSans-116"/>
     <use x="1417.023438" xlink:href="#DejaVuSans-104"/>
     <use x="1480.402344" xlink:href="#DejaVuSans-32"/>
     <use x="1512.189453" xlink:href="#DejaVuSans-80"/>
     <use x="1572.429688" xlink:href="#DejaVuSans-97"/>
     <use x="1633.708984" xlink:href="#DejaVuSans-116"/>
     <use x="1672.917969" xlink:href="#DejaVuSans-104"/>
    </g>
   </g>
   <g id="legend_1">
    <g id="patch_7">
     <path d="M 542.03125 106.47625 
L 641 106.47625 
Q 643 106.47625 643 104.47625 
L 643 76.12 
Q 643 74.12 641 74.12 
L 542.03125 74.12 
Q 540.03125 74.12 540.03125 76.12 
L 540.03125 104.47625 
Q 540.03125 106.47625 542.03125 106.47625 
z
" style="fill:#ffffff;opacity:0.8;stroke:#cccccc;stroke-linejoin:miter;"/>
    </g>
    <g id="line2d_15">
     <path d="M 544.03125 82.218438 
L 564.03125 82.218438 
" style="fill:none;stroke:#008000;stroke-linecap:square;stroke-width:1.5;"/>
    </g>
    <g id="line2d_16"/>
    <g id="text_17">
     <!-- Ground Truth -->
     <g transform="translate(572.03125 85.718438)scale(0.1 -0.1)">
      <use xlink:href="#DejaVuSans-71"/>
      <use x="77.490234" xlink:href="#DejaVuSans-114"/>
      <use x="118.572266" xlink:href="#DejaVuSans-111"/>
      <use x="179.753906" xlink:href="#DejaVuSans-117"/>
      <use x="243.132812" xlink:href="#DejaVuSans-110"/>
      <use x="306.511719" xlink:href="#DejaVuSans-100"/>
      <use x="369.988281" xlink:href="#DejaVuSans-32"/>
      <use x="401.775391" xlink:href="#DejaVuSans-84"/>
      <use x="462.640625" xlink:href="#DejaVuSans-114"/>
      <use x="503.753906" xlink:href="#DejaVuSans-117"/>
      <use x="567.132812" xlink:href="#DejaVuSans-116"/>
      <use x="606.341797" xlink:href="#DejaVuSans-104"/>
     </g>
    </g>
    <g id="PathCollection_2">
     <g>
      <use style="fill:#0000ff;stroke:#0000ff;" x="554.03125" xlink:href="#m14f483d793" y="97.771563"/>
     </g>
    </g>
    <g id="text_18">
     <!-- Vehicle -->
     <g transform="translate(572.03125 100.396563)scale(0.1 -0.1)">
      <use xlink:href="#DejaVuSans-86"/>
      <use x="68.298828" xlink:href="#DejaVuSans-101"/>
      <use x="129.822266" xlink:href="#DejaVuSans-104"/>
      <use x="193.201172" xlink:href="#DejaVuSans-105"/>
      <use x="220.984375" xlink:href="#DejaVuSans-99"/>
      <use x="275.964844" xlink:href="#DejaVuSans-108"/>
      <use x="303.748047" xlink:href="#DejaVuSans-101"/>
     </g>
    </g>
   </g>
  </g>
 </g>
 <defs>
  <clipPath id="pdc5e1158bf">
   <rect height="443.52" width="558" x="90" y="69.12"/>
  </clipPath>
 </defs>
</svg>
