<?xml version="1.0" encoding="utf-8" standalone="no"?>
<!DOCTYPE svg PUBLIC "-//W3C//DTD SVG 1.1//EN"
  "http://www.w3.org/Graphics/SVG/1.1/DTD/svg11.dtd">
<!-- Created with matplotlib (https://matplotlib.org/) -->
<svg height="576pt" version="1.1" viewBox="0 0 720 576" width="720pt" xmlns="http://www.w3.org/2000/svg" xmlns:xlink="http://www.w3.org/1999/xlink">
 <defs>
  <style type="text/css">
*{stroke-linecap:butt;stroke-linejoin:round;}
  </style>
 </defs>
 <g id="figure_1">
  <g id="patch_1">
   <path d="M 0 576 
L 720 576 
L 720 0 
L 0 0 
z
" style="fill:#ffffff;"/>
  </g>
  <g id="axes_1">
   <g id="patch_2">
    <path d="M 90 512.64 
L 648 512.64 
L 648 69.12 
L 90 69.12 
z
" style="fill:#ffffff;"/>
   </g>
   <g id="PathCollection_1">
    <defs>
     <path d="M 0 0.707107 
C 0.187527 0.707107 0.367398 0.632602 0.5 0.5 
C 0.632602 0.367398 0.707107 0.187527 0.707107 0 
C 0.707107 -0.187527 0.632602 -0.367398 0.5 -0.5 
C 0.367398 -0.632602 0.187527 -0.707107 0 -0.707107 
C -0.187527 -0.707107 -0.367398 -0.632602 -0.5 -0.5 
C -0.632602 -0.367398 -0.707107 -0.187527 -0.707107 0 
C -0.707107 0.187527 -0.632602 0.367398 -0.5 0.5 
C -0.367398 0.632602 -0.187527 0.707107 0 0.707107 
z
" id="m475be8f9d1" style="stroke:#0000ff;"/>
    </defs>
    <g clip-path="url(#p8d71bf730b)">
     <use style="fill:#0000ff;stroke:#0000ff;" x="124.256814" xlink:href="#m475be8f9d1" y="70.664663"/>
     <use style="fill:#0000ff;stroke:#0000ff;" x="125.595925" xlink:href="#m475be8f9d1" y="75.322745"/>
     <use style="fill:#0000ff;stroke:#0000ff;" x="126.930282" xlink:href="#m475be8f9d1" y="79.977194"/>
     <use style="fill:#0000ff;stroke:#0000ff;" x="128.260114" xlink:href="#m475be8f9d1" y="84.627133"/>
     <use style="fill:#0000ff;stroke:#0000ff;" x="130.908467" xlink:href="#m475be8f9d1" y="93.911466"/>
     <use style="fill:#0000ff;stroke:#0000ff;" x="132.227421" xlink:href="#m475be8f9d1" y="98.546212"/>
     <use style="fill:#0000ff;stroke:#0000ff;" x="134.198345" xlink:href="#m475be8f9d1" y="105.493605"/>
     <use style="fill:#0000ff;stroke:#0000ff;" x="135.507852" xlink:href="#m475be8f9d1" y="110.119271"/>
     <use style="fill:#0000ff;stroke:#0000ff;" x="137.466737" xlink:href="#m475be8f9d1" y="117.048112"/>
     <use style="fill:#0000ff;stroke:#0000ff;" x="139.418155" xlink:href="#m475be8f9d1" y="123.966729"/>
     <use style="fill:#0000ff;stroke:#0000ff;" x="140.715339" xlink:href="#m475be8f9d1" y="128.573471"/>
     <use style="fill:#0000ff;stroke:#0000ff;" x="142.008793" xlink:href="#m475be8f9d1" y="133.175444"/>
     <use style="fill:#0000ff;stroke:#0000ff;" x="143.942161" xlink:href="#m475be8f9d1" y="140.071186"/>
     <use style="fill:#0000ff;stroke:#0000ff;" x="145.867613" xlink:href="#m475be8f9d1" y="146.957618"/>
     <use style="fill:#0000ff;stroke:#0000ff;" x="147.146364" xlink:href="#m475be8f9d1" y="151.544092"/>
     <use style="fill:#0000ff;stroke:#0000ff;" x="148.421451" xlink:href="#m475be8f9d1" y="156.126256"/>
     <use style="fill:#0000ff;stroke:#0000ff;" x="150.32852" xlink:href="#m475be8f9d1" y="162.988061"/>
     <use style="fill:#0000ff;stroke:#0000ff;" x="152.228937" xlink:href="#m475be8f9d1" y="169.838346"/>
     <use style="fill:#0000ff;stroke:#0000ff;" x="153.492396" xlink:href="#m475be8f9d1" y="174.398017"/>
     <use style="fill:#0000ff;stroke:#0000ff;" x="154.753499" xlink:href="#m475be8f9d1" y="178.951684"/>
     <use style="fill:#0000ff;stroke:#0000ff;" x="156.640465" xlink:href="#m475be8f9d1" y="185.770643"/>
     <use style="fill:#0000ff;stroke:#0000ff;" x="157.895187" xlink:href="#m475be8f9d1" y="190.309637"/>
     <use style="fill:#0000ff;stroke:#0000ff;" x="159.147725" xlink:href="#m475be8f9d1" y="194.842508"/>
     <use style="fill:#0000ff;stroke:#0000ff;" x="160.397328" xlink:href="#m475be8f9d1" y="199.367925"/>
     <use style="fill:#0000ff;stroke:#0000ff;" x="162.886896" xlink:href="#m475be8f9d1" y="208.399338"/>
     <use style="fill:#0000ff;stroke:#0000ff;" x="164.126874" xlink:href="#m475be8f9d1" y="212.905396"/>
     <use style="fill:#0000ff;stroke:#0000ff;" x="165.98174" xlink:href="#m475be8f9d1" y="219.649119"/>
     <use style="fill:#0000ff;stroke:#0000ff;" x="167.216166" xlink:href="#m475be8f9d1" y="224.12856"/>
     <use style="fill:#0000ff;stroke:#0000ff;" x="169.067353" xlink:href="#m475be8f9d1" y="230.8138"/>
     <use style="fill:#0000ff;stroke:#0000ff;" x="170.917369" xlink:href="#m475be8f9d1" y="237.458822"/>
     <use style="fill:#0000ff;stroke:#0000ff;" x="172.148908" xlink:href="#m475be8f9d1" y="241.866527"/>
     <use style="fill:#0000ff;stroke:#0000ff;" x="173.378194" xlink:href="#m475be8f9d1" y="246.258607"/>
     <use style="fill:#0000ff;stroke:#0000ff;" x="175.217509" xlink:href="#m475be8f9d1" y="252.818839"/>
     <use style="fill:#0000ff;stroke:#0000ff;" x="176.441302" xlink:href="#m475be8f9d1" y="257.167759"/>
     <use style="fill:#0000ff;stroke:#0000ff;" x="178.276009" xlink:href="#m475be8f9d1" y="263.648219"/>
     <use style="fill:#0000ff;stroke:#0000ff;" x="179.500882" xlink:href="#m475be8f9d1" y="267.931469"/>
     <use style="fill:#0000ff;stroke:#0000ff;" x="181.345302" xlink:href="#m475be8f9d1" y="274.291675"/>
     <use style="fill:#0000ff;stroke:#0000ff;" x="182.583263" xlink:href="#m475be8f9d1" y="278.480625"/>
     <use style="fill:#0000ff;stroke:#0000ff;" x="183.83031" xlink:href="#m475be8f9d1" y="282.625885"/>
     <use style="fill:#0000ff;stroke:#0000ff;" x="185.720814" xlink:href="#m475be8f9d1" y="288.754778"/>
     <use style="fill:#0000ff;stroke:#0000ff;" x="187.640076" xlink:href="#m475be8f9d1" y="294.76559"/>
     <use style="fill:#0000ff;stroke:#0000ff;" x="189.590867" xlink:href="#m475be8f9d1" y="300.652801"/>
     <use style="fill:#0000ff;stroke:#0000ff;" x="190.24839" xlink:href="#m475be8f9d1" y="302.586364"/>
     <use style="fill:#0000ff;stroke:#0000ff;" x="191.573466" xlink:href="#m475be8f9d1" y="306.411831"/>
     <use style="fill:#0000ff;stroke:#0000ff;" x="194.263285" xlink:href="#m475be8f9d1" y="313.888283"/>
     <use style="fill:#0000ff;stroke:#0000ff;" x="195.626738" xlink:href="#m475be8f9d1" y="317.542334"/>
     <use style="fill:#0000ff;stroke:#0000ff;" x="197.691868" xlink:href="#m475be8f9d1" y="322.925001"/>
     <use style="fill:#0000ff;stroke:#0000ff;" x="199.0815" xlink:href="#m475be8f9d1" y="326.445237"/>
     <use style="fill:#0000ff;stroke:#0000ff;" x="201.184718" xlink:href="#m475be8f9d1" y="331.619885"/>
     <use style="fill:#0000ff;stroke:#0000ff;" x="202.598565" xlink:href="#m475be8f9d1" y="335.00097"/>
     <use style="fill:#0000ff;stroke:#0000ff;" x="204.737085" xlink:href="#m475be8f9d1" y="339.961892"/>
     <use style="fill:#0000ff;stroke:#0000ff;" x="206.175858" xlink:href="#m475be8f9d1" y="343.193608"/>
     <use style="fill:#0000ff;stroke:#0000ff;" x="208.3535" xlink:href="#m475be8f9d1" y="347.924773"/>
     <use style="fill:#0000ff;stroke:#0000ff;" x="209.818517" xlink:href="#m475be8f9d1" y="351.001225"/>
     <use style="fill:#0000ff;stroke:#0000ff;" x="211.294718" xlink:href="#m475be8f9d1" y="354.014197"/>
     <use style="fill:#0000ff;stroke:#0000ff;" x="214.2839" xlink:href="#m475be8f9d1" y="359.853651"/>
     <use style="fill:#0000ff;stroke:#0000ff;" x="215.798534" xlink:href="#m475be8f9d1" y="362.689188"/>
     <use style="fill:#0000ff;stroke:#0000ff;" x="217.327293" xlink:href="#m475be8f9d1" y="365.470026"/>
     <use style="fill:#0000ff;stroke:#0000ff;" x="219.647254" xlink:href="#m475be8f9d1" y="369.542623"/>
     <use style="fill:#0000ff;stroke:#0000ff;" x="221.211977" xlink:href="#m475be8f9d1" y="372.188245"/>
     <use style="fill:#0000ff;stroke:#0000ff;" x="223.583079" xlink:href="#m475be8f9d1" y="376.055116"/>
     <use style="fill:#0000ff;stroke:#0000ff;" x="225.982669" xlink:href="#m475be8f9d1" y="379.798555"/>
     <use style="fill:#0000ff;stroke:#0000ff;" x="226.788612" xlink:href="#m475be8f9d1" y="381.018224"/>
     <use style="fill:#0000ff;stroke:#0000ff;" x="228.408735" xlink:href="#m475be8f9d1" y="383.416357"/>
     <use style="fill:#0000ff;stroke:#0000ff;" x="231.681602" xlink:href="#m475be8f9d1" y="388.040635"/>
     <use style="fill:#0000ff;stroke:#0000ff;" x="233.334756" xlink:href="#m475be8f9d1" y="390.258432"/>
     <use style="fill:#0000ff;stroke:#0000ff;" x="235.833291" xlink:href="#m475be8f9d1" y="393.477939"/>
     <use style="fill:#0000ff;stroke:#0000ff;" x="237.510011" xlink:href="#m475be8f9d1" y="395.553844"/>
     <use style="fill:#0000ff;stroke:#0000ff;" x="240.0413" xlink:href="#m475be8f9d1" y="398.563354"/>
     <use style="fill:#0000ff;stroke:#0000ff;" x="241.739029" xlink:href="#m475be8f9d1" y="400.498695"/>
     <use style="fill:#0000ff;stroke:#0000ff;" x="244.2989" xlink:href="#m475be8f9d1" y="403.294643"/>
     <use style="fill:#0000ff;stroke:#0000ff;" x="246.013906" xlink:href="#m475be8f9d1" y="405.09345"/>
     <use style="fill:#0000ff;stroke:#0000ff;" x="248.600173" xlink:href="#m475be8f9d1" y="407.698869"/>
     <use style="fill:#0000ff;stroke:#0000ff;" x="250.334666" xlink:href="#m475be8f9d1" y="409.369521"/>
     <use style="fill:#0000ff;stroke:#0000ff;" x="252.954497" xlink:href="#m475be8f9d1" y="411.781116"/>
     <use style="fill:#0000ff;stroke:#0000ff;" x="255.602085" xlink:href="#m475be8f9d1" y="414.085536"/>
     <use style="fill:#0000ff;stroke:#0000ff;" x="257.385881" xlink:href="#m475be8f9d1" y="415.566199"/>
     <use style="fill:#0000ff;stroke:#0000ff;" x="259.186997" xlink:href="#m475be8f9d1" y="417.003962"/>
     <use style="fill:#0000ff;stroke:#0000ff;" x="261.925324" xlink:href="#m475be8f9d1" y="419.074525"/>
     <use style="fill:#0000ff;stroke:#0000ff;" x="263.775838" xlink:href="#m475be8f9d1" y="420.395922"/>
     <use style="fill:#0000ff;stroke:#0000ff;" x="266.585116" xlink:href="#m475be8f9d1" y="422.289333"/>
     <use style="fill:#0000ff;stroke:#0000ff;" x="268.47724" xlink:href="#m475be8f9d1" y="423.492918"/>
     <use style="fill:#0000ff;stroke:#0000ff;" x="270.382374" xlink:href="#m475be8f9d1" y="424.649442"/>
     <use style="fill:#0000ff;stroke:#0000ff;" x="271.338954" xlink:href="#m475be8f9d1" y="425.209743"/>
     <use style="fill:#0000ff;stroke:#0000ff;" x="276.159028" xlink:href="#m475be8f9d1" y="427.830828"/>
     <use style="fill:#0000ff;stroke:#0000ff;" x="279.076755" xlink:href="#m475be8f9d1" y="429.261604"/>
     <use style="fill:#0000ff;stroke:#0000ff;" x="281.031416" xlink:href="#m475be8f9d1" y="430.155928"/>
     <use style="fill:#0000ff;stroke:#0000ff;" x="282.993243" xlink:href="#m475be8f9d1" y="431.006659"/>
     <use style="fill:#0000ff;stroke:#0000ff;" x="285.950754" xlink:href="#m475be8f9d1" y="432.219189"/>
     <use style="fill:#0000ff;stroke:#0000ff;" x="287.935187" xlink:href="#m475be8f9d1" y="432.996463"/>
     <use style="fill:#0000ff;stroke:#0000ff;" x="290.935528" xlink:href="#m475be8f9d1" y="434.12768"/>
     <use style="fill:#0000ff;stroke:#0000ff;" x="292.954043" xlink:href="#m475be8f9d1" y="434.857431"/>
     <use style="fill:#0000ff;stroke:#0000ff;" x="296.011528" xlink:href="#m475be8f9d1" y="435.909456"/>
     <use style="fill:#0000ff;stroke:#0000ff;" x="298.069025" xlink:href="#m475be8f9d1" y="436.582195"/>
     <use style="fill:#0000ff;stroke:#0000ff;" x="301.179048" xlink:href="#m475be8f9d1" y="437.546348"/>
     <use style="fill:#0000ff;stroke:#0000ff;" x="303.263969" xlink:href="#m475be8f9d1" y="438.155401"/>
     <use style="fill:#0000ff;stroke:#0000ff;" x="306.403571" xlink:href="#m475be8f9d1" y="439.011153"/>
     <use style="fill:#0000ff;stroke:#0000ff;" x="308.501463" xlink:href="#m475be8f9d1" y="439.542348"/>
     <use style="fill:#0000ff;stroke:#0000ff;" x="311.652392" xlink:href="#m475be8f9d1" y="440.282671"/>
     <use style="fill:#0000ff;stroke:#0000ff;" x="313.754181" xlink:href="#m475be8f9d1" y="440.736055"/>
     <use style="fill:#0000ff;stroke:#0000ff;" x="316.907695" xlink:href="#m475be8f9d1" y="441.355806"/>
     <use style="fill:#0000ff;stroke:#0000ff;" x="320.061304" xlink:href="#m475be8f9d1" y="441.91029"/>
     <use style="fill:#0000ff;stroke:#0000ff;" x="321.112052" xlink:href="#m475be8f9d1" y="442.081978"/>
     <use style="fill:#0000ff;stroke:#0000ff;" x="324.262856" xlink:href="#m475be8f9d1" y="442.560535"/>
     <use style="fill:#0000ff;stroke:#0000ff;" x="327.410884" xlink:href="#m475be8f9d1" y="442.990728"/>
     <use style="fill:#0000ff;stroke:#0000ff;" x="329.507254" xlink:href="#m475be8f9d1" y="443.249604"/>
     <use style="fill:#0000ff;stroke:#0000ff;" x="332.64802" xlink:href="#m475be8f9d1" y="443.600844"/>
     <use style="fill:#0000ff;stroke:#0000ff;" x="334.738632" xlink:href="#m475be8f9d1" y="443.81004"/>
     <use style="fill:#0000ff;stroke:#0000ff;" x="337.868311" xlink:href="#m475be8f9d1" y="444.079187"/>
     <use style="fill:#0000ff;stroke:#0000ff;" x="339.9505" xlink:href="#m475be8f9d1" y="444.231571"/>
     <use style="fill:#0000ff;stroke:#0000ff;" x="343.067462" xlink:href="#m475be8f9d1" y="444.419172"/>
     <use style="fill:#0000ff;stroke:#0000ff;" x="345.1402" xlink:href="#m475be8f9d1" y="444.517586"/>
     <use style="fill:#0000ff;stroke:#0000ff;" x="348.241998" xlink:href="#m475be8f9d1" y="444.621578"/>
     <use style="fill:#0000ff;stroke:#0000ff;" x="350.304545" xlink:href="#m475be8f9d1" y="444.663217"/>
     <use style="fill:#0000ff;stroke:#0000ff;" x="352.361396" xlink:href="#m475be8f9d1" y="444.684788"/>
     <use style="fill:#0000ff;stroke:#0000ff;" x="355.433323" xlink:href="#m475be8f9d1" y="444.668914"/>
     <use style="fill:#0000ff;stroke:#0000ff;" x="358.489092" xlink:href="#m475be8f9d1" y="444.599973"/>
     <use style="fill:#0000ff;stroke:#0000ff;" x="360.515045" xlink:href="#m475be8f9d1" y="444.523219"/>
     <use style="fill:#0000ff;stroke:#0000ff;" x="363.537477" xlink:href="#m475be8f9d1" y="444.36793"/>
     <use style="fill:#0000ff;stroke:#0000ff;" x="366.539322" xlink:href="#m475be8f9d1" y="444.166455"/>
     <use style="fill:#0000ff;stroke:#0000ff;" x="368.527951" xlink:href="#m475be8f9d1" y="443.997571"/>
     <use style="fill:#0000ff;stroke:#0000ff;" x="370.50549" xlink:href="#m475be8f9d1" y="443.801689"/>
     <use style="fill:#0000ff;stroke:#0000ff;" x="372.47259" xlink:href="#m475be8f9d1" y="443.578615"/>
     <use style="fill:#0000ff;stroke:#0000ff;" x="374.429459" xlink:href="#m475be8f9d1" y="443.330738"/>
     <use style="fill:#0000ff;stroke:#0000ff;" x="378.310649" xlink:href="#m475be8f9d1" y="442.770712"/>
     <use style="fill:#0000ff;stroke:#0000ff;" x="380.23589" xlink:href="#m475be8f9d1" y="442.463436"/>
     <use style="fill:#0000ff;stroke:#0000ff;" x="383.104327" xlink:href="#m475be8f9d1" y="441.975962"/>
     <use style="fill:#0000ff;stroke:#0000ff;" x="385.949803" xlink:href="#m475be8f9d1" y="441.454383"/>
     <use style="fill:#0000ff;stroke:#0000ff;" x="387.833119" xlink:href="#m475be8f9d1" y="441.086029"/>
     <use style="fill:#0000ff;stroke:#0000ff;" x="389.705596" xlink:href="#m475be8f9d1" y="440.690956"/>
     <use style="fill:#0000ff;stroke:#0000ff;" x="392.493562" xlink:href="#m475be8f9d1" y="440.055219"/>
     <use style="fill:#0000ff;stroke:#0000ff;" x="394.338496" xlink:href="#m475be8f9d1" y="439.598118"/>
     <use style="fill:#0000ff;stroke:#0000ff;" x="397.083273" xlink:href="#m475be8f9d1" y="438.858973"/>
     <use style="fill:#0000ff;stroke:#0000ff;" x="398.897682" xlink:href="#m475be8f9d1" y="438.333325"/>
     <use style="fill:#0000ff;stroke:#0000ff;" x="401.596222" xlink:href="#m475be8f9d1" y="437.499937"/>
     <use style="fill:#0000ff;stroke:#0000ff;" x="403.378916" xlink:href="#m475be8f9d1" y="436.912643"/>
     <use style="fill:#0000ff;stroke:#0000ff;" x="406.02885" xlink:href="#m475be8f9d1" y="435.987122"/>
     <use style="fill:#0000ff;stroke:#0000ff;" x="407.780033" xlink:href="#m475be8f9d1" y="435.340659"/>
     <use style="fill:#0000ff;stroke:#0000ff;" x="410.382991" xlink:href="#m475be8f9d1" y="434.333916"/>
     <use style="fill:#0000ff;stroke:#0000ff;" x="412.102613" xlink:href="#m475be8f9d1" y="433.637258"/>
     <use style="fill:#0000ff;stroke:#0000ff;" x="414.658249" xlink:href="#m475be8f9d1" y="432.55496"/>
     <use style="fill:#0000ff;stroke:#0000ff;" x="416.346199" xlink:href="#m475be8f9d1" y="431.810781"/>
     <use style="fill:#0000ff;stroke:#0000ff;" x="418.021158" xlink:href="#m475be8f9d1" y="431.045914"/>
     <use style="fill:#0000ff;stroke:#0000ff;" x="419.68385" xlink:href="#m475be8f9d1" y="430.264975"/>
     <use style="fill:#0000ff;stroke:#0000ff;" x="422.97116" xlink:href="#m475be8f9d1" y="428.647111"/>
     <use style="fill:#0000ff;stroke:#0000ff;" x="424.595404" xlink:href="#m475be8f9d1" y="427.805344"/>
     <use style="fill:#0000ff;stroke:#0000ff;" x="427.006173" xlink:href="#m475be8f9d1" y="426.501367"/>
     <use style="fill:#0000ff;stroke:#0000ff;" x="428.596259" xlink:href="#m475be8f9d1" y="425.605545"/>
     <use style="fill:#0000ff;stroke:#0000ff;" x="430.955486" xlink:href="#m475be8f9d1" y="424.223002"/>
     <use style="fill:#0000ff;stroke:#0000ff;" x="432.511158" xlink:href="#m475be8f9d1" y="423.274733"/>
     <use style="fill:#0000ff;stroke:#0000ff;" x="434.820508" xlink:href="#m475be8f9d1" y="421.815693"/>
     <use style="fill:#0000ff;stroke:#0000ff;" x="436.344484" xlink:href="#m475be8f9d1" y="420.821435"/>
     <use style="fill:#0000ff;stroke:#0000ff;" x="438.607078" xlink:href="#m475be8f9d1" y="419.29816"/>
     <use style="fill:#0000ff;stroke:#0000ff;" x="440.100397" xlink:href="#m475be8f9d1" y="418.264858"/>
     <use style="fill:#0000ff;stroke:#0000ff;" x="442.316403" xlink:href="#m475be8f9d1" y="416.679214"/>
     <use style="fill:#0000ff;stroke:#0000ff;" x="444.502509" xlink:href="#m475be8f9d1" y="415.050801"/>
     <use style="fill:#0000ff;stroke:#0000ff;" x="445.943609" xlink:href="#m475be8f9d1" y="413.94227"/>
     <use style="fill:#0000ff;stroke:#0000ff;" x="448.082848" xlink:href="#m475be8f9d1" y="412.243441"/>
     <use style="fill:#0000ff;stroke:#0000ff;" x="449.494322" xlink:href="#m475be8f9d1" y="411.090958"/>
     <use style="fill:#0000ff;stroke:#0000ff;" x="450.895347" xlink:href="#m475be8f9d1" y="409.922349"/>
     <use style="fill:#0000ff;stroke:#0000ff;" x="452.97829" xlink:href="#m475be8f9d1" y="408.13453"/>
     <use style="fill:#0000ff;stroke:#0000ff;" x="454.355087" xlink:href="#m475be8f9d1" y="406.915596"/>
     <use style="fill:#0000ff;stroke:#0000ff;" x="455.721793" xlink:href="#m475be8f9d1" y="405.662645"/>
     <use style="fill:#0000ff;stroke:#0000ff;" x="457.078294" xlink:href="#m475be8f9d1" y="404.376469"/>
     <use style="fill:#0000ff;stroke:#0000ff;" x="459.760069" xlink:href="#m475be8f9d1" y="401.695372"/>
     <use style="fill:#0000ff;stroke:#0000ff;" x="461.085121" xlink:href="#m475be8f9d1" y="400.307446"/>
     <use style="fill:#0000ff;stroke:#0000ff;" x="463.053627" xlink:href="#m475be8f9d1" y="398.171297"/>
     <use style="fill:#0000ff;stroke:#0000ff;" x="464.353027" xlink:href="#m475be8f9d1" y="396.707262"/>
     <use style="fill:#0000ff;stroke:#0000ff;" x="466.280755" xlink:href="#m475be8f9d1" y="394.447787"/>
     <use style="fill:#0000ff;stroke:#0000ff;" x="468.18186" xlink:href="#m475be8f9d1" y="392.108854"/>
     <use style="fill:#0000ff;stroke:#0000ff;" x="469.434604" xlink:href="#m475be8f9d1" y="390.509344"/>
     <use style="fill:#0000ff;stroke:#0000ff;" x="470.676202" xlink:href="#m475be8f9d1" y="388.880916"/>
     <use style="fill:#0000ff;stroke:#0000ff;" x="472.518384" xlink:href="#m475be8f9d1" y="386.387327"/>
     <use style="fill:#0000ff;stroke:#0000ff;" x="474.335179" xlink:href="#m475be8f9d1" y="383.836058"/>
     <use style="fill:#0000ff;stroke:#0000ff;" x="475.531639" xlink:href="#m475be8f9d1" y="382.099767"/>
     <use style="fill:#0000ff;stroke:#0000ff;" x="476.715784" xlink:href="#m475be8f9d1" y="380.335366"/>
     <use style="fill:#0000ff;stroke:#0000ff;" x="478.468338" xlink:href="#m475be8f9d1" y="377.636671"/>
     <use style="fill:#0000ff;stroke:#0000ff;" x="479.621718" xlink:href="#m475be8f9d1" y="375.805418"/>
     <use style="fill:#0000ff;stroke:#0000ff;" x="481.330193" xlink:href="#m475be8f9d1" y="373.011017"/>
     <use style="fill:#0000ff;stroke:#0000ff;" x="483.015401" xlink:href="#m475be8f9d1" y="370.158781"/>
     <use style="fill:#0000ff;stroke:#0000ff;" x="484.127261" xlink:href="#m475be8f9d1" y="368.226722"/>
     <use style="fill:#0000ff;stroke:#0000ff;" x="485.229721" xlink:href="#m475be8f9d1" y="366.270254"/>
     <use style="fill:#0000ff;stroke:#0000ff;" x="486.322709" xlink:href="#m475be8f9d1" y="364.28797"/>
     <use style="fill:#0000ff;stroke:#0000ff;" x="487.944452" xlink:href="#m475be8f9d1" y="361.264449"/>
     <use style="fill:#0000ff;stroke:#0000ff;" x="489.544499" xlink:href="#m475be8f9d1" y="358.184634"/>
     <use style="fill:#0000ff;stroke:#0000ff;" x="490.599361" xlink:href="#m475be8f9d1" y="356.104596"/>
     <use style="fill:#0000ff;stroke:#0000ff;" x="492.165336" xlink:href="#m475be8f9d1" y="352.948773"/>
     <use style="fill:#0000ff;stroke:#0000ff;" x="493.199062" xlink:href="#m475be8f9d1" y="350.82106"/>
     <use style="fill:#0000ff;stroke:#0000ff;" x="494.735565" xlink:href="#m475be8f9d1" y="347.596258"/>
     <use style="fill:#0000ff;stroke:#0000ff;" x="495.752728" xlink:href="#m475be8f9d1" y="345.418465"/>
     <use style="fill:#0000ff;stroke:#0000ff;" x="497.268887" xlink:href="#m475be8f9d1" y="342.109876"/>
     <use style="fill:#0000ff;stroke:#0000ff;" x="498.274273" xlink:href="#m475be8f9d1" y="339.873533"/>
     <use style="fill:#0000ff;stroke:#0000ff;" x="499.775063" xlink:href="#m475be8f9d1" y="336.475982"/>
     <use style="fill:#0000ff;stroke:#0000ff;" x="501.267128" xlink:href="#m475be8f9d1" y="333.032931"/>
     <use style="fill:#0000ff;stroke:#0000ff;" x="502.257675" xlink:href="#m475be8f9d1" y="330.713265"/>
     <use style="fill:#0000ff;stroke:#0000ff;" x="503.244894" xlink:href="#m475be8f9d1" y="328.374762"/>
     <use style="fill:#0000ff;stroke:#0000ff;" x="504.719536" xlink:href="#m475be8f9d1" y="324.832662"/>
     <use style="fill:#0000ff;stroke:#0000ff;" x="505.698249" xlink:href="#m475be8f9d1" y="322.452063"/>
     <use style="fill:#0000ff;stroke:#0000ff;" x="507.158871" xlink:href="#m475be8f9d1" y="318.84522"/>
     <use style="fill:#0000ff;stroke:#0000ff;" x="508.126234" xlink:href="#m475be8f9d1" y="316.419971"/>
     <use style="fill:#0000ff;stroke:#0000ff;" x="509.566808" xlink:href="#m475be8f9d1" y="312.755051"/>
     <use style="fill:#0000ff;stroke:#0000ff;" x="510.996966" xlink:href="#m475be8f9d1" y="309.065604"/>
     <use style="fill:#0000ff;stroke:#0000ff;" x="511.471697" xlink:href="#m475be8f9d1" y="307.832005"/>
     <use style="fill:#0000ff;stroke:#0000ff;" x="512.41829" xlink:href="#m475be8f9d1" y="305.361686"/>
     <use style="fill:#0000ff;stroke:#0000ff;" x="514.304984" xlink:href="#m475be8f9d1" y="300.407332"/>
     <use style="fill:#0000ff;stroke:#0000ff;" x="515.246085" xlink:href="#m475be8f9d1" y="297.933412"/>
     <use style="fill:#0000ff;stroke:#0000ff;" x="516.65448" xlink:href="#m475be8f9d1" y="294.232986"/>
     <use style="fill:#0000ff;stroke:#0000ff;" x="517.59146" xlink:href="#m475be8f9d1" y="291.774591"/>
     <use style="fill:#0000ff;stroke:#0000ff;" x="518.994394" xlink:href="#m475be8f9d1" y="288.105315"/>
     <use style="fill:#0000ff;stroke:#0000ff;" x="520.395154" xlink:href="#m475be8f9d1" y="284.449027"/>
     <use style="fill:#0000ff;stroke:#0000ff;" x="521.328119" xlink:href="#m475be8f9d1" y="282.015963"/>
     <use style="fill:#0000ff;stroke:#0000ff;" x="522.724191" xlink:href="#m475be8f9d1" y="278.364434"/>
     <use style="fill:#0000ff;stroke:#0000ff;" x="523.652237" xlink:href="#m475be8f9d1" y="275.925752"/>
     <use style="fill:#0000ff;stroke:#0000ff;" x="524.578951" xlink:href="#m475be8f9d1" y="273.481564"/>
     <use style="fill:#0000ff;stroke:#0000ff;" x="525.968069" xlink:href="#m475be8f9d1" y="269.793203"/>
     <use style="fill:#0000ff;stroke:#0000ff;" x="526.89422" xlink:href="#m475be8f9d1" y="267.322931"/>
     <use style="fill:#0000ff;stroke:#0000ff;" x="528.283682" xlink:href="#m475be8f9d1" y="263.598684"/>
     <use style="fill:#0000ff;stroke:#0000ff;" x="529.210854" xlink:href="#m475be8f9d1" y="261.103854"/>
     <use style="fill:#0000ff;stroke:#0000ff;" x="530.603099" xlink:href="#m475be8f9d1" y="257.345169"/>
     <use style="fill:#0000ff;stroke:#0000ff;" x="531.532921" xlink:href="#m475be8f9d1" y="254.829035"/>
     <use style="fill:#0000ff;stroke:#0000ff;" x="532.931654" xlink:href="#m475be8f9d1" y="251.043185"/>
     <use style="fill:#0000ff;stroke:#0000ff;" x="533.866681" xlink:href="#m475be8f9d1" y="248.509158"/>
     <use style="fill:#0000ff;stroke:#0000ff;" x="534.802891" xlink:href="#m475be8f9d1" y="245.969769"/>
     <use style="fill:#0000ff;stroke:#0000ff;" x="535.73836" xlink:href="#m475be8f9d1" y="243.421158"/>
     <use style="fill:#0000ff;stroke:#0000ff;" x="537.612117" xlink:href="#m475be8f9d1" y="238.288989"/>
     <use style="fill:#0000ff;stroke:#0000ff;" x="538.552921" xlink:href="#m475be8f9d1" y="235.718098"/>
     <use style="fill:#0000ff;stroke:#0000ff;" x="539.973098" xlink:href="#m475be8f9d1" y="231.859505"/>
     <use style="fill:#0000ff;stroke:#0000ff;" x="541.402875" xlink:href="#m475be8f9d1" y="227.991985"/>
     <use style="fill:#0000ff;stroke:#0000ff;" x="542.358086" xlink:href="#m475be8f9d1" y="225.407713"/>
     <use style="fill:#0000ff;stroke:#0000ff;" x="543.312799" xlink:href="#m475be8f9d1" y="222.807906"/>
     <use style="fill:#0000ff;stroke:#0000ff;" x="544.7475" xlink:href="#m475be8f9d1" y="218.900447"/>
     <use style="fill:#0000ff;stroke:#0000ff;" x="545.707814" xlink:href="#m475be8f9d1" y="216.290518"/>
     <use style="fill:#0000ff;stroke:#0000ff;" x="547.155039" xlink:href="#m475be8f9d1" y="212.367871"/>
     <use style="fill:#0000ff;stroke:#0000ff;" x="548.123877" xlink:href="#m475be8f9d1" y="209.750961"/>
     <use style="fill:#0000ff;stroke:#0000ff;" x="549.582171" xlink:href="#m475be8f9d1" y="205.810925"/>
     <use style="fill:#0000ff;stroke:#0000ff;" x="550.556543" xlink:href="#m475be8f9d1" y="203.177593"/>
     <use style="fill:#0000ff;stroke:#0000ff;" x="552.021352" xlink:href="#m475be8f9d1" y="199.214742"/>
     <use style="fill:#0000ff;stroke:#0000ff;" x="553.490718" xlink:href="#m475be8f9d1" y="195.241891"/>
     <use style="fill:#0000ff;stroke:#0000ff;" x="554.473346" xlink:href="#m475be8f9d1" y="192.585949"/>
     <use style="fill:#0000ff;stroke:#0000ff;" x="555.952815" xlink:href="#m475be8f9d1" y="188.590501"/>
     <use style="fill:#0000ff;stroke:#0000ff;" x="556.94193" xlink:href="#m475be8f9d1" y="185.924768"/>
     <use style="fill:#0000ff;stroke:#0000ff;" x="558.430736" xlink:href="#m475be8f9d1" y="181.912774"/>
     <use style="fill:#0000ff;stroke:#0000ff;" x="558.928469" xlink:href="#m475be8f9d1" y="180.572658"/>
     <use style="fill:#0000ff;stroke:#0000ff;" x="559.924619" xlink:href="#m475be8f9d1" y="177.890617"/>
     <use style="fill:#0000ff;stroke:#0000ff;" x="561.923337" xlink:href="#m475be8f9d1" y="172.501924"/>
     <use style="fill:#0000ff;stroke:#0000ff;" x="563.429073" xlink:href="#m475be8f9d1" y="168.450466"/>
     <use style="fill:#0000ff;stroke:#0000ff;" x="564.435701" xlink:href="#m475be8f9d1" y="165.741771"/>
     <use style="fill:#0000ff;stroke:#0000ff;" x="565.445044" xlink:href="#m475be8f9d1" y="163.028742"/>
     <use style="fill:#0000ff;stroke:#0000ff;" x="566.964107" xlink:href="#m475be8f9d1" y="158.952529"/>
    </g>
   </g>
   <g id="matplotlib.axis_1">
    <g id="xtick_1">
     <g id="line2d_1">
      <defs>
       <path d="M 0 0 
L 0 3.5 
" id="m64984684e5" style="stroke:#000000;stroke-width:0.8;"/>
      </defs>
      <g>
       <use style="stroke:#000000;stroke-width:0.8;" x="90" xlink:href="#m64984684e5" y="512.64"/>
      </g>
     </g>
     <g id="text_1">
      <!-- −360 -->
      <defs>
       <path d="M 10.59375 35.5 
L 73.1875 35.5 
L 73.1875 27.203125 
L 10.59375 27.203125 
z
" id="DejaVuSans-8722"/>
       <path d="M 40.578125 39.3125 
Q 47.65625 37.796875 51.625 33 
Q 55.609375 28.21875 55.609375 21.1875 
Q 55.609375 10.40625 48.1875 4.484375 
Q 40.765625 -1.421875 27.09375 -1.421875 
Q 22.515625 -1.421875 17.65625 -0.515625 
Q 12.796875 0.390625 7.625 2.203125 
L 7.625 11.71875 
Q 11.71875 9.328125 16.59375 8.109375 
Q 21.484375 6.890625 26.8125 6.890625 
Q 36.078125 6.890625 40.9375 10.546875 
Q 45.796875 14.203125 45.796875 21.1875 
Q 45.796875 27.640625 41.28125 31.265625 
Q 36.765625 34.90625 28.71875 34.90625 
L 20.21875 34.90625 
L 20.21875 43.015625 
L 29.109375 43.015625 
Q 36.375 43.015625 40.234375 45.921875 
Q 44.09375 48.828125 44.09375 54.296875 
Q 44.09375 59.90625 40.109375 62.90625 
Q 36.140625 65.921875 28.71875 65.921875 
Q 24.65625 65.921875 20.015625 65.03125 
Q 15.375 64.15625 9.8125 62.3125 
L 9.8125 71.09375 
Q 15.4375 72.65625 20.34375 73.4375 
Q 25.25 74.21875 29.59375 74.21875 
Q 40.828125 74.21875 47.359375 69.109375 
Q 53.90625 64.015625 53.90625 55.328125 
Q 53.90625 49.265625 50.4375 45.09375 
Q 46.96875 40.921875 40.578125 39.3125 
z
" id="DejaVuSans-51"/>
       <path d="M 33.015625 40.375 
Q 26.375 40.375 22.484375 35.828125 
Q 18.609375 31.296875 18.609375 23.390625 
Q 18.609375 15.53125 22.484375 10.953125 
Q 26.375 6.390625 33.015625 6.390625 
Q 39.65625 6.390625 43.53125 10.953125 
Q 47.40625 15.53125 47.40625 23.390625 
Q 47.40625 31.296875 43.53125 35.828125 
Q 39.65625 40.375 33.015625 40.375 
z
M 52.59375 71.296875 
L 52.59375 62.3125 
Q 48.875 64.0625 45.09375 64.984375 
Q 41.3125 65.921875 37.59375 65.921875 
Q 27.828125 65.921875 22.671875 59.328125 
Q 17.53125 52.734375 16.796875 39.40625 
Q 19.671875 43.65625 24.015625 45.921875 
Q 28.375 48.1875 33.59375 48.1875 
Q 44.578125 48.1875 50.953125 41.515625 
Q 57.328125 34.859375 57.328125 23.390625 
Q 57.328125 12.15625 50.6875 5.359375 
Q 44.046875 -1.421875 33.015625 -1.421875 
Q 20.359375 -1.421875 13.671875 8.265625 
Q 6.984375 17.96875 6.984375 36.375 
Q 6.984375 53.65625 15.1875 63.9375 
Q 23.390625 74.21875 37.203125 74.21875 
Q 40.921875 74.21875 44.703125 73.484375 
Q 48.484375 72.75 52.59375 71.296875 
z
" id="DejaVuSans-54"/>
       <path d="M 31.78125 66.40625 
Q 24.171875 66.40625 20.328125 58.90625 
Q 16.5 51.421875 16.5 36.375 
Q 16.5 21.390625 20.328125 13.890625 
Q 24.171875 6.390625 31.78125 6.390625 
Q 39.453125 6.390625 43.28125 13.890625 
Q 47.125 21.390625 47.125 36.375 
Q 47.125 51.421875 43.28125 58.90625 
Q 39.453125 66.40625 31.78125 66.40625 
z
M 31.78125 74.21875 
Q 44.046875 74.21875 50.515625 64.515625 
Q 56.984375 54.828125 56.984375 36.375 
Q 56.984375 17.96875 50.515625 8.265625 
Q 44.046875 -1.421875 31.78125 -1.421875 
Q 19.53125 -1.421875 13.0625 8.265625 
Q 6.59375 17.96875 6.59375 36.375 
Q 6.59375 54.828125 13.0625 64.515625 
Q 19.53125 74.21875 31.78125 74.21875 
z
" id="DejaVuSans-48"/>
      </defs>
      <g transform="translate(76.266406 527.238438)scale(0.1 -0.1)">
       <use xlink:href="#DejaVuSans-8722"/>
       <use x="83.789062" xlink:href="#DejaVuSans-51"/>
       <use x="147.412109" xlink:href="#DejaVuSans-54"/>
       <use x="211.035156" xlink:href="#DejaVuSans-48"/>
      </g>
     </g>
    </g>
    <g id="xtick_2">
     <g id="line2d_2">
      <g>
       <use style="stroke:#000000;stroke-width:0.8;" x="169.714286" xlink:href="#m64984684e5" y="512.64"/>
      </g>
     </g>
     <g id="text_2">
      <!-- −340 -->
      <defs>
       <path d="M 37.796875 64.3125 
L 12.890625 25.390625 
L 37.796875 25.390625 
z
M 35.203125 72.90625 
L 47.609375 72.90625 
L 47.609375 25.390625 
L 58.015625 25.390625 
L 58.015625 17.1875 
L 47.609375 17.1875 
L 47.609375 0 
L 37.796875 0 
L 37.796875 17.1875 
L 4.890625 17.1875 
L 4.890625 26.703125 
z
" id="DejaVuSans-52"/>
      </defs>
      <g transform="translate(155.980692 527.238438)scale(0.1 -0.1)">
       <use xlink:href="#DejaVuSans-8722"/>
       <use x="83.789062" xlink:href="#DejaVuSans-51"/>
       <use x="147.412109" xlink:href="#DejaVuSans-52"/>
       <use x="211.035156" xlink:href="#DejaVuSans-48"/>
      </g>
     </g>
    </g>
    <g id="xtick_3">
     <g id="line2d_3">
      <g>
       <use style="stroke:#000000;stroke-width:0.8;" x="249.428571" xlink:href="#m64984684e5" y="512.64"/>
      </g>
     </g>
     <g id="text_3">
      <!-- −320 -->
      <defs>
       <path d="M 19.1875 8.296875 
L 53.609375 8.296875 
L 53.609375 0 
L 7.328125 0 
L 7.328125 8.296875 
Q 12.9375 14.109375 22.625 23.890625 
Q 32.328125 33.6875 34.8125 36.53125 
Q 39.546875 41.84375 41.421875 45.53125 
Q 43.3125 49.21875 43.3125 52.78125 
Q 43.3125 58.59375 39.234375 62.25 
Q 35.15625 65.921875 28.609375 65.921875 
Q 23.96875 65.921875 18.8125 64.3125 
Q 13.671875 62.703125 7.8125 59.421875 
L 7.8125 69.390625 
Q 13.765625 71.78125 18.9375 73 
Q 24.125 74.21875 28.421875 74.21875 
Q 39.75 74.21875 46.484375 68.546875 
Q 53.21875 62.890625 53.21875 53.421875 
Q 53.21875 48.921875 51.53125 44.890625 
Q 49.859375 40.875 45.40625 35.40625 
Q 44.1875 33.984375 37.640625 27.21875 
Q 31.109375 20.453125 19.1875 8.296875 
z
" id="DejaVuSans-50"/>
      </defs>
      <g transform="translate(235.694978 527.238438)scale(0.1 -0.1)">
       <use xlink:href="#DejaVuSans-8722"/>
       <use x="83.789062" xlink:href="#DejaVuSans-51"/>
       <use x="147.412109" xlink:href="#DejaVuSans-50"/>
       <use x="211.035156" xlink:href="#DejaVuSans-48"/>
      </g>
     </g>
    </g>
    <g id="xtick_4">
     <g id="line2d_4">
      <g>
       <use style="stroke:#000000;stroke-width:0.8;" x="329.142857" xlink:href="#m64984684e5" y="512.64"/>
      </g>
     </g>
     <g id="text_4">
      <!-- −300 -->
      <g transform="translate(315.409263 527.238438)scale(0.1 -0.1)">
       <use xlink:href="#DejaVuSans-8722"/>
       <use x="83.789062" xlink:href="#DejaVuSans-51"/>
       <use x="147.412109" xlink:href="#DejaVuSans-48"/>
       <use x="211.035156" xlink:href="#DejaVuSans-48"/>
      </g>
     </g>
    </g>
    <g id="xtick_5">
     <g id="line2d_5">
      <g>
       <use style="stroke:#000000;stroke-width:0.8;" x="408.857143" xlink:href="#m64984684e5" y="512.64"/>
      </g>
     </g>
     <g id="text_5">
      <!-- −280 -->
      <defs>
       <path d="M 31.78125 34.625 
Q 24.75 34.625 20.71875 30.859375 
Q 16.703125 27.09375 16.703125 20.515625 
Q 16.703125 13.921875 20.71875 10.15625 
Q 24.75 6.390625 31.78125 6.390625 
Q 38.8125 6.390625 42.859375 10.171875 
Q 46.921875 13.96875 46.921875 20.515625 
Q 46.921875 27.09375 42.890625 30.859375 
Q 38.875 34.625 31.78125 34.625 
z
M 21.921875 38.8125 
Q 15.578125 40.375 12.03125 44.71875 
Q 8.5 49.078125 8.5 55.328125 
Q 8.5 64.0625 14.71875 69.140625 
Q 20.953125 74.21875 31.78125 74.21875 
Q 42.671875 74.21875 48.875 69.140625 
Q 55.078125 64.0625 55.078125 55.328125 
Q 55.078125 49.078125 51.53125 44.71875 
Q 48 40.375 41.703125 38.8125 
Q 48.828125 37.15625 52.796875 32.3125 
Q 56.78125 27.484375 56.78125 20.515625 
Q 56.78125 9.90625 50.3125 4.234375 
Q 43.84375 -1.421875 31.78125 -1.421875 
Q 19.734375 -1.421875 13.25 4.234375 
Q 6.78125 9.90625 6.78125 20.515625 
Q 6.78125 27.484375 10.78125 32.3125 
Q 14.796875 37.15625 21.921875 38.8125 
z
M 18.3125 54.390625 
Q 18.3125 48.734375 21.84375 45.5625 
Q 25.390625 42.390625 31.78125 42.390625 
Q 38.140625 42.390625 41.71875 45.5625 
Q 45.3125 48.734375 45.3125 54.390625 
Q 45.3125 60.0625 41.71875 63.234375 
Q 38.140625 66.40625 31.78125 66.40625 
Q 25.390625 66.40625 21.84375 63.234375 
Q 18.3125 60.0625 18.3125 54.390625 
z
" id="DejaVuSans-56"/>
      </defs>
      <g transform="translate(395.123549 527.238438)scale(0.1 -0.1)">
       <use xlink:href="#DejaVuSans-8722"/>
       <use x="83.789062" xlink:href="#DejaVuSans-50"/>
       <use x="147.412109" xlink:href="#DejaVuSans-56"/>
       <use x="211.035156" xlink:href="#DejaVuSans-48"/>
      </g>
     </g>
    </g>
    <g id="xtick_6">
     <g id="line2d_6">
      <g>
       <use style="stroke:#000000;stroke-width:0.8;" x="488.571429" xlink:href="#m64984684e5" y="512.64"/>
      </g>
     </g>
     <g id="text_6">
      <!-- −260 -->
      <g transform="translate(474.837835 527.238438)scale(0.1 -0.1)">
       <use xlink:href="#DejaVuSans-8722"/>
       <use x="83.789062" xlink:href="#DejaVuSans-50"/>
       <use x="147.412109" xlink:href="#DejaVuSans-54"/>
       <use x="211.035156" xlink:href="#DejaVuSans-48"/>
      </g>
     </g>
    </g>
    <g id="xtick_7">
     <g id="line2d_7">
      <g>
       <use style="stroke:#000000;stroke-width:0.8;" x="568.285714" xlink:href="#m64984684e5" y="512.64"/>
      </g>
     </g>
     <g id="text_7">
      <!-- −240 -->
      <g transform="translate(554.552121 527.238438)scale(0.1 -0.1)">
       <use xlink:href="#DejaVuSans-8722"/>
       <use x="83.789062" xlink:href="#DejaVuSans-50"/>
       <use x="147.412109" xlink:href="#DejaVuSans-52"/>
       <use x="211.035156" xlink:href="#DejaVuSans-48"/>
      </g>
     </g>
    </g>
    <g id="xtick_8">
     <g id="line2d_8">
      <g>
       <use style="stroke:#000000;stroke-width:0.8;" x="648" xlink:href="#m64984684e5" y="512.64"/>
      </g>
     </g>
     <g id="text_8">
      <!-- −220 -->
      <g transform="translate(634.266406 527.238438)scale(0.1 -0.1)">
       <use xlink:href="#DejaVuSans-8722"/>
       <use x="83.789062" xlink:href="#DejaVuSans-50"/>
       <use x="147.412109" xlink:href="#DejaVuSans-50"/>
       <use x="211.035156" xlink:href="#DejaVuSans-48"/>
      </g>
     </g>
    </g>
    <g id="text_9">
     <!-- x (m) -->
     <defs>
      <path d="M 54.890625 54.6875 
L 35.109375 28.078125 
L 55.90625 0 
L 45.3125 0 
L 29.390625 21.484375 
L 13.484375 0 
L 2.875 0 
L 24.125 28.609375 
L 4.6875 54.6875 
L 15.28125 54.6875 
L 29.78125 35.203125 
L 44.28125 54.6875 
z
" id="DejaVuSans-120"/>
      <path id="DejaVuSans-32"/>
      <path d="M 31 75.875 
Q 24.46875 64.65625 21.28125 53.65625 
Q 18.109375 42.671875 18.109375 31.390625 
Q 18.109375 20.125 21.3125 9.0625 
Q 24.515625 -2 31 -13.1875 
L 23.1875 -13.1875 
Q 15.875 -1.703125 12.234375 9.375 
Q 8.59375 20.453125 8.59375 31.390625 
Q 8.59375 42.28125 12.203125 53.3125 
Q 15.828125 64.359375 23.1875 75.875 
z
" id="DejaVuSans-40"/>
      <path d="M 52 44.1875 
Q 55.375 50.25 60.0625 53.125 
Q 64.75 56 71.09375 56 
Q 79.640625 56 84.28125 50.015625 
Q 88.921875 44.046875 88.921875 33.015625 
L 88.921875 0 
L 79.890625 0 
L 79.890625 32.71875 
Q 79.890625 40.578125 77.09375 44.375 
Q 74.3125 48.1875 68.609375 48.1875 
Q 61.625 48.1875 57.5625 43.546875 
Q 53.515625 38.921875 53.515625 30.90625 
L 53.515625 0 
L 44.484375 0 
L 44.484375 32.71875 
Q 44.484375 40.625 41.703125 44.40625 
Q 38.921875 48.1875 33.109375 48.1875 
Q 26.21875 48.1875 22.15625 43.53125 
Q 18.109375 38.875 18.109375 30.90625 
L 18.109375 0 
L 9.078125 0 
L 9.078125 54.6875 
L 18.109375 54.6875 
L 18.109375 46.1875 
Q 21.1875 51.21875 25.484375 53.609375 
Q 29.78125 56 35.6875 56 
Q 41.65625 56 45.828125 52.96875 
Q 50 49.953125 52 44.1875 
z
" id="DejaVuSans-109"/>
      <path d="M 8.015625 75.875 
L 15.828125 75.875 
Q 23.140625 64.359375 26.78125 53.3125 
Q 30.421875 42.28125 30.421875 31.390625 
Q 30.421875 20.453125 26.78125 9.375 
Q 23.140625 -1.703125 15.828125 -13.1875 
L 8.015625 -13.1875 
Q 14.5 -2 17.703125 9.0625 
Q 20.90625 20.125 20.90625 31.390625 
Q 20.90625 42.671875 17.703125 53.65625 
Q 14.5 64.65625 8.015625 75.875 
z
" id="DejaVuSans-41"/>
     </defs>
     <g transform="translate(355.679688 540.916563)scale(0.1 -0.1)">
      <use xlink:href="#DejaVuSans-120"/>
      <use x="59.179688" xlink:href="#DejaVuSans-32"/>
      <use x="90.966797" xlink:href="#DejaVuSans-40"/>
      <use x="129.980469" xlink:href="#DejaVuSans-109"/>
      <use x="227.392578" xlink:href="#DejaVuSans-41"/>
     </g>
    </g>
   </g>
   <g id="matplotlib.axis_2">
    <g id="ytick_1">
     <g id="line2d_9">
      <defs>
       <path d="M 0 0 
L -3.5 0 
" id="m6c38fb7341" style="stroke:#000000;stroke-width:0.8;"/>
      </defs>
      <g>
       <use style="stroke:#000000;stroke-width:0.8;" x="90" xlink:href="#m6c38fb7341" y="512.64"/>
      </g>
     </g>
     <g id="text_10">
      <!-- −310 -->
      <defs>
       <path d="M 12.40625 8.296875 
L 28.515625 8.296875 
L 28.515625 63.921875 
L 10.984375 60.40625 
L 10.984375 69.390625 
L 28.421875 72.90625 
L 38.28125 72.90625 
L 38.28125 8.296875 
L 54.390625 8.296875 
L 54.390625 0 
L 12.40625 0 
z
" id="DejaVuSans-49"/>
      </defs>
      <g transform="translate(55.532812 516.439219)scale(0.1 -0.1)">
       <use xlink:href="#DejaVuSans-8722"/>
       <use x="83.789062" xlink:href="#DejaVuSans-51"/>
       <use x="147.412109" xlink:href="#DejaVuSans-49"/>
       <use x="211.035156" xlink:href="#DejaVuSans-48"/>
      </g>
     </g>
    </g>
    <g id="ytick_2">
     <g id="line2d_10">
      <g>
       <use style="stroke:#000000;stroke-width:0.8;" x="90" xlink:href="#m6c38fb7341" y="423.936"/>
      </g>
     </g>
     <g id="text_11">
      <!-- −300 -->
      <g transform="translate(55.532812 427.735219)scale(0.1 -0.1)">
       <use xlink:href="#DejaVuSans-8722"/>
       <use x="83.789062" xlink:href="#DejaVuSans-51"/>
       <use x="147.412109" xlink:href="#DejaVuSans-48"/>
       <use x="211.035156" xlink:href="#DejaVuSans-48"/>
      </g>
     </g>
    </g>
    <g id="ytick_3">
     <g id="line2d_11">
      <g>
       <use style="stroke:#000000;stroke-width:0.8;" x="90" xlink:href="#m6c38fb7341" y="335.232"/>
      </g>
     </g>
     <g id="text_12">
      <!-- −290 -->
      <defs>
       <path d="M 10.984375 1.515625 
L 10.984375 10.5 
Q 14.703125 8.734375 18.5 7.8125 
Q 22.3125 6.890625 25.984375 6.890625 
Q 35.75 6.890625 40.890625 13.453125 
Q 46.046875 20.015625 46.78125 33.40625 
Q 43.953125 29.203125 39.59375 26.953125 
Q 35.25 24.703125 29.984375 24.703125 
Q 19.046875 24.703125 12.671875 31.3125 
Q 6.296875 37.9375 6.296875 49.421875 
Q 6.296875 60.640625 12.9375 67.421875 
Q 19.578125 74.21875 30.609375 74.21875 
Q 43.265625 74.21875 49.921875 64.515625 
Q 56.59375 54.828125 56.59375 36.375 
Q 56.59375 19.140625 48.40625 8.859375 
Q 40.234375 -1.421875 26.421875 -1.421875 
Q 22.703125 -1.421875 18.890625 -0.6875 
Q 15.09375 0.046875 10.984375 1.515625 
z
M 30.609375 32.421875 
Q 37.25 32.421875 41.125 36.953125 
Q 45.015625 41.5 45.015625 49.421875 
Q 45.015625 57.28125 41.125 61.84375 
Q 37.25 66.40625 30.609375 66.40625 
Q 23.96875 66.40625 20.09375 61.84375 
Q 16.21875 57.28125 16.21875 49.421875 
Q 16.21875 41.5 20.09375 36.953125 
Q 23.96875 32.421875 30.609375 32.421875 
z
" id="DejaVuSans-57"/>
      </defs>
      <g transform="translate(55.532812 339.031219)scale(0.1 -0.1)">
       <use xlink:href="#DejaVuSans-8722"/>
       <use x="83.789062" xlink:href="#DejaVuSans-50"/>
       <use x="147.412109" xlink:href="#DejaVuSans-57"/>
       <use x="211.035156" xlink:href="#DejaVuSans-48"/>
      </g>
     </g>
    </g>
    <g id="ytick_4">
     <g id="line2d_12">
      <g>
       <use style="stroke:#000000;stroke-width:0.8;" x="90" xlink:href="#m6c38fb7341" y="246.528"/>
      </g>
     </g>
     <g id="text_13">
      <!-- −280 -->
      <g transform="translate(55.532812 250.327219)scale(0.1 -0.1)">
       <use xlink:href="#DejaVuSans-8722"/>
       <use x="83.789062" xlink:href="#DejaVuSans-50"/>
       <use x="147.412109" xlink:href="#DejaVuSans-56"/>
       <use x="211.035156" xlink:href="#DejaVuSans-48"/>
      </g>
     </g>
    </g>
    <g id="ytick_5">
     <g id="line2d_13">
      <g>
       <use style="stroke:#000000;stroke-width:0.8;" x="90" xlink:href="#m6c38fb7341" y="157.824"/>
      </g>
     </g>
     <g id="text_14">
      <!-- −270 -->
      <defs>
       <path d="M 8.203125 72.90625 
L 55.078125 72.90625 
L 55.078125 68.703125 
L 28.609375 0 
L 18.3125 0 
L 43.21875 64.59375 
L 8.203125 64.59375 
z
" id="DejaVuSans-55"/>
      </defs>
      <g transform="translate(55.532812 161.623219)scale(0.1 -0.1)">
       <use xlink:href="#DejaVuSans-8722"/>
       <use x="83.789062" xlink:href="#DejaVuSans-50"/>
       <use x="147.412109" xlink:href="#DejaVuSans-55"/>
       <use x="211.035156" xlink:href="#DejaVuSans-48"/>
      </g>
     </g>
    </g>
    <g id="ytick_6">
     <g id="line2d_14">
      <g>
       <use style="stroke:#000000;stroke-width:0.8;" x="90" xlink:href="#m6c38fb7341" y="69.12"/>
      </g>
     </g>
     <g id="text_15">
      <!-- −260 -->
      <g transform="translate(55.532812 72.919219)scale(0.1 -0.1)">
       <use xlink:href="#DejaVuSans-8722"/>
       <use x="83.789062" xlink:href="#DejaVuSans-50"/>
       <use x="147.412109" xlink:href="#DejaVuSans-54"/>
       <use x="211.035156" xlink:href="#DejaVuSans-48"/>
      </g>
     </g>
    </g>
    <g id="text_16">
     <!-- y (m) -->
     <defs>
      <path d="M 32.171875 -5.078125 
Q 28.375 -14.84375 24.75 -17.8125 
Q 21.140625 -20.796875 15.09375 -20.796875 
L 7.90625 -20.796875 
L 7.90625 -13.28125 
L 13.1875 -13.28125 
Q 16.890625 -13.28125 18.9375 -11.515625 
Q 21 -9.765625 23.484375 -3.21875 
L 25.09375 0.875 
L 2.984375 54.6875 
L 12.5 54.6875 
L 29.59375 11.921875 
L 46.6875 54.6875 
L 56.203125 54.6875 
z
" id="DejaVuSans-121"/>
     </defs>
     <g transform="translate(49.453125 304.200312)rotate(-90)scale(0.1 -0.1)">
      <use xlink:href="#DejaVuSans-121"/>
      <use x="59.179688" xlink:href="#DejaVuSans-32"/>
      <use x="90.966797" xlink:href="#DejaVuSans-40"/>
      <use x="129.980469" xlink:href="#DejaVuSans-109"/>
      <use x="227.392578" xlink:href="#DejaVuSans-41"/>
     </g>
    </g>
   </g>
   <g id="line2d_15">
    <path clip-path="url(#p8d71bf730b)" d="M 101.558056 -1 
L 105.351594 13.325189 
L 110.226099 32.642118 
L 116.843619 59.974723 
L 132.838988 126.471902 
L 167.115053 266.722133 
L 177.827745 309.216982 
L 181.847936 324.43912 
L 184.993465 335.631366 
L 188.30557 346.531565 
L 190.627996 353.590295 
L 193.053841 360.451979 
L 195.590126 367.092564 
L 198.240955 373.490266 
L 201.007747 379.62556 
L 203.889643 385.480983 
L 206.883974 391.04095 
L 209.986705 396.291722 
L 213.192798 401.221713 
L 216.496466 405.822183 
L 219.891311 410.088291 
L 223.370394 414.02033 
L 226.926254 417.624891 
L 230.550954 420.91561 
L 234.236182 423.913233 
L 237.973428 426.644839 
L 241.754246 429.142261 
L 245.570554 431.439946 
L 251.345558 434.587314 
L 257.162826 437.46931 
L 264.958676 441.040427 
L 274.737875 445.223104 
L 284.540728 449.143188 
L 292.399353 452.051895 
L 300.274529 454.707515 
L 308.167276 457.080293 
L 316.07652 459.177425 
L 323.999064 461.046055 
L 335.898238 463.577131 
L 351.773757 466.715312 
L 361.69777 468.488202 
L 369.639566 469.651877 
L 375.598416 470.294437 
L 381.5596 470.692801 
L 387.522475 470.82314 
L 393.485399 470.677247 
L 399.445517 470.253797 
L 405.39847 469.546303 
L 411.33799 468.532712 
L 415.286064 467.666661 
L 419.221209 466.628328 
L 423.139735 465.397165 
L 427.037499 463.951138 
L 430.910003 462.268437 
L 434.752496 460.329154 
L 438.560066 458.116665 
L 442.327677 455.618438 
L 446.050164 452.826158 
L 449.722192 449.735222 
L 453.338235 446.343874 
L 456.892641 442.652315 
L 460.379851 438.66218 
L 463.794773 434.37664 
L 467.133305 429.801067 
L 470.392897 424.944082 
L 473.573054 419.818584 
L 476.675636 414.442366 
L 479.704883 408.838044 
L 484.125565 400.062677 
L 488.423094 390.932353 
L 494.012437 378.370633 
L 500.855661 362.294373 
L 508.946344 342.715028 
L 518.262914 319.613849 
L 528.763718 292.918585 
L 543.042377 255.898574 
L 588.250864 137.689301 
L 641.311978 -1 
L 641.311978 -1 
" style="fill:none;stroke:#008000;stroke-linecap:square;stroke-width:1.5;"/>
   </g>
   <g id="patch_3">
    <path d="M 90 512.64 
L 90 69.12 
" style="fill:none;stroke:#000000;stroke-linecap:square;stroke-linejoin:miter;stroke-width:0.8;"/>
   </g>
   <g id="patch_4">
    <path d="M 648 512.64 
L 648 69.12 
" style="fill:none;stroke:#000000;stroke-linecap:square;stroke-linejoin:miter;stroke-width:0.8;"/>
   </g>
   <g id="patch_5">
    <path d="M 90 512.64 
L 648 512.64 
" style="fill:none;stroke:#000000;stroke-linecap:square;stroke-linejoin:miter;stroke-width:0.8;"/>
   </g>
   <g id="patch_6">
    <path d="M 90 69.12 
L 648 69.12 
" style="fill:none;stroke:#000000;stroke-linecap:square;stroke-linejoin:miter;stroke-width:0.8;"/>
   </g>
   <g id="text_17">
    <!-- Vehicle Data vs Ground Truth Path -->
    <defs>
     <path d="M 28.609375 0 
L 0.78125 72.90625 
L 11.078125 72.90625 
L 34.1875 11.53125 
L 57.328125 72.90625 
L 67.578125 72.90625 
L 39.796875 0 
z
" id="DejaVuSans-86"/>
     <path d="M 56.203125 29.59375 
L 56.203125 25.203125 
L 14.890625 25.203125 
Q 15.484375 15.921875 20.484375 11.0625 
Q 25.484375 6.203125 34.421875 6.203125 
Q 39.59375 6.203125 44.453125 7.46875 
Q 49.3125 8.734375 54.109375 11.28125 
L 54.109375 2.78125 
Q 49.265625 0.734375 44.1875 -0.34375 
Q 39.109375 -1.421875 33.890625 -1.421875 
Q 20.796875 -1.421875 13.15625 6.1875 
Q 5.515625 13.8125 5.515625 26.8125 
Q 5.515625 40.234375 12.765625 48.109375 
Q 20.015625 56 32.328125 56 
Q 43.359375 56 49.78125 48.890625 
Q 56.203125 41.796875 56.203125 29.59375 
z
M 47.21875 32.234375 
Q 47.125 39.59375 43.09375 43.984375 
Q 39.0625 48.390625 32.421875 48.390625 
Q 24.90625 48.390625 20.390625 44.140625 
Q 15.875 39.890625 15.1875 32.171875 
z
" id="DejaVuSans-101"/>
     <path d="M 54.890625 33.015625 
L 54.890625 0 
L 45.90625 0 
L 45.90625 32.71875 
Q 45.90625 40.484375 42.875 44.328125 
Q 39.84375 48.1875 33.796875 48.1875 
Q 26.515625 48.1875 22.3125 43.546875 
Q 18.109375 38.921875 18.109375 30.90625 
L 18.109375 0 
L 9.078125 0 
L 9.078125 75.984375 
L 18.109375 75.984375 
L 18.109375 46.1875 
Q 21.34375 51.125 25.703125 53.5625 
Q 30.078125 56 35.796875 56 
Q 45.21875 56 50.046875 50.171875 
Q 54.890625 44.34375 54.890625 33.015625 
z
" id="DejaVuSans-104"/>
     <path d="M 9.421875 54.6875 
L 18.40625 54.6875 
L 18.40625 0 
L 9.421875 0 
z
M 9.421875 75.984375 
L 18.40625 75.984375 
L 18.40625 64.59375 
L 9.421875 64.59375 
z
" id="DejaVuSans-105"/>
     <path d="M 48.78125 52.59375 
L 48.78125 44.1875 
Q 44.96875 46.296875 41.140625 47.34375 
Q 37.3125 48.390625 33.40625 48.390625 
Q 24.65625 48.390625 19.8125 42.84375 
Q 14.984375 37.3125 14.984375 27.296875 
Q 14.984375 17.28125 19.8125 11.734375 
Q 24.65625 6.203125 33.40625 6.203125 
Q 37.3125 6.203125 41.140625 7.25 
Q 44.96875 8.296875 48.78125 10.40625 
L 48.78125 2.09375 
Q 45.015625 0.34375 40.984375 -0.53125 
Q 36.96875 -1.421875 32.421875 -1.421875 
Q 20.0625 -1.421875 12.78125 6.34375 
Q 5.515625 14.109375 5.515625 27.296875 
Q 5.515625 40.671875 12.859375 48.328125 
Q 20.21875 56 33.015625 56 
Q 37.15625 56 41.109375 55.140625 
Q 45.0625 54.296875 48.78125 52.59375 
z
" id="DejaVuSans-99"/>
     <path d="M 9.421875 75.984375 
L 18.40625 75.984375 
L 18.40625 0 
L 9.421875 0 
z
" id="DejaVuSans-108"/>
     <path d="M 19.671875 64.796875 
L 19.671875 8.109375 
L 31.59375 8.109375 
Q 46.6875 8.109375 53.6875 14.9375 
Q 60.6875 21.78125 60.6875 36.53125 
Q 60.6875 51.171875 53.6875 57.984375 
Q 46.6875 64.796875 31.59375 64.796875 
z
M 9.8125 72.90625 
L 30.078125 72.90625 
Q 51.265625 72.90625 61.171875 64.09375 
Q 71.09375 55.28125 71.09375 36.53125 
Q 71.09375 17.671875 61.125 8.828125 
Q 51.171875 0 30.078125 0 
L 9.8125 0 
z
" id="DejaVuSans-68"/>
     <path d="M 34.28125 27.484375 
Q 23.390625 27.484375 19.1875 25 
Q 14.984375 22.515625 14.984375 16.5 
Q 14.984375 11.71875 18.140625 8.90625 
Q 21.296875 6.109375 26.703125 6.109375 
Q 34.1875 6.109375 38.703125 11.40625 
Q 43.21875 16.703125 43.21875 25.484375 
L 43.21875 27.484375 
z
M 52.203125 31.203125 
L 52.203125 0 
L 43.21875 0 
L 43.21875 8.296875 
Q 40.140625 3.328125 35.546875 0.953125 
Q 30.953125 -1.421875 24.3125 -1.421875 
Q 15.921875 -1.421875 10.953125 3.296875 
Q 6 8.015625 6 15.921875 
Q 6 25.140625 12.171875 29.828125 
Q 18.359375 34.515625 30.609375 34.515625 
L 43.21875 34.515625 
L 43.21875 35.40625 
Q 43.21875 41.609375 39.140625 45 
Q 35.0625 48.390625 27.6875 48.390625 
Q 23 48.390625 18.546875 47.265625 
Q 14.109375 46.140625 10.015625 43.890625 
L 10.015625 52.203125 
Q 14.9375 54.109375 19.578125 55.046875 
Q 24.21875 56 28.609375 56 
Q 40.484375 56 46.34375 49.84375 
Q 52.203125 43.703125 52.203125 31.203125 
z
" id="DejaVuSans-97"/>
     <path d="M 18.3125 70.21875 
L 18.3125 54.6875 
L 36.8125 54.6875 
L 36.8125 47.703125 
L 18.3125 47.703125 
L 18.3125 18.015625 
Q 18.3125 11.328125 20.140625 9.421875 
Q 21.96875 7.515625 27.59375 7.515625 
L 36.8125 7.515625 
L 36.8125 0 
L 27.59375 0 
Q 17.1875 0 13.234375 3.875 
Q 9.28125 7.765625 9.28125 18.015625 
L 9.28125 47.703125 
L 2.6875 47.703125 
L 2.6875 54.6875 
L 9.28125 54.6875 
L 9.28125 70.21875 
z
" id="DejaVuSans-116"/>
     <path d="M 2.984375 54.6875 
L 12.5 54.6875 
L 29.59375 8.796875 
L 46.6875 54.6875 
L 56.203125 54.6875 
L 35.6875 0 
L 23.484375 0 
z
" id="DejaVuSans-118"/>
     <path d="M 44.28125 53.078125 
L 44.28125 44.578125 
Q 40.484375 46.53125 36.375 47.5 
Q 32.28125 48.484375 27.875 48.484375 
Q 21.1875 48.484375 17.84375 46.4375 
Q 14.5 44.390625 14.5 40.28125 
Q 14.5 37.15625 16.890625 35.375 
Q 19.28125 33.59375 26.515625 31.984375 
L 29.59375 31.296875 
Q 39.15625 29.25 43.1875 25.515625 
Q 47.21875 21.78125 47.21875 15.09375 
Q 47.21875 7.46875 41.1875 3.015625 
Q 35.15625 -1.421875 24.609375 -1.421875 
Q 20.21875 -1.421875 15.453125 -0.5625 
Q 10.6875 0.296875 5.421875 2 
L 5.421875 11.28125 
Q 10.40625 8.6875 15.234375 7.390625 
Q 20.0625 6.109375 24.8125 6.109375 
Q 31.15625 6.109375 34.5625 8.28125 
Q 37.984375 10.453125 37.984375 14.40625 
Q 37.984375 18.0625 35.515625 20.015625 
Q 33.0625 21.96875 24.703125 23.78125 
L 21.578125 24.515625 
Q 13.234375 26.265625 9.515625 29.90625 
Q 5.8125 33.546875 5.8125 39.890625 
Q 5.8125 47.609375 11.28125 51.796875 
Q 16.75 56 26.8125 56 
Q 31.78125 56 36.171875 55.265625 
Q 40.578125 54.546875 44.28125 53.078125 
z
" id="DejaVuSans-115"/>
     <path d="M 59.515625 10.40625 
L 59.515625 29.984375 
L 43.40625 29.984375 
L 43.40625 38.09375 
L 69.28125 38.09375 
L 69.28125 6.78125 
Q 63.578125 2.734375 56.6875 0.65625 
Q 49.8125 -1.421875 42 -1.421875 
Q 24.90625 -1.421875 15.25 8.5625 
Q 5.609375 18.5625 5.609375 36.375 
Q 5.609375 54.25 15.25 64.234375 
Q 24.90625 74.21875 42 74.21875 
Q 49.125 74.21875 55.546875 72.453125 
Q 61.96875 70.703125 67.390625 67.28125 
L 67.390625 56.78125 
Q 61.921875 61.421875 55.765625 63.765625 
Q 49.609375 66.109375 42.828125 66.109375 
Q 29.4375 66.109375 22.71875 58.640625 
Q 16.015625 51.171875 16.015625 36.375 
Q 16.015625 21.625 22.71875 14.15625 
Q 29.4375 6.6875 42.828125 6.6875 
Q 48.046875 6.6875 52.140625 7.59375 
Q 56.25 8.5 59.515625 10.40625 
z
" id="DejaVuSans-71"/>
     <path d="M 41.109375 46.296875 
Q 39.59375 47.171875 37.8125 47.578125 
Q 36.03125 48 33.890625 48 
Q 26.265625 48 22.1875 43.046875 
Q 18.109375 38.09375 18.109375 28.8125 
L 18.109375 0 
L 9.078125 0 
L 9.078125 54.6875 
L 18.109375 54.6875 
L 18.109375 46.1875 
Q 20.953125 51.171875 25.484375 53.578125 
Q 30.03125 56 36.53125 56 
Q 37.453125 56 38.578125 55.875 
Q 39.703125 55.765625 41.0625 55.515625 
z
" id="DejaVuSans-114"/>
     <path d="M 30.609375 48.390625 
Q 23.390625 48.390625 19.1875 42.75 
Q 14.984375 37.109375 14.984375 27.296875 
Q 14.984375 17.484375 19.15625 11.84375 
Q 23.34375 6.203125 30.609375 6.203125 
Q 37.796875 6.203125 41.984375 11.859375 
Q 46.1875 17.53125 46.1875 27.296875 
Q 46.1875 37.015625 41.984375 42.703125 
Q 37.796875 48.390625 30.609375 48.390625 
z
M 30.609375 56 
Q 42.328125 56 49.015625 48.375 
Q 55.71875 40.765625 55.71875 27.296875 
Q 55.71875 13.875 49.015625 6.21875 
Q 42.328125 -1.421875 30.609375 -1.421875 
Q 18.84375 -1.421875 12.171875 6.21875 
Q 5.515625 13.875 5.515625 27.296875 
Q 5.515625 40.765625 12.171875 48.375 
Q 18.84375 56 30.609375 56 
z
" id="DejaVuSans-111"/>
     <path d="M 8.5 21.578125 
L 8.5 54.6875 
L 17.484375 54.6875 
L 17.484375 21.921875 
Q 17.484375 14.15625 20.5 10.265625 
Q 23.53125 6.390625 29.59375 6.390625 
Q 36.859375 6.390625 41.078125 11.03125 
Q 45.3125 15.671875 45.3125 23.6875 
L 45.3125 54.6875 
L 54.296875 54.6875 
L 54.296875 0 
L 45.3125 0 
L 45.3125 8.40625 
Q 42.046875 3.421875 37.71875 1 
Q 33.40625 -1.421875 27.6875 -1.421875 
Q 18.265625 -1.421875 13.375 4.4375 
Q 8.5 10.296875 8.5 21.578125 
z
M 31.109375 56 
z
" id="DejaVuSans-117"/>
     <path d="M 54.890625 33.015625 
L 54.890625 0 
L 45.90625 0 
L 45.90625 32.71875 
Q 45.90625 40.484375 42.875 44.328125 
Q 39.84375 48.1875 33.796875 48.1875 
Q 26.515625 48.1875 22.3125 43.546875 
Q 18.109375 38.921875 18.109375 30.90625 
L 18.109375 0 
L 9.078125 0 
L 9.078125 54.6875 
L 18.109375 54.6875 
L 18.109375 46.1875 
Q 21.34375 51.125 25.703125 53.5625 
Q 30.078125 56 35.796875 56 
Q 45.21875 56 50.046875 50.171875 
Q 54.890625 44.34375 54.890625 33.015625 
z
" id="DejaVuSans-110"/>
     <path d="M 45.40625 46.390625 
L 45.40625 75.984375 
L 54.390625 75.984375 
L 54.390625 0 
L 45.40625 0 
L 45.40625 8.203125 
Q 42.578125 3.328125 38.25 0.953125 
Q 33.9375 -1.421875 27.875 -1.421875 
Q 17.96875 -1.421875 11.734375 6.484375 
Q 5.515625 14.40625 5.515625 27.296875 
Q 5.515625 40.1875 11.734375 48.09375 
Q 17.96875 56 27.875 56 
Q 33.9375 56 38.25 53.625 
Q 42.578125 51.265625 45.40625 46.390625 
z
M 14.796875 27.296875 
Q 14.796875 17.390625 18.875 11.75 
Q 22.953125 6.109375 30.078125 6.109375 
Q 37.203125 6.109375 41.296875 11.75 
Q 45.40625 17.390625 45.40625 27.296875 
Q 45.40625 37.203125 41.296875 42.84375 
Q 37.203125 48.484375 30.078125 48.484375 
Q 22.953125 48.484375 18.875 42.84375 
Q 14.796875 37.203125 14.796875 27.296875 
z
" id="DejaVuSans-100"/>
     <path d="M -0.296875 72.90625 
L 61.375 72.90625 
L 61.375 64.59375 
L 35.5 64.59375 
L 35.5 0 
L 25.59375 0 
L 25.59375 64.59375 
L -0.296875 64.59375 
z
" id="DejaVuSans-84"/>
     <path d="M 19.671875 64.796875 
L 19.671875 37.40625 
L 32.078125 37.40625 
Q 38.96875 37.40625 42.71875 40.96875 
Q 46.484375 44.53125 46.484375 51.125 
Q 46.484375 57.671875 42.71875 61.234375 
Q 38.96875 64.796875 32.078125 64.796875 
z
M 9.8125 72.90625 
L 32.078125 72.90625 
Q 44.34375 72.90625 50.609375 67.359375 
Q 56.890625 61.8125 56.890625 51.125 
Q 56.890625 40.328125 50.609375 34.8125 
Q 44.34375 29.296875 32.078125 29.296875 
L 19.671875 29.296875 
L 19.671875 0 
L 9.8125 0 
z
" id="DejaVuSans-80"/>
    </defs>
    <g transform="translate(264.825938 63.12)scale(0.12 -0.12)">
     <use xlink:href="#DejaVuSans-86"/>
     <use x="68.298828" xlink:href="#DejaVuSans-101"/>
     <use x="129.822266" xlink:href="#DejaVuSans-104"/>
     <use x="193.201172" xlink:href="#DejaVuSans-105"/>
     <use x="220.984375" xlink:href="#DejaVuSans-99"/>
     <use x="275.964844" xlink:href="#DejaVuSans-108"/>
     <use x="303.748047" xlink:href="#DejaVuSans-101"/>
     <use x="365.271484" xlink:href="#DejaVuSans-32"/>
     <use x="397.058594" xlink:href="#DejaVuSans-68"/>
     <use x="474.060547" xlink:href="#DejaVuSans-97"/>
     <use x="535.339844" xlink:href="#DejaVuSans-116"/>
     <use x="574.548828" xlink:href="#DejaVuSans-97"/>
     <use x="635.828125" xlink:href="#DejaVuSans-32"/>
     <use x="667.615234" xlink:href="#DejaVuSans-118"/>
     <use x="726.794922" xlink:href="#DejaVuSans-115"/>
     <use x="778.894531" xlink:href="#DejaVuSans-32"/>
     <use x="810.681641" xlink:href="#DejaVuSans-71"/>
     <use x="888.171875" xlink:href="#DejaVuSans-114"/>
     <use x="929.253906" xlink:href="#DejaVuSans-111"/>
     <use x="990.435547" xlink:href="#DejaVuSans-117"/>
     <use x="1053.814453" xlink:href="#DejaVuSans-110"/>
     <use x="1117.193359" xlink:href="#DejaVuSans-100"/>
     <use x="1180.669922" xlink:href="#DejaVuSans-32"/>
     <use x="1212.457031" xlink:href="#DejaVuSans-84"/>
     <use x="1273.322266" xlink:href="#DejaVuSans-114"/>
     <use x="1314.435547" xlink:href="#DejaVuSans-117"/>
     <use x="1377.814453" xlink:href="#DejaVuSans-116"/>
     <use x="1417.023438" xlink:href="#DejaVuSans-104"/>
     <use x="1480.402344" xlink:href="#DejaVuSans-32"/>
     <use x="1512.189453" xlink:href="#DejaVuSans-80"/>
     <use x="1572.429688" xlink:href="#DejaVuSans-97"/>
     <use x="1633.708984" xlink:href="#DejaVuSans-116"/>
     <use x="1672.917969" xlink:href="#DejaVuSans-104"/>
    </g>
   </g>
   <g id="legend_1">
    <g id="patch_7">
     <path d="M 97 507.64 
L 195.96875 507.64 
Q 197.96875 507.64 197.96875 505.64 
L 197.96875 477.28375 
Q 197.96875 475.28375 195.96875 475.28375 
L 97 475.28375 
Q 95 475.28375 95 477.28375 
L 95 505.64 
Q 95 507.64 97 507.64 
z
" style="fill:#ffffff;opacity:0.8;stroke:#cccccc;stroke-linejoin:miter;"/>
    </g>
    <g id="line2d_16">
     <path d="M 99 483.382187 
L 119 483.382187 
" style="fill:none;stroke:#008000;stroke-linecap:square;stroke-width:1.5;"/>
    </g>
    <g id="line2d_17"/>
    <g id="text_18">
     <!-- Ground Truth -->
     <g transform="translate(127 486.882187)scale(0.1 -0.1)">
      <use xlink:href="#DejaVuSans-71"/>
      <use x="77.490234" xlink:href="#DejaVuSans-114"/>
      <use x="118.572266" xlink:href="#DejaVuSans-111"/>
      <use x="179.753906" xlink:href="#DejaVuSans-117"/>
      <use x="243.132812" xlink:href="#DejaVuSans-110"/>
      <use x="306.511719" xlink:href="#DejaVuSans-100"/>
      <use x="369.988281" xlink:href="#DejaVuSans-32"/>
      <use x="401.775391" xlink:href="#DejaVuSans-84"/>
      <use x="462.640625" xlink:href="#DejaVuSans-114"/>
      <use x="503.753906" xlink:href="#DejaVuSans-117"/>
      <use x="567.132812" xlink:href="#DejaVuSans-116"/>
      <use x="606.341797" xlink:href="#DejaVuSans-104"/>
     </g>
    </g>
    <g id="PathCollection_2">
     <g>
      <use style="fill:#0000ff;stroke:#0000ff;" x="109" xlink:href="#m475be8f9d1" y="498.935313"/>
     </g>
    </g>
    <g id="text_19">
     <!-- Vehicle -->
     <g transform="translate(127 501.560313)scale(0.1 -0.1)">
      <use xlink:href="#DejaVuSans-86"/>
      <use x="68.298828" xlink:href="#DejaVuSans-101"/>
      <use x="129.822266" xlink:href="#DejaVuSans-104"/>
      <use x="193.201172" xlink:href="#DejaVuSans-105"/>
      <use x="220.984375" xlink:href="#DejaVuSans-99"/>
      <use x="275.964844" xlink:href="#DejaVuSans-108"/>
      <use x="303.748047" xlink:href="#DejaVuSans-101"/>
     </g>
    </g>
   </g>
  </g>
 </g>
 <defs>
  <clipPath id="p8d71bf730b">
   <rect height="443.52" width="558" x="90" y="69.12"/>
  </clipPath>
 </defs>
</svg>
