<?xml version="1.0" encoding="utf-8" standalone="no"?>
<!DOCTYPE svg PUBLIC "-//W3C//DTD SVG 1.1//EN"
  "http://www.w3.org/Graphics/SVG/1.1/DTD/svg11.dtd">
<!-- Created with matplotlib (https://matplotlib.org/) -->
<svg height="576pt" version="1.1" viewBox="0 0 720 576" width="720pt" xmlns="http://www.w3.org/2000/svg" xmlns:xlink="http://www.w3.org/1999/xlink">
 <defs>
  <style type="text/css">
*{stroke-linecap:butt;stroke-linejoin:round;}
  </style>
 </defs>
 <g id="figure_1">
  <g id="patch_1">
   <path d="M 0 576 
L 720 576 
L 720 0 
L 0 0 
z
" style="fill:#ffffff;"/>
  </g>
  <g id="axes_1">
   <g id="patch_2">
    <path d="M 90 512.64 
L 648 512.64 
L 648 69.12 
L 90 69.12 
z
" style="fill:#ffffff;"/>
   </g>
   <g id="PathCollection_1">
    <defs>
     <path d="M 0 0.707107 
C 0.187527 0.707107 0.367398 0.632602 0.5 0.5 
C 0.632602 0.367398 0.707107 0.187527 0.707107 0 
C 0.707107 -0.187527 0.632602 -0.367398 0.5 -0.5 
C 0.367398 -0.632602 0.187527 -0.707107 0 -0.707107 
C -0.187527 -0.707107 -0.367398 -0.632602 -0.5 -0.5 
C -0.632602 -0.367398 -0.707107 -0.187527 -0.707107 0 
C -0.707107 0.187527 -0.632602 0.367398 -0.5 0.5 
C -0.367398 0.632602 -0.187527 0.707107 0 0.707107 
z
" id="me10ed1582d" style="stroke:#0000ff;"/>
    </defs>
    <g clip-path="url(#pd752583444)">
     <use style="fill:#0000ff;stroke:#0000ff;" x="646.068227" xlink:href="#me10ed1582d" y="355.406936"/>
     <use style="fill:#0000ff;stroke:#0000ff;" x="644.404169" xlink:href="#me10ed1582d" y="354.25629"/>
     <use style="fill:#0000ff;stroke:#0000ff;" x="641.91702" xlink:href="#me10ed1582d" y="352.532068"/>
     <use style="fill:#0000ff;stroke:#0000ff;" x="640.26394" xlink:href="#me10ed1582d" y="351.384433"/>
     <use style="fill:#0000ff;stroke:#0000ff;" x="637.790821" xlink:href="#me10ed1582d" y="349.667011"/>
     <use style="fill:#0000ff;stroke:#0000ff;" x="636.145954" xlink:href="#me10ed1582d" y="348.525395"/>
     <use style="fill:#0000ff;stroke:#0000ff;" x="633.684197" xlink:href="#me10ed1582d" y="346.817377"/>
     <use style="fill:#0000ff;stroke:#0000ff;" x="632.047239" xlink:href="#me10ed1582d" y="345.681653"/>
     <use style="fill:#0000ff;stroke:#0000ff;" x="629.598715" xlink:href="#me10ed1582d" y="343.980532"/>
     <use style="fill:#0000ff;stroke:#0000ff;" x="629.598715" xlink:href="#me10ed1582d" y="343.980532"/>
     <use style="fill:#0000ff;stroke:#0000ff;" x="625.538503" xlink:href="#me10ed1582d" y="341.155488"/>
     <use style="fill:#0000ff;stroke:#0000ff;" x="623.921572" xlink:href="#me10ed1582d" y="340.028307"/>
     <use style="fill:#0000ff;stroke:#0000ff;" x="621.502896" xlink:href="#me10ed1582d" y="338.340143"/>
     <use style="fill:#0000ff;stroke:#0000ff;" x="619.895492" xlink:href="#me10ed1582d" y="337.216555"/>
     <use style="fill:#0000ff;stroke:#0000ff;" x="617.49276" xlink:href="#me10ed1582d" y="335.534763"/>
     <use style="fill:#0000ff;stroke:#0000ff;" x="615.895109" xlink:href="#me10ed1582d" y="334.416398"/>
     <use style="fill:#0000ff;stroke:#0000ff;" x="614.300792" xlink:href="#me10ed1582d" y="333.300568"/>
     <use style="fill:#0000ff;stroke:#0000ff;" x="611.916108" xlink:href="#me10ed1582d" y="331.631772"/>
     <use style="fill:#0000ff;stroke:#0000ff;" x="609.539812" xlink:href="#me10ed1582d" y="329.967479"/>
     <use style="fill:#0000ff;stroke:#0000ff;" x="607.959914" xlink:href="#me10ed1582d" y="328.861295"/>
     <use style="fill:#0000ff;stroke:#0000ff;" x="605.595797" xlink:href="#me10ed1582d" y="327.207711"/>
     <use style="fill:#0000ff;stroke:#0000ff;" x="604.022796" xlink:href="#me10ed1582d" y="326.109388"/>
     <use style="fill:#0000ff;stroke:#0000ff;" x="601.669321" xlink:href="#me10ed1582d" y="324.467351"/>
     <use style="fill:#0000ff;stroke:#0000ff;" x="600.103785" xlink:href="#me10ed1582d" y="323.375883"/>
     <use style="fill:#0000ff;stroke:#0000ff;" x="597.763351" xlink:href="#me10ed1582d" y="321.743529"/>
     <use style="fill:#0000ff;stroke:#0000ff;" x="596.207398" xlink:href="#me10ed1582d" y="320.657838"/>
     <use style="fill:#0000ff;stroke:#0000ff;" x="593.880717" xlink:href="#me10ed1582d" y="319.033924"/>
     <use style="fill:#0000ff;stroke:#0000ff;" x="592.333154" xlink:href="#me10ed1582d" y="317.954717"/>
     <use style="fill:#0000ff;stroke:#0000ff;" x="590.016369" xlink:href="#me10ed1582d" y="316.34126"/>
     <use style="fill:#0000ff;stroke:#0000ff;" x="590.016369" xlink:href="#me10ed1582d" y="316.34126"/>
     <use style="fill:#0000ff;stroke:#0000ff;" x="586.170364" xlink:href="#me10ed1582d" y="313.668881"/>
     <use style="fill:#0000ff;stroke:#0000ff;" x="584.636874" xlink:href="#me10ed1582d" y="312.606232"/>
     <use style="fill:#0000ff;stroke:#0000ff;" x="582.34101" xlink:href="#me10ed1582d" y="311.017965"/>
     <use style="fill:#0000ff;stroke:#0000ff;" x="580.815061" xlink:href="#me10ed1582d" y="309.962157"/>
     <use style="fill:#0000ff;stroke:#0000ff;" x="578.5334" xlink:href="#me10ed1582d" y="308.382849"/>
     <use style="fill:#0000ff;stroke:#0000ff;" x="577.015905" xlink:href="#me10ed1582d" y="307.333522"/>
     <use style="fill:#0000ff;stroke:#0000ff;" x="575.50058" xlink:href="#me10ed1582d" y="306.287523"/>
     <use style="fill:#0000ff;stroke:#0000ff;" x="573.232682" xlink:href="#me10ed1582d" y="304.723637"/>
     <use style="fill:#0000ff;stroke:#0000ff;" x="570.972062" xlink:href="#me10ed1582d" y="303.165156"/>
     <use style="fill:#0000ff;stroke:#0000ff;" x="569.469071" xlink:href="#me10ed1582d" y="302.129397"/>
     <use style="fill:#0000ff;stroke:#0000ff;" x="567.220993" xlink:href="#me10ed1582d" y="300.58097"/>
     <use style="fill:#0000ff;stroke:#0000ff;" x="565.725345" xlink:href="#me10ed1582d" y="299.552551"/>
     <use style="fill:#0000ff;stroke:#0000ff;" x="563.487688" xlink:href="#me10ed1582d" y="298.0154"/>
     <use style="fill:#0000ff;stroke:#0000ff;" x="561.999221" xlink:href="#me10ed1582d" y="296.993246"/>
     <use style="fill:#0000ff;stroke:#0000ff;" x="559.774839" xlink:href="#me10ed1582d" y="295.464625"/>
     <use style="fill:#0000ff;stroke:#0000ff;" x="558.295935" xlink:href="#me10ed1582d" y="294.448454"/>
     <use style="fill:#0000ff;stroke:#0000ff;" x="556.083367" xlink:href="#me10ed1582d" y="292.92997"/>
     <use style="fill:#0000ff;stroke:#0000ff;" x="554.61165" xlink:href="#me10ed1582d" y="291.92101"/>
     <use style="fill:#0000ff;stroke:#0000ff;" x="552.410014" xlink:href="#me10ed1582d" y="290.412588"/>
     <use style="fill:#0000ff;stroke:#0000ff;" x="552.410014" xlink:href="#me10ed1582d" y="290.412588"/>
     <use style="fill:#0000ff;stroke:#0000ff;" x="548.756147" xlink:href="#me10ed1582d" y="287.913853"/>
     <use style="fill:#0000ff;stroke:#0000ff;" x="547.299835" xlink:href="#me10ed1582d" y="286.919307"/>
     <use style="fill:#0000ff;stroke:#0000ff;" x="545.121267" xlink:href="#me10ed1582d" y="285.43259"/>
     <use style="fill:#0000ff;stroke:#0000ff;" x="543.673207" xlink:href="#me10ed1582d" y="284.444811"/>
     <use style="fill:#0000ff;stroke:#0000ff;" x="541.507571" xlink:href="#me10ed1582d" y="282.967742"/>
     <use style="fill:#0000ff;stroke:#0000ff;" x="540.067609" xlink:href="#me10ed1582d" y="281.985872"/>
     <use style="fill:#0000ff;stroke:#0000ff;" x="537.914149" xlink:href="#me10ed1582d" y="280.518461"/>
     <use style="fill:#0000ff;stroke:#0000ff;" x="535.767054" xlink:href="#me10ed1582d" y="279.057857"/>
     <use style="fill:#0000ff;stroke:#0000ff;" x="534.338495" xlink:href="#me10ed1582d" y="278.087631"/>
     <use style="fill:#0000ff;stroke:#0000ff;" x="532.91307" xlink:href="#me10ed1582d" y="277.120666"/>
     <use style="fill:#0000ff;stroke:#0000ff;" x="530.781544" xlink:href="#me10ed1582d" y="275.674561"/>
     <use style="fill:#0000ff;stroke:#0000ff;" x="529.364513" xlink:href="#me10ed1582d" y="274.713468"/>
     <use style="fill:#0000ff;stroke:#0000ff;" x="527.244502" xlink:href="#me10ed1582d" y="273.27732"/>
     <use style="fill:#0000ff;stroke:#0000ff;" x="525.835488" xlink:href="#me10ed1582d" y="272.322767"/>
     <use style="fill:#0000ff;stroke:#0000ff;" x="523.728594" xlink:href="#me10ed1582d" y="270.894366"/>
     <use style="fill:#0000ff;stroke:#0000ff;" x="522.329159" xlink:href="#me10ed1582d" y="269.944886"/>
     <use style="fill:#0000ff;stroke:#0000ff;" x="520.237034" xlink:href="#me10ed1582d" y="268.524415"/>
     <use style="fill:#0000ff;stroke:#0000ff;" x="518.846355" xlink:href="#me10ed1582d" y="267.58001"/>
     <use style="fill:#0000ff;stroke:#0000ff;" x="516.767061" xlink:href="#me10ed1582d" y="266.167421"/>
     <use style="fill:#0000ff;stroke:#0000ff;" x="516.767061" xlink:href="#me10ed1582d" y="266.167421"/>
     <use style="fill:#0000ff;stroke:#0000ff;" x="514.007404" xlink:href="#me10ed1582d" y="264.292075"/>
     <use style="fill:#0000ff;stroke:#0000ff;" x="511.946513" xlink:href="#me10ed1582d" y="262.891802"/>
     <use style="fill:#0000ff;stroke:#0000ff;" x="509.894163" xlink:href="#me10ed1582d" y="261.495905"/>
     <use style="fill:#0000ff;stroke:#0000ff;" x="508.530916" xlink:href="#me10ed1582d" y="260.567832"/>
     <use style="fill:#0000ff;stroke:#0000ff;" x="506.492424" xlink:href="#me10ed1582d" y="259.179912"/>
     <use style="fill:#0000ff;stroke:#0000ff;" x="505.137221" xlink:href="#me10ed1582d" y="258.257701"/>
     <use style="fill:#0000ff;stroke:#0000ff;" x="503.110177" xlink:href="#me10ed1582d" y="256.878899"/>
     <use style="fill:#0000ff;stroke:#0000ff;" x="501.762627" xlink:href="#me10ed1582d" y="255.962827"/>
     <use style="fill:#0000ff;stroke:#0000ff;" x="499.748279" xlink:href="#me10ed1582d" y="254.592781"/>
     <use style="fill:#0000ff;stroke:#0000ff;" x="498.410162" xlink:href="#me10ed1582d" y="253.681874"/>
     <use style="fill:#0000ff;stroke:#0000ff;" x="496.409207" xlink:href="#me10ed1582d" y="252.319438"/>
     <use style="fill:#0000ff;stroke:#0000ff;" x="495.079982" xlink:href="#me10ed1582d" y="251.413801"/>
     <use style="fill:#0000ff;stroke:#0000ff;" x="493.093212" xlink:href="#me10ed1582d" y="250.059594"/>
     <use style="fill:#0000ff;stroke:#0000ff;" x="491.773034" xlink:href="#me10ed1582d" y="249.159703"/>
     <use style="fill:#0000ff;stroke:#0000ff;" x="489.798757" xlink:href="#me10ed1582d" y="247.814175"/>
     <use style="fill:#0000ff;stroke:#0000ff;" x="488.486518" xlink:href="#me10ed1582d" y="246.920422"/>
     <use style="fill:#0000ff;stroke:#0000ff;" x="486.523063" xlink:href="#me10ed1582d" y="245.58554"/>
     <use style="fill:#0000ff;stroke:#0000ff;" x="485.21824" xlink:href="#me10ed1582d" y="244.699202"/>
     <use style="fill:#0000ff;stroke:#0000ff;" x="483.266802" xlink:href="#me10ed1582d" y="243.375193"/>
     <use style="fill:#0000ff;stroke:#0000ff;" x="483.266802" xlink:href="#me10ed1582d" y="243.375193"/>
     <use style="fill:#0000ff;stroke:#0000ff;" x="480.025371" xlink:href="#me10ed1582d" y="241.186327"/>
     <use style="fill:#0000ff;stroke:#0000ff;" x="478.734695" xlink:href="#me10ed1582d" y="240.316303"/>
     <use style="fill:#0000ff;stroke:#0000ff;" x="476.804479" xlink:href="#me10ed1582d" y="239.015233"/>
     <use style="fill:#0000ff;stroke:#0000ff;" x="475.521455" xlink:href="#me10ed1582d" y="238.151453"/>
     <use style="fill:#0000ff;stroke:#0000ff;" x="473.602137" xlink:href="#me10ed1582d" y="236.860898"/>
     <use style="fill:#0000ff;stroke:#0000ff;" x="472.326104" xlink:href="#me10ed1582d" y="236.004233"/>
     <use style="fill:#0000ff;stroke:#0000ff;" x="470.4176" xlink:href="#me10ed1582d" y="234.724404"/>
     <use style="fill:#0000ff;stroke:#0000ff;" x="469.149445" xlink:href="#me10ed1582d" y="233.874781"/>
     <use style="fill:#0000ff;stroke:#0000ff;" x="467.253067" xlink:href="#me10ed1582d" y="232.604626"/>
     <use style="fill:#0000ff;stroke:#0000ff;" x="465.362921" xlink:href="#me10ed1582d" y="231.34087"/>
     <use style="fill:#0000ff;stroke:#0000ff;" x="464.10745" xlink:href="#me10ed1582d" y="230.502585"/>
     <use style="fill:#0000ff;stroke:#0000ff;" x="462.8544" xlink:href="#me10ed1582d" y="229.66688"/>
     <use style="fill:#0000ff;stroke:#0000ff;" x="460.980466" xlink:href="#me10ed1582d" y="228.419477"/>
     <use style="fill:#0000ff;stroke:#0000ff;" x="459.733486" xlink:href="#me10ed1582d" y="227.593501"/>
     <use style="fill:#0000ff;stroke:#0000ff;" x="457.865304" xlink:href="#me10ed1582d" y="226.361844"/>
     <use style="fill:#0000ff;stroke:#0000ff;" x="456.621112" xlink:href="#me10ed1582d" y="225.546778"/>
     <use style="fill:#0000ff;stroke:#0000ff;" x="454.758067" xlink:href="#me10ed1582d" y="224.33319"/>
     <use style="fill:#0000ff;stroke:#0000ff;" x="453.518298" xlink:href="#me10ed1582d" y="223.528285"/>
     <use style="fill:#0000ff;stroke:#0000ff;" x="451.664726" xlink:href="#me10ed1582d" y="222.326169"/>
     <use style="fill:#0000ff;stroke:#0000ff;" x="451.664726" xlink:href="#me10ed1582d" y="222.326169"/>
     <use style="fill:#0000ff;stroke:#0000ff;" x="448.585417" xlink:href="#me10ed1582d" y="220.340536"/>
     <use style="fill:#0000ff;stroke:#0000ff;" x="447.356174" xlink:href="#me10ed1582d" y="219.554425"/>
     <use style="fill:#0000ff;stroke:#0000ff;" x="445.515192" xlink:href="#me10ed1582d" y="218.382865"/>
     <use style="fill:#0000ff;stroke:#0000ff;" x="444.28942" xlink:href="#me10ed1582d" y="217.608185"/>
     <use style="fill:#0000ff;stroke:#0000ff;" x="442.451596" xlink:href="#me10ed1582d" y="216.455985"/>
     <use style="fill:#0000ff;stroke:#0000ff;" x="441.227843" xlink:href="#me10ed1582d" y="215.69405"/>
     <use style="fill:#0000ff;stroke:#0000ff;" x="439.395453" xlink:href="#me10ed1582d" y="214.55844"/>
     <use style="fill:#0000ff;stroke:#0000ff;" x="438.176489" xlink:href="#me10ed1582d" y="213.806555"/>
     <use style="fill:#0000ff;stroke:#0000ff;" x="436.351299" xlink:href="#me10ed1582d" y="212.686873"/>
     <use style="fill:#0000ff;stroke:#0000ff;" x="435.13488" xlink:href="#me10ed1582d" y="211.946715"/>
     <use style="fill:#0000ff;stroke:#0000ff;" x="433.308372" xlink:href="#me10ed1582d" y="210.849019"/>
     <use style="fill:#0000ff;stroke:#0000ff;" x="432.089126" xlink:href="#me10ed1582d" y="210.125292"/>
     <use style="fill:#0000ff;stroke:#0000ff;" x="430.260666" xlink:href="#me10ed1582d" y="209.050461"/>
     <use style="fill:#0000ff;stroke:#0000ff;" x="429.043081" xlink:href="#me10ed1582d" y="208.341043"/>
     <use style="fill:#0000ff;stroke:#0000ff;" x="427.218897" xlink:href="#me10ed1582d" y="207.286891"/>
     <use style="fill:#0000ff;stroke:#0000ff;" x="426.003766" xlink:href="#me10ed1582d" y="206.59208"/>
     <use style="fill:#0000ff;stroke:#0000ff;" x="424.181646" xlink:href="#me10ed1582d" y="205.561821"/>
     <use style="fill:#0000ff;stroke:#0000ff;" x="422.967067" xlink:href="#me10ed1582d" y="204.883197"/>
     <use style="fill:#0000ff;stroke:#0000ff;" x="421.143917" xlink:href="#me10ed1582d" y="203.877713"/>
     <use style="fill:#0000ff;stroke:#0000ff;" x="421.143917" xlink:href="#me10ed1582d" y="203.877713"/>
     <use style="fill:#0000ff;stroke:#0000ff;" x="418.101004" xlink:href="#me10ed1582d" y="202.238787"/>
     <use style="fill:#0000ff;stroke:#0000ff;" x="416.882378" xlink:href="#me10ed1582d" y="201.597613"/>
     <use style="fill:#0000ff;stroke:#0000ff;" x="415.05358" xlink:href="#me10ed1582d" y="200.650834"/>
     <use style="fill:#0000ff;stroke:#0000ff;" x="413.834139" xlink:href="#me10ed1582d" y="200.02991"/>
     <use style="fill:#0000ff;stroke:#0000ff;" x="412.004438" xlink:href="#me10ed1582d" y="199.112676"/>
     <use style="fill:#0000ff;stroke:#0000ff;" x="410.784018" xlink:href="#me10ed1582d" y="198.510769"/>
     <use style="fill:#0000ff;stroke:#0000ff;" x="409.563208" xlink:href="#me10ed1582d" y="197.91661"/>
     <use style="fill:#0000ff;stroke:#0000ff;" x="407.732594" xlink:href="#me10ed1582d" y="197.038475"/>
     <use style="fill:#0000ff;stroke:#0000ff;" x="405.900869" xlink:href="#me10ed1582d" y="196.178334"/>
     <use style="fill:#0000ff;stroke:#0000ff;" x="404.678858" xlink:href="#me10ed1582d" y="195.616573"/>
     <use style="fill:#0000ff;stroke:#0000ff;" x="402.843599" xlink:href="#me10ed1582d" y="194.792111"/>
     <use style="fill:#0000ff;stroke:#0000ff;" x="401.007734" xlink:href="#me10ed1582d" y="193.989009"/>
     <use style="fill:#0000ff;stroke:#0000ff;" x="399.78367" xlink:href="#me10ed1582d" y="193.464357"/>
     <use style="fill:#0000ff;stroke:#0000ff;" x="398.56016" xlink:href="#me10ed1582d" y="192.946468"/>
     <use style="fill:#0000ff;stroke:#0000ff;" x="396.725766" xlink:href="#me10ed1582d" y="192.181636"/>
     <use style="fill:#0000ff;stroke:#0000ff;" x="395.503227" xlink:href="#me10ed1582d" y="191.68062"/>
     <use style="fill:#0000ff;stroke:#0000ff;" x="393.667258" xlink:href="#me10ed1582d" y="190.945884"/>
     <use style="fill:#0000ff;stroke:#0000ff;" x="392.441464" xlink:href="#me10ed1582d" y="190.469077"/>
     <use style="fill:#0000ff;stroke:#0000ff;" x="390.600332" xlink:href="#me10ed1582d" y="189.774071"/>
     <use style="fill:#0000ff;stroke:#0000ff;" x="390.600332" xlink:href="#me10ed1582d" y="189.774071"/>
     <use style="fill:#0000ff;stroke:#0000ff;" x="387.52752" xlink:href="#me10ed1582d" y="188.663831"/>
     <use style="fill:#0000ff;stroke:#0000ff;" x="386.299244" xlink:href="#me10ed1582d" y="188.231583"/>
     <use style="fill:#0000ff;stroke:#0000ff;" x="384.457836" xlink:href="#me10ed1582d" y="187.595869"/>
     <use style="fill:#0000ff;stroke:#0000ff;" x="383.229367" xlink:href="#me10ed1582d" y="187.183745"/>
     <use style="fill:#0000ff;stroke:#0000ff;" x="381.384855" xlink:href="#me10ed1582d" y="186.585438"/>
     <use style="fill:#0000ff;stroke:#0000ff;" x="380.154217" xlink:href="#me10ed1582d" y="186.200167"/>
     <use style="fill:#0000ff;stroke:#0000ff;" x="378.307954" xlink:href="#me10ed1582d" y="185.641539"/>
     <use style="fill:#0000ff;stroke:#0000ff;" x="377.077769" xlink:href="#me10ed1582d" y="185.280512"/>
     <use style="fill:#0000ff;stroke:#0000ff;" x="375.233559" xlink:href="#me10ed1582d" y="184.755219"/>
     <use style="fill:#0000ff;stroke:#0000ff;" x="374.0051" xlink:href="#me10ed1582d" y="184.415351"/>
     <use style="fill:#0000ff;stroke:#0000ff;" x="372.163217" xlink:href="#me10ed1582d" y="183.922084"/>
     <use style="fill:#0000ff;stroke:#0000ff;" x="370.935573" xlink:href="#me10ed1582d" y="183.605934"/>
     <use style="fill:#0000ff;stroke:#0000ff;" x="369.09475" xlink:href="#me10ed1582d" y="183.150595"/>
     <use style="fill:#0000ff;stroke:#0000ff;" x="367.868458" xlink:href="#me10ed1582d" y="182.859616"/>
     <use style="fill:#0000ff;stroke:#0000ff;" x="366.03211" xlink:href="#me10ed1582d" y="182.439007"/>
     <use style="fill:#0000ff;stroke:#0000ff;" x="364.809282" xlink:href="#me10ed1582d" y="182.169696"/>
     <use style="fill:#0000ff;stroke:#0000ff;" x="362.977223" xlink:href="#me10ed1582d" y="181.782106"/>
     <use style="fill:#0000ff;stroke:#0000ff;" x="361.757967" xlink:href="#me10ed1582d" y="181.535134"/>
     <use style="fill:#0000ff;stroke:#0000ff;" x="359.932142" xlink:href="#me10ed1582d" y="181.181096"/>
     <use style="fill:#0000ff;stroke:#0000ff;" x="359.932142" xlink:href="#me10ed1582d" y="181.181096"/>
     <use style="fill:#0000ff;stroke:#0000ff;" x="357.501048" xlink:href="#me10ed1582d" y="180.736673"/>
     <use style="fill:#0000ff;stroke:#0000ff;" x="355.680372" xlink:href="#me10ed1582d" y="180.424928"/>
     <use style="fill:#0000ff;stroke:#0000ff;" x="353.861204" xlink:href="#me10ed1582d" y="180.132443"/>
     <use style="fill:#0000ff;stroke:#0000ff;" x="352.64825" xlink:href="#me10ed1582d" y="179.948218"/>
     <use style="fill:#0000ff;stroke:#0000ff;" x="350.82719" xlink:href="#me10ed1582d" y="179.68777"/>
     <use style="fill:#0000ff;stroke:#0000ff;" x="349.61188" xlink:href="#me10ed1582d" y="179.525243"/>
     <use style="fill:#0000ff;stroke:#0000ff;" x="347.787702" xlink:href="#me10ed1582d" y="179.299247"/>
     <use style="fill:#0000ff;stroke:#0000ff;" x="346.570169" xlink:href="#me10ed1582d" y="179.159622"/>
     <use style="fill:#0000ff;stroke:#0000ff;" x="344.739581" xlink:href="#me10ed1582d" y="178.964899"/>
     <use style="fill:#0000ff;stroke:#0000ff;" x="343.515708" xlink:href="#me10ed1582d" y="178.844077"/>
     <use style="fill:#0000ff;stroke:#0000ff;" x="341.674031" xlink:href="#me10ed1582d" y="178.67887"/>
     <use style="fill:#0000ff;stroke:#0000ff;" x="340.442105" xlink:href="#me10ed1582d" y="178.581089"/>
     <use style="fill:#0000ff;stroke:#0000ff;" x="338.589266" xlink:href="#me10ed1582d" y="178.457272"/>
     <use style="fill:#0000ff;stroke:#0000ff;" x="337.35101" xlink:href="#me10ed1582d" y="178.38954"/>
     <use style="fill:#0000ff;stroke:#0000ff;" x="335.489556" xlink:href="#me10ed1582d" y="178.306758"/>
     <use style="fill:#0000ff;stroke:#0000ff;" x="334.244721" xlink:href="#me10ed1582d" y="178.262324"/>
     <use style="fill:#0000ff;stroke:#0000ff;" x="332.373434" xlink:href="#me10ed1582d" y="178.209345"/>
     <use style="fill:#0000ff;stroke:#0000ff;" x="331.123225" xlink:href="#me10ed1582d" y="178.183384"/>
     <use style="fill:#0000ff;stroke:#0000ff;" x="329.243457" xlink:href="#me10ed1582d" y="178.160652"/>
     <use style="fill:#0000ff;stroke:#0000ff;" x="329.243457" xlink:href="#me10ed1582d" y="178.160652"/>
     <use style="fill:#0000ff;stroke:#0000ff;" x="326.72938" xlink:href="#me10ed1582d" y="178.172959"/>
     <use style="fill:#0000ff;stroke:#0000ff;" x="324.841676" xlink:href="#me10ed1582d" y="178.2141"/>
     <use style="fill:#0000ff;stroke:#0000ff;" x="322.954125" xlink:href="#me10ed1582d" y="178.281373"/>
     <use style="fill:#0000ff;stroke:#0000ff;" x="321.062572" xlink:href="#me10ed1582d" y="178.374283"/>
     <use style="fill:#0000ff;stroke:#0000ff;" x="320.431343" xlink:href="#me10ed1582d" y="178.409987"/>
     <use style="fill:#0000ff;stroke:#0000ff;" x="317.904443" xlink:href="#me10ed1582d" y="178.579404"/>
     <use style="fill:#0000ff;stroke:#0000ff;" x="316.639974" xlink:href="#me10ed1582d" y="178.677282"/>
     <use style="fill:#0000ff;stroke:#0000ff;" x="315.376253" xlink:href="#me10ed1582d" y="178.784441"/>
     <use style="fill:#0000ff;stroke:#0000ff;" x="313.479632" xlink:href="#me10ed1582d" y="178.963206"/>
     <use style="fill:#0000ff;stroke:#0000ff;" x="312.214018" xlink:href="#me10ed1582d" y="179.095352"/>
     <use style="fill:#0000ff;stroke:#0000ff;" x="310.316017" xlink:href="#me10ed1582d" y="179.313247"/>
     <use style="fill:#0000ff;stroke:#0000ff;" x="309.050458" xlink:href="#me10ed1582d" y="179.472734"/>
     <use style="fill:#0000ff;stroke:#0000ff;" x="307.153911" xlink:href="#me10ed1582d" y="179.737148"/>
     <use style="fill:#0000ff;stroke:#0000ff;" x="305.893423" xlink:href="#me10ed1582d" y="179.931892"/>
     <use style="fill:#0000ff;stroke:#0000ff;" x="304.012334" xlink:href="#me10ed1582d" y="180.257199"/>
     <use style="fill:#0000ff;stroke:#0000ff;" x="302.764301" xlink:href="#me10ed1582d" y="180.495207"/>
     <use style="fill:#0000ff;stroke:#0000ff;" x="300.897441" xlink:href="#me10ed1582d" y="180.877464"/>
     <use style="fill:#0000ff;stroke:#0000ff;" x="299.036239" xlink:href="#me10ed1582d" y="181.284641"/>
     <use style="fill:#0000ff;stroke:#0000ff;" x="297.800786" xlink:href="#me10ed1582d" y="181.567169"/>
     <use style="fill:#0000ff;stroke:#0000ff;" x="297.800786" xlink:href="#me10ed1582d" y="181.567169"/>
     <use style="fill:#0000ff;stroke:#0000ff;" x="294.728464" xlink:href="#me10ed1582d" y="182.315063"/>
     <use style="fill:#0000ff;stroke:#0000ff;" x="292.898967" xlink:href="#me10ed1582d" y="182.792617"/>
     <use style="fill:#0000ff;stroke:#0000ff;" x="291.685417" xlink:href="#me10ed1582d" y="183.12258"/>
     <use style="fill:#0000ff;stroke:#0000ff;" x="290.478345" xlink:href="#me10ed1582d" y="183.466023"/>
     <use style="fill:#0000ff;stroke:#0000ff;" x="288.681636" xlink:href="#me10ed1582d" y="184.011543"/>
     <use style="fill:#0000ff;stroke:#0000ff;" x="286.900391" xlink:href="#me10ed1582d" y="184.586721"/>
     <use style="fill:#0000ff;stroke:#0000ff;" x="285.717606" xlink:href="#me10ed1582d" y="184.981247"/>
     <use style="fill:#0000ff;stroke:#0000ff;" x="284.537912" xlink:href="#me10ed1582d" y="185.382907"/>
     <use style="fill:#0000ff;stroke:#0000ff;" x="282.777389" xlink:href="#me10ed1582d" y="186.005706"/>
     <use style="fill:#0000ff;stroke:#0000ff;" x="281.03461" xlink:href="#me10ed1582d" y="186.658857"/>
     <use style="fill:#0000ff;stroke:#0000ff;" x="279.882565" xlink:href="#me10ed1582d" y="187.111869"/>
     <use style="fill:#0000ff;stroke:#0000ff;" x="278.73815" xlink:href="#me10ed1582d" y="187.577493"/>
     <use style="fill:#0000ff;stroke:#0000ff;" x="277.03228" xlink:href="#me10ed1582d" y="188.29728"/>
     <use style="fill:#0000ff;stroke:#0000ff;" x="275.338879" xlink:href="#me10ed1582d" y="189.039729"/>
     <use style="fill:#0000ff;stroke:#0000ff;" x="274.215444" xlink:href="#me10ed1582d" y="189.546631"/>
     <use style="fill:#0000ff;stroke:#0000ff;" x="273.097849" xlink:href="#me10ed1582d" y="190.064396"/>
     <use style="fill:#0000ff;stroke:#0000ff;" x="271.432687" xlink:href="#me10ed1582d" y="190.861455"/>
     <use style="fill:#0000ff;stroke:#0000ff;" x="269.782068" xlink:href="#me10ed1582d" y="191.68037"/>
     <use style="fill:#0000ff;stroke:#0000ff;" x="268.689458" xlink:href="#me10ed1582d" y="192.238598"/>
     <use style="fill:#0000ff;stroke:#0000ff;" x="268.689458" xlink:href="#me10ed1582d" y="192.238598"/>
     <use style="fill:#0000ff;stroke:#0000ff;" x="266.016931" xlink:href="#me10ed1582d" y="193.693847"/>
     <use style="fill:#0000ff;stroke:#0000ff;" x="264.441501" xlink:href="#me10ed1582d" y="194.601848"/>
     <use style="fill:#0000ff;stroke:#0000ff;" x="263.398025" xlink:href="#me10ed1582d" y="195.216897"/>
     <use style="fill:#0000ff;stroke:#0000ff;" x="262.359436" xlink:href="#me10ed1582d" y="195.83985"/>
     <use style="fill:#0000ff;stroke:#0000ff;" x="260.812086" xlink:href="#me10ed1582d" y="196.790254"/>
     <use style="fill:#0000ff;stroke:#0000ff;" x="259.277555" xlink:href="#me10ed1582d" y="197.757882"/>
     <use style="fill:#0000ff;stroke:#0000ff;" x="258.26291" xlink:href="#me10ed1582d" y="198.413796"/>
     <use style="fill:#0000ff;stroke:#0000ff;" x="256.752876" xlink:href="#me10ed1582d" y="199.411877"/>
     <use style="fill:#0000ff;stroke:#0000ff;" x="255.754472" xlink:href="#me10ed1582d" y="200.08729"/>
     <use style="fill:#0000ff;stroke:#0000ff;" x="254.270325" xlink:href="#me10ed1582d" y="201.116271"/>
     <use style="fill:#0000ff;stroke:#0000ff;" x="253.289068" xlink:href="#me10ed1582d" y="201.811658"/>
     <use style="fill:#0000ff;stroke:#0000ff;" x="252.315087" xlink:href="#me10ed1582d" y="202.514622"/>
     <use style="fill:#0000ff;stroke:#0000ff;" x="250.868335" xlink:href="#me10ed1582d" y="203.582962"/>
     <use style="fill:#0000ff;stroke:#0000ff;" x="249.435026" xlink:href="#me10ed1582d" y="204.665267"/>
     <use style="fill:#0000ff;stroke:#0000ff;" x="248.486684" xlink:href="#me10ed1582d" y="205.394943"/>
     <use style="fill:#0000ff;stroke:#0000ff;" x="247.543074" xlink:href="#me10ed1582d" y="206.130279"/>
     <use style="fill:#0000ff;stroke:#0000ff;" x="246.604132" xlink:href="#me10ed1582d" y="206.87091"/>
     <use style="fill:#0000ff;stroke:#0000ff;" x="244.7404" xlink:href="#me10ed1582d" y="208.367795"/>
     <use style="fill:#0000ff;stroke:#0000ff;" x="243.815576" xlink:href="#me10ed1582d" y="209.123768"/>
     <use style="fill:#0000ff;stroke:#0000ff;" x="243.354937" xlink:href="#me10ed1582d" y="209.503644"/>
     <use style="fill:#0000ff;stroke:#0000ff;" x="241.526018" xlink:href="#me10ed1582d" y="211.03774"/>
     <use style="fill:#0000ff;stroke:#0000ff;" x="240.166898" xlink:href="#me10ed1582d" y="212.202185"/>
     <use style="fill:#0000ff;stroke:#0000ff;" x="239.264589" xlink:href="#me10ed1582d" y="212.983889"/>
     <use style="fill:#0000ff;stroke:#0000ff;" x="238.36467" xlink:href="#me10ed1582d" y="213.770007"/>
     <use style="fill:#0000ff;stroke:#0000ff;" x="237.018991" xlink:href="#me10ed1582d" y="214.958654"/>
     <use style="fill:#0000ff;stroke:#0000ff;" x="236.124219" xlink:href="#me10ed1582d" y="215.75723"/>
     <use style="fill:#0000ff;stroke:#0000ff;" x="234.785089" xlink:href="#me10ed1582d" y="216.965408"/>
     <use style="fill:#0000ff;stroke:#0000ff;" x="233.894772" xlink:href="#me10ed1582d" y="217.778789"/>
     <use style="fill:#0000ff;stroke:#0000ff;" x="232.561274" xlink:href="#me10ed1582d" y="219.010071"/>
     <use style="fill:#0000ff;stroke:#0000ff;" x="231.229279" xlink:href="#me10ed1582d" y="220.255232"/>
     <use style="fill:#0000ff;stroke:#0000ff;" x="230.340234" xlink:href="#me10ed1582d" y="221.091374"/>
     <use style="fill:#0000ff;stroke:#0000ff;" x="229.449823" xlink:href="#me10ed1582d" y="221.932348"/>
     <use style="fill:#0000ff;stroke:#0000ff;" x="228.111764" xlink:href="#me10ed1582d" y="223.203868"/>
     <use style="fill:#0000ff;stroke:#0000ff;" x="226.770972" xlink:href="#me10ed1582d" y="224.487512"/>
     <use style="fill:#0000ff;stroke:#0000ff;" x="225.877221" xlink:href="#me10ed1582d" y="225.351381"/>
     <use style="fill:#0000ff;stroke:#0000ff;" x="224.535564" xlink:href="#me10ed1582d" y="226.659019"/>
     <use style="fill:#0000ff;stroke:#0000ff;" x="223.638984" xlink:href="#me10ed1582d" y="227.537123"/>
     <use style="fill:#0000ff;stroke:#0000ff;" x="222.29016" xlink:href="#me10ed1582d" y="228.862859"/>
     <use style="fill:#0000ff;stroke:#0000ff;" x="221.388997" xlink:href="#me10ed1582d" y="229.753365"/>
     <use style="fill:#0000ff;stroke:#0000ff;" x="220.941055" xlink:href="#me10ed1582d" y="230.20131"/>
     <use style="fill:#0000ff;stroke:#0000ff;" x="219.153299" xlink:href="#me10ed1582d" y="232.00448"/>
     <use style="fill:#0000ff;stroke:#0000ff;" x="217.80921" xlink:href="#me10ed1582d" y="233.368866"/>
     <use style="fill:#0000ff;stroke:#0000ff;" x="216.912418" xlink:href="#me10ed1582d" y="234.282667"/>
     <use style="fill:#0000ff;stroke:#0000ff;" x="216.015134" xlink:href="#me10ed1582d" y="235.198611"/>
     <use style="fill:#0000ff;stroke:#0000ff;" x="214.669032" xlink:href="#me10ed1582d" y="236.575756"/>
     <use style="fill:#0000ff;stroke:#0000ff;" x="213.329256" xlink:href="#me10ed1582d" y="237.957472"/>
     <use style="fill:#0000ff;stroke:#0000ff;" x="212.439006" xlink:href="#me10ed1582d" y="238.880603"/>
     <use style="fill:#0000ff;stroke:#0000ff;" x="211.109265" xlink:href="#me10ed1582d" y="240.268806"/>
     <use style="fill:#0000ff;stroke:#0000ff;" x="210.224091" xlink:href="#me10ed1582d" y="241.195932"/>
     <use style="fill:#0000ff;stroke:#0000ff;" x="208.896553" xlink:href="#me10ed1582d" y="242.589659"/>
     <use style="fill:#0000ff;stroke:#0000ff;" x="208.013563" xlink:href="#me10ed1582d" y="243.521603"/>
     <use style="fill:#0000ff;stroke:#0000ff;" x="206.692241" xlink:href="#me10ed1582d" y="244.924942"/>
     <use style="fill:#0000ff;stroke:#0000ff;" x="205.81215" xlink:href="#me10ed1582d" y="245.863702"/>
     <use style="fill:#0000ff;stroke:#0000ff;" x="204.491982" xlink:href="#me10ed1582d" y="247.277679"/>
     <use style="fill:#0000ff;stroke:#0000ff;" x="203.612844" xlink:href="#me10ed1582d" y="248.225189"/>
     <use style="fill:#0000ff;stroke:#0000ff;" x="202.292564" xlink:href="#me10ed1582d" y="249.653832"/>
     <use style="fill:#0000ff;stroke:#0000ff;" x="201.414149" xlink:href="#me10ed1582d" y="250.613095"/>
     <use style="fill:#0000ff;stroke:#0000ff;" x="200.090083" xlink:href="#me10ed1582d" y="252.059244"/>
     <use style="fill:#0000ff;stroke:#0000ff;" x="199.206195" xlink:href="#me10ed1582d" y="253.029532"/>
     <use style="fill:#0000ff;stroke:#0000ff;" x="198.764603" xlink:href="#me10ed1582d" y="253.516224"/>
     <use style="fill:#0000ff;stroke:#0000ff;" x="197.008025" xlink:href="#me10ed1582d" y="255.471187"/>
     <use style="fill:#0000ff;stroke:#0000ff;" x="195.683811" xlink:href="#me10ed1582d" y="256.949628"/>
     <use style="fill:#0000ff;stroke:#0000ff;" x="194.800838" xlink:href="#me10ed1582d" y="257.941605"/>
     <use style="fill:#0000ff;stroke:#0000ff;" x="193.475963" xlink:href="#me10ed1582d" y="259.439036"/>
     <use style="fill:#0000ff;stroke:#0000ff;" x="192.590559" xlink:href="#me10ed1582d" y="260.442953"/>
     <use style="fill:#0000ff;stroke:#0000ff;" x="191.25796" xlink:href="#me10ed1582d" y="261.956819"/>
     <use style="fill:#0000ff;stroke:#0000ff;" x="190.368184" xlink:href="#me10ed1582d" y="262.971784"/>
     <use style="fill:#0000ff;stroke:#0000ff;" x="189.032809" xlink:href="#me10ed1582d" y="264.503566"/>
     <use style="fill:#0000ff;stroke:#0000ff;" x="188.140741" xlink:href="#me10ed1582d" y="265.531137"/>
     <use style="fill:#0000ff;stroke:#0000ff;" x="186.80037" xlink:href="#me10ed1582d" y="267.081263"/>
     <use style="fill:#0000ff;stroke:#0000ff;" x="185.905838" xlink:href="#me10ed1582d" y="268.120153"/>
     <use style="fill:#0000ff;stroke:#0000ff;" x="184.55953" xlink:href="#me10ed1582d" y="269.686465"/>
     <use style="fill:#0000ff;stroke:#0000ff;" x="183.660879" xlink:href="#me10ed1582d" y="270.736349"/>
     <use style="fill:#0000ff;stroke:#0000ff;" x="182.313855" xlink:href="#me10ed1582d" y="272.320708"/>
     <use style="fill:#0000ff;stroke:#0000ff;" x="181.415447" xlink:href="#me10ed1582d" y="273.383209"/>
     <use style="fill:#0000ff;stroke:#0000ff;" x="180.066157" xlink:href="#me10ed1582d" y="274.984922"/>
     <use style="fill:#0000ff;stroke:#0000ff;" x="179.16182" xlink:href="#me10ed1582d" y="276.05724"/>
     <use style="fill:#0000ff;stroke:#0000ff;" x="177.799103" xlink:href="#me10ed1582d" y="277.672281"/>
     <use style="fill:#0000ff;stroke:#0000ff;" x="176.889426" xlink:href="#me10ed1582d" y="278.754248"/>
     <use style="fill:#0000ff;stroke:#0000ff;" x="176.43477" xlink:href="#me10ed1582d" y="279.296508"/>
     <use style="fill:#0000ff;stroke:#0000ff;" x="174.625589" xlink:href="#me10ed1582d" y="281.468596"/>
     <use style="fill:#0000ff;stroke:#0000ff;" x="173.259868" xlink:href="#me10ed1582d" y="283.108553"/>
     <use style="fill:#0000ff;stroke:#0000ff;" x="172.347946" xlink:href="#me10ed1582d" y="284.206828"/>
     <use style="fill:#0000ff;stroke:#0000ff;" x="170.978456" xlink:href="#me10ed1582d" y="285.861716"/>
     <use style="fill:#0000ff;stroke:#0000ff;" x="170.061918" xlink:href="#me10ed1582d" y="286.969832"/>
     <use style="fill:#0000ff;stroke:#0000ff;" x="168.680604" xlink:href="#me10ed1582d" y="288.638499"/>
     <use style="fill:#0000ff;stroke:#0000ff;" x="167.757383" xlink:href="#me10ed1582d" y="289.754718"/>
     <use style="fill:#0000ff;stroke:#0000ff;" x="166.369374" xlink:href="#me10ed1582d" y="291.433791"/>
     <use style="fill:#0000ff;stroke:#0000ff;" x="165.440905" xlink:href="#me10ed1582d" y="292.555745"/>
     <use style="fill:#0000ff;stroke:#0000ff;" x="164.043993" xlink:href="#me10ed1582d" y="294.240619"/>
     <use style="fill:#0000ff;stroke:#0000ff;" x="163.111712" xlink:href="#me10ed1582d" y="295.364024"/>
     <use style="fill:#0000ff;stroke:#0000ff;" x="161.710911" xlink:href="#me10ed1582d" y="297.048536"/>
     <use style="fill:#0000ff;stroke:#0000ff;" x="160.780893" xlink:href="#me10ed1582d" y="298.170251"/>
     <use style="fill:#0000ff;stroke:#0000ff;" x="159.380724" xlink:href="#me10ed1582d" y="299.852777"/>
     <use style="fill:#0000ff;stroke:#0000ff;" x="158.448624" xlink:href="#me10ed1582d" y="300.97372"/>
     <use style="fill:#0000ff;stroke:#0000ff;" x="157.049964" xlink:href="#me10ed1582d" y="302.653023"/>
     <use style="fill:#0000ff;stroke:#0000ff;" x="156.11425" xlink:href="#me10ed1582d" y="303.77204"/>
     <use style="fill:#0000ff;stroke:#0000ff;" x="154.7037" xlink:href="#me10ed1582d" y="305.450995"/>
     <use style="fill:#0000ff;stroke:#0000ff;" x="153.760089" xlink:href="#me10ed1582d" y="306.571006"/>
     <use style="fill:#0000ff;stroke:#0000ff;" x="153.287747" xlink:href="#me10ed1582d" y="307.131312"/>
     <use style="fill:#0000ff;stroke:#0000ff;" x="151.400659" xlink:href="#me10ed1582d" y="309.367231"/>
     <use style="fill:#0000ff;stroke:#0000ff;" x="149.969246" xlink:href="#me10ed1582d" y="311.048977"/>
     <use style="fill:#0000ff;stroke:#0000ff;" x="149.010035" xlink:href="#me10ed1582d" y="312.172028"/>
     <use style="fill:#0000ff;stroke:#0000ff;" x="147.563422" xlink:href="#me10ed1582d" y="313.859716"/>
     <use style="fill:#0000ff;stroke:#0000ff;" x="146.591069" xlink:href="#me10ed1582d" y="314.987403"/>
     <use style="fill:#0000ff;stroke:#0000ff;" x="145.119292" xlink:href="#me10ed1582d" y="316.682809"/>
     <use style="fill:#0000ff;stroke:#0000ff;" x="144.132174" xlink:href="#me10ed1582d" y="317.814801"/>
     <use style="fill:#0000ff;stroke:#0000ff;" x="142.639816" xlink:href="#me10ed1582d" y="319.517162"/>
     <use style="fill:#0000ff;stroke:#0000ff;" x="141.642788" xlink:href="#me10ed1582d" y="320.652908"/>
     <use style="fill:#0000ff;stroke:#0000ff;" x="140.130684" xlink:href="#me10ed1582d" y="322.362161"/>
     <use style="fill:#0000ff;stroke:#0000ff;" x="139.115773" xlink:href="#me10ed1582d" y="323.503142"/>
     <use style="fill:#0000ff;stroke:#0000ff;" x="137.582782" xlink:href="#me10ed1582d" y="325.21626"/>
     <use style="fill:#0000ff;stroke:#0000ff;" x="136.551782" xlink:href="#me10ed1582d" y="326.360372"/>
     <use style="fill:#0000ff;stroke:#0000ff;" x="134.991997" xlink:href="#me10ed1582d" y="328.079203"/>
     <use style="fill:#0000ff;stroke:#0000ff;" x="133.944725" xlink:href="#me10ed1582d" y="329.225872"/>
     <use style="fill:#0000ff;stroke:#0000ff;" x="132.362375" xlink:href="#me10ed1582d" y="330.947343"/>
     <use style="fill:#0000ff;stroke:#0000ff;" x="131.297884" xlink:href="#me10ed1582d" y="332.096505"/>
     <use style="fill:#0000ff;stroke:#0000ff;" x="129.688251" xlink:href="#me10ed1582d" y="333.823165"/>
     <use style="fill:#0000ff;stroke:#0000ff;" x="128.608207" xlink:href="#me10ed1582d" y="334.975573"/>
     <use style="fill:#0000ff;stroke:#0000ff;" x="128.608207" xlink:href="#me10ed1582d" y="334.975573"/>
     <use style="fill:#0000ff;stroke:#0000ff;" x="125.903972" xlink:href="#me10ed1582d" y="337.856097"/>
     <use style="fill:#0000ff;stroke:#0000ff;" x="124.259864" xlink:href="#me10ed1582d" y="339.58753"/>
     <use style="fill:#0000ff;stroke:#0000ff;" x="123.15721" xlink:href="#me10ed1582d" y="340.74261"/>
     <use style="fill:#0000ff;stroke:#0000ff;" x="121.49291" xlink:href="#me10ed1582d" y="342.475801"/>
     <use style="fill:#0000ff;stroke:#0000ff;" x="120.369937" xlink:href="#me10ed1582d" y="343.633698"/>
     <use style="fill:#0000ff;stroke:#0000ff;" x="118.679958" xlink:href="#me10ed1582d" y="345.369664"/>
     <use style="fill:#0000ff;stroke:#0000ff;" x="117.544406" xlink:href="#me10ed1582d" y="346.528564"/>
     <use style="fill:#0000ff;stroke:#0000ff;" x="115.832257" xlink:href="#me10ed1582d" y="348.269194"/>
     <use style="fill:#0000ff;stroke:#0000ff;" x="114.678373" xlink:href="#me10ed1582d" y="349.434273"/>
     <use style="fill:#0000ff;stroke:#0000ff;" x="112.944199" xlink:href="#me10ed1582d" y="351.183569"/>
     <use style="fill:#0000ff;stroke:#0000ff;" x="111.78039" xlink:href="#me10ed1582d" y="352.352541"/>
     <use style="fill:#0000ff;stroke:#0000ff;" x="110.028836" xlink:href="#me10ed1582d" y="354.108649"/>
     <use style="fill:#0000ff;stroke:#0000ff;" x="108.854578" xlink:href="#me10ed1582d" y="355.281411"/>
     <use style="fill:#0000ff;stroke:#0000ff;" x="107.08181" xlink:href="#me10ed1582d" y="357.042571"/>
     <use style="fill:#0000ff;stroke:#0000ff;" x="105.896064" xlink:href="#me10ed1582d" y="358.217424"/>
     <use style="fill:#0000ff;stroke:#0000ff;" x="104.114196" xlink:href="#me10ed1582d" y="359.98464"/>
     <use style="fill:#0000ff;stroke:#0000ff;" x="102.92088" xlink:href="#me10ed1582d" y="361.165746"/>
     <use style="fill:#0000ff;stroke:#0000ff;" x="101.121085" xlink:href="#me10ed1582d" y="362.939632"/>
     <use style="fill:#0000ff;stroke:#0000ff;" x="99.916547" xlink:href="#me10ed1582d" y="364.122456"/>
     <use style="fill:#0000ff;stroke:#0000ff;" x="99.916547" xlink:href="#me10ed1582d" y="364.122456"/>
     <use style="fill:#0000ff;stroke:#0000ff;" x="96.897146" xlink:href="#me10ed1582d" y="367.073165"/>
     <use style="fill:#0000ff;stroke:#0000ff;" x="95.065299" xlink:href="#me10ed1582d" y="368.846085"/>
     <use style="fill:#0000ff;stroke:#0000ff;" x="93.838803" xlink:href="#me10ed1582d" y="370.029304"/>
     <use style="fill:#0000ff;stroke:#0000ff;" x="91.992129" xlink:href="#me10ed1582d" y="371.806985"/>
     <use style="fill:#0000ff;stroke:#0000ff;" x="90.754465" xlink:href="#me10ed1582d" y="372.995544"/>
    </g>
   </g>
   <g id="matplotlib.axis_1">
    <g id="xtick_1">
     <g id="line2d_1">
      <defs>
       <path d="M 0 0 
L 0 3.5 
" id="m4cbb5acb28" style="stroke:#000000;stroke-width:0.8;"/>
      </defs>
      <g>
       <use style="stroke:#000000;stroke-width:0.8;" x="156.96" xlink:href="#m4cbb5acb28" y="512.64"/>
      </g>
     </g>
     <g id="text_1">
      <!-- −760 -->
      <defs>
       <path d="M 10.59375 35.5 
L 73.1875 35.5 
L 73.1875 27.203125 
L 10.59375 27.203125 
z
" id="DejaVuSans-8722"/>
       <path d="M 8.203125 72.90625 
L 55.078125 72.90625 
L 55.078125 68.703125 
L 28.609375 0 
L 18.3125 0 
L 43.21875 64.59375 
L 8.203125 64.59375 
z
" id="DejaVuSans-55"/>
       <path d="M 33.015625 40.375 
Q 26.375 40.375 22.484375 35.828125 
Q 18.609375 31.296875 18.609375 23.390625 
Q 18.609375 15.53125 22.484375 10.953125 
Q 26.375 6.390625 33.015625 6.390625 
Q 39.65625 6.390625 43.53125 10.953125 
Q 47.40625 15.53125 47.40625 23.390625 
Q 47.40625 31.296875 43.53125 35.828125 
Q 39.65625 40.375 33.015625 40.375 
z
M 52.59375 71.296875 
L 52.59375 62.3125 
Q 48.875 64.0625 45.09375 64.984375 
Q 41.3125 65.921875 37.59375 65.921875 
Q 27.828125 65.921875 22.671875 59.328125 
Q 17.53125 52.734375 16.796875 39.40625 
Q 19.671875 43.65625 24.015625 45.921875 
Q 28.375 48.1875 33.59375 48.1875 
Q 44.578125 48.1875 50.953125 41.515625 
Q 57.328125 34.859375 57.328125 23.390625 
Q 57.328125 12.15625 50.6875 5.359375 
Q 44.046875 -1.421875 33.015625 -1.421875 
Q 20.359375 -1.421875 13.671875 8.265625 
Q 6.984375 17.96875 6.984375 36.375 
Q 6.984375 53.65625 15.1875 63.9375 
Q 23.390625 74.21875 37.203125 74.21875 
Q 40.921875 74.21875 44.703125 73.484375 
Q 48.484375 72.75 52.59375 71.296875 
z
" id="DejaVuSans-54"/>
       <path d="M 31.78125 66.40625 
Q 24.171875 66.40625 20.328125 58.90625 
Q 16.5 51.421875 16.5 36.375 
Q 16.5 21.390625 20.328125 13.890625 
Q 24.171875 6.390625 31.78125 6.390625 
Q 39.453125 6.390625 43.28125 13.890625 
Q 47.125 21.390625 47.125 36.375 
Q 47.125 51.421875 43.28125 58.90625 
Q 39.453125 66.40625 31.78125 66.40625 
z
M 31.78125 74.21875 
Q 44.046875 74.21875 50.515625 64.515625 
Q 56.984375 54.828125 56.984375 36.375 
Q 56.984375 17.96875 50.515625 8.265625 
Q 44.046875 -1.421875 31.78125 -1.421875 
Q 19.53125 -1.421875 13.0625 8.265625 
Q 6.59375 17.96875 6.59375 36.375 
Q 6.59375 54.828125 13.0625 64.515625 
Q 19.53125 74.21875 31.78125 74.21875 
z
" id="DejaVuSans-48"/>
      </defs>
      <g transform="translate(143.226406 527.238438)scale(0.1 -0.1)">
       <use xlink:href="#DejaVuSans-8722"/>
       <use x="83.789062" xlink:href="#DejaVuSans-55"/>
       <use x="147.412109" xlink:href="#DejaVuSans-54"/>
       <use x="211.035156" xlink:href="#DejaVuSans-48"/>
      </g>
     </g>
    </g>
    <g id="xtick_2">
     <g id="line2d_2">
      <g>
       <use style="stroke:#000000;stroke-width:0.8;" x="246.24" xlink:href="#m4cbb5acb28" y="512.64"/>
      </g>
     </g>
     <g id="text_2">
      <!-- −740 -->
      <defs>
       <path d="M 37.796875 64.3125 
L 12.890625 25.390625 
L 37.796875 25.390625 
z
M 35.203125 72.90625 
L 47.609375 72.90625 
L 47.609375 25.390625 
L 58.015625 25.390625 
L 58.015625 17.1875 
L 47.609375 17.1875 
L 47.609375 0 
L 37.796875 0 
L 37.796875 17.1875 
L 4.890625 17.1875 
L 4.890625 26.703125 
z
" id="DejaVuSans-52"/>
      </defs>
      <g transform="translate(232.506406 527.238438)scale(0.1 -0.1)">
       <use xlink:href="#DejaVuSans-8722"/>
       <use x="83.789062" xlink:href="#DejaVuSans-55"/>
       <use x="147.412109" xlink:href="#DejaVuSans-52"/>
       <use x="211.035156" xlink:href="#DejaVuSans-48"/>
      </g>
     </g>
    </g>
    <g id="xtick_3">
     <g id="line2d_3">
      <g>
       <use style="stroke:#000000;stroke-width:0.8;" x="335.52" xlink:href="#m4cbb5acb28" y="512.64"/>
      </g>
     </g>
     <g id="text_3">
      <!-- −720 -->
      <defs>
       <path d="M 19.1875 8.296875 
L 53.609375 8.296875 
L 53.609375 0 
L 7.328125 0 
L 7.328125 8.296875 
Q 12.9375 14.109375 22.625 23.890625 
Q 32.328125 33.6875 34.8125 36.53125 
Q 39.546875 41.84375 41.421875 45.53125 
Q 43.3125 49.21875 43.3125 52.78125 
Q 43.3125 58.59375 39.234375 62.25 
Q 35.15625 65.921875 28.609375 65.921875 
Q 23.96875 65.921875 18.8125 64.3125 
Q 13.671875 62.703125 7.8125 59.421875 
L 7.8125 69.390625 
Q 13.765625 71.78125 18.9375 73 
Q 24.125 74.21875 28.421875 74.21875 
Q 39.75 74.21875 46.484375 68.546875 
Q 53.21875 62.890625 53.21875 53.421875 
Q 53.21875 48.921875 51.53125 44.890625 
Q 49.859375 40.875 45.40625 35.40625 
Q 44.1875 33.984375 37.640625 27.21875 
Q 31.109375 20.453125 19.1875 8.296875 
z
" id="DejaVuSans-50"/>
      </defs>
      <g transform="translate(321.786406 527.238438)scale(0.1 -0.1)">
       <use xlink:href="#DejaVuSans-8722"/>
       <use x="83.789062" xlink:href="#DejaVuSans-55"/>
       <use x="147.412109" xlink:href="#DejaVuSans-50"/>
       <use x="211.035156" xlink:href="#DejaVuSans-48"/>
      </g>
     </g>
    </g>
    <g id="xtick_4">
     <g id="line2d_4">
      <g>
       <use style="stroke:#000000;stroke-width:0.8;" x="424.8" xlink:href="#m4cbb5acb28" y="512.64"/>
      </g>
     </g>
     <g id="text_4">
      <!-- −700 -->
      <g transform="translate(411.066406 527.238438)scale(0.1 -0.1)">
       <use xlink:href="#DejaVuSans-8722"/>
       <use x="83.789062" xlink:href="#DejaVuSans-55"/>
       <use x="147.412109" xlink:href="#DejaVuSans-48"/>
       <use x="211.035156" xlink:href="#DejaVuSans-48"/>
      </g>
     </g>
    </g>
    <g id="xtick_5">
     <g id="line2d_5">
      <g>
       <use style="stroke:#000000;stroke-width:0.8;" x="514.08" xlink:href="#m4cbb5acb28" y="512.64"/>
      </g>
     </g>
     <g id="text_5">
      <!-- −680 -->
      <defs>
       <path d="M 31.78125 34.625 
Q 24.75 34.625 20.71875 30.859375 
Q 16.703125 27.09375 16.703125 20.515625 
Q 16.703125 13.921875 20.71875 10.15625 
Q 24.75 6.390625 31.78125 6.390625 
Q 38.8125 6.390625 42.859375 10.171875 
Q 46.921875 13.96875 46.921875 20.515625 
Q 46.921875 27.09375 42.890625 30.859375 
Q 38.875 34.625 31.78125 34.625 
z
M 21.921875 38.8125 
Q 15.578125 40.375 12.03125 44.71875 
Q 8.5 49.078125 8.5 55.328125 
Q 8.5 64.0625 14.71875 69.140625 
Q 20.953125 74.21875 31.78125 74.21875 
Q 42.671875 74.21875 48.875 69.140625 
Q 55.078125 64.0625 55.078125 55.328125 
Q 55.078125 49.078125 51.53125 44.71875 
Q 48 40.375 41.703125 38.8125 
Q 48.828125 37.15625 52.796875 32.3125 
Q 56.78125 27.484375 56.78125 20.515625 
Q 56.78125 9.90625 50.3125 4.234375 
Q 43.84375 -1.421875 31.78125 -1.421875 
Q 19.734375 -1.421875 13.25 4.234375 
Q 6.78125 9.90625 6.78125 20.515625 
Q 6.78125 27.484375 10.78125 32.3125 
Q 14.796875 37.15625 21.921875 38.8125 
z
M 18.3125 54.390625 
Q 18.3125 48.734375 21.84375 45.5625 
Q 25.390625 42.390625 31.78125 42.390625 
Q 38.140625 42.390625 41.71875 45.5625 
Q 45.3125 48.734375 45.3125 54.390625 
Q 45.3125 60.0625 41.71875 63.234375 
Q 38.140625 66.40625 31.78125 66.40625 
Q 25.390625 66.40625 21.84375 63.234375 
Q 18.3125 60.0625 18.3125 54.390625 
z
" id="DejaVuSans-56"/>
      </defs>
      <g transform="translate(500.346406 527.238438)scale(0.1 -0.1)">
       <use xlink:href="#DejaVuSans-8722"/>
       <use x="83.789062" xlink:href="#DejaVuSans-54"/>
       <use x="147.412109" xlink:href="#DejaVuSans-56"/>
       <use x="211.035156" xlink:href="#DejaVuSans-48"/>
      </g>
     </g>
    </g>
    <g id="xtick_6">
     <g id="line2d_6">
      <g>
       <use style="stroke:#000000;stroke-width:0.8;" x="603.36" xlink:href="#m4cbb5acb28" y="512.64"/>
      </g>
     </g>
     <g id="text_6">
      <!-- −660 -->
      <g transform="translate(589.626406 527.238438)scale(0.1 -0.1)">
       <use xlink:href="#DejaVuSans-8722"/>
       <use x="83.789062" xlink:href="#DejaVuSans-54"/>
       <use x="147.412109" xlink:href="#DejaVuSans-54"/>
       <use x="211.035156" xlink:href="#DejaVuSans-48"/>
      </g>
     </g>
    </g>
    <g id="text_7">
     <!-- x (m) -->
     <defs>
      <path d="M 54.890625 54.6875 
L 35.109375 28.078125 
L 55.90625 0 
L 45.3125 0 
L 29.390625 21.484375 
L 13.484375 0 
L 2.875 0 
L 24.125 28.609375 
L 4.6875 54.6875 
L 15.28125 54.6875 
L 29.78125 35.203125 
L 44.28125 54.6875 
z
" id="DejaVuSans-120"/>
      <path id="DejaVuSans-32"/>
      <path d="M 31 75.875 
Q 24.46875 64.65625 21.28125 53.65625 
Q 18.109375 42.671875 18.109375 31.390625 
Q 18.109375 20.125 21.3125 9.0625 
Q 24.515625 -2 31 -13.1875 
L 23.1875 -13.1875 
Q 15.875 -1.703125 12.234375 9.375 
Q 8.59375 20.453125 8.59375 31.390625 
Q 8.59375 42.28125 12.203125 53.3125 
Q 15.828125 64.359375 23.1875 75.875 
z
" id="DejaVuSans-40"/>
      <path d="M 52 44.1875 
Q 55.375 50.25 60.0625 53.125 
Q 64.75 56 71.09375 56 
Q 79.640625 56 84.28125 50.015625 
Q 88.921875 44.046875 88.921875 33.015625 
L 88.921875 0 
L 79.890625 0 
L 79.890625 32.71875 
Q 79.890625 40.578125 77.09375 44.375 
Q 74.3125 48.1875 68.609375 48.1875 
Q 61.625 48.1875 57.5625 43.546875 
Q 53.515625 38.921875 53.515625 30.90625 
L 53.515625 0 
L 44.484375 0 
L 44.484375 32.71875 
Q 44.484375 40.625 41.703125 44.40625 
Q 38.921875 48.1875 33.109375 48.1875 
Q 26.21875 48.1875 22.15625 43.53125 
Q 18.109375 38.875 18.109375 30.90625 
L 18.109375 0 
L 9.078125 0 
L 9.078125 54.6875 
L 18.109375 54.6875 
L 18.109375 46.1875 
Q 21.1875 51.21875 25.484375 53.609375 
Q 29.78125 56 35.6875 56 
Q 41.65625 56 45.828125 52.96875 
Q 50 49.953125 52 44.1875 
z
" id="DejaVuSans-109"/>
      <path d="M 8.015625 75.875 
L 15.828125 75.875 
Q 23.140625 64.359375 26.78125 53.3125 
Q 30.421875 42.28125 30.421875 31.390625 
Q 30.421875 20.453125 26.78125 9.375 
Q 23.140625 -1.703125 15.828125 -13.1875 
L 8.015625 -13.1875 
Q 14.5 -2 17.703125 9.0625 
Q 20.90625 20.125 20.90625 31.390625 
Q 20.90625 42.671875 17.703125 53.65625 
Q 14.5 64.65625 8.015625 75.875 
z
" id="DejaVuSans-41"/>
     </defs>
     <g transform="translate(355.679688 540.916563)scale(0.1 -0.1)">
      <use xlink:href="#DejaVuSans-120"/>
      <use x="59.179688" xlink:href="#DejaVuSans-32"/>
      <use x="90.966797" xlink:href="#DejaVuSans-40"/>
      <use x="129.980469" xlink:href="#DejaVuSans-109"/>
      <use x="227.392578" xlink:href="#DejaVuSans-41"/>
     </g>
    </g>
   </g>
   <g id="matplotlib.axis_2">
    <g id="ytick_1">
     <g id="line2d_7">
      <defs>
       <path d="M 0 0 
L -3.5 0 
" id="m963c2e6b2b" style="stroke:#000000;stroke-width:0.8;"/>
      </defs>
      <g>
       <use style="stroke:#000000;stroke-width:0.8;" x="90" xlink:href="#m963c2e6b2b" y="512.64"/>
      </g>
     </g>
     <g id="text_8">
      <!-- 900 -->
      <defs>
       <path d="M 10.984375 1.515625 
L 10.984375 10.5 
Q 14.703125 8.734375 18.5 7.8125 
Q 22.3125 6.890625 25.984375 6.890625 
Q 35.75 6.890625 40.890625 13.453125 
Q 46.046875 20.015625 46.78125 33.40625 
Q 43.953125 29.203125 39.59375 26.953125 
Q 35.25 24.703125 29.984375 24.703125 
Q 19.046875 24.703125 12.671875 31.3125 
Q 6.296875 37.9375 6.296875 49.421875 
Q 6.296875 60.640625 12.9375 67.421875 
Q 19.578125 74.21875 30.609375 74.21875 
Q 43.265625 74.21875 49.921875 64.515625 
Q 56.59375 54.828125 56.59375 36.375 
Q 56.59375 19.140625 48.40625 8.859375 
Q 40.234375 -1.421875 26.421875 -1.421875 
Q 22.703125 -1.421875 18.890625 -0.6875 
Q 15.09375 0.046875 10.984375 1.515625 
z
M 30.609375 32.421875 
Q 37.25 32.421875 41.125 36.953125 
Q 45.015625 41.5 45.015625 49.421875 
Q 45.015625 57.28125 41.125 61.84375 
Q 37.25 66.40625 30.609375 66.40625 
Q 23.96875 66.40625 20.09375 61.84375 
Q 16.21875 57.28125 16.21875 49.421875 
Q 16.21875 41.5 20.09375 36.953125 
Q 23.96875 32.421875 30.609375 32.421875 
z
" id="DejaVuSans-57"/>
      </defs>
      <g transform="translate(63.9125 516.439219)scale(0.1 -0.1)">
       <use xlink:href="#DejaVuSans-57"/>
       <use x="63.623047" xlink:href="#DejaVuSans-48"/>
       <use x="127.246094" xlink:href="#DejaVuSans-48"/>
      </g>
     </g>
    </g>
    <g id="ytick_2">
     <g id="line2d_8">
      <g>
       <use style="stroke:#000000;stroke-width:0.8;" x="90" xlink:href="#m963c2e6b2b" y="441.6768"/>
      </g>
     </g>
     <g id="text_9">
      <!-- 920 -->
      <g transform="translate(63.9125 445.476019)scale(0.1 -0.1)">
       <use xlink:href="#DejaVuSans-57"/>
       <use x="63.623047" xlink:href="#DejaVuSans-50"/>
       <use x="127.246094" xlink:href="#DejaVuSans-48"/>
      </g>
     </g>
    </g>
    <g id="ytick_3">
     <g id="line2d_9">
      <g>
       <use style="stroke:#000000;stroke-width:0.8;" x="90" xlink:href="#m963c2e6b2b" y="370.7136"/>
      </g>
     </g>
     <g id="text_10">
      <!-- 940 -->
      <g transform="translate(63.9125 374.512819)scale(0.1 -0.1)">
       <use xlink:href="#DejaVuSans-57"/>
       <use x="63.623047" xlink:href="#DejaVuSans-52"/>
       <use x="127.246094" xlink:href="#DejaVuSans-48"/>
      </g>
     </g>
    </g>
    <g id="ytick_4">
     <g id="line2d_10">
      <g>
       <use style="stroke:#000000;stroke-width:0.8;" x="90" xlink:href="#m963c2e6b2b" y="299.7504"/>
      </g>
     </g>
     <g id="text_11">
      <!-- 960 -->
      <g transform="translate(63.9125 303.549619)scale(0.1 -0.1)">
       <use xlink:href="#DejaVuSans-57"/>
       <use x="63.623047" xlink:href="#DejaVuSans-54"/>
       <use x="127.246094" xlink:href="#DejaVuSans-48"/>
      </g>
     </g>
    </g>
    <g id="ytick_5">
     <g id="line2d_11">
      <g>
       <use style="stroke:#000000;stroke-width:0.8;" x="90" xlink:href="#m963c2e6b2b" y="228.7872"/>
      </g>
     </g>
     <g id="text_12">
      <!-- 980 -->
      <g transform="translate(63.9125 232.586419)scale(0.1 -0.1)">
       <use xlink:href="#DejaVuSans-57"/>
       <use x="63.623047" xlink:href="#DejaVuSans-56"/>
       <use x="127.246094" xlink:href="#DejaVuSans-48"/>
      </g>
     </g>
    </g>
    <g id="ytick_6">
     <g id="line2d_12">
      <g>
       <use style="stroke:#000000;stroke-width:0.8;" x="90" xlink:href="#m963c2e6b2b" y="157.824"/>
      </g>
     </g>
     <g id="text_13">
      <!-- 1000 -->
      <defs>
       <path d="M 12.40625 8.296875 
L 28.515625 8.296875 
L 28.515625 63.921875 
L 10.984375 60.40625 
L 10.984375 69.390625 
L 28.421875 72.90625 
L 38.28125 72.90625 
L 38.28125 8.296875 
L 54.390625 8.296875 
L 54.390625 0 
L 12.40625 0 
z
" id="DejaVuSans-49"/>
      </defs>
      <g transform="translate(57.55 161.623219)scale(0.1 -0.1)">
       <use xlink:href="#DejaVuSans-49"/>
       <use x="63.623047" xlink:href="#DejaVuSans-48"/>
       <use x="127.246094" xlink:href="#DejaVuSans-48"/>
       <use x="190.869141" xlink:href="#DejaVuSans-48"/>
      </g>
     </g>
    </g>
    <g id="ytick_7">
     <g id="line2d_13">
      <g>
       <use style="stroke:#000000;stroke-width:0.8;" x="90" xlink:href="#m963c2e6b2b" y="86.8608"/>
      </g>
     </g>
     <g id="text_14">
      <!-- 1020 -->
      <g transform="translate(57.55 90.660019)scale(0.1 -0.1)">
       <use xlink:href="#DejaVuSans-49"/>
       <use x="63.623047" xlink:href="#DejaVuSans-48"/>
       <use x="127.246094" xlink:href="#DejaVuSans-50"/>
       <use x="190.869141" xlink:href="#DejaVuSans-48"/>
      </g>
     </g>
    </g>
    <g id="text_15">
     <!-- y (m) -->
     <defs>
      <path d="M 32.171875 -5.078125 
Q 28.375 -14.84375 24.75 -17.8125 
Q 21.140625 -20.796875 15.09375 -20.796875 
L 7.90625 -20.796875 
L 7.90625 -13.28125 
L 13.1875 -13.28125 
Q 16.890625 -13.28125 18.9375 -11.515625 
Q 21 -9.765625 23.484375 -3.21875 
L 25.09375 0.875 
L 2.984375 54.6875 
L 12.5 54.6875 
L 29.59375 11.921875 
L 46.6875 54.6875 
L 56.203125 54.6875 
z
" id="DejaVuSans-121"/>
     </defs>
     <g transform="translate(51.470312 304.200312)rotate(-90)scale(0.1 -0.1)">
      <use xlink:href="#DejaVuSans-121"/>
      <use x="59.179688" xlink:href="#DejaVuSans-32"/>
      <use x="90.966797" xlink:href="#DejaVuSans-40"/>
      <use x="129.980469" xlink:href="#DejaVuSans-109"/>
      <use x="227.392578" xlink:href="#DejaVuSans-41"/>
     </g>
    </g>
   </g>
   <g id="line2d_14">
    <path clip-path="url(#pd752583444)" d="M 721 406.000397 
L 695.354812 388.516211 
L 610.65839 330.760499 
L 549.639562 289.207254 
L 479.933294 242.080509 
L 445.977464 219.055829 
L 435.657912 212.289594 
L 426.896424 206.830608 
L 419.721605 202.657087 
L 414.21892 199.678274 
L 408.598905 196.855694 
L 402.854203 194.211077 
L 396.98184 191.762578 
L 390.983497 189.523123 
L 384.865551 187.49938 
L 378.63846 185.692198 
L 372.315419 184.098636 
L 365.910728 182.714734 
L 359.438506 181.538121 
L 352.912184 180.570026 
L 346.344647 179.816357 
L 339.748836 179.287926 
L 333.138591 178.999679 
L 326.52966 178.969124 
L 319.940738 179.21467 
L 313.394381 179.754481 
L 306.917376 180.605941 
L 302.652784 181.354724 
L 298.441928 182.253285 
L 294.29418 183.304741 
L 290.218354 184.510777 
L 286.222289 185.871227 
L 282.312524 187.383796 
L 278.49413 189.044051 
L 274.770652 190.845631 
L 271.144123 192.780639 
L 267.61504 194.840072 
L 262.501081 198.141008 
L 257.591234 201.66441 
L 252.862349 205.371889 
L 248.280487 209.222065 
L 242.328433 214.504002 
L 226.231953 229.2859 
L 208.738543 245.395166 
L 201.6562 252.219079 
L 194.7888 259.173969 
L 189.468248 264.845411 
L 184.304674 270.614818 
L 178.058253 277.95679 
L 172.002135 285.418336 
L 151.604598 310.923396 
L 145.280053 318.22914 
L 140.046743 323.968187 
L 133.287949 331.009947 
L 126.313416 337.920568 
L 117.732472 346.084966 
L 100.295818 362.24857 
L 80.031767 381.156452 
L 41.037072 417.673064 
L 14.799808 441.878209 
L 9.213196 447.39359 
L 3.838939 453.028083 
L -1 458.460011 
L -1 458.460011 
" style="fill:none;stroke:#008000;stroke-linecap:square;stroke-width:1.5;"/>
   </g>
   <g id="patch_3">
    <path d="M 90 512.64 
L 90 69.12 
" style="fill:none;stroke:#000000;stroke-linecap:square;stroke-linejoin:miter;stroke-width:0.8;"/>
   </g>
   <g id="patch_4">
    <path d="M 648 512.64 
L 648 69.12 
" style="fill:none;stroke:#000000;stroke-linecap:square;stroke-linejoin:miter;stroke-width:0.8;"/>
   </g>
   <g id="patch_5">
    <path d="M 90 512.64 
L 648 512.64 
" style="fill:none;stroke:#000000;stroke-linecap:square;stroke-linejoin:miter;stroke-width:0.8;"/>
   </g>
   <g id="patch_6">
    <path d="M 90 69.12 
L 648 69.12 
" style="fill:none;stroke:#000000;stroke-linecap:square;stroke-linejoin:miter;stroke-width:0.8;"/>
   </g>
   <g id="text_16">
    <!-- Vehicle Data vs Ground Truth Path -->
    <defs>
     <path d="M 28.609375 0 
L 0.78125 72.90625 
L 11.078125 72.90625 
L 34.1875 11.53125 
L 57.328125 72.90625 
L 67.578125 72.90625 
L 39.796875 0 
z
" id="DejaVuSans-86"/>
     <path d="M 56.203125 29.59375 
L 56.203125 25.203125 
L 14.890625 25.203125 
Q 15.484375 15.921875 20.484375 11.0625 
Q 25.484375 6.203125 34.421875 6.203125 
Q 39.59375 6.203125 44.453125 7.46875 
Q 49.3125 8.734375 54.109375 11.28125 
L 54.109375 2.78125 
Q 49.265625 0.734375 44.1875 -0.34375 
Q 39.109375 -1.421875 33.890625 -1.421875 
Q 20.796875 -1.421875 13.15625 6.1875 
Q 5.515625 13.8125 5.515625 26.8125 
Q 5.515625 40.234375 12.765625 48.109375 
Q 20.015625 56 32.328125 56 
Q 43.359375 56 49.78125 48.890625 
Q 56.203125 41.796875 56.203125 29.59375 
z
M 47.21875 32.234375 
Q 47.125 39.59375 43.09375 43.984375 
Q 39.0625 48.390625 32.421875 48.390625 
Q 24.90625 48.390625 20.390625 44.140625 
Q 15.875 39.890625 15.1875 32.171875 
z
" id="DejaVuSans-101"/>
     <path d="M 54.890625 33.015625 
L 54.890625 0 
L 45.90625 0 
L 45.90625 32.71875 
Q 45.90625 40.484375 42.875 44.328125 
Q 39.84375 48.1875 33.796875 48.1875 
Q 26.515625 48.1875 22.3125 43.546875 
Q 18.109375 38.921875 18.109375 30.90625 
L 18.109375 0 
L 9.078125 0 
L 9.078125 75.984375 
L 18.109375 75.984375 
L 18.109375 46.1875 
Q 21.34375 51.125 25.703125 53.5625 
Q 30.078125 56 35.796875 56 
Q 45.21875 56 50.046875 50.171875 
Q 54.890625 44.34375 54.890625 33.015625 
z
" id="DejaVuSans-104"/>
     <path d="M 9.421875 54.6875 
L 18.40625 54.6875 
L 18.40625 0 
L 9.421875 0 
z
M 9.421875 75.984375 
L 18.40625 75.984375 
L 18.40625 64.59375 
L 9.421875 64.59375 
z
" id="DejaVuSans-105"/>
     <path d="M 48.78125 52.59375 
L 48.78125 44.1875 
Q 44.96875 46.296875 41.140625 47.34375 
Q 37.3125 48.390625 33.40625 48.390625 
Q 24.65625 48.390625 19.8125 42.84375 
Q 14.984375 37.3125 14.984375 27.296875 
Q 14.984375 17.28125 19.8125 11.734375 
Q 24.65625 6.203125 33.40625 6.203125 
Q 37.3125 6.203125 41.140625 7.25 
Q 44.96875 8.296875 48.78125 10.40625 
L 48.78125 2.09375 
Q 45.015625 0.34375 40.984375 -0.53125 
Q 36.96875 -1.421875 32.421875 -1.421875 
Q 20.0625 -1.421875 12.78125 6.34375 
Q 5.515625 14.109375 5.515625 27.296875 
Q 5.515625 40.671875 12.859375 48.328125 
Q 20.21875 56 33.015625 56 
Q 37.15625 56 41.109375 55.140625 
Q 45.0625 54.296875 48.78125 52.59375 
z
" id="DejaVuSans-99"/>
     <path d="M 9.421875 75.984375 
L 18.40625 75.984375 
L 18.40625 0 
L 9.421875 0 
z
" id="DejaVuSans-108"/>
     <path d="M 19.671875 64.796875 
L 19.671875 8.109375 
L 31.59375 8.109375 
Q 46.6875 8.109375 53.6875 14.9375 
Q 60.6875 21.78125 60.6875 36.53125 
Q 60.6875 51.171875 53.6875 57.984375 
Q 46.6875 64.796875 31.59375 64.796875 
z
M 9.8125 72.90625 
L 30.078125 72.90625 
Q 51.265625 72.90625 61.171875 64.09375 
Q 71.09375 55.28125 71.09375 36.53125 
Q 71.09375 17.671875 61.125 8.828125 
Q 51.171875 0 30.078125 0 
L 9.8125 0 
z
" id="DejaVuSans-68"/>
     <path d="M 34.28125 27.484375 
Q 23.390625 27.484375 19.1875 25 
Q 14.984375 22.515625 14.984375 16.5 
Q 14.984375 11.71875 18.140625 8.90625 
Q 21.296875 6.109375 26.703125 6.109375 
Q 34.1875 6.109375 38.703125 11.40625 
Q 43.21875 16.703125 43.21875 25.484375 
L 43.21875 27.484375 
z
M 52.203125 31.203125 
L 52.203125 0 
L 43.21875 0 
L 43.21875 8.296875 
Q 40.140625 3.328125 35.546875 0.953125 
Q 30.953125 -1.421875 24.3125 -1.421875 
Q 15.921875 -1.421875 10.953125 3.296875 
Q 6 8.015625 6 15.921875 
Q 6 25.140625 12.171875 29.828125 
Q 18.359375 34.515625 30.609375 34.515625 
L 43.21875 34.515625 
L 43.21875 35.40625 
Q 43.21875 41.609375 39.140625 45 
Q 35.0625 48.390625 27.6875 48.390625 
Q 23 48.390625 18.546875 47.265625 
Q 14.109375 46.140625 10.015625 43.890625 
L 10.015625 52.203125 
Q 14.9375 54.109375 19.578125 55.046875 
Q 24.21875 56 28.609375 56 
Q 40.484375 56 46.34375 49.84375 
Q 52.203125 43.703125 52.203125 31.203125 
z
" id="DejaVuSans-97"/>
     <path d="M 18.3125 70.21875 
L 18.3125 54.6875 
L 36.8125 54.6875 
L 36.8125 47.703125 
L 18.3125 47.703125 
L 18.3125 18.015625 
Q 18.3125 11.328125 20.140625 9.421875 
Q 21.96875 7.515625 27.59375 7.515625 
L 36.8125 7.515625 
L 36.8125 0 
L 27.59375 0 
Q 17.1875 0 13.234375 3.875 
Q 9.28125 7.765625 9.28125 18.015625 
L 9.28125 47.703125 
L 2.6875 47.703125 
L 2.6875 54.6875 
L 9.28125 54.6875 
L 9.28125 70.21875 
z
" id="DejaVuSans-116"/>
     <path d="M 2.984375 54.6875 
L 12.5 54.6875 
L 29.59375 8.796875 
L 46.6875 54.6875 
L 56.203125 54.6875 
L 35.6875 0 
L 23.484375 0 
z
" id="DejaVuSans-118"/>
     <path d="M 44.28125 53.078125 
L 44.28125 44.578125 
Q 40.484375 46.53125 36.375 47.5 
Q 32.28125 48.484375 27.875 48.484375 
Q 21.1875 48.484375 17.84375 46.4375 
Q 14.5 44.390625 14.5 40.28125 
Q 14.5 37.15625 16.890625 35.375 
Q 19.28125 33.59375 26.515625 31.984375 
L 29.59375 31.296875 
Q 39.15625 29.25 43.1875 25.515625 
Q 47.21875 21.78125 47.21875 15.09375 
Q 47.21875 7.46875 41.1875 3.015625 
Q 35.15625 -1.421875 24.609375 -1.421875 
Q 20.21875 -1.421875 15.453125 -0.5625 
Q 10.6875 0.296875 5.421875 2 
L 5.421875 11.28125 
Q 10.40625 8.6875 15.234375 7.390625 
Q 20.0625 6.109375 24.8125 6.109375 
Q 31.15625 6.109375 34.5625 8.28125 
Q 37.984375 10.453125 37.984375 14.40625 
Q 37.984375 18.0625 35.515625 20.015625 
Q 33.0625 21.96875 24.703125 23.78125 
L 21.578125 24.515625 
Q 13.234375 26.265625 9.515625 29.90625 
Q 5.8125 33.546875 5.8125 39.890625 
Q 5.8125 47.609375 11.28125 51.796875 
Q 16.75 56 26.8125 56 
Q 31.78125 56 36.171875 55.265625 
Q 40.578125 54.546875 44.28125 53.078125 
z
" id="DejaVuSans-115"/>
     <path d="M 59.515625 10.40625 
L 59.515625 29.984375 
L 43.40625 29.984375 
L 43.40625 38.09375 
L 69.28125 38.09375 
L 69.28125 6.78125 
Q 63.578125 2.734375 56.6875 0.65625 
Q 49.8125 -1.421875 42 -1.421875 
Q 24.90625 -1.421875 15.25 8.5625 
Q 5.609375 18.5625 5.609375 36.375 
Q 5.609375 54.25 15.25 64.234375 
Q 24.90625 74.21875 42 74.21875 
Q 49.125 74.21875 55.546875 72.453125 
Q 61.96875 70.703125 67.390625 67.28125 
L 67.390625 56.78125 
Q 61.921875 61.421875 55.765625 63.765625 
Q 49.609375 66.109375 42.828125 66.109375 
Q 29.4375 66.109375 22.71875 58.640625 
Q 16.015625 51.171875 16.015625 36.375 
Q 16.015625 21.625 22.71875 14.15625 
Q 29.4375 6.6875 42.828125 6.6875 
Q 48.046875 6.6875 52.140625 7.59375 
Q 56.25 8.5 59.515625 10.40625 
z
" id="DejaVuSans-71"/>
     <path d="M 41.109375 46.296875 
Q 39.59375 47.171875 37.8125 47.578125 
Q 36.03125 48 33.890625 48 
Q 26.265625 48 22.1875 43.046875 
Q 18.109375 38.09375 18.109375 28.8125 
L 18.109375 0 
L 9.078125 0 
L 9.078125 54.6875 
L 18.109375 54.6875 
L 18.109375 46.1875 
Q 20.953125 51.171875 25.484375 53.578125 
Q 30.03125 56 36.53125 56 
Q 37.453125 56 38.578125 55.875 
Q 39.703125 55.765625 41.0625 55.515625 
z
" id="DejaVuSans-114"/>
     <path d="M 30.609375 48.390625 
Q 23.390625 48.390625 19.1875 42.75 
Q 14.984375 37.109375 14.984375 27.296875 
Q 14.984375 17.484375 19.15625 11.84375 
Q 23.34375 6.203125 30.609375 6.203125 
Q 37.796875 6.203125 41.984375 11.859375 
Q 46.1875 17.53125 46.1875 27.296875 
Q 46.1875 37.015625 41.984375 42.703125 
Q 37.796875 48.390625 30.609375 48.390625 
z
M 30.609375 56 
Q 42.328125 56 49.015625 48.375 
Q 55.71875 40.765625 55.71875 27.296875 
Q 55.71875 13.875 49.015625 6.21875 
Q 42.328125 -1.421875 30.609375 -1.421875 
Q 18.84375 -1.421875 12.171875 6.21875 
Q 5.515625 13.875 5.515625 27.296875 
Q 5.515625 40.765625 12.171875 48.375 
Q 18.84375 56 30.609375 56 
z
" id="DejaVuSans-111"/>
     <path d="M 8.5 21.578125 
L 8.5 54.6875 
L 17.484375 54.6875 
L 17.484375 21.921875 
Q 17.484375 14.15625 20.5 10.265625 
Q 23.53125 6.390625 29.59375 6.390625 
Q 36.859375 6.390625 41.078125 11.03125 
Q 45.3125 15.671875 45.3125 23.6875 
L 45.3125 54.6875 
L 54.296875 54.6875 
L 54.296875 0 
L 45.3125 0 
L 45.3125 8.40625 
Q 42.046875 3.421875 37.71875 1 
Q 33.40625 -1.421875 27.6875 -1.421875 
Q 18.265625 -1.421875 13.375 4.4375 
Q 8.5 10.296875 8.5 21.578125 
z
M 31.109375 56 
z
" id="DejaVuSans-117"/>
     <path d="M 54.890625 33.015625 
L 54.890625 0 
L 45.90625 0 
L 45.90625 32.71875 
Q 45.90625 40.484375 42.875 44.328125 
Q 39.84375 48.1875 33.796875 48.1875 
Q 26.515625 48.1875 22.3125 43.546875 
Q 18.109375 38.921875 18.109375 30.90625 
L 18.109375 0 
L 9.078125 0 
L 9.078125 54.6875 
L 18.109375 54.6875 
L 18.109375 46.1875 
Q 21.34375 51.125 25.703125 53.5625 
Q 30.078125 56 35.796875 56 
Q 45.21875 56 50.046875 50.171875 
Q 54.890625 44.34375 54.890625 33.015625 
z
" id="DejaVuSans-110"/>
     <path d="M 45.40625 46.390625 
L 45.40625 75.984375 
L 54.390625 75.984375 
L 54.390625 0 
L 45.40625 0 
L 45.40625 8.203125 
Q 42.578125 3.328125 38.25 0.953125 
Q 33.9375 -1.421875 27.875 -1.421875 
Q 17.96875 -1.421875 11.734375 6.484375 
Q 5.515625 14.40625 5.515625 27.296875 
Q 5.515625 40.1875 11.734375 48.09375 
Q 17.96875 56 27.875 56 
Q 33.9375 56 38.25 53.625 
Q 42.578125 51.265625 45.40625 46.390625 
z
M 14.796875 27.296875 
Q 14.796875 17.390625 18.875 11.75 
Q 22.953125 6.109375 30.078125 6.109375 
Q 37.203125 6.109375 41.296875 11.75 
Q 45.40625 17.390625 45.40625 27.296875 
Q 45.40625 37.203125 41.296875 42.84375 
Q 37.203125 48.484375 30.078125 48.484375 
Q 22.953125 48.484375 18.875 42.84375 
Q 14.796875 37.203125 14.796875 27.296875 
z
" id="DejaVuSans-100"/>
     <path d="M -0.296875 72.90625 
L 61.375 72.90625 
L 61.375 64.59375 
L 35.5 64.59375 
L 35.5 0 
L 25.59375 0 
L 25.59375 64.59375 
L -0.296875 64.59375 
z
" id="DejaVuSans-84"/>
     <path d="M 19.671875 64.796875 
L 19.671875 37.40625 
L 32.078125 37.40625 
Q 38.96875 37.40625 42.71875 40.96875 
Q 46.484375 44.53125 46.484375 51.125 
Q 46.484375 57.671875 42.71875 61.234375 
Q 38.96875 64.796875 32.078125 64.796875 
z
M 9.8125 72.90625 
L 32.078125 72.90625 
Q 44.34375 72.90625 50.609375 67.359375 
Q 56.890625 61.8125 56.890625 51.125 
Q 56.890625 40.328125 50.609375 34.8125 
Q 44.34375 29.296875 32.078125 29.296875 
L 19.671875 29.296875 
L 19.671875 0 
L 9.8125 0 
z
" id="DejaVuSans-80"/>
    </defs>
    <g transform="translate(264.825938 63.12)scale(0.12 -0.12)">
     <use xlink:href="#DejaVuSans-86"/>
     <use x="68.298828" xlink:href="#DejaVuSans-101"/>
     <use x="129.822266" xlink:href="#DejaVuSans-104"/>
     <use x="193.201172" xlink:href="#DejaVuSans-105"/>
     <use x="220.984375" xlink:href="#DejaVuSans-99"/>
     <use x="275.964844" xlink:href="#DejaVuSans-108"/>
     <use x="303.748047" xlink:href="#DejaVuSans-101"/>
     <use x="365.271484" xlink:href="#DejaVuSans-32"/>
     <use x="397.058594" xlink:href="#DejaVuSans-68"/>
     <use x="474.060547" xlink:href="#DejaVuSans-97"/>
     <use x="535.339844" xlink:href="#DejaVuSans-116"/>
     <use x="574.548828" xlink:href="#DejaVuSans-97"/>
     <use x="635.828125" xlink:href="#DejaVuSans-32"/>
     <use x="667.615234" xlink:href="#DejaVuSans-118"/>
     <use x="726.794922" xlink:href="#DejaVuSans-115"/>
     <use x="778.894531" xlink:href="#DejaVuSans-32"/>
     <use x="810.681641" xlink:href="#DejaVuSans-71"/>
     <use x="888.171875" xlink:href="#DejaVuSans-114"/>
     <use x="929.253906" xlink:href="#DejaVuSans-111"/>
     <use x="990.435547" xlink:href="#DejaVuSans-117"/>
     <use x="1053.814453" xlink:href="#DejaVuSans-110"/>
     <use x="1117.193359" xlink:href="#DejaVuSans-100"/>
     <use x="1180.669922" xlink:href="#DejaVuSans-32"/>
     <use x="1212.457031" xlink:href="#DejaVuSans-84"/>
     <use x="1273.322266" xlink:href="#DejaVuSans-114"/>
     <use x="1314.435547" xlink:href="#DejaVuSans-117"/>
     <use x="1377.814453" xlink:href="#DejaVuSans-116"/>
     <use x="1417.023438" xlink:href="#DejaVuSans-104"/>
     <use x="1480.402344" xlink:href="#DejaVuSans-32"/>
     <use x="1512.189453" xlink:href="#DejaVuSans-80"/>
     <use x="1572.429688" xlink:href="#DejaVuSans-97"/>
     <use x="1633.708984" xlink:href="#DejaVuSans-116"/>
     <use x="1672.917969" xlink:href="#DejaVuSans-104"/>
    </g>
   </g>
   <g id="legend_1">
    <g id="patch_7">
     <path d="M 542.03125 106.47625 
L 641 106.47625 
Q 643 106.47625 643 104.47625 
L 643 76.12 
Q 643 74.12 641 74.12 
L 542.03125 74.12 
Q 540.03125 74.12 540.03125 76.12 
L 540.03125 104.47625 
Q 540.03125 106.47625 542.03125 106.47625 
z
" style="fill:#ffffff;opacity:0.8;stroke:#cccccc;stroke-linejoin:miter;"/>
    </g>
    <g id="line2d_15">
     <path d="M 544.03125 82.218438 
L 564.03125 82.218438 
" style="fill:none;stroke:#008000;stroke-linecap:square;stroke-width:1.5;"/>
    </g>
    <g id="line2d_16"/>
    <g id="text_17">
     <!-- Ground Truth -->
     <g transform="translate(572.03125 85.718438)scale(0.1 -0.1)">
      <use xlink:href="#DejaVuSans-71"/>
      <use x="77.490234" xlink:href="#DejaVuSans-114"/>
      <use x="118.572266" xlink:href="#DejaVuSans-111"/>
      <use x="179.753906" xlink:href="#DejaVuSans-117"/>
      <use x="243.132812" xlink:href="#DejaVuSans-110"/>
      <use x="306.511719" xlink:href="#DejaVuSans-100"/>
      <use x="369.988281" xlink:href="#DejaVuSans-32"/>
      <use x="401.775391" xlink:href="#DejaVuSans-84"/>
      <use x="462.640625" xlink:href="#DejaVuSans-114"/>
      <use x="503.753906" xlink:href="#DejaVuSans-117"/>
      <use x="567.132812" xlink:href="#DejaVuSans-116"/>
      <use x="606.341797" xlink:href="#DejaVuSans-104"/>
     </g>
    </g>
    <g id="PathCollection_2">
     <g>
      <use style="fill:#0000ff;stroke:#0000ff;" x="554.03125" xlink:href="#me10ed1582d" y="97.771563"/>
     </g>
    </g>
    <g id="text_18">
     <!-- Vehicle -->
     <g transform="translate(572.03125 100.396563)scale(0.1 -0.1)">
      <use xlink:href="#DejaVuSans-86"/>
      <use x="68.298828" xlink:href="#DejaVuSans-101"/>
      <use x="129.822266" xlink:href="#DejaVuSans-104"/>
      <use x="193.201172" xlink:href="#DejaVuSans-105"/>
      <use x="220.984375" xlink:href="#DejaVuSans-99"/>
      <use x="275.964844" xlink:href="#DejaVuSans-108"/>
      <use x="303.748047" xlink:href="#DejaVuSans-101"/>
     </g>
    </g>
   </g>
  </g>
 </g>
 <defs>
  <clipPath id="pd752583444">
   <rect height="443.52" width="558" x="90" y="69.12"/>
  </clipPath>
 </defs>
</svg>
