<?xml version="1.0" encoding="utf-8" standalone="no"?>
<!DOCTYPE svg PUBLIC "-//W3C//DTD SVG 1.1//EN"
  "http://www.w3.org/Graphics/SVG/1.1/DTD/svg11.dtd">
<!-- Created with matplotlib (https://matplotlib.org/) -->
<svg height="576pt" version="1.1" viewBox="0 0 720 576" width="720pt" xmlns="http://www.w3.org/2000/svg" xmlns:xlink="http://www.w3.org/1999/xlink">
 <defs>
  <style type="text/css">
*{stroke-linecap:butt;stroke-linejoin:round;}
  </style>
 </defs>
 <g id="figure_1">
  <g id="patch_1">
   <path d="M 0 576 
L 720 576 
L 720 0 
L 0 0 
z
" style="fill:#ffffff;"/>
  </g>
  <g id="axes_1">
   <g id="patch_2">
    <path d="M 90 512.64 
L 648 512.64 
L 648 69.12 
L 90 69.12 
z
" style="fill:#ffffff;"/>
   </g>
   <g id="PathCollection_1">
    <defs>
     <path d="M 0 0.707107 
C 0.187527 0.707107 0.367398 0.632602 0.5 0.5 
C 0.632602 0.367398 0.707107 0.187527 0.707107 0 
C 0.707107 -0.187527 0.632602 -0.367398 0.5 -0.5 
C 0.367398 -0.632602 0.187527 -0.707107 0 -0.707107 
C -0.187527 -0.707107 -0.367398 -0.632602 -0.5 -0.5 
C -0.632602 -0.367398 -0.707107 -0.187527 -0.707107 0 
C -0.707107 0.187527 -0.632602 0.367398 -0.5 0.5 
C -0.367398 0.632602 -0.187527 0.707107 0 0.707107 
z
" id="m91b1153b42" style="stroke:#0000ff;"/>
    </defs>
    <g clip-path="url(#p0fbffa7481)">
     <use style="fill:#0000ff;stroke:#0000ff;" x="577.899925" xlink:href="#m91b1153b42" y="70.196083"/>
     <use style="fill:#0000ff;stroke:#0000ff;" x="574.230788" xlink:href="#m91b1153b42" y="71.489555"/>
     <use style="fill:#0000ff;stroke:#0000ff;" x="568.728252" xlink:href="#m91b1153b42" y="73.430026"/>
     <use style="fill:#0000ff;stroke:#0000ff;" x="565.058155" xlink:href="#m91b1153b42" y="74.723647"/>
     <use style="fill:#0000ff;stroke:#0000ff;" x="559.550583" xlink:href="#m91b1153b42" y="76.664433"/>
     <use style="fill:#0000ff;stroke:#0000ff;" x="555.880372" xlink:href="#m91b1153b42" y="77.958752"/>
     <use style="fill:#0000ff;stroke:#0000ff;" x="550.37885" xlink:href="#m91b1153b42" y="79.901983"/>
     <use style="fill:#0000ff;stroke:#0000ff;" x="546.713836" xlink:href="#m91b1153b42" y="81.197996"/>
     <use style="fill:#0000ff;stroke:#0000ff;" x="541.220722" xlink:href="#m91b1153b42" y="83.142846"/>
     <use style="fill:#0000ff;stroke:#0000ff;" x="535.732654" xlink:href="#m91b1153b42" y="85.088862"/>
     <use style="fill:#0000ff;stroke:#0000ff;" x="532.077813" xlink:href="#m91b1153b42" y="86.387781"/>
     <use style="fill:#0000ff;stroke:#0000ff;" x="528.430561" xlink:href="#m91b1153b42" y="87.688798"/>
     <use style="fill:#0000ff;stroke:#0000ff;" x="522.969904" xlink:href="#m91b1153b42" y="89.643114"/>
     <use style="fill:#0000ff;stroke:#0000ff;" x="519.329796" xlink:href="#m91b1153b42" y="90.94662"/>
     <use style="fill:#0000ff;stroke:#0000ff;" x="517.507762" xlink:href="#m91b1153b42" y="91.598219"/>
     <use style="fill:#0000ff;stroke:#0000ff;" x="510.207964" xlink:href="#m91b1153b42" y="94.201143"/>
     <use style="fill:#0000ff;stroke:#0000ff;" x="504.73279" xlink:href="#m91b1153b42" y="96.152412"/>
     <use style="fill:#0000ff;stroke:#0000ff;" x="502.910715" xlink:href="#m91b1153b42" y="96.803138"/>
     <use style="fill:#0000ff;stroke:#0000ff;" x="495.649366" xlink:href="#m91b1153b42" y="99.409374"/>
     <use style="fill:#0000ff;stroke:#0000ff;" x="490.231238" xlink:href="#m91b1153b42" y="101.365902"/>
     <use style="fill:#0000ff;stroke:#0000ff;" x="486.628093" xlink:href="#m91b1153b42" y="102.669944"/>
     <use style="fill:#0000ff;stroke:#0000ff;" x="483.02598" xlink:href="#m91b1153b42" y="103.972984"/>
     <use style="fill:#0000ff;stroke:#0000ff;" x="477.626969" xlink:href="#m91b1153b42" y="105.925553"/>
     <use style="fill:#0000ff;stroke:#0000ff;" x="474.031824" xlink:href="#m91b1153b42" y="107.226176"/>
     <use style="fill:#0000ff;stroke:#0000ff;" x="468.644211" xlink:href="#m91b1153b42" y="109.17522"/>
     <use style="fill:#0000ff;stroke:#0000ff;" x="465.054007" xlink:href="#m91b1153b42" y="110.472104"/>
     <use style="fill:#0000ff;stroke:#0000ff;" x="459.665807" xlink:href="#m91b1153b42" y="112.413369"/>
     <use style="fill:#0000ff;stroke:#0000ff;" x="456.078688" xlink:href="#m91b1153b42" y="113.707176"/>
     <use style="fill:#0000ff;stroke:#0000ff;" x="450.718396" xlink:href="#m91b1153b42" y="115.650807"/>
     <use style="fill:#0000ff;stroke:#0000ff;" x="447.164473" xlink:href="#m91b1153b42" y="116.94976"/>
     <use style="fill:#0000ff;stroke:#0000ff;" x="441.858983" xlink:href="#m91b1153b42" y="118.900605"/>
     <use style="fill:#0000ff;stroke:#0000ff;" x="438.329549" xlink:href="#m91b1153b42" y="120.199581"/>
     <use style="fill:#0000ff;stroke:#0000ff;" x="433.035832" xlink:href="#m91b1153b42" y="122.141212"/>
     <use style="fill:#0000ff;stroke:#0000ff;" x="429.507304" xlink:href="#m91b1153b42" y="123.430078"/>
     <use style="fill:#0000ff;stroke:#0000ff;" x="427.743583" xlink:href="#m91b1153b42" y="124.073075"/>
     <use style="fill:#0000ff;stroke:#0000ff;" x="420.700869" xlink:href="#m91b1153b42" y="126.640248"/>
     <use style="fill:#0000ff;stroke:#0000ff;" x="415.439406" xlink:href="#m91b1153b42" y="128.562339"/>
     <use style="fill:#0000ff;stroke:#0000ff;" x="411.942274" xlink:href="#m91b1153b42" y="129.842645"/>
     <use style="fill:#0000ff;stroke:#0000ff;" x="406.710941" xlink:href="#m91b1153b42" y="131.762316"/>
     <use style="fill:#0000ff;stroke:#0000ff;" x="401.50112" xlink:href="#m91b1153b42" y="133.681112"/>
     <use style="fill:#0000ff;stroke:#0000ff;" x="398.041502" xlink:href="#m91b1153b42" y="134.960252"/>
     <use style="fill:#0000ff;stroke:#0000ff;" x="394.589936" xlink:href="#m91b1153b42" y="136.238377"/>
     <use style="fill:#0000ff;stroke:#0000ff;" x="389.431884" xlink:href="#m91b1153b42" y="138.154591"/>
     <use style="fill:#0000ff;stroke:#0000ff;" x="386.010242" xlink:href="#m91b1153b42" y="139.431942"/>
     <use style="fill:#0000ff;stroke:#0000ff;" x="380.89625" xlink:href="#m91b1153b42" y="141.346867"/>
     <use style="fill:#0000ff;stroke:#0000ff;" x="377.495955" xlink:href="#m91b1153b42" y="142.621533"/>
     <use style="fill:#0000ff;stroke:#0000ff;" x="372.407046" xlink:href="#m91b1153b42" y="144.530903"/>
     <use style="fill:#0000ff;stroke:#0000ff;" x="369.026194" xlink:href="#m91b1153b42" y="145.802874"/>
     <use style="fill:#0000ff;stroke:#0000ff;" x="363.975113" xlink:href="#m91b1153b42" y="147.710357"/>
     <use style="fill:#0000ff;stroke:#0000ff;" x="360.621313" xlink:href="#m91b1153b42" y="148.982008"/>
     <use style="fill:#0000ff;stroke:#0000ff;" x="355.604307" xlink:href="#m91b1153b42" y="150.886809"/>
     <use style="fill:#0000ff;stroke:#0000ff;" x="352.266201" xlink:href="#m91b1153b42" y="152.154887"/>
     <use style="fill:#0000ff;stroke:#0000ff;" x="347.268558" xlink:href="#m91b1153b42" y="154.055608"/>
     <use style="fill:#0000ff;stroke:#0000ff;" x="343.94879" xlink:href="#m91b1153b42" y="155.323624"/>
     <use style="fill:#0000ff;stroke:#0000ff;" x="342.294143" xlink:href="#m91b1153b42" y="155.958098"/>
     <use style="fill:#0000ff;stroke:#0000ff;" x="335.71672" xlink:href="#m91b1153b42" y="158.500702"/>
     <use style="fill:#0000ff;stroke:#0000ff;" x="330.814871" xlink:href="#m91b1153b42" y="160.409963"/>
     <use style="fill:#0000ff;stroke:#0000ff;" x="327.551452" xlink:href="#m91b1153b42" y="161.68183"/>
     <use style="fill:#0000ff;stroke:#0000ff;" x="322.653344" xlink:href="#m91b1153b42" y="163.585498"/>
     <use style="fill:#0000ff;stroke:#0000ff;" x="317.764416" xlink:href="#m91b1153b42" y="165.488833"/>
     <use style="fill:#0000ff;stroke:#0000ff;" x="314.523671" xlink:href="#m91b1153b42" y="166.759817"/>
     <use style="fill:#0000ff;stroke:#0000ff;" x="311.299393" xlink:href="#m91b1153b42" y="168.033712"/>
     <use style="fill:#0000ff;stroke:#0000ff;" x="306.488966" xlink:href="#m91b1153b42" y="169.948415"/>
     <use style="fill:#0000ff;stroke:#0000ff;" x="303.292564" xlink:href="#m91b1153b42" y="171.225968"/>
     <use style="fill:#0000ff;stroke:#0000ff;" x="298.507334" xlink:href="#m91b1153b42" y="173.14314"/>
     <use style="fill:#0000ff;stroke:#0000ff;" x="295.32363" xlink:href="#m91b1153b42" y="174.421951"/>
     <use style="fill:#0000ff;stroke:#0000ff;" x="290.557215" xlink:href="#m91b1153b42" y="176.341786"/>
     <use style="fill:#0000ff;stroke:#0000ff;" x="287.395986" xlink:href="#m91b1153b42" y="177.624756"/>
     <use style="fill:#0000ff;stroke:#0000ff;" x="282.690374" xlink:href="#m91b1153b42" y="179.556058"/>
     <use style="fill:#0000ff;stroke:#0000ff;" x="278.018555" xlink:href="#m91b1153b42" y="181.493683"/>
     <use style="fill:#0000ff;stroke:#0000ff;" x="274.914946" xlink:href="#m91b1153b42" y="182.78799"/>
     <use style="fill:#0000ff;stroke:#0000ff;" x="271.817827" xlink:href="#m91b1153b42" y="184.083659"/>
     <use style="fill:#0000ff;stroke:#0000ff;" x="267.187724" xlink:href="#m91b1153b42" y="186.030477"/>
     <use style="fill:#0000ff;stroke:#0000ff;" x="264.115294" xlink:href="#m91b1153b42" y="187.331214"/>
     <use style="fill:#0000ff;stroke:#0000ff;" x="262.583619" xlink:href="#m91b1153b42" y="187.98227"/>
     <use style="fill:#0000ff;stroke:#0000ff;" x="256.485402" xlink:href="#m91b1153b42" y="190.592751"/>
     <use style="fill:#0000ff;stroke:#0000ff;" x="251.944811" xlink:href="#m91b1153b42" y="192.556134"/>
     <use style="fill:#0000ff;stroke:#0000ff;" x="248.937065" xlink:href="#m91b1153b42" y="193.868456"/>
     <use style="fill:#0000ff;stroke:#0000ff;" x="244.457187" xlink:href="#m91b1153b42" y="195.842977"/>
     <use style="fill:#0000ff;stroke:#0000ff;" x="241.490089" xlink:href="#m91b1153b42" y="197.163277"/>
     <use style="fill:#0000ff;stroke:#0000ff;" x="237.070128" xlink:href="#m91b1153b42" y="199.150236"/>
     <use style="fill:#0000ff;stroke:#0000ff;" x="234.145796" xlink:href="#m91b1153b42" y="200.479705"/>
     <use style="fill:#0000ff;stroke:#0000ff;" x="229.797475" xlink:href="#m91b1153b42" y="202.481695"/>
     <use style="fill:#0000ff;stroke:#0000ff;" x="226.927786" xlink:href="#m91b1153b42" y="203.821704"/>
     <use style="fill:#0000ff;stroke:#0000ff;" x="222.663929" xlink:href="#m91b1153b42" y="205.836697"/>
     <use style="fill:#0000ff;stroke:#0000ff;" x="219.841145" xlink:href="#m91b1153b42" y="207.182105"/>
     <use style="fill:#0000ff;stroke:#0000ff;" x="215.641455" xlink:href="#m91b1153b42" y="209.205686"/>
     <use style="fill:#0000ff;stroke:#0000ff;" x="212.871385" xlink:href="#m91b1153b42" y="210.559376"/>
     <use style="fill:#0000ff;stroke:#0000ff;" x="208.765469" xlink:href="#m91b1153b42" y="212.597749"/>
     <use style="fill:#0000ff;stroke:#0000ff;" x="206.062599" xlink:href="#m91b1153b42" y="213.961925"/>
     <use style="fill:#0000ff;stroke:#0000ff;" x="202.058419" xlink:href="#m91b1153b42" y="216.015543"/>
     <use style="fill:#0000ff;stroke:#0000ff;" x="199.417233" xlink:href="#m91b1153b42" y="217.388635"/>
     <use style="fill:#0000ff;stroke:#0000ff;" x="195.525706" xlink:href="#m91b1153b42" y="219.458345"/>
     <use style="fill:#0000ff;stroke:#0000ff;" x="192.990852" xlink:href="#m91b1153b42" y="220.846824"/>
     <use style="fill:#0000ff;stroke:#0000ff;" x="191.740627" xlink:href="#m91b1153b42" y="221.543333"/>
     <use style="fill:#0000ff;stroke:#0000ff;" x="186.823596" xlink:href="#m91b1153b42" y="224.337493"/>
     <use style="fill:#0000ff;stroke:#0000ff;" x="183.197173" xlink:href="#m91b1153b42" y="226.440521"/>
     <use style="fill:#0000ff;stroke:#0000ff;" x="179.625617" xlink:href="#m91b1153b42" y="228.551852"/>
     <use style="fill:#0000ff;stroke:#0000ff;" x="177.287783" xlink:href="#m91b1153b42" y="229.966071"/>
     <use style="fill:#0000ff;stroke:#0000ff;" x="174.992843" xlink:href="#m91b1153b42" y="231.386078"/>
     <use style="fill:#0000ff;stroke:#0000ff;" x="171.638659" xlink:href="#m91b1153b42" y="233.526674"/>
     <use style="fill:#0000ff;stroke:#0000ff;" x="169.459673" xlink:href="#m91b1153b42" y="234.960229"/>
     <use style="fill:#0000ff;stroke:#0000ff;" x="166.272875" xlink:href="#m91b1153b42" y="237.120293"/>
     <use style="fill:#0000ff;stroke:#0000ff;" x="163.183834" xlink:href="#m91b1153b42" y="239.29111"/>
     <use style="fill:#0000ff;stroke:#0000ff;" x="161.178487" xlink:href="#m91b1153b42" y="240.743662"/>
     <use style="fill:#0000ff;stroke:#0000ff;" x="159.216991" xlink:href="#m91b1153b42" y="242.200212"/>
     <use style="fill:#0000ff;stroke:#0000ff;" x="156.360442" xlink:href="#m91b1153b42" y="244.393847"/>
     <use style="fill:#0000ff;stroke:#0000ff;" x="154.507072" xlink:href="#m91b1153b42" y="245.861546"/>
     <use style="fill:#0000ff;stroke:#0000ff;" x="151.814361" xlink:href="#m91b1153b42" y="248.071367"/>
     <use style="fill:#0000ff;stroke:#0000ff;" x="150.090571" xlink:href="#m91b1153b42" y="249.551025"/>
     <use style="fill:#0000ff;stroke:#0000ff;" x="147.626088" xlink:href="#m91b1153b42" y="251.781621"/>
     <use style="fill:#0000ff;stroke:#0000ff;" x="145.310511" xlink:href="#m91b1153b42" y="254.025451"/>
     <use style="fill:#0000ff;stroke:#0000ff;" x="143.837771" xlink:href="#m91b1153b42" y="255.52652"/>
     <use style="fill:#0000ff;stroke:#0000ff;" x="142.41507" xlink:href="#m91b1153b42" y="257.031537"/>
     <use style="fill:#0000ff;stroke:#0000ff;" x="141.722616" xlink:href="#m91b1153b42" y="257.78513"/>
     <use style="fill:#0000ff;stroke:#0000ff;" x="139.058801" xlink:href="#m91b1153b42" y="260.806271"/>
     <use style="fill:#0000ff;stroke:#0000ff;" x="137.189767" xlink:href="#m91b1153b42" y="263.081106"/>
     <use style="fill:#0000ff;stroke:#0000ff;" x="136.025685" xlink:href="#m91b1153b42" y="264.603983"/>
     <use style="fill:#0000ff;stroke:#0000ff;" x="134.41526" xlink:href="#m91b1153b42" y="266.899523"/>
     <use style="fill:#0000ff;stroke:#0000ff;" x="133.425331" xlink:href="#m91b1153b42" y="268.436054"/>
     <use style="fill:#0000ff;stroke:#0000ff;" x="132.050401" xlink:href="#m91b1153b42" y="270.748928"/>
     <use style="fill:#0000ff;stroke:#0000ff;" x="130.804459" xlink:href="#m91b1153b42" y="273.070439"/>
     <use style="fill:#0000ff;stroke:#0000ff;" x="130.044592" xlink:href="#m91b1153b42" y="274.622322"/>
     <use style="fill:#0000ff;stroke:#0000ff;" x="129.347744" xlink:href="#m91b1153b42" y="276.17745"/>
     <use style="fill:#0000ff;stroke:#0000ff;" x="128.425884" xlink:href="#m91b1153b42" y="278.51503"/>
     <use style="fill:#0000ff;stroke:#0000ff;" x="127.65037" xlink:href="#m91b1153b42" y="280.856729"/>
     <use style="fill:#0000ff;stroke:#0000ff;" x="127.20892" xlink:href="#m91b1153b42" y="282.420292"/>
     <use style="fill:#0000ff;stroke:#0000ff;" x="126.828191" xlink:href="#m91b1153b42" y="283.985384"/>
     <use style="fill:#0000ff;stroke:#0000ff;" x="126.372807" xlink:href="#m91b1153b42" y="286.336578"/>
     <use style="fill:#0000ff;stroke:#0000ff;" x="126.143328" xlink:href="#m91b1153b42" y="287.906242"/>
     <use style="fill:#0000ff;stroke:#0000ff;" x="125.913458" xlink:href="#m91b1153b42" y="290.263742"/>
     <use style="fill:#0000ff;stroke:#0000ff;" x="125.835985" xlink:href="#m91b1153b42" y="291.837162"/>
     <use style="fill:#0000ff;stroke:#0000ff;" x="125.838889" xlink:href="#m91b1153b42" y="294.199155"/>
     <use style="fill:#0000ff;stroke:#0000ff;" x="125.922454" xlink:href="#m91b1153b42" y="295.774197"/>
     <use style="fill:#0000ff;stroke:#0000ff;" x="125.987269" xlink:href="#m91b1153b42" y="296.561557"/>
     <use style="fill:#0000ff;stroke:#0000ff;" x="126.394823" xlink:href="#m91b1153b42" y="299.706504"/>
     <use style="fill:#0000ff;stroke:#0000ff;" x="126.843479" xlink:href="#m91b1153b42" y="302.065278"/>
     <use style="fill:#0000ff;stroke:#0000ff;" x="127.21048" xlink:href="#m91b1153b42" y="303.638225"/>
     <use style="fill:#0000ff;stroke:#0000ff;" x="127.864613" xlink:href="#m91b1153b42" y="305.997779"/>
     <use style="fill:#0000ff;stroke:#0000ff;" x="128.360982" xlink:href="#m91b1153b42" y="307.571006"/>
     <use style="fill:#0000ff;stroke:#0000ff;" x="129.189185" xlink:href="#m91b1153b42" y="309.931649"/>
     <use style="fill:#0000ff;stroke:#0000ff;" x="129.808877" xlink:href="#m91b1153b42" y="311.504571"/>
     <use style="fill:#0000ff;stroke:#0000ff;" x="130.860931" xlink:href="#m91b1153b42" y="313.860583"/>
     <use style="fill:#0000ff;stroke:#0000ff;" x="131.653905" xlink:href="#m91b1153b42" y="315.427042"/>
     <use style="fill:#0000ff;stroke:#0000ff;" x="132.958454" xlink:href="#m91b1153b42" y="317.772906"/>
     <use style="fill:#0000ff;stroke:#0000ff;" x="133.891859" xlink:href="#m91b1153b42" y="319.334504"/>
     <use style="fill:#0000ff;stroke:#0000ff;" x="135.370351" xlink:href="#m91b1153b42" y="321.672807"/>
     <use style="fill:#0000ff;stroke:#0000ff;" x="136.406121" xlink:href="#m91b1153b42" y="323.229599"/>
     <use style="fill:#0000ff;stroke:#0000ff;" x="138.04604" xlink:href="#m91b1153b42" y="325.559988"/>
     <use style="fill:#0000ff;stroke:#0000ff;" x="139.198403" xlink:href="#m91b1153b42" y="327.110794"/>
     <use style="fill:#0000ff;stroke:#0000ff;" x="141.016952" xlink:href="#m91b1153b42" y="329.430916"/>
     <use style="fill:#0000ff;stroke:#0000ff;" x="142.288555" xlink:href="#m91b1153b42" y="330.973973"/>
     <use style="fill:#0000ff;stroke:#0000ff;" x="144.276467" xlink:href="#m91b1153b42" y="333.282256"/>
     <use style="fill:#0000ff;stroke:#0000ff;" x="145.651462" xlink:href="#m91b1153b42" y="334.81728"/>
     <use style="fill:#0000ff;stroke:#0000ff;" x="146.352042" xlink:href="#m91b1153b42" y="335.583309"/>
     <use style="fill:#0000ff;stroke:#0000ff;" x="150.025689" xlink:href="#m91b1153b42" y="339.395633"/>
     <use style="fill:#0000ff;stroke:#0000ff;" x="151.565615" xlink:href="#m91b1153b42" y="340.914254"/>
     <use style="fill:#0000ff;stroke:#0000ff;" x="153.950361" xlink:href="#m91b1153b42" y="343.184799"/>
     <use style="fill:#0000ff;stroke:#0000ff;" x="155.586055" xlink:href="#m91b1153b42" y="344.694101"/>
     <use style="fill:#0000ff;stroke:#0000ff;" x="158.10443" xlink:href="#m91b1153b42" y="346.951196"/>
     <use style="fill:#0000ff;stroke:#0000ff;" x="159.829066" xlink:href="#m91b1153b42" y="348.450942"/>
     <use style="fill:#0000ff;stroke:#0000ff;" x="162.479589" xlink:href="#m91b1153b42" y="350.692863"/>
     <use style="fill:#0000ff;stroke:#0000ff;" x="164.283243" xlink:href="#m91b1153b42" y="352.18437"/>
     <use style="fill:#0000ff;stroke:#0000ff;" x="167.038711" xlink:href="#m91b1153b42" y="354.41761"/>
     <use style="fill:#0000ff;stroke:#0000ff;" x="168.912819" xlink:href="#m91b1153b42" y="355.90216"/>
     <use style="fill:#0000ff;stroke:#0000ff;" x="171.789223" xlink:href="#m91b1153b42" y="358.121397"/>
     <use style="fill:#0000ff;stroke:#0000ff;" x="173.747112" xlink:href="#m91b1153b42" y="359.596252"/>
     <use style="fill:#0000ff;stroke:#0000ff;" x="176.736832" xlink:href="#m91b1153b42" y="361.801876"/>
     <use style="fill:#0000ff;stroke:#0000ff;" x="178.760056" xlink:href="#m91b1153b42" y="363.268125"/>
     <use style="fill:#0000ff;stroke:#0000ff;" x="181.832203" xlink:href="#m91b1153b42" y="365.462091"/>
     <use style="fill:#0000ff;stroke:#0000ff;" x="183.905629" xlink:href="#m91b1153b42" y="366.921445"/>
     <use style="fill:#0000ff;stroke:#0000ff;" x="187.056739" xlink:href="#m91b1153b42" y="369.103938"/>
     <use style="fill:#0000ff;stroke:#0000ff;" x="189.188362" xlink:href="#m91b1153b42" y="370.553996"/>
     <use style="fill:#0000ff;stroke:#0000ff;" x="191.34373" xlink:href="#m91b1153b42" y="372.000432"/>
     <use style="fill:#0000ff;stroke:#0000ff;" x="192.43279" xlink:href="#m91b1153b42" y="372.720671"/>
     <use style="fill:#0000ff;stroke:#0000ff;" x="197.946523" xlink:href="#m91b1153b42" y="376.311329"/>
     <use style="fill:#0000ff;stroke:#0000ff;" x="200.180113" xlink:href="#m91b1153b42" y="377.743174"/>
     <use style="fill:#0000ff;stroke:#0000ff;" x="203.55798" xlink:href="#m91b1153b42" y="379.885428"/>
     <use style="fill:#0000ff;stroke:#0000ff;" x="205.826852" xlink:href="#m91b1153b42" y="381.310949"/>
     <use style="fill:#0000ff;stroke:#0000ff;" x="209.255197" xlink:href="#m91b1153b42" y="383.444831"/>
     <use style="fill:#0000ff;stroke:#0000ff;" x="211.556936" xlink:href="#m91b1153b42" y="384.863836"/>
     <use style="fill:#0000ff;stroke:#0000ff;" x="215.030858" xlink:href="#m91b1153b42" y="386.987295"/>
     <use style="fill:#0000ff;stroke:#0000ff;" x="217.360257" xlink:href="#m91b1153b42" y="388.40031"/>
     <use style="fill:#0000ff;stroke:#0000ff;" x="220.878917" xlink:href="#m91b1153b42" y="390.515289"/>
     <use style="fill:#0000ff;stroke:#0000ff;" x="223.242446" xlink:href="#m91b1153b42" y="391.92186"/>
     <use style="fill:#0000ff;stroke:#0000ff;" x="226.804981" xlink:href="#m91b1153b42" y="394.028536"/>
     <use style="fill:#0000ff;stroke:#0000ff;" x="229.192155" xlink:href="#m91b1153b42" y="395.429166"/>
     <use style="fill:#0000ff;stroke:#0000ff;" x="231.581908" xlink:href="#m91b1153b42" y="396.830062"/>
     <use style="fill:#0000ff;stroke:#0000ff;" x="235.176288" xlink:href="#m91b1153b42" y="398.929583"/>
     <use style="fill:#0000ff;stroke:#0000ff;" x="237.581564" xlink:href="#m91b1153b42" y="400.326764"/>
     <use style="fill:#0000ff;stroke:#0000ff;" x="241.206078" xlink:href="#m91b1153b42" y="402.418118"/>
     <use style="fill:#0000ff;stroke:#0000ff;" x="244.84116" xlink:href="#m91b1153b42" y="404.507356"/>
     <use style="fill:#0000ff;stroke:#0000ff;" x="247.271311" xlink:href="#m91b1153b42" y="405.897916"/>
     <use style="fill:#0000ff;stroke:#0000ff;" x="249.705955" xlink:href="#m91b1153b42" y="407.287191"/>
     <use style="fill:#0000ff;stroke:#0000ff;" x="250.924323" xlink:href="#m91b1153b42" y="407.980785"/>
     <use style="fill:#0000ff;stroke:#0000ff;" x="255.816014" xlink:href="#m91b1153b42" y="410.744045"/>
     <use style="fill:#0000ff;stroke:#0000ff;" x="259.496333" xlink:href="#m91b1153b42" y="412.812508"/>
     <use style="fill:#0000ff;stroke:#0000ff;" x="263.189581" xlink:href="#m91b1153b42" y="414.879595"/>
     <use style="fill:#0000ff;stroke:#0000ff;" x="265.656815" xlink:href="#m91b1153b42" y="416.258501"/>
     <use style="fill:#0000ff;stroke:#0000ff;" x="269.363077" xlink:href="#m91b1153b42" y="418.330644"/>
     <use style="fill:#0000ff;stroke:#0000ff;" x="271.837591" xlink:href="#m91b1153b42" y="419.714483"/>
     <use style="fill:#0000ff;stroke:#0000ff;" x="275.562019" xlink:href="#m91b1153b42" y="421.794087"/>
     <use style="fill:#0000ff;stroke:#0000ff;" x="278.056844" xlink:href="#m91b1153b42" y="423.184276"/>
     <use style="fill:#0000ff;stroke:#0000ff;" x="281.817332" xlink:href="#m91b1153b42" y="425.276244"/>
     <use style="fill:#0000ff;stroke:#0000ff;" x="284.335959" xlink:href="#m91b1153b42" y="426.675577"/>
     <use style="fill:#0000ff;stroke:#0000ff;" x="288.124774" xlink:href="#m91b1153b42" y="428.782535"/>
     <use style="fill:#0000ff;stroke:#0000ff;" x="290.654975" xlink:href="#m91b1153b42" y="430.194102"/>
     <use style="fill:#0000ff;stroke:#0000ff;" x="294.461075" xlink:href="#m91b1153b42" y="432.321772"/>
     <use style="fill:#0000ff;stroke:#0000ff;" x="297.010021" xlink:href="#m91b1153b42" y="433.7455"/>
     <use style="fill:#0000ff;stroke:#0000ff;" x="299.568232" xlink:href="#m91b1153b42" y="435.173438"/>
     <use style="fill:#0000ff;stroke:#0000ff;" x="303.422774" xlink:href="#m91b1153b42" y="437.322178"/>
     <use style="fill:#0000ff;stroke:#0000ff;" x="307.290496" xlink:href="#m91b1153b42" y="439.483188"/>
     <use style="fill:#0000ff;stroke:#0000ff;" x="309.876734" xlink:href="#m91b1153b42" y="440.928734"/>
     <use style="fill:#0000ff;stroke:#0000ff;" x="312.468746" xlink:href="#m91b1153b42" y="442.379202"/>
     <use style="fill:#0000ff;stroke:#0000ff;" x="313.76632" xlink:href="#m91b1153b42" y="443.106016"/>
     <use style="fill:#0000ff;stroke:#0000ff;" x="318.972645" xlink:href="#m91b1153b42" y="446.018779"/>
     <use style="fill:#0000ff;stroke:#0000ff;" x="322.887248" xlink:href="#m91b1153b42" y="448.214995"/>
     <use style="fill:#0000ff;stroke:#0000ff;" x="326.809226" xlink:href="#m91b1153b42" y="450.422555"/>
     <use style="fill:#0000ff;stroke:#0000ff;" x="329.427666" xlink:href="#m91b1153b42" y="451.900987"/>
     <use style="fill:#0000ff;stroke:#0000ff;" x="333.361876" xlink:href="#m91b1153b42" y="454.128685"/>
     <use style="fill:#0000ff;stroke:#0000ff;" x="335.991099" xlink:href="#m91b1153b42" y="455.618935"/>
     <use style="fill:#0000ff;stroke:#0000ff;" x="339.941001" xlink:href="#m91b1153b42" y="457.864111"/>
     <use style="fill:#0000ff;stroke:#0000ff;" x="342.580257" xlink:href="#m91b1153b42" y="459.366096"/>
     <use style="fill:#0000ff;stroke:#0000ff;" x="346.547076" xlink:href="#m91b1153b42" y="461.626768"/>
     <use style="fill:#0000ff;stroke:#0000ff;" x="349.194675" xlink:href="#m91b1153b42" y="463.140276"/>
     <use style="fill:#0000ff;stroke:#0000ff;" x="351.844044" xlink:href="#m91b1153b42" y="464.658632"/>
     <use style="fill:#0000ff;stroke:#0000ff;" x="355.821388" xlink:href="#m91b1153b42" y="466.944434"/>
     <use style="fill:#0000ff;stroke:#0000ff;" x="359.798101" xlink:href="#m91b1153b42" y="469.243033"/>
     <use style="fill:#0000ff;stroke:#0000ff;" x="362.451906" xlink:href="#m91b1153b42" y="470.780568"/>
     <use style="fill:#0000ff;stroke:#0000ff;" x="366.435567" xlink:href="#m91b1153b42" y="473.096194"/>
     <use style="fill:#0000ff;stroke:#0000ff;" x="369.097101" xlink:href="#m91b1153b42" y="474.642384"/>
     <use style="fill:#0000ff;stroke:#0000ff;" x="373.091457" xlink:href="#m91b1153b42" y="476.973869"/>
     <use style="fill:#0000ff;stroke:#0000ff;" x="375.759242" xlink:href="#m91b1153b42" y="478.532883"/>
     <use style="fill:#0000ff;stroke:#0000ff;" x="378.429182" xlink:href="#m91b1153b42" y="480.096176"/>
     <use style="fill:#0000ff;stroke:#0000ff;" x="379.764627" xlink:href="#m91b1153b42" y="480.879402"/>
     <use style="fill:#0000ff;stroke:#0000ff;" x="386.432324" xlink:href="#m91b1153b42" y="484.80443"/>
     <use style="fill:#0000ff;stroke:#0000ff;" x="389.096772" xlink:href="#m91b1153b42" y="486.382848"/>
     <use style="fill:#0000ff;stroke:#0000ff;" x="391.760833" xlink:href="#m91b1153b42" y="487.965952"/>
     <use style="fill:#0000ff;stroke:#0000ff;" x="395.760578" xlink:href="#m91b1153b42" y="490.347209"/>
     <use style="fill:#0000ff;stroke:#0000ff;" x="398.430107" xlink:href="#m91b1153b42" y="491.939932"/>
     <use style="fill:#0000ff;stroke:#0000ff;" x="402.437407" xlink:href="#m91b1153b42" y="494.337627"/>
     <use style="fill:#0000ff;stroke:#0000ff;" x="406.446319" xlink:href="#m91b1153b42" y="496.744906"/>
     <use style="fill:#0000ff;stroke:#0000ff;" x="409.120467" xlink:href="#m91b1153b42" y="498.352194"/>
     <use style="fill:#0000ff;stroke:#0000ff;" x="413.130943" xlink:href="#m91b1153b42" y="500.774498"/>
     <use style="fill:#0000ff;stroke:#0000ff;" x="415.806454" xlink:href="#m91b1153b42" y="502.393679"/>
     <use style="fill:#0000ff;stroke:#0000ff;" x="419.821462" xlink:href="#m91b1153b42" y="504.828615"/>
     <use style="fill:#0000ff;stroke:#0000ff;" x="422.496821" xlink:href="#m91b1153b42" y="506.457165"/>
     <use style="fill:#0000ff;stroke:#0000ff;" x="426.507449" xlink:href="#m91b1153b42" y="508.908257"/>
     <use style="fill:#0000ff;stroke:#0000ff;" x="429.18035" xlink:href="#m91b1153b42" y="510.545829"/>
    </g>
   </g>
   <g id="matplotlib.axis_1">
    <g id="xtick_1">
     <g id="line2d_1">
      <defs>
       <path d="M 0 0 
L 0 3.5 
" id="mef02394013" style="stroke:#000000;stroke-width:0.8;"/>
      </defs>
      <g>
       <use style="stroke:#000000;stroke-width:0.8;" x="90" xlink:href="#mef02394013" y="512.64"/>
      </g>
     </g>
     <g id="text_1">
      <!-- −900 -->
      <defs>
       <path d="M 10.59375 35.5 
L 73.1875 35.5 
L 73.1875 27.203125 
L 10.59375 27.203125 
z
" id="DejaVuSans-8722"/>
       <path d="M 10.984375 1.515625 
L 10.984375 10.5 
Q 14.703125 8.734375 18.5 7.8125 
Q 22.3125 6.890625 25.984375 6.890625 
Q 35.75 6.890625 40.890625 13.453125 
Q 46.046875 20.015625 46.78125 33.40625 
Q 43.953125 29.203125 39.59375 26.953125 
Q 35.25 24.703125 29.984375 24.703125 
Q 19.046875 24.703125 12.671875 31.3125 
Q 6.296875 37.9375 6.296875 49.421875 
Q 6.296875 60.640625 12.9375 67.421875 
Q 19.578125 74.21875 30.609375 74.21875 
Q 43.265625 74.21875 49.921875 64.515625 
Q 56.59375 54.828125 56.59375 36.375 
Q 56.59375 19.140625 48.40625 8.859375 
Q 40.234375 -1.421875 26.421875 -1.421875 
Q 22.703125 -1.421875 18.890625 -0.6875 
Q 15.09375 0.046875 10.984375 1.515625 
z
M 30.609375 32.421875 
Q 37.25 32.421875 41.125 36.953125 
Q 45.015625 41.5 45.015625 49.421875 
Q 45.015625 57.28125 41.125 61.84375 
Q 37.25 66.40625 30.609375 66.40625 
Q 23.96875 66.40625 20.09375 61.84375 
Q 16.21875 57.28125 16.21875 49.421875 
Q 16.21875 41.5 20.09375 36.953125 
Q 23.96875 32.421875 30.609375 32.421875 
z
" id="DejaVuSans-57"/>
       <path d="M 31.78125 66.40625 
Q 24.171875 66.40625 20.328125 58.90625 
Q 16.5 51.421875 16.5 36.375 
Q 16.5 21.390625 20.328125 13.890625 
Q 24.171875 6.390625 31.78125 6.390625 
Q 39.453125 6.390625 43.28125 13.890625 
Q 47.125 21.390625 47.125 36.375 
Q 47.125 51.421875 43.28125 58.90625 
Q 39.453125 66.40625 31.78125 66.40625 
z
M 31.78125 74.21875 
Q 44.046875 74.21875 50.515625 64.515625 
Q 56.984375 54.828125 56.984375 36.375 
Q 56.984375 17.96875 50.515625 8.265625 
Q 44.046875 -1.421875 31.78125 -1.421875 
Q 19.53125 -1.421875 13.0625 8.265625 
Q 6.59375 17.96875 6.59375 36.375 
Q 6.59375 54.828125 13.0625 64.515625 
Q 19.53125 74.21875 31.78125 74.21875 
z
" id="DejaVuSans-48"/>
      </defs>
      <g transform="translate(76.266406 527.238438)scale(0.1 -0.1)">
       <use xlink:href="#DejaVuSans-8722"/>
       <use x="83.789062" xlink:href="#DejaVuSans-57"/>
       <use x="147.412109" xlink:href="#DejaVuSans-48"/>
       <use x="211.035156" xlink:href="#DejaVuSans-48"/>
      </g>
     </g>
    </g>
    <g id="xtick_2">
     <g id="line2d_2">
      <g>
       <use style="stroke:#000000;stroke-width:0.8;" x="183" xlink:href="#mef02394013" y="512.64"/>
      </g>
     </g>
     <g id="text_2">
      <!-- −895 -->
      <defs>
       <path d="M 31.78125 34.625 
Q 24.75 34.625 20.71875 30.859375 
Q 16.703125 27.09375 16.703125 20.515625 
Q 16.703125 13.921875 20.71875 10.15625 
Q 24.75 6.390625 31.78125 6.390625 
Q 38.8125 6.390625 42.859375 10.171875 
Q 46.921875 13.96875 46.921875 20.515625 
Q 46.921875 27.09375 42.890625 30.859375 
Q 38.875 34.625 31.78125 34.625 
z
M 21.921875 38.8125 
Q 15.578125 40.375 12.03125 44.71875 
Q 8.5 49.078125 8.5 55.328125 
Q 8.5 64.0625 14.71875 69.140625 
Q 20.953125 74.21875 31.78125 74.21875 
Q 42.671875 74.21875 48.875 69.140625 
Q 55.078125 64.0625 55.078125 55.328125 
Q 55.078125 49.078125 51.53125 44.71875 
Q 48 40.375 41.703125 38.8125 
Q 48.828125 37.15625 52.796875 32.3125 
Q 56.78125 27.484375 56.78125 20.515625 
Q 56.78125 9.90625 50.3125 4.234375 
Q 43.84375 -1.421875 31.78125 -1.421875 
Q 19.734375 -1.421875 13.25 4.234375 
Q 6.78125 9.90625 6.78125 20.515625 
Q 6.78125 27.484375 10.78125 32.3125 
Q 14.796875 37.15625 21.921875 38.8125 
z
M 18.3125 54.390625 
Q 18.3125 48.734375 21.84375 45.5625 
Q 25.390625 42.390625 31.78125 42.390625 
Q 38.140625 42.390625 41.71875 45.5625 
Q 45.3125 48.734375 45.3125 54.390625 
Q 45.3125 60.0625 41.71875 63.234375 
Q 38.140625 66.40625 31.78125 66.40625 
Q 25.390625 66.40625 21.84375 63.234375 
Q 18.3125 60.0625 18.3125 54.390625 
z
" id="DejaVuSans-56"/>
       <path d="M 10.796875 72.90625 
L 49.515625 72.90625 
L 49.515625 64.59375 
L 19.828125 64.59375 
L 19.828125 46.734375 
Q 21.96875 47.46875 24.109375 47.828125 
Q 26.265625 48.1875 28.421875 48.1875 
Q 40.625 48.1875 47.75 41.5 
Q 54.890625 34.8125 54.890625 23.390625 
Q 54.890625 11.625 47.5625 5.09375 
Q 40.234375 -1.421875 26.90625 -1.421875 
Q 22.3125 -1.421875 17.546875 -0.640625 
Q 12.796875 0.140625 7.71875 1.703125 
L 7.71875 11.625 
Q 12.109375 9.234375 16.796875 8.0625 
Q 21.484375 6.890625 26.703125 6.890625 
Q 35.15625 6.890625 40.078125 11.328125 
Q 45.015625 15.765625 45.015625 23.390625 
Q 45.015625 31 40.078125 35.4375 
Q 35.15625 39.890625 26.703125 39.890625 
Q 22.75 39.890625 18.8125 39.015625 
Q 14.890625 38.140625 10.796875 36.28125 
z
" id="DejaVuSans-53"/>
      </defs>
      <g transform="translate(169.266406 527.238438)scale(0.1 -0.1)">
       <use xlink:href="#DejaVuSans-8722"/>
       <use x="83.789062" xlink:href="#DejaVuSans-56"/>
       <use x="147.412109" xlink:href="#DejaVuSans-57"/>
       <use x="211.035156" xlink:href="#DejaVuSans-53"/>
      </g>
     </g>
    </g>
    <g id="xtick_3">
     <g id="line2d_3">
      <g>
       <use style="stroke:#000000;stroke-width:0.8;" x="276" xlink:href="#mef02394013" y="512.64"/>
      </g>
     </g>
     <g id="text_3">
      <!-- −890 -->
      <g transform="translate(262.266406 527.238438)scale(0.1 -0.1)">
       <use xlink:href="#DejaVuSans-8722"/>
       <use x="83.789062" xlink:href="#DejaVuSans-56"/>
       <use x="147.412109" xlink:href="#DejaVuSans-57"/>
       <use x="211.035156" xlink:href="#DejaVuSans-48"/>
      </g>
     </g>
    </g>
    <g id="xtick_4">
     <g id="line2d_4">
      <g>
       <use style="stroke:#000000;stroke-width:0.8;" x="369" xlink:href="#mef02394013" y="512.64"/>
      </g>
     </g>
     <g id="text_4">
      <!-- −885 -->
      <g transform="translate(355.266406 527.238438)scale(0.1 -0.1)">
       <use xlink:href="#DejaVuSans-8722"/>
       <use x="83.789062" xlink:href="#DejaVuSans-56"/>
       <use x="147.412109" xlink:href="#DejaVuSans-56"/>
       <use x="211.035156" xlink:href="#DejaVuSans-53"/>
      </g>
     </g>
    </g>
    <g id="xtick_5">
     <g id="line2d_5">
      <g>
       <use style="stroke:#000000;stroke-width:0.8;" x="462" xlink:href="#mef02394013" y="512.64"/>
      </g>
     </g>
     <g id="text_5">
      <!-- −880 -->
      <g transform="translate(448.266406 527.238438)scale(0.1 -0.1)">
       <use xlink:href="#DejaVuSans-8722"/>
       <use x="83.789062" xlink:href="#DejaVuSans-56"/>
       <use x="147.412109" xlink:href="#DejaVuSans-56"/>
       <use x="211.035156" xlink:href="#DejaVuSans-48"/>
      </g>
     </g>
    </g>
    <g id="xtick_6">
     <g id="line2d_6">
      <g>
       <use style="stroke:#000000;stroke-width:0.8;" x="555" xlink:href="#mef02394013" y="512.64"/>
      </g>
     </g>
     <g id="text_6">
      <!-- −875 -->
      <defs>
       <path d="M 8.203125 72.90625 
L 55.078125 72.90625 
L 55.078125 68.703125 
L 28.609375 0 
L 18.3125 0 
L 43.21875 64.59375 
L 8.203125 64.59375 
z
" id="DejaVuSans-55"/>
      </defs>
      <g transform="translate(541.266406 527.238438)scale(0.1 -0.1)">
       <use xlink:href="#DejaVuSans-8722"/>
       <use x="83.789062" xlink:href="#DejaVuSans-56"/>
       <use x="147.412109" xlink:href="#DejaVuSans-55"/>
       <use x="211.035156" xlink:href="#DejaVuSans-53"/>
      </g>
     </g>
    </g>
    <g id="xtick_7">
     <g id="line2d_7">
      <g>
       <use style="stroke:#000000;stroke-width:0.8;" x="648" xlink:href="#mef02394013" y="512.64"/>
      </g>
     </g>
     <g id="text_7">
      <!-- −870 -->
      <g transform="translate(634.266406 527.238438)scale(0.1 -0.1)">
       <use xlink:href="#DejaVuSans-8722"/>
       <use x="83.789062" xlink:href="#DejaVuSans-56"/>
       <use x="147.412109" xlink:href="#DejaVuSans-55"/>
       <use x="211.035156" xlink:href="#DejaVuSans-48"/>
      </g>
     </g>
    </g>
    <g id="text_8">
     <!-- x (m) -->
     <defs>
      <path d="M 54.890625 54.6875 
L 35.109375 28.078125 
L 55.90625 0 
L 45.3125 0 
L 29.390625 21.484375 
L 13.484375 0 
L 2.875 0 
L 24.125 28.609375 
L 4.6875 54.6875 
L 15.28125 54.6875 
L 29.78125 35.203125 
L 44.28125 54.6875 
z
" id="DejaVuSans-120"/>
      <path id="DejaVuSans-32"/>
      <path d="M 31 75.875 
Q 24.46875 64.65625 21.28125 53.65625 
Q 18.109375 42.671875 18.109375 31.390625 
Q 18.109375 20.125 21.3125 9.0625 
Q 24.515625 -2 31 -13.1875 
L 23.1875 -13.1875 
Q 15.875 -1.703125 12.234375 9.375 
Q 8.59375 20.453125 8.59375 31.390625 
Q 8.59375 42.28125 12.203125 53.3125 
Q 15.828125 64.359375 23.1875 75.875 
z
" id="DejaVuSans-40"/>
      <path d="M 52 44.1875 
Q 55.375 50.25 60.0625 53.125 
Q 64.75 56 71.09375 56 
Q 79.640625 56 84.28125 50.015625 
Q 88.921875 44.046875 88.921875 33.015625 
L 88.921875 0 
L 79.890625 0 
L 79.890625 32.71875 
Q 79.890625 40.578125 77.09375 44.375 
Q 74.3125 48.1875 68.609375 48.1875 
Q 61.625 48.1875 57.5625 43.546875 
Q 53.515625 38.921875 53.515625 30.90625 
L 53.515625 0 
L 44.484375 0 
L 44.484375 32.71875 
Q 44.484375 40.625 41.703125 44.40625 
Q 38.921875 48.1875 33.109375 48.1875 
Q 26.21875 48.1875 22.15625 43.53125 
Q 18.109375 38.875 18.109375 30.90625 
L 18.109375 0 
L 9.078125 0 
L 9.078125 54.6875 
L 18.109375 54.6875 
L 18.109375 46.1875 
Q 21.1875 51.21875 25.484375 53.609375 
Q 29.78125 56 35.6875 56 
Q 41.65625 56 45.828125 52.96875 
Q 50 49.953125 52 44.1875 
z
" id="DejaVuSans-109"/>
      <path d="M 8.015625 75.875 
L 15.828125 75.875 
Q 23.140625 64.359375 26.78125 53.3125 
Q 30.421875 42.28125 30.421875 31.390625 
Q 30.421875 20.453125 26.78125 9.375 
Q 23.140625 -1.703125 15.828125 -13.1875 
L 8.015625 -13.1875 
Q 14.5 -2 17.703125 9.0625 
Q 20.90625 20.125 20.90625 31.390625 
Q 20.90625 42.671875 17.703125 53.65625 
Q 14.5 64.65625 8.015625 75.875 
z
" id="DejaVuSans-41"/>
     </defs>
     <g transform="translate(355.679688 540.916563)scale(0.1 -0.1)">
      <use xlink:href="#DejaVuSans-120"/>
      <use x="59.179688" xlink:href="#DejaVuSans-32"/>
      <use x="90.966797" xlink:href="#DejaVuSans-40"/>
      <use x="129.980469" xlink:href="#DejaVuSans-109"/>
      <use x="227.392578" xlink:href="#DejaVuSans-41"/>
     </g>
    </g>
   </g>
   <g id="matplotlib.axis_2">
    <g id="ytick_1">
     <g id="line2d_8">
      <defs>
       <path d="M 0 0 
L -3.5 0 
" id="mdb7673a606" style="stroke:#000000;stroke-width:0.8;"/>
      </defs>
      <g>
       <use style="stroke:#000000;stroke-width:0.8;" x="90" xlink:href="#mdb7673a606" y="512.64"/>
      </g>
     </g>
     <g id="text_9">
      <!-- 740 -->
      <defs>
       <path d="M 37.796875 64.3125 
L 12.890625 25.390625 
L 37.796875 25.390625 
z
M 35.203125 72.90625 
L 47.609375 72.90625 
L 47.609375 25.390625 
L 58.015625 25.390625 
L 58.015625 17.1875 
L 47.609375 17.1875 
L 47.609375 0 
L 37.796875 0 
L 37.796875 17.1875 
L 4.890625 17.1875 
L 4.890625 26.703125 
z
" id="DejaVuSans-52"/>
      </defs>
      <g transform="translate(63.9125 516.439219)scale(0.1 -0.1)">
       <use xlink:href="#DejaVuSans-55"/>
       <use x="63.623047" xlink:href="#DejaVuSans-52"/>
       <use x="127.246094" xlink:href="#DejaVuSans-48"/>
      </g>
     </g>
    </g>
    <g id="ytick_2">
     <g id="line2d_9">
      <g>
       <use style="stroke:#000000;stroke-width:0.8;" x="90" xlink:href="#mdb7673a606" y="457.2"/>
      </g>
     </g>
     <g id="text_10">
      <!-- 750 -->
      <g transform="translate(63.9125 460.999219)scale(0.1 -0.1)">
       <use xlink:href="#DejaVuSans-55"/>
       <use x="63.623047" xlink:href="#DejaVuSans-53"/>
       <use x="127.246094" xlink:href="#DejaVuSans-48"/>
      </g>
     </g>
    </g>
    <g id="ytick_3">
     <g id="line2d_10">
      <g>
       <use style="stroke:#000000;stroke-width:0.8;" x="90" xlink:href="#mdb7673a606" y="401.76"/>
      </g>
     </g>
     <g id="text_11">
      <!-- 760 -->
      <defs>
       <path d="M 33.015625 40.375 
Q 26.375 40.375 22.484375 35.828125 
Q 18.609375 31.296875 18.609375 23.390625 
Q 18.609375 15.53125 22.484375 10.953125 
Q 26.375 6.390625 33.015625 6.390625 
Q 39.65625 6.390625 43.53125 10.953125 
Q 47.40625 15.53125 47.40625 23.390625 
Q 47.40625 31.296875 43.53125 35.828125 
Q 39.65625 40.375 33.015625 40.375 
z
M 52.59375 71.296875 
L 52.59375 62.3125 
Q 48.875 64.0625 45.09375 64.984375 
Q 41.3125 65.921875 37.59375 65.921875 
Q 27.828125 65.921875 22.671875 59.328125 
Q 17.53125 52.734375 16.796875 39.40625 
Q 19.671875 43.65625 24.015625 45.921875 
Q 28.375 48.1875 33.59375 48.1875 
Q 44.578125 48.1875 50.953125 41.515625 
Q 57.328125 34.859375 57.328125 23.390625 
Q 57.328125 12.15625 50.6875 5.359375 
Q 44.046875 -1.421875 33.015625 -1.421875 
Q 20.359375 -1.421875 13.671875 8.265625 
Q 6.984375 17.96875 6.984375 36.375 
Q 6.984375 53.65625 15.1875 63.9375 
Q 23.390625 74.21875 37.203125 74.21875 
Q 40.921875 74.21875 44.703125 73.484375 
Q 48.484375 72.75 52.59375 71.296875 
z
" id="DejaVuSans-54"/>
      </defs>
      <g transform="translate(63.9125 405.559219)scale(0.1 -0.1)">
       <use xlink:href="#DejaVuSans-55"/>
       <use x="63.623047" xlink:href="#DejaVuSans-54"/>
       <use x="127.246094" xlink:href="#DejaVuSans-48"/>
      </g>
     </g>
    </g>
    <g id="ytick_4">
     <g id="line2d_11">
      <g>
       <use style="stroke:#000000;stroke-width:0.8;" x="90" xlink:href="#mdb7673a606" y="346.32"/>
      </g>
     </g>
     <g id="text_12">
      <!-- 770 -->
      <g transform="translate(63.9125 350.119219)scale(0.1 -0.1)">
       <use xlink:href="#DejaVuSans-55"/>
       <use x="63.623047" xlink:href="#DejaVuSans-55"/>
       <use x="127.246094" xlink:href="#DejaVuSans-48"/>
      </g>
     </g>
    </g>
    <g id="ytick_5">
     <g id="line2d_12">
      <g>
       <use style="stroke:#000000;stroke-width:0.8;" x="90" xlink:href="#mdb7673a606" y="290.88"/>
      </g>
     </g>
     <g id="text_13">
      <!-- 780 -->
      <g transform="translate(63.9125 294.679219)scale(0.1 -0.1)">
       <use xlink:href="#DejaVuSans-55"/>
       <use x="63.623047" xlink:href="#DejaVuSans-56"/>
       <use x="127.246094" xlink:href="#DejaVuSans-48"/>
      </g>
     </g>
    </g>
    <g id="ytick_6">
     <g id="line2d_13">
      <g>
       <use style="stroke:#000000;stroke-width:0.8;" x="90" xlink:href="#mdb7673a606" y="235.44"/>
      </g>
     </g>
     <g id="text_14">
      <!-- 790 -->
      <g transform="translate(63.9125 239.239219)scale(0.1 -0.1)">
       <use xlink:href="#DejaVuSans-55"/>
       <use x="63.623047" xlink:href="#DejaVuSans-57"/>
       <use x="127.246094" xlink:href="#DejaVuSans-48"/>
      </g>
     </g>
    </g>
    <g id="ytick_7">
     <g id="line2d_14">
      <g>
       <use style="stroke:#000000;stroke-width:0.8;" x="90" xlink:href="#mdb7673a606" y="180"/>
      </g>
     </g>
     <g id="text_15">
      <!-- 800 -->
      <g transform="translate(63.9125 183.799219)scale(0.1 -0.1)">
       <use xlink:href="#DejaVuSans-56"/>
       <use x="63.623047" xlink:href="#DejaVuSans-48"/>
       <use x="127.246094" xlink:href="#DejaVuSans-48"/>
      </g>
     </g>
    </g>
    <g id="ytick_8">
     <g id="line2d_15">
      <g>
       <use style="stroke:#000000;stroke-width:0.8;" x="90" xlink:href="#mdb7673a606" y="124.56"/>
      </g>
     </g>
     <g id="text_16">
      <!-- 810 -->
      <defs>
       <path d="M 12.40625 8.296875 
L 28.515625 8.296875 
L 28.515625 63.921875 
L 10.984375 60.40625 
L 10.984375 69.390625 
L 28.421875 72.90625 
L 38.28125 72.90625 
L 38.28125 8.296875 
L 54.390625 8.296875 
L 54.390625 0 
L 12.40625 0 
z
" id="DejaVuSans-49"/>
      </defs>
      <g transform="translate(63.9125 128.359219)scale(0.1 -0.1)">
       <use xlink:href="#DejaVuSans-56"/>
       <use x="63.623047" xlink:href="#DejaVuSans-49"/>
       <use x="127.246094" xlink:href="#DejaVuSans-48"/>
      </g>
     </g>
    </g>
    <g id="ytick_9">
     <g id="line2d_16">
      <g>
       <use style="stroke:#000000;stroke-width:0.8;" x="90" xlink:href="#mdb7673a606" y="69.12"/>
      </g>
     </g>
     <g id="text_17">
      <!-- 820 -->
      <defs>
       <path d="M 19.1875 8.296875 
L 53.609375 8.296875 
L 53.609375 0 
L 7.328125 0 
L 7.328125 8.296875 
Q 12.9375 14.109375 22.625 23.890625 
Q 32.328125 33.6875 34.8125 36.53125 
Q 39.546875 41.84375 41.421875 45.53125 
Q 43.3125 49.21875 43.3125 52.78125 
Q 43.3125 58.59375 39.234375 62.25 
Q 35.15625 65.921875 28.609375 65.921875 
Q 23.96875 65.921875 18.8125 64.3125 
Q 13.671875 62.703125 7.8125 59.421875 
L 7.8125 69.390625 
Q 13.765625 71.78125 18.9375 73 
Q 24.125 74.21875 28.421875 74.21875 
Q 39.75 74.21875 46.484375 68.546875 
Q 53.21875 62.890625 53.21875 53.421875 
Q 53.21875 48.921875 51.53125 44.890625 
Q 49.859375 40.875 45.40625 35.40625 
Q 44.1875 33.984375 37.640625 27.21875 
Q 31.109375 20.453125 19.1875 8.296875 
z
" id="DejaVuSans-50"/>
      </defs>
      <g transform="translate(63.9125 72.919219)scale(0.1 -0.1)">
       <use xlink:href="#DejaVuSans-56"/>
       <use x="63.623047" xlink:href="#DejaVuSans-50"/>
       <use x="127.246094" xlink:href="#DejaVuSans-48"/>
      </g>
     </g>
    </g>
    <g id="text_18">
     <!-- y (m) -->
     <defs>
      <path d="M 32.171875 -5.078125 
Q 28.375 -14.84375 24.75 -17.8125 
Q 21.140625 -20.796875 15.09375 -20.796875 
L 7.90625 -20.796875 
L 7.90625 -13.28125 
L 13.1875 -13.28125 
Q 16.890625 -13.28125 18.9375 -11.515625 
Q 21 -9.765625 23.484375 -3.21875 
L 25.09375 0.875 
L 2.984375 54.6875 
L 12.5 54.6875 
L 29.59375 11.921875 
L 46.6875 54.6875 
L 56.203125 54.6875 
z
" id="DejaVuSans-121"/>
     </defs>
     <g transform="translate(57.832812 304.200312)rotate(-90)scale(0.1 -0.1)">
      <use xlink:href="#DejaVuSans-121"/>
      <use x="59.179688" xlink:href="#DejaVuSans-32"/>
      <use x="90.966797" xlink:href="#DejaVuSans-40"/>
      <use x="129.980469" xlink:href="#DejaVuSans-109"/>
      <use x="227.392578" xlink:href="#DejaVuSans-41"/>
     </g>
    </g>
   </g>
   <g id="line2d_17">
    <path clip-path="url(#p0fbffa7481)" d="M 721 19.865247 
L 620.07587 54.720123 
L 565.789111 73.719462 
L 517.898155 90.701406 
L 470.398138 107.767672 
L 423.340876 124.911829 
L 382.583709 139.9866 
L 348.043349 152.99903 
L 319.639552 163.955835 
L 297.24228 172.831782 
L 275.200514 181.833945 
L 258.943368 188.681028 
L 242.963829 195.617002 
L 227.321384 202.646095 
L 212.109074 209.771121 
L 202.272829 214.575443 
L 192.741953 219.423796 
L 183.57985 224.316648 
L 174.85794 229.254457 
L 166.652836 234.237658 
L 159.042686 239.266636 
L 155.484565 241.798386 
L 152.103131 244.341674 
L 148.906802 246.896506 
L 145.903374 249.462872 
L 143.099934 252.040739 
L 140.502788 254.630049 
L 138.117401 257.230714 
L 135.948353 259.84261 
L 133.999307 262.465572 
L 132.272995 265.099389 
L 130.771203 267.743797 
L 129.494779 270.398474 
L 128.443642 273.063035 
L 127.616801 275.737028 
L 127.01238 278.419928 
L 126.627655 281.111139 
L 126.459094 283.809987 
L 126.502412 286.515729 
L 126.752627 289.227549 
L 127.204131 291.944564 
L 127.850767 294.665834 
L 128.685911 297.39037 
L 129.702573 300.11714 
L 130.893482 302.84509 
L 132.251197 305.573147 
L 133.768197 308.300241 
L 135.436985 311.025316 
L 137.250172 313.747345 
L 141.281211 319.178372 
L 145.807168 324.586152 
L 150.77944 329.9647 
L 156.155481 335.309433 
L 161.89838 340.617277 
L 167.975766 345.886668 
L 174.358332 351.117464 
L 181.018367 356.310796 
L 187.928619 361.468866 
L 198.703112 369.146654 
L 209.885928 376.764405 
L 221.387494 384.33531 
L 237.082501 394.3779 
L 257.079417 406.878752 
L 285.475911 424.329128 
L 391.452646 489.114693 
L 423.512733 509.127046 
L 459.204234 531.693044 
L 498.485811 556.819238 
L 529.841918 577 
L 529.841918 577 
" style="fill:none;stroke:#008000;stroke-linecap:square;stroke-width:1.5;"/>
   </g>
   <g id="patch_3">
    <path d="M 90 512.64 
L 90 69.12 
" style="fill:none;stroke:#000000;stroke-linecap:square;stroke-linejoin:miter;stroke-width:0.8;"/>
   </g>
   <g id="patch_4">
    <path d="M 648 512.64 
L 648 69.12 
" style="fill:none;stroke:#000000;stroke-linecap:square;stroke-linejoin:miter;stroke-width:0.8;"/>
   </g>
   <g id="patch_5">
    <path d="M 90 512.64 
L 648 512.64 
" style="fill:none;stroke:#000000;stroke-linecap:square;stroke-linejoin:miter;stroke-width:0.8;"/>
   </g>
   <g id="patch_6">
    <path d="M 90 69.12 
L 648 69.12 
" style="fill:none;stroke:#000000;stroke-linecap:square;stroke-linejoin:miter;stroke-width:0.8;"/>
   </g>
   <g id="text_19">
    <!-- Vehicle Data vs Ground Truth Path -->
    <defs>
     <path d="M 28.609375 0 
L 0.78125 72.90625 
L 11.078125 72.90625 
L 34.1875 11.53125 
L 57.328125 72.90625 
L 67.578125 72.90625 
L 39.796875 0 
z
" id="DejaVuSans-86"/>
     <path d="M 56.203125 29.59375 
L 56.203125 25.203125 
L 14.890625 25.203125 
Q 15.484375 15.921875 20.484375 11.0625 
Q 25.484375 6.203125 34.421875 6.203125 
Q 39.59375 6.203125 44.453125 7.46875 
Q 49.3125 8.734375 54.109375 11.28125 
L 54.109375 2.78125 
Q 49.265625 0.734375 44.1875 -0.34375 
Q 39.109375 -1.421875 33.890625 -1.421875 
Q 20.796875 -1.421875 13.15625 6.1875 
Q 5.515625 13.8125 5.515625 26.8125 
Q 5.515625 40.234375 12.765625 48.109375 
Q 20.015625 56 32.328125 56 
Q 43.359375 56 49.78125 48.890625 
Q 56.203125 41.796875 56.203125 29.59375 
z
M 47.21875 32.234375 
Q 47.125 39.59375 43.09375 43.984375 
Q 39.0625 48.390625 32.421875 48.390625 
Q 24.90625 48.390625 20.390625 44.140625 
Q 15.875 39.890625 15.1875 32.171875 
z
" id="DejaVuSans-101"/>
     <path d="M 54.890625 33.015625 
L 54.890625 0 
L 45.90625 0 
L 45.90625 32.71875 
Q 45.90625 40.484375 42.875 44.328125 
Q 39.84375 48.1875 33.796875 48.1875 
Q 26.515625 48.1875 22.3125 43.546875 
Q 18.109375 38.921875 18.109375 30.90625 
L 18.109375 0 
L 9.078125 0 
L 9.078125 75.984375 
L 18.109375 75.984375 
L 18.109375 46.1875 
Q 21.34375 51.125 25.703125 53.5625 
Q 30.078125 56 35.796875 56 
Q 45.21875 56 50.046875 50.171875 
Q 54.890625 44.34375 54.890625 33.015625 
z
" id="DejaVuSans-104"/>
     <path d="M 9.421875 54.6875 
L 18.40625 54.6875 
L 18.40625 0 
L 9.421875 0 
z
M 9.421875 75.984375 
L 18.40625 75.984375 
L 18.40625 64.59375 
L 9.421875 64.59375 
z
" id="DejaVuSans-105"/>
     <path d="M 48.78125 52.59375 
L 48.78125 44.1875 
Q 44.96875 46.296875 41.140625 47.34375 
Q 37.3125 48.390625 33.40625 48.390625 
Q 24.65625 48.390625 19.8125 42.84375 
Q 14.984375 37.3125 14.984375 27.296875 
Q 14.984375 17.28125 19.8125 11.734375 
Q 24.65625 6.203125 33.40625 6.203125 
Q 37.3125 6.203125 41.140625 7.25 
Q 44.96875 8.296875 48.78125 10.40625 
L 48.78125 2.09375 
Q 45.015625 0.34375 40.984375 -0.53125 
Q 36.96875 -1.421875 32.421875 -1.421875 
Q 20.0625 -1.421875 12.78125 6.34375 
Q 5.515625 14.109375 5.515625 27.296875 
Q 5.515625 40.671875 12.859375 48.328125 
Q 20.21875 56 33.015625 56 
Q 37.15625 56 41.109375 55.140625 
Q 45.0625 54.296875 48.78125 52.59375 
z
" id="DejaVuSans-99"/>
     <path d="M 9.421875 75.984375 
L 18.40625 75.984375 
L 18.40625 0 
L 9.421875 0 
z
" id="DejaVuSans-108"/>
     <path d="M 19.671875 64.796875 
L 19.671875 8.109375 
L 31.59375 8.109375 
Q 46.6875 8.109375 53.6875 14.9375 
Q 60.6875 21.78125 60.6875 36.53125 
Q 60.6875 51.171875 53.6875 57.984375 
Q 46.6875 64.796875 31.59375 64.796875 
z
M 9.8125 72.90625 
L 30.078125 72.90625 
Q 51.265625 72.90625 61.171875 64.09375 
Q 71.09375 55.28125 71.09375 36.53125 
Q 71.09375 17.671875 61.125 8.828125 
Q 51.171875 0 30.078125 0 
L 9.8125 0 
z
" id="DejaVuSans-68"/>
     <path d="M 34.28125 27.484375 
Q 23.390625 27.484375 19.1875 25 
Q 14.984375 22.515625 14.984375 16.5 
Q 14.984375 11.71875 18.140625 8.90625 
Q 21.296875 6.109375 26.703125 6.109375 
Q 34.1875 6.109375 38.703125 11.40625 
Q 43.21875 16.703125 43.21875 25.484375 
L 43.21875 27.484375 
z
M 52.203125 31.203125 
L 52.203125 0 
L 43.21875 0 
L 43.21875 8.296875 
Q 40.140625 3.328125 35.546875 0.953125 
Q 30.953125 -1.421875 24.3125 -1.421875 
Q 15.921875 -1.421875 10.953125 3.296875 
Q 6 8.015625 6 15.921875 
Q 6 25.140625 12.171875 29.828125 
Q 18.359375 34.515625 30.609375 34.515625 
L 43.21875 34.515625 
L 43.21875 35.40625 
Q 43.21875 41.609375 39.140625 45 
Q 35.0625 48.390625 27.6875 48.390625 
Q 23 48.390625 18.546875 47.265625 
Q 14.109375 46.140625 10.015625 43.890625 
L 10.015625 52.203125 
Q 14.9375 54.109375 19.578125 55.046875 
Q 24.21875 56 28.609375 56 
Q 40.484375 56 46.34375 49.84375 
Q 52.203125 43.703125 52.203125 31.203125 
z
" id="DejaVuSans-97"/>
     <path d="M 18.3125 70.21875 
L 18.3125 54.6875 
L 36.8125 54.6875 
L 36.8125 47.703125 
L 18.3125 47.703125 
L 18.3125 18.015625 
Q 18.3125 11.328125 20.140625 9.421875 
Q 21.96875 7.515625 27.59375 7.515625 
L 36.8125 7.515625 
L 36.8125 0 
L 27.59375 0 
Q 17.1875 0 13.234375 3.875 
Q 9.28125 7.765625 9.28125 18.015625 
L 9.28125 47.703125 
L 2.6875 47.703125 
L 2.6875 54.6875 
L 9.28125 54.6875 
L 9.28125 70.21875 
z
" id="DejaVuSans-116"/>
     <path d="M 2.984375 54.6875 
L 12.5 54.6875 
L 29.59375 8.796875 
L 46.6875 54.6875 
L 56.203125 54.6875 
L 35.6875 0 
L 23.484375 0 
z
" id="DejaVuSans-118"/>
     <path d="M 44.28125 53.078125 
L 44.28125 44.578125 
Q 40.484375 46.53125 36.375 47.5 
Q 32.28125 48.484375 27.875 48.484375 
Q 21.1875 48.484375 17.84375 46.4375 
Q 14.5 44.390625 14.5 40.28125 
Q 14.5 37.15625 16.890625 35.375 
Q 19.28125 33.59375 26.515625 31.984375 
L 29.59375 31.296875 
Q 39.15625 29.25 43.1875 25.515625 
Q 47.21875 21.78125 47.21875 15.09375 
Q 47.21875 7.46875 41.1875 3.015625 
Q 35.15625 -1.421875 24.609375 -1.421875 
Q 20.21875 -1.421875 15.453125 -0.5625 
Q 10.6875 0.296875 5.421875 2 
L 5.421875 11.28125 
Q 10.40625 8.6875 15.234375 7.390625 
Q 20.0625 6.109375 24.8125 6.109375 
Q 31.15625 6.109375 34.5625 8.28125 
Q 37.984375 10.453125 37.984375 14.40625 
Q 37.984375 18.0625 35.515625 20.015625 
Q 33.0625 21.96875 24.703125 23.78125 
L 21.578125 24.515625 
Q 13.234375 26.265625 9.515625 29.90625 
Q 5.8125 33.546875 5.8125 39.890625 
Q 5.8125 47.609375 11.28125 51.796875 
Q 16.75 56 26.8125 56 
Q 31.78125 56 36.171875 55.265625 
Q 40.578125 54.546875 44.28125 53.078125 
z
" id="DejaVuSans-115"/>
     <path d="M 59.515625 10.40625 
L 59.515625 29.984375 
L 43.40625 29.984375 
L 43.40625 38.09375 
L 69.28125 38.09375 
L 69.28125 6.78125 
Q 63.578125 2.734375 56.6875 0.65625 
Q 49.8125 -1.421875 42 -1.421875 
Q 24.90625 -1.421875 15.25 8.5625 
Q 5.609375 18.5625 5.609375 36.375 
Q 5.609375 54.25 15.25 64.234375 
Q 24.90625 74.21875 42 74.21875 
Q 49.125 74.21875 55.546875 72.453125 
Q 61.96875 70.703125 67.390625 67.28125 
L 67.390625 56.78125 
Q 61.921875 61.421875 55.765625 63.765625 
Q 49.609375 66.109375 42.828125 66.109375 
Q 29.4375 66.109375 22.71875 58.640625 
Q 16.015625 51.171875 16.015625 36.375 
Q 16.015625 21.625 22.71875 14.15625 
Q 29.4375 6.6875 42.828125 6.6875 
Q 48.046875 6.6875 52.140625 7.59375 
Q 56.25 8.5 59.515625 10.40625 
z
" id="DejaVuSans-71"/>
     <path d="M 41.109375 46.296875 
Q 39.59375 47.171875 37.8125 47.578125 
Q 36.03125 48 33.890625 48 
Q 26.265625 48 22.1875 43.046875 
Q 18.109375 38.09375 18.109375 28.8125 
L 18.109375 0 
L 9.078125 0 
L 9.078125 54.6875 
L 18.109375 54.6875 
L 18.109375 46.1875 
Q 20.953125 51.171875 25.484375 53.578125 
Q 30.03125 56 36.53125 56 
Q 37.453125 56 38.578125 55.875 
Q 39.703125 55.765625 41.0625 55.515625 
z
" id="DejaVuSans-114"/>
     <path d="M 30.609375 48.390625 
Q 23.390625 48.390625 19.1875 42.75 
Q 14.984375 37.109375 14.984375 27.296875 
Q 14.984375 17.484375 19.15625 11.84375 
Q 23.34375 6.203125 30.609375 6.203125 
Q 37.796875 6.203125 41.984375 11.859375 
Q 46.1875 17.53125 46.1875 27.296875 
Q 46.1875 37.015625 41.984375 42.703125 
Q 37.796875 48.390625 30.609375 48.390625 
z
M 30.609375 56 
Q 42.328125 56 49.015625 48.375 
Q 55.71875 40.765625 55.71875 27.296875 
Q 55.71875 13.875 49.015625 6.21875 
Q 42.328125 -1.421875 30.609375 -1.421875 
Q 18.84375 -1.421875 12.171875 6.21875 
Q 5.515625 13.875 5.515625 27.296875 
Q 5.515625 40.765625 12.171875 48.375 
Q 18.84375 56 30.609375 56 
z
" id="DejaVuSans-111"/>
     <path d="M 8.5 21.578125 
L 8.5 54.6875 
L 17.484375 54.6875 
L 17.484375 21.921875 
Q 17.484375 14.15625 20.5 10.265625 
Q 23.53125 6.390625 29.59375 6.390625 
Q 36.859375 6.390625 41.078125 11.03125 
Q 45.3125 15.671875 45.3125 23.6875 
L 45.3125 54.6875 
L 54.296875 54.6875 
L 54.296875 0 
L 45.3125 0 
L 45.3125 8.40625 
Q 42.046875 3.421875 37.71875 1 
Q 33.40625 -1.421875 27.6875 -1.421875 
Q 18.265625 -1.421875 13.375 4.4375 
Q 8.5 10.296875 8.5 21.578125 
z
M 31.109375 56 
z
" id="DejaVuSans-117"/>
     <path d="M 54.890625 33.015625 
L 54.890625 0 
L 45.90625 0 
L 45.90625 32.71875 
Q 45.90625 40.484375 42.875 44.328125 
Q 39.84375 48.1875 33.796875 48.1875 
Q 26.515625 48.1875 22.3125 43.546875 
Q 18.109375 38.921875 18.109375 30.90625 
L 18.109375 0 
L 9.078125 0 
L 9.078125 54.6875 
L 18.109375 54.6875 
L 18.109375 46.1875 
Q 21.34375 51.125 25.703125 53.5625 
Q 30.078125 56 35.796875 56 
Q 45.21875 56 50.046875 50.171875 
Q 54.890625 44.34375 54.890625 33.015625 
z
" id="DejaVuSans-110"/>
     <path d="M 45.40625 46.390625 
L 45.40625 75.984375 
L 54.390625 75.984375 
L 54.390625 0 
L 45.40625 0 
L 45.40625 8.203125 
Q 42.578125 3.328125 38.25 0.953125 
Q 33.9375 -1.421875 27.875 -1.421875 
Q 17.96875 -1.421875 11.734375 6.484375 
Q 5.515625 14.40625 5.515625 27.296875 
Q 5.515625 40.1875 11.734375 48.09375 
Q 17.96875 56 27.875 56 
Q 33.9375 56 38.25 53.625 
Q 42.578125 51.265625 45.40625 46.390625 
z
M 14.796875 27.296875 
Q 14.796875 17.390625 18.875 11.75 
Q 22.953125 6.109375 30.078125 6.109375 
Q 37.203125 6.109375 41.296875 11.75 
Q 45.40625 17.390625 45.40625 27.296875 
Q 45.40625 37.203125 41.296875 42.84375 
Q 37.203125 48.484375 30.078125 48.484375 
Q 22.953125 48.484375 18.875 42.84375 
Q 14.796875 37.203125 14.796875 27.296875 
z
" id="DejaVuSans-100"/>
     <path d="M -0.296875 72.90625 
L 61.375 72.90625 
L 61.375 64.59375 
L 35.5 64.59375 
L 35.5 0 
L 25.59375 0 
L 25.59375 64.59375 
L -0.296875 64.59375 
z
" id="DejaVuSans-84"/>
     <path d="M 19.671875 64.796875 
L 19.671875 37.40625 
L 32.078125 37.40625 
Q 38.96875 37.40625 42.71875 40.96875 
Q 46.484375 44.53125 46.484375 51.125 
Q 46.484375 57.671875 42.71875 61.234375 
Q 38.96875 64.796875 32.078125 64.796875 
z
M 9.8125 72.90625 
L 32.078125 72.90625 
Q 44.34375 72.90625 50.609375 67.359375 
Q 56.890625 61.8125 56.890625 51.125 
Q 56.890625 40.328125 50.609375 34.8125 
Q 44.34375 29.296875 32.078125 29.296875 
L 19.671875 29.296875 
L 19.671875 0 
L 9.8125 0 
z
" id="DejaVuSans-80"/>
    </defs>
    <g transform="translate(264.825938 63.12)scale(0.12 -0.12)">
     <use xlink:href="#DejaVuSans-86"/>
     <use x="68.298828" xlink:href="#DejaVuSans-101"/>
     <use x="129.822266" xlink:href="#DejaVuSans-104"/>
     <use x="193.201172" xlink:href="#DejaVuSans-105"/>
     <use x="220.984375" xlink:href="#DejaVuSans-99"/>
     <use x="275.964844" xlink:href="#DejaVuSans-108"/>
     <use x="303.748047" xlink:href="#DejaVuSans-101"/>
     <use x="365.271484" xlink:href="#DejaVuSans-32"/>
     <use x="397.058594" xlink:href="#DejaVuSans-68"/>
     <use x="474.060547" xlink:href="#DejaVuSans-97"/>
     <use x="535.339844" xlink:href="#DejaVuSans-116"/>
     <use x="574.548828" xlink:href="#DejaVuSans-97"/>
     <use x="635.828125" xlink:href="#DejaVuSans-32"/>
     <use x="667.615234" xlink:href="#DejaVuSans-118"/>
     <use x="726.794922" xlink:href="#DejaVuSans-115"/>
     <use x="778.894531" xlink:href="#DejaVuSans-32"/>
     <use x="810.681641" xlink:href="#DejaVuSans-71"/>
     <use x="888.171875" xlink:href="#DejaVuSans-114"/>
     <use x="929.253906" xlink:href="#DejaVuSans-111"/>
     <use x="990.435547" xlink:href="#DejaVuSans-117"/>
     <use x="1053.814453" xlink:href="#DejaVuSans-110"/>
     <use x="1117.193359" xlink:href="#DejaVuSans-100"/>
     <use x="1180.669922" xlink:href="#DejaVuSans-32"/>
     <use x="1212.457031" xlink:href="#DejaVuSans-84"/>
     <use x="1273.322266" xlink:href="#DejaVuSans-114"/>
     <use x="1314.435547" xlink:href="#DejaVuSans-117"/>
     <use x="1377.814453" xlink:href="#DejaVuSans-116"/>
     <use x="1417.023438" xlink:href="#DejaVuSans-104"/>
     <use x="1480.402344" xlink:href="#DejaVuSans-32"/>
     <use x="1512.189453" xlink:href="#DejaVuSans-80"/>
     <use x="1572.429688" xlink:href="#DejaVuSans-97"/>
     <use x="1633.708984" xlink:href="#DejaVuSans-116"/>
     <use x="1672.917969" xlink:href="#DejaVuSans-104"/>
    </g>
   </g>
   <g id="legend_1">
    <g id="patch_7">
     <path d="M 97 106.47625 
L 195.96875 106.47625 
Q 197.96875 106.47625 197.96875 104.47625 
L 197.96875 76.12 
Q 197.96875 74.12 195.96875 74.12 
L 97 74.12 
Q 95 74.12 95 76.12 
L 95 104.47625 
Q 95 106.47625 97 106.47625 
z
" style="fill:#ffffff;opacity:0.8;stroke:#cccccc;stroke-linejoin:miter;"/>
    </g>
    <g id="line2d_18">
     <path d="M 99 82.218438 
L 119 82.218438 
" style="fill:none;stroke:#008000;stroke-linecap:square;stroke-width:1.5;"/>
    </g>
    <g id="line2d_19"/>
    <g id="text_20">
     <!-- Ground Truth -->
     <g transform="translate(127 85.718438)scale(0.1 -0.1)">
      <use xlink:href="#DejaVuSans-71"/>
      <use x="77.490234" xlink:href="#DejaVuSans-114"/>
      <use x="118.572266" xlink:href="#DejaVuSans-111"/>
      <use x="179.753906" xlink:href="#DejaVuSans-117"/>
      <use x="243.132812" xlink:href="#DejaVuSans-110"/>
      <use x="306.511719" xlink:href="#DejaVuSans-100"/>
      <use x="369.988281" xlink:href="#DejaVuSans-32"/>
      <use x="401.775391" xlink:href="#DejaVuSans-84"/>
      <use x="462.640625" xlink:href="#DejaVuSans-114"/>
      <use x="503.753906" xlink:href="#DejaVuSans-117"/>
      <use x="567.132812" xlink:href="#DejaVuSans-116"/>
      <use x="606.341797" xlink:href="#DejaVuSans-104"/>
     </g>
    </g>
    <g id="PathCollection_2">
     <g>
      <use style="fill:#0000ff;stroke:#0000ff;" x="109" xlink:href="#m91b1153b42" y="97.771563"/>
     </g>
    </g>
    <g id="text_21">
     <!-- Vehicle -->
     <g transform="translate(127 100.396563)scale(0.1 -0.1)">
      <use xlink:href="#DejaVuSans-86"/>
      <use x="68.298828" xlink:href="#DejaVuSans-101"/>
      <use x="129.822266" xlink:href="#DejaVuSans-104"/>
      <use x="193.201172" xlink:href="#DejaVuSans-105"/>
      <use x="220.984375" xlink:href="#DejaVuSans-99"/>
      <use x="275.964844" xlink:href="#DejaVuSans-108"/>
      <use x="303.748047" xlink:href="#DejaVuSans-101"/>
     </g>
    </g>
   </g>
  </g>
 </g>
 <defs>
  <clipPath id="p0fbffa7481">
   <rect height="443.52" width="558" x="90" y="69.12"/>
  </clipPath>
 </defs>
</svg>
