<?xml version="1.0" encoding="utf-8" standalone="no"?>
<!DOCTYPE svg PUBLIC "-//W3C//DTD SVG 1.1//EN"
  "http://www.w3.org/Graphics/SVG/1.1/DTD/svg11.dtd">
<!-- Created with matplotlib (https://matplotlib.org/) -->
<svg height="576pt" version="1.1" viewBox="0 0 720 576" width="720pt" xmlns="http://www.w3.org/2000/svg" xmlns:xlink="http://www.w3.org/1999/xlink">
 <defs>
  <style type="text/css">
*{stroke-linecap:butt;stroke-linejoin:round;}
  </style>
 </defs>
 <g id="figure_1">
  <g id="patch_1">
   <path d="M 0 576 
L 720 576 
L 720 0 
L 0 0 
z
" style="fill:#ffffff;"/>
  </g>
  <g id="axes_1">
   <g id="patch_2">
    <path d="M 90 512.64 
L 648 512.64 
L 648 69.12 
L 90 69.12 
z
" style="fill:#ffffff;"/>
   </g>
   <g id="PathCollection_1">
    <defs>
     <path d="M 0 0.707107 
C 0.187527 0.707107 0.367398 0.632602 0.5 0.5 
C 0.632602 0.367398 0.707107 0.187527 0.707107 0 
C 0.707107 -0.187527 0.632602 -0.367398 0.5 -0.5 
C 0.367398 -0.632602 0.187527 -0.707107 0 -0.707107 
C -0.187527 -0.707107 -0.367398 -0.632602 -0.5 -0.5 
C -0.632602 -0.367398 -0.707107 -0.187527 -0.707107 0 
C -0.707107 0.187527 -0.632602 0.367398 -0.5 0.5 
C -0.367398 0.632602 -0.187527 0.707107 0 0.707107 
z
" id="mcc48720ae3" style="stroke:#0000ff;"/>
    </defs>
    <g clip-path="url(#pf41b9b3df9)">
     <use style="fill:#0000ff;stroke:#0000ff;" x="510.76007" xlink:href="#mcc48720ae3" y="69.148673"/>
     <use style="fill:#0000ff;stroke:#0000ff;" x="508.969281" xlink:href="#mcc48720ae3" y="69.98725"/>
     <use style="fill:#0000ff;stroke:#0000ff;" x="503.612339" xlink:href="#mcc48720ae3" y="72.501155"/>
     <use style="fill:#0000ff;stroke:#0000ff;" x="498.279766" xlink:href="#mcc48720ae3" y="75.01408"/>
     <use style="fill:#0000ff;stroke:#0000ff;" x="492.963711" xlink:href="#mcc48720ae3" y="77.525776"/>
     <use style="fill:#0000ff;stroke:#0000ff;" x="489.429066" xlink:href="#mcc48720ae3" y="79.197842"/>
     <use style="fill:#0000ff;stroke:#0000ff;" x="484.142787" xlink:href="#mcc48720ae3" y="81.702909"/>
     <use style="fill:#0000ff;stroke:#0000ff;" x="480.62817" xlink:href="#mcc48720ae3" y="83.373543"/>
     <use style="fill:#0000ff;stroke:#0000ff;" x="475.379431" xlink:href="#mcc48720ae3" y="85.877081"/>
     <use style="fill:#0000ff;stroke:#0000ff;" x="471.886429" xlink:href="#mcc48720ae3" y="87.54436"/>
     <use style="fill:#0000ff;stroke:#0000ff;" x="466.660072" xlink:href="#mcc48720ae3" y="90.043972"/>
     <use style="fill:#0000ff;stroke:#0000ff;" x="464.924355" xlink:href="#mcc48720ae3" y="90.876498"/>
     <use style="fill:#0000ff;stroke:#0000ff;" x="458.000956" xlink:href="#mcc48720ae3" y="94.20735"/>
     <use style="fill:#0000ff;stroke:#0000ff;" x="454.550121" xlink:href="#mcc48720ae3" y="95.871173"/>
     <use style="fill:#0000ff;stroke:#0000ff;" x="449.381113" xlink:href="#mcc48720ae3" y="98.364948"/>
     <use style="fill:#0000ff;stroke:#0000ff;" x="445.942259" xlink:href="#mcc48720ae3" y="100.024689"/>
     <use style="fill:#0000ff;stroke:#0000ff;" x="440.788758" xlink:href="#mcc48720ae3" y="102.515712"/>
     <use style="fill:#0000ff;stroke:#0000ff;" x="437.362105" xlink:href="#mcc48720ae3" y="104.176951"/>
     <use style="fill:#0000ff;stroke:#0000ff;" x="432.236867" xlink:href="#mcc48720ae3" y="106.667099"/>
     <use style="fill:#0000ff;stroke:#0000ff;" x="428.830492" xlink:href="#mcc48720ae3" y="108.325308"/>
     <use style="fill:#0000ff;stroke:#0000ff;" x="423.726063" xlink:href="#mcc48720ae3" y="110.813266"/>
     <use style="fill:#0000ff;stroke:#0000ff;" x="422.026467" xlink:href="#mcc48720ae3" y="111.642645"/>
     <use style="fill:#0000ff;stroke:#0000ff;" x="416.934041" xlink:href="#mcc48720ae3" y="114.127918"/>
     <use style="fill:#0000ff;stroke:#0000ff;" x="411.857328" xlink:href="#mcc48720ae3" y="116.614715"/>
     <use style="fill:#0000ff;stroke:#0000ff;" x="406.802101" xlink:href="#mcc48720ae3" y="119.102742"/>
     <use style="fill:#0000ff;stroke:#0000ff;" x="403.440703" xlink:href="#mcc48720ae3" y="120.763093"/>
     <use style="fill:#0000ff;stroke:#0000ff;" x="398.404972" xlink:href="#mcc48720ae3" y="123.252218"/>
     <use style="fill:#0000ff;stroke:#0000ff;" x="395.050247" xlink:href="#mcc48720ae3" y="124.911335"/>
     <use style="fill:#0000ff;stroke:#0000ff;" x="390.031614" xlink:href="#mcc48720ae3" y="127.398238"/>
     <use style="fill:#0000ff;stroke:#0000ff;" x="386.692489" xlink:href="#mcc48720ae3" y="129.057302"/>
     <use style="fill:#0000ff;stroke:#0000ff;" x="381.694385" xlink:href="#mcc48720ae3" y="131.548111"/>
     <use style="fill:#0000ff;stroke:#0000ff;" x="378.36924" xlink:href="#mcc48720ae3" y="133.20925"/>
     <use style="fill:#0000ff;stroke:#0000ff;" x="373.388608" xlink:href="#mcc48720ae3" y="135.701064"/>
     <use style="fill:#0000ff;stroke:#0000ff;" x="370.068873" xlink:href="#mcc48720ae3" y="137.363017"/>
     <use style="fill:#0000ff;stroke:#0000ff;" x="365.087737" xlink:href="#mcc48720ae3" y="139.856409"/>
     <use style="fill:#0000ff;stroke:#0000ff;" x="361.765321" xlink:href="#mcc48720ae3" y="141.517646"/>
     <use style="fill:#0000ff;stroke:#0000ff;" x="356.792957" xlink:href="#mcc48720ae3" y="144.011661"/>
     <use style="fill:#0000ff;stroke:#0000ff;" x="353.491792" xlink:href="#mcc48720ae3" y="145.679254"/>
     <use style="fill:#0000ff;stroke:#0000ff;" x="348.561132" xlink:href="#mcc48720ae3" y="148.187549"/>
     <use style="fill:#0000ff;stroke:#0000ff;" x="345.284462" xlink:href="#mcc48720ae3" y="149.862424"/>
     <use style="fill:#0000ff;stroke:#0000ff;" x="340.37471" xlink:href="#mcc48720ae3" y="152.375214"/>
     <use style="fill:#0000ff;stroke:#0000ff;" x="338.738861" xlink:href="#mcc48720ae3" y="153.212591"/>
     <use style="fill:#0000ff;stroke:#0000ff;" x="333.822195" xlink:href="#mcc48720ae3" y="155.726868"/>
     <use style="fill:#0000ff;stroke:#0000ff;" x="328.918856" xlink:href="#mcc48720ae3" y="158.242666"/>
     <use style="fill:#0000ff;stroke:#0000ff;" x="324.029831" xlink:href="#mcc48720ae3" y="160.763818"/>
     <use style="fill:#0000ff;stroke:#0000ff;" x="320.778874" xlink:href="#mcc48720ae3" y="162.446075"/>
     <use style="fill:#0000ff;stroke:#0000ff;" x="315.908397" xlink:href="#mcc48720ae3" y="164.972609"/>
     <use style="fill:#0000ff;stroke:#0000ff;" x="312.666994" xlink:href="#mcc48720ae3" y="166.656104"/>
     <use style="fill:#0000ff;stroke:#0000ff;" x="307.809626" xlink:href="#mcc48720ae3" y="169.17976"/>
     <use style="fill:#0000ff;stroke:#0000ff;" x="304.574119" xlink:href="#mcc48720ae3" y="170.861932"/>
     <use style="fill:#0000ff;stroke:#0000ff;" x="299.744337" xlink:href="#mcc48720ae3" y="173.390794"/>
     <use style="fill:#0000ff;stroke:#0000ff;" x="296.556415" xlink:href="#mcc48720ae3" y="175.082439"/>
     <use style="fill:#0000ff;stroke:#0000ff;" x="291.834559" xlink:href="#mcc48720ae3" y="177.638673"/>
     <use style="fill:#0000ff;stroke:#0000ff;" x="288.739432" xlink:href="#mcc48720ae3" y="179.355861"/>
     <use style="fill:#0000ff;stroke:#0000ff;" x="284.174929" xlink:href="#mcc48720ae3" y="181.950315"/>
     <use style="fill:#0000ff;stroke:#0000ff;" x="281.180394" xlink:href="#mcc48720ae3" y="183.689309"/>
     <use style="fill:#0000ff;stroke:#0000ff;" x="276.745568" xlink:href="#mcc48720ae3" y="186.306938"/>
     <use style="fill:#0000ff;stroke:#0000ff;" x="273.82196" xlink:href="#mcc48720ae3" y="188.058712"/>
     <use style="fill:#0000ff;stroke:#0000ff;" x="269.483692" xlink:href="#mcc48720ae3" y="190.695049"/>
     <use style="fill:#0000ff;stroke:#0000ff;" x="266.619156" xlink:href="#mcc48720ae3" y="192.459291"/>
     <use style="fill:#0000ff;stroke:#0000ff;" x="262.362722" xlink:href="#mcc48720ae3" y="195.115099"/>
     <use style="fill:#0000ff;stroke:#0000ff;" x="260.953739" xlink:href="#mcc48720ae3" y="196.002952"/>
     <use style="fill:#0000ff;stroke:#0000ff;" x="256.754362" xlink:href="#mcc48720ae3" y="198.669811"/>
     <use style="fill:#0000ff;stroke:#0000ff;" x="252.593343" xlink:href="#mcc48720ae3" y="201.344373"/>
     <use style="fill:#0000ff;stroke:#0000ff;" x="248.508966" xlink:href="#mcc48720ae3" y="204.032838"/>
     <use style="fill:#0000ff;stroke:#0000ff;" x="245.837382" xlink:href="#mcc48720ae3" y="205.834801"/>
     <use style="fill:#0000ff;stroke:#0000ff;" x="241.89433" xlink:href="#mcc48720ae3" y="208.546917"/>
     <use style="fill:#0000ff;stroke:#0000ff;" x="239.282461" xlink:href="#mcc48720ae3" y="210.358807"/>
     <use style="fill:#0000ff;stroke:#0000ff;" x="235.375024" xlink:href="#mcc48720ae3" y="213.076605"/>
     <use style="fill:#0000ff;stroke:#0000ff;" x="232.775054" xlink:href="#mcc48720ae3" y="214.888536"/>
     <use style="fill:#0000ff;stroke:#0000ff;" x="228.900265" xlink:href="#mcc48720ae3" y="217.612349"/>
     <use style="fill:#0000ff;stroke:#0000ff;" x="226.352069" xlink:href="#mcc48720ae3" y="219.434954"/>
     <use style="fill:#0000ff;stroke:#0000ff;" x="222.579294" xlink:href="#mcc48720ae3" y="222.177685"/>
     <use style="fill:#0000ff;stroke:#0000ff;" x="220.094127" xlink:href="#mcc48720ae3" y="224.012248"/>
     <use style="fill:#0000ff;stroke:#0000ff;" x="216.388756" xlink:href="#mcc48720ae3" y="226.767557"/>
     <use style="fill:#0000ff;stroke:#0000ff;" x="213.921081" xlink:href="#mcc48720ae3" y="228.603741"/>
     <use style="fill:#0000ff;stroke:#0000ff;" x="210.228801" xlink:href="#mcc48720ae3" y="231.361014"/>
     <use style="fill:#0000ff;stroke:#0000ff;" x="207.787671" xlink:href="#mcc48720ae3" y="233.204207"/>
     <use style="fill:#0000ff;stroke:#0000ff;" x="204.184199" xlink:href="#mcc48720ae3" y="235.978622"/>
     <use style="fill:#0000ff;stroke:#0000ff;" x="201.812593" xlink:href="#mcc48720ae3" y="237.833833"/>
     <use style="fill:#0000ff;stroke:#0000ff;" x="198.278159" xlink:href="#mcc48720ae3" y="240.621279"/>
     <use style="fill:#0000ff;stroke:#0000ff;" x="197.104492" xlink:href="#mcc48720ae3" y="241.550504"/>
     <use style="fill:#0000ff;stroke:#0000ff;" x="193.59909" xlink:href="#mcc48720ae3" y="244.343086"/>
     <use style="fill:#0000ff;stroke:#0000ff;" x="190.171485" xlink:href="#mcc48720ae3" y="247.149318"/>
     <use style="fill:#0000ff;stroke:#0000ff;" x="186.849613" xlink:href="#mcc48720ae3" y="249.974938"/>
     <use style="fill:#0000ff;stroke:#0000ff;" x="184.700414" xlink:href="#mcc48720ae3" y="251.869191"/>
     <use style="fill:#0000ff;stroke:#0000ff;" x="181.563868" xlink:href="#mcc48720ae3" y="254.725376"/>
     <use style="fill:#0000ff;stroke:#0000ff;" x="179.522275" xlink:href="#mcc48720ae3" y="256.637355"/>
     <use style="fill:#0000ff;stroke:#0000ff;" x="176.514991" xlink:href="#mcc48720ae3" y="259.513619"/>
     <use style="fill:#0000ff;stroke:#0000ff;" x="174.537745" xlink:href="#mcc48720ae3" y="261.436413"/>
     <use style="fill:#0000ff;stroke:#0000ff;" x="171.621954" xlink:href="#mcc48720ae3" y="264.328728"/>
     <use style="fill:#0000ff;stroke:#0000ff;" x="169.718436" xlink:href="#mcc48720ae3" y="266.262457"/>
     <use style="fill:#0000ff;stroke:#0000ff;" x="166.925251" xlink:href="#mcc48720ae3" y="269.17038"/>
     <use style="fill:#0000ff;stroke:#0000ff;" x="165.089731" xlink:href="#mcc48720ae3" y="271.112014"/>
     <use style="fill:#0000ff;stroke:#0000ff;" x="162.352585" xlink:href="#mcc48720ae3" y="274.02646"/>
     <use style="fill:#0000ff;stroke:#0000ff;" x="160.542891" xlink:href="#mcc48720ae3" y="275.972165"/>
     <use style="fill:#0000ff;stroke:#0000ff;" x="157.902029" xlink:href="#mcc48720ae3" y="278.899761"/>
     <use style="fill:#0000ff;stroke:#0000ff;" x="156.200475" xlink:href="#mcc48720ae3" y="280.858643"/>
     <use style="fill:#0000ff;stroke:#0000ff;" x="153.723601" xlink:href="#mcc48720ae3" y="283.806788"/>
     <use style="fill:#0000ff;stroke:#0000ff;" x="152.104452" xlink:href="#mcc48720ae3" y="285.776835"/>
     <use style="fill:#0000ff;stroke:#0000ff;" x="149.706654" xlink:href="#mcc48720ae3" y="288.735888"/>
     <use style="fill:#0000ff;stroke:#0000ff;" x="148.917201" xlink:href="#mcc48720ae3" y="289.723193"/>
     <use style="fill:#0000ff;stroke:#0000ff;" x="147.351426" xlink:href="#mcc48720ae3" y="291.699702"/>
     <use style="fill:#0000ff;stroke:#0000ff;" x="144.316755" xlink:href="#mcc48720ae3" y="295.661565"/>
     <use style="fill:#0000ff;stroke:#0000ff;" x="142.129502" xlink:href="#mcc48720ae3" y="298.641896"/>
     <use style="fill:#0000ff;stroke:#0000ff;" x="140.719669" xlink:href="#mcc48720ae3" y="300.632799"/>
     <use style="fill:#0000ff;stroke:#0000ff;" x="138.68682" xlink:href="#mcc48720ae3" y="303.624806"/>
     <use style="fill:#0000ff;stroke:#0000ff;" x="137.392272" xlink:href="#mcc48720ae3" y="305.625043"/>
     <use style="fill:#0000ff;stroke:#0000ff;" x="135.535562" xlink:href="#mcc48720ae3" y="308.634242"/>
     <use style="fill:#0000ff;stroke:#0000ff;" x="134.365296" xlink:href="#mcc48720ae3" y="310.648318"/>
     <use style="fill:#0000ff;stroke:#0000ff;" x="132.711446" xlink:href="#mcc48720ae3" y="313.681919"/>
     <use style="fill:#0000ff;stroke:#0000ff;" x="131.663969" xlink:href="#mcc48720ae3" y="315.712513"/>
     <use style="fill:#0000ff;stroke:#0000ff;" x="130.158045" xlink:href="#mcc48720ae3" y="318.766593"/>
     <use style="fill:#0000ff;stroke:#0000ff;" x="129.199413" xlink:href="#mcc48720ae3" y="320.807752"/>
     <use style="fill:#0000ff;stroke:#0000ff;" x="127.838377" xlink:href="#mcc48720ae3" y="323.879302"/>
     <use style="fill:#0000ff;stroke:#0000ff;" x="126.977112" xlink:href="#mcc48720ae3" y="325.931938"/>
     <use style="fill:#0000ff;stroke:#0000ff;" x="125.758747" xlink:href="#mcc48720ae3" y="329.016967"/>
     <use style="fill:#0000ff;stroke:#0000ff;" x="124.986847" xlink:href="#mcc48720ae3" y="331.076378"/>
     <use style="fill:#0000ff;stroke:#0000ff;" x="123.900256" xlink:href="#mcc48720ae3" y="334.172072"/>
     <use style="fill:#0000ff;stroke:#0000ff;" x="123.228916" xlink:href="#mcc48720ae3" y="336.240604"/>
     <use style="fill:#0000ff;stroke:#0000ff;" x="122.302646" xlink:href="#mcc48720ae3" y="339.349316"/>
     <use style="fill:#0000ff;stroke:#0000ff;" x="122.010909" xlink:href="#mcc48720ae3" y="340.386781"/>
     <use style="fill:#0000ff;stroke:#0000ff;" x="121.186714" xlink:href="#mcc48720ae3" y="343.500981"/>
     <use style="fill:#0000ff;stroke:#0000ff;" x="120.464646" xlink:href="#mcc48720ae3" y="346.619755"/>
     <use style="fill:#0000ff;stroke:#0000ff;" x="119.889844" xlink:href="#mcc48720ae3" y="349.743037"/>
     <use style="fill:#0000ff;stroke:#0000ff;" x="119.612314" xlink:href="#mcc48720ae3" y="351.827115"/>
     <use style="fill:#0000ff;stroke:#0000ff;" x="119.360578" xlink:href="#mcc48720ae3" y="354.957012"/>
     <use style="fill:#0000ff;stroke:#0000ff;" x="119.28937" xlink:href="#mcc48720ae3" y="357.045184"/>
     <use style="fill:#0000ff;stroke:#0000ff;" x="119.329711" xlink:href="#mcc48720ae3" y="360.178113"/>
     <use style="fill:#0000ff;stroke:#0000ff;" x="119.447156" xlink:href="#mcc48720ae3" y="362.268408"/>
     <use style="fill:#0000ff;stroke:#0000ff;" x="119.755805" xlink:href="#mcc48720ae3" y="365.405566"/>
     <use style="fill:#0000ff;stroke:#0000ff;" x="120.041182" xlink:href="#mcc48720ae3" y="367.496849"/>
     <use style="fill:#0000ff;stroke:#0000ff;" x="120.579717" xlink:href="#mcc48720ae3" y="370.634188"/>
     <use style="fill:#0000ff;stroke:#0000ff;" x="121.007755" xlink:href="#mcc48720ae3" y="372.724649"/>
     <use style="fill:#0000ff;stroke:#0000ff;" x="121.738996" xlink:href="#mcc48720ae3" y="375.859161"/>
     <use style="fill:#0000ff;stroke:#0000ff;" x="122.293974" xlink:href="#mcc48720ae3" y="377.948998"/>
     <use style="fill:#0000ff;stroke:#0000ff;" x="123.257479" xlink:href="#mcc48720ae3" y="381.081586"/>
     <use style="fill:#0000ff;stroke:#0000ff;" x="123.986176" xlink:href="#mcc48720ae3" y="383.167396"/>
     <use style="fill:#0000ff;stroke:#0000ff;" x="125.209384" xlink:href="#mcc48720ae3" y="386.292038"/>
     <use style="fill:#0000ff;stroke:#0000ff;" x="126.105955" xlink:href="#mcc48720ae3" y="388.369458"/>
     <use style="fill:#0000ff;stroke:#0000ff;" x="127.549031" xlink:href="#mcc48720ae3" y="391.481064"/>
     <use style="fill:#0000ff;stroke:#0000ff;" x="128.050992" xlink:href="#mcc48720ae3" y="392.516057"/>
     <use style="fill:#0000ff;stroke:#0000ff;" x="129.600252" xlink:href="#mcc48720ae3" y="395.61593"/>
     <use style="fill:#0000ff;stroke:#0000ff;" x="131.236472" xlink:href="#mcc48720ae3" y="398.708096"/>
     <use style="fill:#0000ff;stroke:#0000ff;" x="132.983019" xlink:href="#mcc48720ae3" y="401.789226"/>
     <use style="fill:#0000ff;stroke:#0000ff;" x="134.225223" xlink:href="#mcc48720ae3" y="403.835495"/>
     <use style="fill:#0000ff;stroke:#0000ff;" x="136.2145" xlink:href="#mcc48720ae3" y="406.89201"/>
     <use style="fill:#0000ff;stroke:#0000ff;" x="137.623585" xlink:href="#mcc48720ae3" y="408.920738"/>
     <use style="fill:#0000ff;stroke:#0000ff;" x="139.870231" xlink:href="#mcc48720ae3" y="411.950871"/>
     <use style="fill:#0000ff;stroke:#0000ff;" x="141.441714" xlink:href="#mcc48720ae3" y="413.962543"/>
     <use style="fill:#0000ff;stroke:#0000ff;" x="143.887657" xlink:href="#mcc48720ae3" y="416.969365"/>
     <use style="fill:#0000ff;stroke:#0000ff;" x="145.560596" xlink:href="#mcc48720ae3" y="418.967549"/>
     <use style="fill:#0000ff;stroke:#0000ff;" x="148.130719" xlink:href="#mcc48720ae3" y="421.956254"/>
     <use style="fill:#0000ff;stroke:#0000ff;" x="149.90442" xlink:href="#mcc48720ae3" y="423.940609"/>
     <use style="fill:#0000ff;stroke:#0000ff;" x="152.695402" xlink:href="#mcc48720ae3" y="426.898647"/>
     <use style="fill:#0000ff;stroke:#0000ff;" x="154.644357" xlink:href="#mcc48720ae3" y="428.855946"/>
     <use style="fill:#0000ff;stroke:#0000ff;" x="157.673558" xlink:href="#mcc48720ae3" y="431.77467"/>
     <use style="fill:#0000ff;stroke:#0000ff;" x="159.729781" xlink:href="#mcc48720ae3" y="433.712781"/>
     <use style="fill:#0000ff;stroke:#0000ff;" x="162.849529" xlink:href="#mcc48720ae3" y="436.612117"/>
     <use style="fill:#0000ff;stroke:#0000ff;" x="164.97068" xlink:href="#mcc48720ae3" y="438.537737"/>
     <use style="fill:#0000ff;stroke:#0000ff;" x="168.259959" xlink:href="#mcc48720ae3" y="441.406381"/>
     <use style="fill:#0000ff;stroke:#0000ff;" x="169.389779" xlink:href="#mcc48720ae3" y="442.35589"/>
     <use style="fill:#0000ff;stroke:#0000ff;" x="172.848013" xlink:href="#mcc48720ae3" y="445.189003"/>
     <use style="fill:#0000ff;stroke:#0000ff;" x="176.408398" xlink:href="#mcc48720ae3" y="447.997912"/>
     <use style="fill:#0000ff;stroke:#0000ff;" x="180.055186" xlink:href="#mcc48720ae3" y="450.785105"/>
     <use style="fill:#0000ff;stroke:#0000ff;" x="182.547365" xlink:href="#mcc48720ae3" y="452.628582"/>
     <use style="fill:#0000ff;stroke:#0000ff;" x="186.391625" xlink:href="#mcc48720ae3" y="455.367924"/>
     <use style="fill:#0000ff;stroke:#0000ff;" x="189.014278" xlink:href="#mcc48720ae3" y="457.17754"/>
     <use style="fill:#0000ff;stroke:#0000ff;" x="193.034252" xlink:href="#mcc48720ae3" y="459.867431"/>
     <use style="fill:#0000ff;stroke:#0000ff;" x="195.759161" xlink:href="#mcc48720ae3" y="461.646285"/>
     <use style="fill:#0000ff;stroke:#0000ff;" x="199.933537" xlink:href="#mcc48720ae3" y="464.290555"/>
     <use style="fill:#0000ff;stroke:#0000ff;" x="202.7813" xlink:href="#mcc48720ae3" y="466.034487"/>
     <use style="fill:#0000ff;stroke:#0000ff;" x="207.156117" xlink:href="#mcc48720ae3" y="468.619605"/>
     <use style="fill:#0000ff;stroke:#0000ff;" x="210.138027" xlink:href="#mcc48720ae3" y="470.323029"/>
     <use style="fill:#0000ff;stroke:#0000ff;" x="214.685719" xlink:href="#mcc48720ae3" y="472.851619"/>
     <use style="fill:#0000ff;stroke:#0000ff;" x="217.771829" xlink:href="#mcc48720ae3" y="474.519346"/>
     <use style="fill:#0000ff;stroke:#0000ff;" x="222.477892" xlink:href="#mcc48720ae3" y="476.994347"/>
     <use style="fill:#0000ff;stroke:#0000ff;" x="225.68168" xlink:href="#mcc48720ae3" y="478.623289"/>
     <use style="fill:#0000ff;stroke:#0000ff;" x="230.588189" xlink:href="#mcc48720ae3" y="481.033481"/>
     <use style="fill:#0000ff;stroke:#0000ff;" x="233.928074" xlink:href="#mcc48720ae3" y="482.619579"/>
     <use style="fill:#0000ff;stroke:#0000ff;" x="239.035854" xlink:href="#mcc48720ae3" y="484.973501"/>
     <use style="fill:#0000ff;stroke:#0000ff;" x="240.759777" xlink:href="#mcc48720ae3" y="485.752128"/>
     <use style="fill:#0000ff;stroke:#0000ff;" x="246.020357" xlink:href="#mcc48720ae3" y="488.067184"/>
     <use style="fill:#0000ff;stroke:#0000ff;" x="251.411804" xlink:href="#mcc48720ae3" y="490.3504"/>
     <use style="fill:#0000ff;stroke:#0000ff;" x="256.944762" xlink:href="#mcc48720ae3" y="492.601673"/>
     <use style="fill:#0000ff;stroke:#0000ff;" x="260.707705" xlink:href="#mcc48720ae3" y="494.084986"/>
     <use style="fill:#0000ff;stroke:#0000ff;" x="266.441564" xlink:href="#mcc48720ae3" y="496.285917"/>
     <use style="fill:#0000ff;stroke:#0000ff;" x="270.301841" xlink:href="#mcc48720ae3" y="497.747769"/>
     <use style="fill:#0000ff;stroke:#0000ff;" x="276.112932" xlink:href="#mcc48720ae3" y="499.948156"/>
     <use style="fill:#0000ff;stroke:#0000ff;" x="279.979049" xlink:href="#mcc48720ae3" y="501.429782"/>
     <use style="fill:#0000ff;stroke:#0000ff;" x="285.743391" xlink:href="#mcc48720ae3" y="503.681785"/>
     <use style="fill:#0000ff;stroke:#0000ff;" x="289.573506" xlink:href="#mcc48720ae3" y="505.201076"/>
     <use style="fill:#0000ff;stroke:#0000ff;" x="295.299762" xlink:href="#mcc48720ae3" y="507.503434"/>
     <use style="fill:#0000ff;stroke:#0000ff;" x="299.117514" xlink:href="#mcc48720ae3" y="509.050251"/>
     <use style="fill:#0000ff;stroke:#0000ff;" x="304.842006" xlink:href="#mcc48720ae3" y="511.384589"/>
    </g>
   </g>
   <g id="matplotlib.axis_1">
    <g id="xtick_1">
     <g id="line2d_1">
      <defs>
       <path d="M 0 0 
L 0 3.5 
" id="mea1b072ccd" style="stroke:#000000;stroke-width:0.8;"/>
      </defs>
      <g>
       <use style="stroke:#000000;stroke-width:0.8;" x="90" xlink:href="#mea1b072ccd" y="512.64"/>
      </g>
     </g>
     <g id="text_1">
      <!-- −905 -->
      <defs>
       <path d="M 10.59375 35.5 
L 73.1875 35.5 
L 73.1875 27.203125 
L 10.59375 27.203125 
z
" id="DejaVuSans-8722"/>
       <path d="M 10.984375 1.515625 
L 10.984375 10.5 
Q 14.703125 8.734375 18.5 7.8125 
Q 22.3125 6.890625 25.984375 6.890625 
Q 35.75 6.890625 40.890625 13.453125 
Q 46.046875 20.015625 46.78125 33.40625 
Q 43.953125 29.203125 39.59375 26.953125 
Q 35.25 24.703125 29.984375 24.703125 
Q 19.046875 24.703125 12.671875 31.3125 
Q 6.296875 37.9375 6.296875 49.421875 
Q 6.296875 60.640625 12.9375 67.421875 
Q 19.578125 74.21875 30.609375 74.21875 
Q 43.265625 74.21875 49.921875 64.515625 
Q 56.59375 54.828125 56.59375 36.375 
Q 56.59375 19.140625 48.40625 8.859375 
Q 40.234375 -1.421875 26.421875 -1.421875 
Q 22.703125 -1.421875 18.890625 -0.6875 
Q 15.09375 0.046875 10.984375 1.515625 
z
M 30.609375 32.421875 
Q 37.25 32.421875 41.125 36.953125 
Q 45.015625 41.5 45.015625 49.421875 
Q 45.015625 57.28125 41.125 61.84375 
Q 37.25 66.40625 30.609375 66.40625 
Q 23.96875 66.40625 20.09375 61.84375 
Q 16.21875 57.28125 16.21875 49.421875 
Q 16.21875 41.5 20.09375 36.953125 
Q 23.96875 32.421875 30.609375 32.421875 
z
" id="DejaVuSans-57"/>
       <path d="M 31.78125 66.40625 
Q 24.171875 66.40625 20.328125 58.90625 
Q 16.5 51.421875 16.5 36.375 
Q 16.5 21.390625 20.328125 13.890625 
Q 24.171875 6.390625 31.78125 6.390625 
Q 39.453125 6.390625 43.28125 13.890625 
Q 47.125 21.390625 47.125 36.375 
Q 47.125 51.421875 43.28125 58.90625 
Q 39.453125 66.40625 31.78125 66.40625 
z
M 31.78125 74.21875 
Q 44.046875 74.21875 50.515625 64.515625 
Q 56.984375 54.828125 56.984375 36.375 
Q 56.984375 17.96875 50.515625 8.265625 
Q 44.046875 -1.421875 31.78125 -1.421875 
Q 19.53125 -1.421875 13.0625 8.265625 
Q 6.59375 17.96875 6.59375 36.375 
Q 6.59375 54.828125 13.0625 64.515625 
Q 19.53125 74.21875 31.78125 74.21875 
z
" id="DejaVuSans-48"/>
       <path d="M 10.796875 72.90625 
L 49.515625 72.90625 
L 49.515625 64.59375 
L 19.828125 64.59375 
L 19.828125 46.734375 
Q 21.96875 47.46875 24.109375 47.828125 
Q 26.265625 48.1875 28.421875 48.1875 
Q 40.625 48.1875 47.75 41.5 
Q 54.890625 34.8125 54.890625 23.390625 
Q 54.890625 11.625 47.5625 5.09375 
Q 40.234375 -1.421875 26.90625 -1.421875 
Q 22.3125 -1.421875 17.546875 -0.640625 
Q 12.796875 0.140625 7.71875 1.703125 
L 7.71875 11.625 
Q 12.109375 9.234375 16.796875 8.0625 
Q 21.484375 6.890625 26.703125 6.890625 
Q 35.15625 6.890625 40.078125 11.328125 
Q 45.015625 15.765625 45.015625 23.390625 
Q 45.015625 31 40.078125 35.4375 
Q 35.15625 39.890625 26.703125 39.890625 
Q 22.75 39.890625 18.8125 39.015625 
Q 14.890625 38.140625 10.796875 36.28125 
z
" id="DejaVuSans-53"/>
      </defs>
      <g transform="translate(76.266406 527.238438)scale(0.1 -0.1)">
       <use xlink:href="#DejaVuSans-8722"/>
       <use x="83.789062" xlink:href="#DejaVuSans-57"/>
       <use x="147.412109" xlink:href="#DejaVuSans-48"/>
       <use x="211.035156" xlink:href="#DejaVuSans-53"/>
      </g>
     </g>
    </g>
    <g id="xtick_2">
     <g id="line2d_2">
      <g>
       <use style="stroke:#000000;stroke-width:0.8;" x="183" xlink:href="#mea1b072ccd" y="512.64"/>
      </g>
     </g>
     <g id="text_2">
      <!-- −900 -->
      <g transform="translate(169.266406 527.238438)scale(0.1 -0.1)">
       <use xlink:href="#DejaVuSans-8722"/>
       <use x="83.789062" xlink:href="#DejaVuSans-57"/>
       <use x="147.412109" xlink:href="#DejaVuSans-48"/>
       <use x="211.035156" xlink:href="#DejaVuSans-48"/>
      </g>
     </g>
    </g>
    <g id="xtick_3">
     <g id="line2d_3">
      <g>
       <use style="stroke:#000000;stroke-width:0.8;" x="276" xlink:href="#mea1b072ccd" y="512.64"/>
      </g>
     </g>
     <g id="text_3">
      <!-- −895 -->
      <defs>
       <path d="M 31.78125 34.625 
Q 24.75 34.625 20.71875 30.859375 
Q 16.703125 27.09375 16.703125 20.515625 
Q 16.703125 13.921875 20.71875 10.15625 
Q 24.75 6.390625 31.78125 6.390625 
Q 38.8125 6.390625 42.859375 10.171875 
Q 46.921875 13.96875 46.921875 20.515625 
Q 46.921875 27.09375 42.890625 30.859375 
Q 38.875 34.625 31.78125 34.625 
z
M 21.921875 38.8125 
Q 15.578125 40.375 12.03125 44.71875 
Q 8.5 49.078125 8.5 55.328125 
Q 8.5 64.0625 14.71875 69.140625 
Q 20.953125 74.21875 31.78125 74.21875 
Q 42.671875 74.21875 48.875 69.140625 
Q 55.078125 64.0625 55.078125 55.328125 
Q 55.078125 49.078125 51.53125 44.71875 
Q 48 40.375 41.703125 38.8125 
Q 48.828125 37.15625 52.796875 32.3125 
Q 56.78125 27.484375 56.78125 20.515625 
Q 56.78125 9.90625 50.3125 4.234375 
Q 43.84375 -1.421875 31.78125 -1.421875 
Q 19.734375 -1.421875 13.25 4.234375 
Q 6.78125 9.90625 6.78125 20.515625 
Q 6.78125 27.484375 10.78125 32.3125 
Q 14.796875 37.15625 21.921875 38.8125 
z
M 18.3125 54.390625 
Q 18.3125 48.734375 21.84375 45.5625 
Q 25.390625 42.390625 31.78125 42.390625 
Q 38.140625 42.390625 41.71875 45.5625 
Q 45.3125 48.734375 45.3125 54.390625 
Q 45.3125 60.0625 41.71875 63.234375 
Q 38.140625 66.40625 31.78125 66.40625 
Q 25.390625 66.40625 21.84375 63.234375 
Q 18.3125 60.0625 18.3125 54.390625 
z
" id="DejaVuSans-56"/>
      </defs>
      <g transform="translate(262.266406 527.238438)scale(0.1 -0.1)">
       <use xlink:href="#DejaVuSans-8722"/>
       <use x="83.789062" xlink:href="#DejaVuSans-56"/>
       <use x="147.412109" xlink:href="#DejaVuSans-57"/>
       <use x="211.035156" xlink:href="#DejaVuSans-53"/>
      </g>
     </g>
    </g>
    <g id="xtick_4">
     <g id="line2d_4">
      <g>
       <use style="stroke:#000000;stroke-width:0.8;" x="369" xlink:href="#mea1b072ccd" y="512.64"/>
      </g>
     </g>
     <g id="text_4">
      <!-- −890 -->
      <g transform="translate(355.266406 527.238438)scale(0.1 -0.1)">
       <use xlink:href="#DejaVuSans-8722"/>
       <use x="83.789062" xlink:href="#DejaVuSans-56"/>
       <use x="147.412109" xlink:href="#DejaVuSans-57"/>
       <use x="211.035156" xlink:href="#DejaVuSans-48"/>
      </g>
     </g>
    </g>
    <g id="xtick_5">
     <g id="line2d_5">
      <g>
       <use style="stroke:#000000;stroke-width:0.8;" x="462" xlink:href="#mea1b072ccd" y="512.64"/>
      </g>
     </g>
     <g id="text_5">
      <!-- −885 -->
      <g transform="translate(448.266406 527.238438)scale(0.1 -0.1)">
       <use xlink:href="#DejaVuSans-8722"/>
       <use x="83.789062" xlink:href="#DejaVuSans-56"/>
       <use x="147.412109" xlink:href="#DejaVuSans-56"/>
       <use x="211.035156" xlink:href="#DejaVuSans-53"/>
      </g>
     </g>
    </g>
    <g id="xtick_6">
     <g id="line2d_6">
      <g>
       <use style="stroke:#000000;stroke-width:0.8;" x="555" xlink:href="#mea1b072ccd" y="512.64"/>
      </g>
     </g>
     <g id="text_6">
      <!-- −880 -->
      <g transform="translate(541.266406 527.238438)scale(0.1 -0.1)">
       <use xlink:href="#DejaVuSans-8722"/>
       <use x="83.789062" xlink:href="#DejaVuSans-56"/>
       <use x="147.412109" xlink:href="#DejaVuSans-56"/>
       <use x="211.035156" xlink:href="#DejaVuSans-48"/>
      </g>
     </g>
    </g>
    <g id="xtick_7">
     <g id="line2d_7">
      <g>
       <use style="stroke:#000000;stroke-width:0.8;" x="648" xlink:href="#mea1b072ccd" y="512.64"/>
      </g>
     </g>
     <g id="text_7">
      <!-- −875 -->
      <defs>
       <path d="M 8.203125 72.90625 
L 55.078125 72.90625 
L 55.078125 68.703125 
L 28.609375 0 
L 18.3125 0 
L 43.21875 64.59375 
L 8.203125 64.59375 
z
" id="DejaVuSans-55"/>
      </defs>
      <g transform="translate(634.266406 527.238438)scale(0.1 -0.1)">
       <use xlink:href="#DejaVuSans-8722"/>
       <use x="83.789062" xlink:href="#DejaVuSans-56"/>
       <use x="147.412109" xlink:href="#DejaVuSans-55"/>
       <use x="211.035156" xlink:href="#DejaVuSans-53"/>
      </g>
     </g>
    </g>
    <g id="text_8">
     <!-- x (m) -->
     <defs>
      <path d="M 54.890625 54.6875 
L 35.109375 28.078125 
L 55.90625 0 
L 45.3125 0 
L 29.390625 21.484375 
L 13.484375 0 
L 2.875 0 
L 24.125 28.609375 
L 4.6875 54.6875 
L 15.28125 54.6875 
L 29.78125 35.203125 
L 44.28125 54.6875 
z
" id="DejaVuSans-120"/>
      <path id="DejaVuSans-32"/>
      <path d="M 31 75.875 
Q 24.46875 64.65625 21.28125 53.65625 
Q 18.109375 42.671875 18.109375 31.390625 
Q 18.109375 20.125 21.3125 9.0625 
Q 24.515625 -2 31 -13.1875 
L 23.1875 -13.1875 
Q 15.875 -1.703125 12.234375 9.375 
Q 8.59375 20.453125 8.59375 31.390625 
Q 8.59375 42.28125 12.203125 53.3125 
Q 15.828125 64.359375 23.1875 75.875 
z
" id="DejaVuSans-40"/>
      <path d="M 52 44.1875 
Q 55.375 50.25 60.0625 53.125 
Q 64.75 56 71.09375 56 
Q 79.640625 56 84.28125 50.015625 
Q 88.921875 44.046875 88.921875 33.015625 
L 88.921875 0 
L 79.890625 0 
L 79.890625 32.71875 
Q 79.890625 40.578125 77.09375 44.375 
Q 74.3125 48.1875 68.609375 48.1875 
Q 61.625 48.1875 57.5625 43.546875 
Q 53.515625 38.921875 53.515625 30.90625 
L 53.515625 0 
L 44.484375 0 
L 44.484375 32.71875 
Q 44.484375 40.625 41.703125 44.40625 
Q 38.921875 48.1875 33.109375 48.1875 
Q 26.21875 48.1875 22.15625 43.53125 
Q 18.109375 38.875 18.109375 30.90625 
L 18.109375 0 
L 9.078125 0 
L 9.078125 54.6875 
L 18.109375 54.6875 
L 18.109375 46.1875 
Q 21.1875 51.21875 25.484375 53.609375 
Q 29.78125 56 35.6875 56 
Q 41.65625 56 45.828125 52.96875 
Q 50 49.953125 52 44.1875 
z
" id="DejaVuSans-109"/>
      <path d="M 8.015625 75.875 
L 15.828125 75.875 
Q 23.140625 64.359375 26.78125 53.3125 
Q 30.421875 42.28125 30.421875 31.390625 
Q 30.421875 20.453125 26.78125 9.375 
Q 23.140625 -1.703125 15.828125 -13.1875 
L 8.015625 -13.1875 
Q 14.5 -2 17.703125 9.0625 
Q 20.90625 20.125 20.90625 31.390625 
Q 20.90625 42.671875 17.703125 53.65625 
Q 14.5 64.65625 8.015625 75.875 
z
" id="DejaVuSans-41"/>
     </defs>
     <g transform="translate(355.679688 540.916563)scale(0.1 -0.1)">
      <use xlink:href="#DejaVuSans-120"/>
      <use x="59.179688" xlink:href="#DejaVuSans-32"/>
      <use x="90.966797" xlink:href="#DejaVuSans-40"/>
      <use x="129.980469" xlink:href="#DejaVuSans-109"/>
      <use x="227.392578" xlink:href="#DejaVuSans-41"/>
     </g>
    </g>
   </g>
   <g id="matplotlib.axis_2">
    <g id="ytick_1">
     <g id="line2d_8">
      <defs>
       <path d="M 0 0 
L -3.5 0 
" id="mfe57a91471" style="stroke:#000000;stroke-width:0.8;"/>
      </defs>
      <g>
       <use style="stroke:#000000;stroke-width:0.8;" x="90" xlink:href="#mfe57a91471" y="512.64"/>
      </g>
     </g>
     <g id="text_9">
      <!-- 750 -->
      <g transform="translate(63.9125 516.439219)scale(0.1 -0.1)">
       <use xlink:href="#DejaVuSans-55"/>
       <use x="63.623047" xlink:href="#DejaVuSans-53"/>
       <use x="127.246094" xlink:href="#DejaVuSans-48"/>
      </g>
     </g>
    </g>
    <g id="ytick_2">
     <g id="line2d_9">
      <g>
       <use style="stroke:#000000;stroke-width:0.8;" x="90" xlink:href="#mfe57a91471" y="438.72"/>
      </g>
     </g>
     <g id="text_10">
      <!-- 760 -->
      <defs>
       <path d="M 33.015625 40.375 
Q 26.375 40.375 22.484375 35.828125 
Q 18.609375 31.296875 18.609375 23.390625 
Q 18.609375 15.53125 22.484375 10.953125 
Q 26.375 6.390625 33.015625 6.390625 
Q 39.65625 6.390625 43.53125 10.953125 
Q 47.40625 15.53125 47.40625 23.390625 
Q 47.40625 31.296875 43.53125 35.828125 
Q 39.65625 40.375 33.015625 40.375 
z
M 52.59375 71.296875 
L 52.59375 62.3125 
Q 48.875 64.0625 45.09375 64.984375 
Q 41.3125 65.921875 37.59375 65.921875 
Q 27.828125 65.921875 22.671875 59.328125 
Q 17.53125 52.734375 16.796875 39.40625 
Q 19.671875 43.65625 24.015625 45.921875 
Q 28.375 48.1875 33.59375 48.1875 
Q 44.578125 48.1875 50.953125 41.515625 
Q 57.328125 34.859375 57.328125 23.390625 
Q 57.328125 12.15625 50.6875 5.359375 
Q 44.046875 -1.421875 33.015625 -1.421875 
Q 20.359375 -1.421875 13.671875 8.265625 
Q 6.984375 17.96875 6.984375 36.375 
Q 6.984375 53.65625 15.1875 63.9375 
Q 23.390625 74.21875 37.203125 74.21875 
Q 40.921875 74.21875 44.703125 73.484375 
Q 48.484375 72.75 52.59375 71.296875 
z
" id="DejaVuSans-54"/>
      </defs>
      <g transform="translate(63.9125 442.519219)scale(0.1 -0.1)">
       <use xlink:href="#DejaVuSans-55"/>
       <use x="63.623047" xlink:href="#DejaVuSans-54"/>
       <use x="127.246094" xlink:href="#DejaVuSans-48"/>
      </g>
     </g>
    </g>
    <g id="ytick_3">
     <g id="line2d_10">
      <g>
       <use style="stroke:#000000;stroke-width:0.8;" x="90" xlink:href="#mfe57a91471" y="364.8"/>
      </g>
     </g>
     <g id="text_11">
      <!-- 770 -->
      <g transform="translate(63.9125 368.599219)scale(0.1 -0.1)">
       <use xlink:href="#DejaVuSans-55"/>
       <use x="63.623047" xlink:href="#DejaVuSans-55"/>
       <use x="127.246094" xlink:href="#DejaVuSans-48"/>
      </g>
     </g>
    </g>
    <g id="ytick_4">
     <g id="line2d_11">
      <g>
       <use style="stroke:#000000;stroke-width:0.8;" x="90" xlink:href="#mfe57a91471" y="290.88"/>
      </g>
     </g>
     <g id="text_12">
      <!-- 780 -->
      <g transform="translate(63.9125 294.679219)scale(0.1 -0.1)">
       <use xlink:href="#DejaVuSans-55"/>
       <use x="63.623047" xlink:href="#DejaVuSans-56"/>
       <use x="127.246094" xlink:href="#DejaVuSans-48"/>
      </g>
     </g>
    </g>
    <g id="ytick_5">
     <g id="line2d_12">
      <g>
       <use style="stroke:#000000;stroke-width:0.8;" x="90" xlink:href="#mfe57a91471" y="216.96"/>
      </g>
     </g>
     <g id="text_13">
      <!-- 790 -->
      <g transform="translate(63.9125 220.759219)scale(0.1 -0.1)">
       <use xlink:href="#DejaVuSans-55"/>
       <use x="63.623047" xlink:href="#DejaVuSans-57"/>
       <use x="127.246094" xlink:href="#DejaVuSans-48"/>
      </g>
     </g>
    </g>
    <g id="ytick_6">
     <g id="line2d_13">
      <g>
       <use style="stroke:#000000;stroke-width:0.8;" x="90" xlink:href="#mfe57a91471" y="143.04"/>
      </g>
     </g>
     <g id="text_14">
      <!-- 800 -->
      <g transform="translate(63.9125 146.839219)scale(0.1 -0.1)">
       <use xlink:href="#DejaVuSans-56"/>
       <use x="63.623047" xlink:href="#DejaVuSans-48"/>
       <use x="127.246094" xlink:href="#DejaVuSans-48"/>
      </g>
     </g>
    </g>
    <g id="ytick_7">
     <g id="line2d_14">
      <g>
       <use style="stroke:#000000;stroke-width:0.8;" x="90" xlink:href="#mfe57a91471" y="69.12"/>
      </g>
     </g>
     <g id="text_15">
      <!-- 810 -->
      <defs>
       <path d="M 12.40625 8.296875 
L 28.515625 8.296875 
L 28.515625 63.921875 
L 10.984375 60.40625 
L 10.984375 69.390625 
L 28.421875 72.90625 
L 38.28125 72.90625 
L 38.28125 8.296875 
L 54.390625 8.296875 
L 54.390625 0 
L 12.40625 0 
z
" id="DejaVuSans-49"/>
      </defs>
      <g transform="translate(63.9125 72.919219)scale(0.1 -0.1)">
       <use xlink:href="#DejaVuSans-56"/>
       <use x="63.623047" xlink:href="#DejaVuSans-49"/>
       <use x="127.246094" xlink:href="#DejaVuSans-48"/>
      </g>
     </g>
    </g>
    <g id="text_16">
     <!-- y (m) -->
     <defs>
      <path d="M 32.171875 -5.078125 
Q 28.375 -14.84375 24.75 -17.8125 
Q 21.140625 -20.796875 15.09375 -20.796875 
L 7.90625 -20.796875 
L 7.90625 -13.28125 
L 13.1875 -13.28125 
Q 16.890625 -13.28125 18.9375 -11.515625 
Q 21 -9.765625 23.484375 -3.21875 
L 25.09375 0.875 
L 2.984375 54.6875 
L 12.5 54.6875 
L 29.59375 11.921875 
L 46.6875 54.6875 
L 56.203125 54.6875 
z
" id="DejaVuSans-121"/>
     </defs>
     <g transform="translate(57.832812 304.200312)rotate(-90)scale(0.1 -0.1)">
      <use xlink:href="#DejaVuSans-121"/>
      <use x="59.179688" xlink:href="#DejaVuSans-32"/>
      <use x="90.966797" xlink:href="#DejaVuSans-40"/>
      <use x="129.980469" xlink:href="#DejaVuSans-109"/>
      <use x="227.392578" xlink:href="#DejaVuSans-41"/>
     </g>
    </g>
   </g>
   <g id="line2d_15">
    <path clip-path="url(#pf41b9b3df9)" d="M 663.75817 -1 
L 622.836136 18.303608 
L 581.16164 38.184632 
L 539.810709 58.146712 
L 498.821176 78.189743 
L 464.023854 95.455852 
L 435.331251 109.947171 
L 412.639552 121.647781 
L 390.24228 133.482376 
L 373.674116 142.46711 
L 357.333807 151.558734 
L 341.256383 160.766451 
L 325.493173 170.096696 
L 315.197005 176.387112 
L 305.109074 182.734828 
L 295.272829 189.140591 
L 285.741953 195.605061 
L 276.57985 202.128864 
L 267.85794 208.712609 
L 259.652836 215.356877 
L 255.768558 218.701872 
L 252.042686 222.062182 
L 248.484565 225.437848 
L 245.103131 228.828899 
L 241.906802 232.235342 
L 238.903374 235.657163 
L 236.099934 239.094318 
L 233.502788 242.546732 
L 231.117401 246.014285 
L 228.948353 249.496813 
L 226.999307 252.994096 
L 225.272995 256.505852 
L 223.771203 260.031729 
L 222.494779 263.571299 
L 221.443642 267.124047 
L 220.616801 270.689371 
L 220.01238 274.266571 
L 219.627655 277.854851 
L 219.459094 281.453317 
L 219.502412 285.060973 
L 219.752627 288.676732 
L 220.204131 292.299418 
L 220.850767 295.927779 
L 221.685911 299.560493 
L 222.702573 303.196187 
L 223.893482 306.833453 
L 225.251197 310.470862 
L 226.768197 314.106988 
L 228.436985 317.740422 
L 230.250172 321.369793 
L 232.20056 324.993787 
L 236.485503 332.220764 
L 241.240315 339.412535 
L 246.419418 346.562028 
L 251.983186 353.664132 
L 257.897148 360.71576 
L 264.130655 367.715796 
L 270.655369 374.66493 
L 277.443922 381.56542 
L 284.46902 388.420801 
L 291.703112 395.235539 
L 302.885928 405.392541 
L 314.387494 415.48708 
L 330.082501 428.8772 
L 350.079417 445.545002 
L 374.400297 465.491226 
L 415.290148 498.683454 
L 456.122268 531.896231 
L 484.452646 555.192924 
L 510.683714 577 
L 510.683714 577 
" style="fill:none;stroke:#008000;stroke-linecap:square;stroke-width:1.5;"/>
   </g>
   <g id="patch_3">
    <path d="M 90 512.64 
L 90 69.12 
" style="fill:none;stroke:#000000;stroke-linecap:square;stroke-linejoin:miter;stroke-width:0.8;"/>
   </g>
   <g id="patch_4">
    <path d="M 648 512.64 
L 648 69.12 
" style="fill:none;stroke:#000000;stroke-linecap:square;stroke-linejoin:miter;stroke-width:0.8;"/>
   </g>
   <g id="patch_5">
    <path d="M 90 512.64 
L 648 512.64 
" style="fill:none;stroke:#000000;stroke-linecap:square;stroke-linejoin:miter;stroke-width:0.8;"/>
   </g>
   <g id="patch_6">
    <path d="M 90 69.12 
L 648 69.12 
" style="fill:none;stroke:#000000;stroke-linecap:square;stroke-linejoin:miter;stroke-width:0.8;"/>
   </g>
   <g id="text_17">
    <!-- Vehicle Data vs Ground Truth Path -->
    <defs>
     <path d="M 28.609375 0 
L 0.78125 72.90625 
L 11.078125 72.90625 
L 34.1875 11.53125 
L 57.328125 72.90625 
L 67.578125 72.90625 
L 39.796875 0 
z
" id="DejaVuSans-86"/>
     <path d="M 56.203125 29.59375 
L 56.203125 25.203125 
L 14.890625 25.203125 
Q 15.484375 15.921875 20.484375 11.0625 
Q 25.484375 6.203125 34.421875 6.203125 
Q 39.59375 6.203125 44.453125 7.46875 
Q 49.3125 8.734375 54.109375 11.28125 
L 54.109375 2.78125 
Q 49.265625 0.734375 44.1875 -0.34375 
Q 39.109375 -1.421875 33.890625 -1.421875 
Q 20.796875 -1.421875 13.15625 6.1875 
Q 5.515625 13.8125 5.515625 26.8125 
Q 5.515625 40.234375 12.765625 48.109375 
Q 20.015625 56 32.328125 56 
Q 43.359375 56 49.78125 48.890625 
Q 56.203125 41.796875 56.203125 29.59375 
z
M 47.21875 32.234375 
Q 47.125 39.59375 43.09375 43.984375 
Q 39.0625 48.390625 32.421875 48.390625 
Q 24.90625 48.390625 20.390625 44.140625 
Q 15.875 39.890625 15.1875 32.171875 
z
" id="DejaVuSans-101"/>
     <path d="M 54.890625 33.015625 
L 54.890625 0 
L 45.90625 0 
L 45.90625 32.71875 
Q 45.90625 40.484375 42.875 44.328125 
Q 39.84375 48.1875 33.796875 48.1875 
Q 26.515625 48.1875 22.3125 43.546875 
Q 18.109375 38.921875 18.109375 30.90625 
L 18.109375 0 
L 9.078125 0 
L 9.078125 75.984375 
L 18.109375 75.984375 
L 18.109375 46.1875 
Q 21.34375 51.125 25.703125 53.5625 
Q 30.078125 56 35.796875 56 
Q 45.21875 56 50.046875 50.171875 
Q 54.890625 44.34375 54.890625 33.015625 
z
" id="DejaVuSans-104"/>
     <path d="M 9.421875 54.6875 
L 18.40625 54.6875 
L 18.40625 0 
L 9.421875 0 
z
M 9.421875 75.984375 
L 18.40625 75.984375 
L 18.40625 64.59375 
L 9.421875 64.59375 
z
" id="DejaVuSans-105"/>
     <path d="M 48.78125 52.59375 
L 48.78125 44.1875 
Q 44.96875 46.296875 41.140625 47.34375 
Q 37.3125 48.390625 33.40625 48.390625 
Q 24.65625 48.390625 19.8125 42.84375 
Q 14.984375 37.3125 14.984375 27.296875 
Q 14.984375 17.28125 19.8125 11.734375 
Q 24.65625 6.203125 33.40625 6.203125 
Q 37.3125 6.203125 41.140625 7.25 
Q 44.96875 8.296875 48.78125 10.40625 
L 48.78125 2.09375 
Q 45.015625 0.34375 40.984375 -0.53125 
Q 36.96875 -1.421875 32.421875 -1.421875 
Q 20.0625 -1.421875 12.78125 6.34375 
Q 5.515625 14.109375 5.515625 27.296875 
Q 5.515625 40.671875 12.859375 48.328125 
Q 20.21875 56 33.015625 56 
Q 37.15625 56 41.109375 55.140625 
Q 45.0625 54.296875 48.78125 52.59375 
z
" id="DejaVuSans-99"/>
     <path d="M 9.421875 75.984375 
L 18.40625 75.984375 
L 18.40625 0 
L 9.421875 0 
z
" id="DejaVuSans-108"/>
     <path d="M 19.671875 64.796875 
L 19.671875 8.109375 
L 31.59375 8.109375 
Q 46.6875 8.109375 53.6875 14.9375 
Q 60.6875 21.78125 60.6875 36.53125 
Q 60.6875 51.171875 53.6875 57.984375 
Q 46.6875 64.796875 31.59375 64.796875 
z
M 9.8125 72.90625 
L 30.078125 72.90625 
Q 51.265625 72.90625 61.171875 64.09375 
Q 71.09375 55.28125 71.09375 36.53125 
Q 71.09375 17.671875 61.125 8.828125 
Q 51.171875 0 30.078125 0 
L 9.8125 0 
z
" id="DejaVuSans-68"/>
     <path d="M 34.28125 27.484375 
Q 23.390625 27.484375 19.1875 25 
Q 14.984375 22.515625 14.984375 16.5 
Q 14.984375 11.71875 18.140625 8.90625 
Q 21.296875 6.109375 26.703125 6.109375 
Q 34.1875 6.109375 38.703125 11.40625 
Q 43.21875 16.703125 43.21875 25.484375 
L 43.21875 27.484375 
z
M 52.203125 31.203125 
L 52.203125 0 
L 43.21875 0 
L 43.21875 8.296875 
Q 40.140625 3.328125 35.546875 0.953125 
Q 30.953125 -1.421875 24.3125 -1.421875 
Q 15.921875 -1.421875 10.953125 3.296875 
Q 6 8.015625 6 15.921875 
Q 6 25.140625 12.171875 29.828125 
Q 18.359375 34.515625 30.609375 34.515625 
L 43.21875 34.515625 
L 43.21875 35.40625 
Q 43.21875 41.609375 39.140625 45 
Q 35.0625 48.390625 27.6875 48.390625 
Q 23 48.390625 18.546875 47.265625 
Q 14.109375 46.140625 10.015625 43.890625 
L 10.015625 52.203125 
Q 14.9375 54.109375 19.578125 55.046875 
Q 24.21875 56 28.609375 56 
Q 40.484375 56 46.34375 49.84375 
Q 52.203125 43.703125 52.203125 31.203125 
z
" id="DejaVuSans-97"/>
     <path d="M 18.3125 70.21875 
L 18.3125 54.6875 
L 36.8125 54.6875 
L 36.8125 47.703125 
L 18.3125 47.703125 
L 18.3125 18.015625 
Q 18.3125 11.328125 20.140625 9.421875 
Q 21.96875 7.515625 27.59375 7.515625 
L 36.8125 7.515625 
L 36.8125 0 
L 27.59375 0 
Q 17.1875 0 13.234375 3.875 
Q 9.28125 7.765625 9.28125 18.015625 
L 9.28125 47.703125 
L 2.6875 47.703125 
L 2.6875 54.6875 
L 9.28125 54.6875 
L 9.28125 70.21875 
z
" id="DejaVuSans-116"/>
     <path d="M 2.984375 54.6875 
L 12.5 54.6875 
L 29.59375 8.796875 
L 46.6875 54.6875 
L 56.203125 54.6875 
L 35.6875 0 
L 23.484375 0 
z
" id="DejaVuSans-118"/>
     <path d="M 44.28125 53.078125 
L 44.28125 44.578125 
Q 40.484375 46.53125 36.375 47.5 
Q 32.28125 48.484375 27.875 48.484375 
Q 21.1875 48.484375 17.84375 46.4375 
Q 14.5 44.390625 14.5 40.28125 
Q 14.5 37.15625 16.890625 35.375 
Q 19.28125 33.59375 26.515625 31.984375 
L 29.59375 31.296875 
Q 39.15625 29.25 43.1875 25.515625 
Q 47.21875 21.78125 47.21875 15.09375 
Q 47.21875 7.46875 41.1875 3.015625 
Q 35.15625 -1.421875 24.609375 -1.421875 
Q 20.21875 -1.421875 15.453125 -0.5625 
Q 10.6875 0.296875 5.421875 2 
L 5.421875 11.28125 
Q 10.40625 8.6875 15.234375 7.390625 
Q 20.0625 6.109375 24.8125 6.109375 
Q 31.15625 6.109375 34.5625 8.28125 
Q 37.984375 10.453125 37.984375 14.40625 
Q 37.984375 18.0625 35.515625 20.015625 
Q 33.0625 21.96875 24.703125 23.78125 
L 21.578125 24.515625 
Q 13.234375 26.265625 9.515625 29.90625 
Q 5.8125 33.546875 5.8125 39.890625 
Q 5.8125 47.609375 11.28125 51.796875 
Q 16.75 56 26.8125 56 
Q 31.78125 56 36.171875 55.265625 
Q 40.578125 54.546875 44.28125 53.078125 
z
" id="DejaVuSans-115"/>
     <path d="M 59.515625 10.40625 
L 59.515625 29.984375 
L 43.40625 29.984375 
L 43.40625 38.09375 
L 69.28125 38.09375 
L 69.28125 6.78125 
Q 63.578125 2.734375 56.6875 0.65625 
Q 49.8125 -1.421875 42 -1.421875 
Q 24.90625 -1.421875 15.25 8.5625 
Q 5.609375 18.5625 5.609375 36.375 
Q 5.609375 54.25 15.25 64.234375 
Q 24.90625 74.21875 42 74.21875 
Q 49.125 74.21875 55.546875 72.453125 
Q 61.96875 70.703125 67.390625 67.28125 
L 67.390625 56.78125 
Q 61.921875 61.421875 55.765625 63.765625 
Q 49.609375 66.109375 42.828125 66.109375 
Q 29.4375 66.109375 22.71875 58.640625 
Q 16.015625 51.171875 16.015625 36.375 
Q 16.015625 21.625 22.71875 14.15625 
Q 29.4375 6.6875 42.828125 6.6875 
Q 48.046875 6.6875 52.140625 7.59375 
Q 56.25 8.5 59.515625 10.40625 
z
" id="DejaVuSans-71"/>
     <path d="M 41.109375 46.296875 
Q 39.59375 47.171875 37.8125 47.578125 
Q 36.03125 48 33.890625 48 
Q 26.265625 48 22.1875 43.046875 
Q 18.109375 38.09375 18.109375 28.8125 
L 18.109375 0 
L 9.078125 0 
L 9.078125 54.6875 
L 18.109375 54.6875 
L 18.109375 46.1875 
Q 20.953125 51.171875 25.484375 53.578125 
Q 30.03125 56 36.53125 56 
Q 37.453125 56 38.578125 55.875 
Q 39.703125 55.765625 41.0625 55.515625 
z
" id="DejaVuSans-114"/>
     <path d="M 30.609375 48.390625 
Q 23.390625 48.390625 19.1875 42.75 
Q 14.984375 37.109375 14.984375 27.296875 
Q 14.984375 17.484375 19.15625 11.84375 
Q 23.34375 6.203125 30.609375 6.203125 
Q 37.796875 6.203125 41.984375 11.859375 
Q 46.1875 17.53125 46.1875 27.296875 
Q 46.1875 37.015625 41.984375 42.703125 
Q 37.796875 48.390625 30.609375 48.390625 
z
M 30.609375 56 
Q 42.328125 56 49.015625 48.375 
Q 55.71875 40.765625 55.71875 27.296875 
Q 55.71875 13.875 49.015625 6.21875 
Q 42.328125 -1.421875 30.609375 -1.421875 
Q 18.84375 -1.421875 12.171875 6.21875 
Q 5.515625 13.875 5.515625 27.296875 
Q 5.515625 40.765625 12.171875 48.375 
Q 18.84375 56 30.609375 56 
z
" id="DejaVuSans-111"/>
     <path d="M 8.5 21.578125 
L 8.5 54.6875 
L 17.484375 54.6875 
L 17.484375 21.921875 
Q 17.484375 14.15625 20.5 10.265625 
Q 23.53125 6.390625 29.59375 6.390625 
Q 36.859375 6.390625 41.078125 11.03125 
Q 45.3125 15.671875 45.3125 23.6875 
L 45.3125 54.6875 
L 54.296875 54.6875 
L 54.296875 0 
L 45.3125 0 
L 45.3125 8.40625 
Q 42.046875 3.421875 37.71875 1 
Q 33.40625 -1.421875 27.6875 -1.421875 
Q 18.265625 -1.421875 13.375 4.4375 
Q 8.5 10.296875 8.5 21.578125 
z
M 31.109375 56 
z
" id="DejaVuSans-117"/>
     <path d="M 54.890625 33.015625 
L 54.890625 0 
L 45.90625 0 
L 45.90625 32.71875 
Q 45.90625 40.484375 42.875 44.328125 
Q 39.84375 48.1875 33.796875 48.1875 
Q 26.515625 48.1875 22.3125 43.546875 
Q 18.109375 38.921875 18.109375 30.90625 
L 18.109375 0 
L 9.078125 0 
L 9.078125 54.6875 
L 18.109375 54.6875 
L 18.109375 46.1875 
Q 21.34375 51.125 25.703125 53.5625 
Q 30.078125 56 35.796875 56 
Q 45.21875 56 50.046875 50.171875 
Q 54.890625 44.34375 54.890625 33.015625 
z
" id="DejaVuSans-110"/>
     <path d="M 45.40625 46.390625 
L 45.40625 75.984375 
L 54.390625 75.984375 
L 54.390625 0 
L 45.40625 0 
L 45.40625 8.203125 
Q 42.578125 3.328125 38.25 0.953125 
Q 33.9375 -1.421875 27.875 -1.421875 
Q 17.96875 -1.421875 11.734375 6.484375 
Q 5.515625 14.40625 5.515625 27.296875 
Q 5.515625 40.1875 11.734375 48.09375 
Q 17.96875 56 27.875 56 
Q 33.9375 56 38.25 53.625 
Q 42.578125 51.265625 45.40625 46.390625 
z
M 14.796875 27.296875 
Q 14.796875 17.390625 18.875 11.75 
Q 22.953125 6.109375 30.078125 6.109375 
Q 37.203125 6.109375 41.296875 11.75 
Q 45.40625 17.390625 45.40625 27.296875 
Q 45.40625 37.203125 41.296875 42.84375 
Q 37.203125 48.484375 30.078125 48.484375 
Q 22.953125 48.484375 18.875 42.84375 
Q 14.796875 37.203125 14.796875 27.296875 
z
" id="DejaVuSans-100"/>
     <path d="M -0.296875 72.90625 
L 61.375 72.90625 
L 61.375 64.59375 
L 35.5 64.59375 
L 35.5 0 
L 25.59375 0 
L 25.59375 64.59375 
L -0.296875 64.59375 
z
" id="DejaVuSans-84"/>
     <path d="M 19.671875 64.796875 
L 19.671875 37.40625 
L 32.078125 37.40625 
Q 38.96875 37.40625 42.71875 40.96875 
Q 46.484375 44.53125 46.484375 51.125 
Q 46.484375 57.671875 42.71875 61.234375 
Q 38.96875 64.796875 32.078125 64.796875 
z
M 9.8125 72.90625 
L 32.078125 72.90625 
Q 44.34375 72.90625 50.609375 67.359375 
Q 56.890625 61.8125 56.890625 51.125 
Q 56.890625 40.328125 50.609375 34.8125 
Q 44.34375 29.296875 32.078125 29.296875 
L 19.671875 29.296875 
L 19.671875 0 
L 9.8125 0 
z
" id="DejaVuSans-80"/>
    </defs>
    <g transform="translate(264.825938 63.12)scale(0.12 -0.12)">
     <use xlink:href="#DejaVuSans-86"/>
     <use x="68.298828" xlink:href="#DejaVuSans-101"/>
     <use x="129.822266" xlink:href="#DejaVuSans-104"/>
     <use x="193.201172" xlink:href="#DejaVuSans-105"/>
     <use x="220.984375" xlink:href="#DejaVuSans-99"/>
     <use x="275.964844" xlink:href="#DejaVuSans-108"/>
     <use x="303.748047" xlink:href="#DejaVuSans-101"/>
     <use x="365.271484" xlink:href="#DejaVuSans-32"/>
     <use x="397.058594" xlink:href="#DejaVuSans-68"/>
     <use x="474.060547" xlink:href="#DejaVuSans-97"/>
     <use x="535.339844" xlink:href="#DejaVuSans-116"/>
     <use x="574.548828" xlink:href="#DejaVuSans-97"/>
     <use x="635.828125" xlink:href="#DejaVuSans-32"/>
     <use x="667.615234" xlink:href="#DejaVuSans-118"/>
     <use x="726.794922" xlink:href="#DejaVuSans-115"/>
     <use x="778.894531" xlink:href="#DejaVuSans-32"/>
     <use x="810.681641" xlink:href="#DejaVuSans-71"/>
     <use x="888.171875" xlink:href="#DejaVuSans-114"/>
     <use x="929.253906" xlink:href="#DejaVuSans-111"/>
     <use x="990.435547" xlink:href="#DejaVuSans-117"/>
     <use x="1053.814453" xlink:href="#DejaVuSans-110"/>
     <use x="1117.193359" xlink:href="#DejaVuSans-100"/>
     <use x="1180.669922" xlink:href="#DejaVuSans-32"/>
     <use x="1212.457031" xlink:href="#DejaVuSans-84"/>
     <use x="1273.322266" xlink:href="#DejaVuSans-114"/>
     <use x="1314.435547" xlink:href="#DejaVuSans-117"/>
     <use x="1377.814453" xlink:href="#DejaVuSans-116"/>
     <use x="1417.023438" xlink:href="#DejaVuSans-104"/>
     <use x="1480.402344" xlink:href="#DejaVuSans-32"/>
     <use x="1512.189453" xlink:href="#DejaVuSans-80"/>
     <use x="1572.429688" xlink:href="#DejaVuSans-97"/>
     <use x="1633.708984" xlink:href="#DejaVuSans-116"/>
     <use x="1672.917969" xlink:href="#DejaVuSans-104"/>
    </g>
   </g>
   <g id="legend_1">
    <g id="patch_7">
     <path d="M 542.03125 106.47625 
L 641 106.47625 
Q 643 106.47625 643 104.47625 
L 643 76.12 
Q 643 74.12 641 74.12 
L 542.03125 74.12 
Q 540.03125 74.12 540.03125 76.12 
L 540.03125 104.47625 
Q 540.03125 106.47625 542.03125 106.47625 
z
" style="fill:#ffffff;opacity:0.8;stroke:#cccccc;stroke-linejoin:miter;"/>
    </g>
    <g id="line2d_16">
     <path d="M 544.03125 82.218438 
L 564.03125 82.218438 
" style="fill:none;stroke:#008000;stroke-linecap:square;stroke-width:1.5;"/>
    </g>
    <g id="line2d_17"/>
    <g id="text_18">
     <!-- Ground Truth -->
     <g transform="translate(572.03125 85.718438)scale(0.1 -0.1)">
      <use xlink:href="#DejaVuSans-71"/>
      <use x="77.490234" xlink:href="#DejaVuSans-114"/>
      <use x="118.572266" xlink:href="#DejaVuSans-111"/>
      <use x="179.753906" xlink:href="#DejaVuSans-117"/>
      <use x="243.132812" xlink:href="#DejaVuSans-110"/>
      <use x="306.511719" xlink:href="#DejaVuSans-100"/>
      <use x="369.988281" xlink:href="#DejaVuSans-32"/>
      <use x="401.775391" xlink:href="#DejaVuSans-84"/>
      <use x="462.640625" xlink:href="#DejaVuSans-114"/>
      <use x="503.753906" xlink:href="#DejaVuSans-117"/>
      <use x="567.132812" xlink:href="#DejaVuSans-116"/>
      <use x="606.341797" xlink:href="#DejaVuSans-104"/>
     </g>
    </g>
    <g id="PathCollection_2">
     <g>
      <use style="fill:#0000ff;stroke:#0000ff;" x="554.03125" xlink:href="#mcc48720ae3" y="97.771563"/>
     </g>
    </g>
    <g id="text_19">
     <!-- Vehicle -->
     <g transform="translate(572.03125 100.396563)scale(0.1 -0.1)">
      <use xlink:href="#DejaVuSans-86"/>
      <use x="68.298828" xlink:href="#DejaVuSans-101"/>
      <use x="129.822266" xlink:href="#DejaVuSans-104"/>
      <use x="193.201172" xlink:href="#DejaVuSans-105"/>
      <use x="220.984375" xlink:href="#DejaVuSans-99"/>
      <use x="275.964844" xlink:href="#DejaVuSans-108"/>
      <use x="303.748047" xlink:href="#DejaVuSans-101"/>
     </g>
    </g>
   </g>
  </g>
 </g>
 <defs>
  <clipPath id="pf41b9b3df9">
   <rect height="443.52" width="558" x="90" y="69.12"/>
  </clipPath>
 </defs>
</svg>
