<?xml version="1.0" encoding="utf-8" standalone="no"?>
<!DOCTYPE svg PUBLIC "-//W3C//DTD SVG 1.1//EN"
  "http://www.w3.org/Graphics/SVG/1.1/DTD/svg11.dtd">
<!-- Created with matplotlib (https://matplotlib.org/) -->
<svg height="576pt" version="1.1" viewBox="0 0 720 576" width="720pt" xmlns="http://www.w3.org/2000/svg" xmlns:xlink="http://www.w3.org/1999/xlink">
 <defs>
  <style type="text/css">
*{stroke-linecap:butt;stroke-linejoin:round;}
  </style>
 </defs>
 <g id="figure_1">
  <g id="patch_1">
   <path d="M 0 576 
L 720 576 
L 720 0 
L 0 0 
z
" style="fill:#ffffff;"/>
  </g>
  <g id="axes_1">
   <g id="patch_2">
    <path d="M 90 512.64 
L 648 512.64 
L 648 69.12 
L 90 69.12 
z
" style="fill:#ffffff;"/>
   </g>
   <g id="PathCollection_1">
    <defs>
     <path d="M 0 0.707107 
C 0.187527 0.707107 0.367398 0.632602 0.5 0.5 
C 0.632602 0.367398 0.707107 0.187527 0.707107 0 
C 0.707107 -0.187527 0.632602 -0.367398 0.5 -0.5 
C 0.367398 -0.632602 0.187527 -0.707107 0 -0.707107 
C -0.187527 -0.707107 -0.367398 -0.632602 -0.5 -0.5 
C -0.632602 -0.367398 -0.707107 -0.187527 -0.707107 0 
C -0.707107 0.187527 -0.632602 0.367398 -0.5 0.5 
C -0.367398 0.632602 -0.187527 0.707107 0 0.707107 
z
" id="mafcd4414d3" style="stroke:#0000ff;"/>
    </defs>
    <g clip-path="url(#pca1e74c1fd)">
     <use style="fill:#0000ff;stroke:#0000ff;" x="142.920427" xlink:href="#mafcd4414d3" y="79.604732"/>
     <use style="fill:#0000ff;stroke:#0000ff;" x="144.348185" xlink:href="#mafcd4414d3" y="86.852931"/>
     <use style="fill:#0000ff;stroke:#0000ff;" x="146.488678" xlink:href="#mafcd4414d3" y="97.653698"/>
     <use style="fill:#0000ff;stroke:#0000ff;" x="147.917696" xlink:href="#mafcd4414d3" y="104.792448"/>
     <use style="fill:#0000ff;stroke:#0000ff;" x="150.069519" xlink:href="#mafcd4414d3" y="115.392792"/>
     <use style="fill:#0000ff;stroke:#0000ff;" x="151.513807" xlink:href="#mafcd4414d3" y="122.374375"/>
     <use style="fill:#0000ff;stroke:#0000ff;" x="152.968695" xlink:href="#mafcd4414d3" y="129.283142"/>
     <use style="fill:#0000ff;stroke:#0000ff;" x="155.174283" xlink:href="#mafcd4414d3" y="139.497963"/>
     <use style="fill:#0000ff;stroke:#0000ff;" x="157.413422" xlink:href="#mafcd4414d3" y="149.515983"/>
     <use style="fill:#0000ff;stroke:#0000ff;" x="159.689345" xlink:href="#mafcd4414d3" y="159.328002"/>
     <use style="fill:#0000ff;stroke:#0000ff;" x="160.456455" xlink:href="#mafcd4414d3" y="162.550607"/>
     <use style="fill:#0000ff;stroke:#0000ff;" x="162.002376" xlink:href="#mafcd4414d3" y="168.926384"/>
     <use style="fill:#0000ff;stroke:#0000ff;" x="165.140499" xlink:href="#mafcd4414d3" y="181.387138"/>
     <use style="fill:#0000ff;stroke:#0000ff;" x="166.731194" xlink:href="#mafcd4414d3" y="187.477223"/>
     <use style="fill:#0000ff;stroke:#0000ff;" x="169.140513" xlink:href="#mafcd4414d3" y="196.448335"/>
     <use style="fill:#0000ff;stroke:#0000ff;" x="170.761749" xlink:href="#mafcd4414d3" y="202.315396"/>
     <use style="fill:#0000ff;stroke:#0000ff;" x="173.215504" xlink:href="#mafcd4414d3" y="210.939808"/>
     <use style="fill:#0000ff;stroke:#0000ff;" x="174.864992" xlink:href="#mafcd4414d3" y="216.57495"/>
     <use style="fill:#0000ff;stroke:#0000ff;" x="177.359933" xlink:href="#mafcd4414d3" y="224.843154"/>
     <use style="fill:#0000ff;stroke:#0000ff;" x="179.038502" xlink:href="#mafcd4414d3" y="230.229347"/>
     <use style="fill:#0000ff;stroke:#0000ff;" x="181.579083" xlink:href="#mafcd4414d3" y="238.114621"/>
     <use style="fill:#0000ff;stroke:#0000ff;" x="183.28827" xlink:href="#mafcd4414d3" y="243.242041"/>
     <use style="fill:#0000ff;stroke:#0000ff;" x="185.010505" xlink:href="#mafcd4414d3" y="248.263662"/>
     <use style="fill:#0000ff;stroke:#0000ff;" x="188.497883" xlink:href="#mafcd4414d3" y="257.996085"/>
     <use style="fill:#0000ff;stroke:#0000ff;" x="190.264957" xlink:href="#mafcd4414d3" y="262.72198"/>
     <use style="fill:#0000ff;stroke:#0000ff;" x="192.048509" xlink:href="#mafcd4414d3" y="267.35671"/>
     <use style="fill:#0000ff;stroke:#0000ff;" x="194.75513" xlink:href="#mafcd4414d3" y="274.144372"/>
     <use style="fill:#0000ff;stroke:#0000ff;" x="196.58064" xlink:href="#mafcd4414d3" y="278.553741"/>
     <use style="fill:#0000ff;stroke:#0000ff;" x="199.346926" xlink:href="#mafcd4414d3" y="284.998527"/>
     <use style="fill:#0000ff;stroke:#0000ff;" x="202.146447" xlink:href="#mafcd4414d3" y="291.237591"/>
     <use style="fill:#0000ff;stroke:#0000ff;" x="203.086714" xlink:href="#mafcd4414d3" y="293.270373"/>
     <use style="fill:#0000ff;stroke:#0000ff;" x="204.976858" xlink:href="#mafcd4414d3" y="297.267262"/>
     <use style="fill:#0000ff;stroke:#0000ff;" x="208.795202" xlink:href="#mafcd4414d3" y="304.974392"/>
     <use style="fill:#0000ff;stroke:#0000ff;" x="210.723882" xlink:href="#mafcd4414d3" y="308.67072"/>
     <use style="fill:#0000ff;stroke:#0000ff;" x="213.63884" xlink:href="#mafcd4414d3" y="314.036564"/>
     <use style="fill:#0000ff;stroke:#0000ff;" x="215.595013" xlink:href="#mafcd4414d3" y="317.496406"/>
     <use style="fill:#0000ff;stroke:#0000ff;" x="218.548184" xlink:href="#mafcd4414d3" y="322.512256"/>
     <use style="fill:#0000ff;stroke:#0000ff;" x="220.528867" xlink:href="#mafcd4414d3" y="325.737826"/>
     <use style="fill:#0000ff;stroke:#0000ff;" x="223.515383" xlink:href="#mafcd4414d3" y="330.397738"/>
     <use style="fill:#0000ff;stroke:#0000ff;" x="225.516223" xlink:href="#mafcd4414d3" y="333.39575"/>
     <use style="fill:#0000ff;stroke:#0000ff;" x="228.533535" xlink:href="#mafcd4414d3" y="337.738115"/>
     <use style="fill:#0000ff;stroke:#0000ff;" x="230.55711" xlink:href="#mafcd4414d3" y="340.522535"/>
     <use style="fill:#0000ff;stroke:#0000ff;" x="233.613579" xlink:href="#mafcd4414d3" y="344.541859"/>
     <use style="fill:#0000ff;stroke:#0000ff;" x="236.702432" xlink:href="#mafcd4414d3" y="348.38256"/>
     <use style="fill:#0000ff;stroke:#0000ff;" x="238.783528" xlink:href="#mafcd4414d3" y="350.850332"/>
     <use style="fill:#0000ff;stroke:#0000ff;" x="240.88483" xlink:href="#mafcd4414d3" y="353.246603"/>
     <use style="fill:#0000ff;stroke:#0000ff;" x="244.079544" xlink:href="#mafcd4414d3" y="356.697542"/>
     <use style="fill:#0000ff;stroke:#0000ff;" x="246.238478" xlink:href="#mafcd4414d3" y="358.89987"/>
     <use style="fill:#0000ff;stroke:#0000ff;" x="249.515968" xlink:href="#mafcd4414d3" y="362.055554"/>
     <use style="fill:#0000ff;stroke:#0000ff;" x="251.723447" xlink:href="#mafcd4414d3" y="364.06153"/>
     <use style="fill:#0000ff;stroke:#0000ff;" x="253.946102" xlink:href="#mafcd4414d3" y="365.98907"/>
     <use style="fill:#0000ff;stroke:#0000ff;" x="255.062113" xlink:href="#mafcd4414d3" y="366.922905"/>
     <use style="fill:#0000ff;stroke:#0000ff;" x="260.685533" xlink:href="#mafcd4414d3" y="371.291379"/>
     <use style="fill:#0000ff;stroke:#0000ff;" x="264.089547" xlink:href="#mafcd4414d3" y="373.676006"/>
     <use style="fill:#0000ff;stroke:#0000ff;" x="266.369985" xlink:href="#mafcd4414d3" y="375.166547"/>
     <use style="fill:#0000ff;stroke:#0000ff;" x="268.658783" xlink:href="#mafcd4414d3" y="376.584431"/>
     <use style="fill:#0000ff;stroke:#0000ff;" x="272.109213" xlink:href="#mafcd4414d3" y="378.605315"/>
     <use style="fill:#0000ff;stroke:#0000ff;" x="274.424385" xlink:href="#mafcd4414d3" y="379.900772"/>
     <use style="fill:#0000ff;stroke:#0000ff;" x="277.924783" xlink:href="#mafcd4414d3" y="381.786133"/>
     <use style="fill:#0000ff;stroke:#0000ff;" x="280.279717" xlink:href="#mafcd4414d3" y="383.002384"/>
     <use style="fill:#0000ff;stroke:#0000ff;" x="283.846783" xlink:href="#mafcd4414d3" y="384.755759"/>
     <use style="fill:#0000ff;stroke:#0000ff;" x="286.247196" xlink:href="#mafcd4414d3" y="385.876992"/>
     <use style="fill:#0000ff;stroke:#0000ff;" x="289.875556" xlink:href="#mafcd4414d3" y="387.483913"/>
     <use style="fill:#0000ff;stroke:#0000ff;" x="292.307964" xlink:href="#mafcd4414d3" y="388.499002"/>
     <use style="fill:#0000ff;stroke:#0000ff;" x="295.970833" xlink:href="#mafcd4414d3" y="389.925255"/>
     <use style="fill:#0000ff;stroke:#0000ff;" x="298.418373" xlink:href="#mafcd4414d3" y="390.810579"/>
     <use style="fill:#0000ff;stroke:#0000ff;" x="302.094458" xlink:href="#mafcd4414d3" y="392.044452"/>
     <use style="fill:#0000ff;stroke:#0000ff;" x="304.546544" xlink:href="#mafcd4414d3" y="392.800092"/>
     <use style="fill:#0000ff;stroke:#0000ff;" x="308.225645" xlink:href="#mafcd4414d3" y="393.83301"/>
     <use style="fill:#0000ff;stroke:#0000ff;" x="311.904855" xlink:href="#mafcd4414d3" y="394.757151"/>
     <use style="fill:#0000ff;stroke:#0000ff;" x="313.130727" xlink:href="#mafcd4414d3" y="395.043297"/>
     <use style="fill:#0000ff;stroke:#0000ff;" x="316.806666" xlink:href="#mafcd4414d3" y="395.840892"/>
     <use style="fill:#0000ff;stroke:#0000ff;" x="320.479365" xlink:href="#mafcd4414d3" y="396.557879"/>
     <use style="fill:#0000ff;stroke:#0000ff;" x="322.92513" xlink:href="#mafcd4414d3" y="396.98934"/>
     <use style="fill:#0000ff;stroke:#0000ff;" x="326.589356" xlink:href="#mafcd4414d3" y="397.574739"/>
     <use style="fill:#0000ff;stroke:#0000ff;" x="329.028404" xlink:href="#mafcd4414d3" y="397.923399"/>
     <use style="fill:#0000ff;stroke:#0000ff;" x="332.679696" xlink:href="#mafcd4414d3" y="398.371978"/>
     <use style="fill:#0000ff;stroke:#0000ff;" x="335.108917" xlink:href="#mafcd4414d3" y="398.625952"/>
     <use style="fill:#0000ff;stroke:#0000ff;" x="338.745372" xlink:href="#mafcd4414d3" y="398.93862"/>
     <use style="fill:#0000ff;stroke:#0000ff;" x="341.163567" xlink:href="#mafcd4414d3" y="399.102643"/>
     <use style="fill:#0000ff;stroke:#0000ff;" x="344.782331" xlink:href="#mafcd4414d3" y="399.275963"/>
     <use style="fill:#0000ff;stroke:#0000ff;" x="347.188636" xlink:href="#mafcd4414d3" y="399.345361"/>
     <use style="fill:#0000ff;stroke:#0000ff;" x="349.588295" xlink:href="#mafcd4414d3" y="399.381313"/>
     <use style="fill:#0000ff;stroke:#0000ff;" x="353.172211" xlink:href="#mafcd4414d3" y="399.354857"/>
     <use style="fill:#0000ff;stroke:#0000ff;" x="356.737274" xlink:href="#mafcd4414d3" y="399.239954"/>
     <use style="fill:#0000ff;stroke:#0000ff;" x="359.100885" xlink:href="#mafcd4414d3" y="399.112031"/>
     <use style="fill:#0000ff;stroke:#0000ff;" x="362.627057" xlink:href="#mafcd4414d3" y="398.853216"/>
     <use style="fill:#0000ff;stroke:#0000ff;" x="366.129209" xlink:href="#mafcd4414d3" y="398.517425"/>
     <use style="fill:#0000ff;stroke:#0000ff;" x="368.449276" xlink:href="#mafcd4414d3" y="398.235951"/>
     <use style="fill:#0000ff;stroke:#0000ff;" x="370.756405" xlink:href="#mafcd4414d3" y="397.909481"/>
     <use style="fill:#0000ff;stroke:#0000ff;" x="373.051354" xlink:href="#mafcd4414d3" y="397.537692"/>
     <use style="fill:#0000ff;stroke:#0000ff;" x="375.334369" xlink:href="#mafcd4414d3" y="397.124564"/>
     <use style="fill:#0000ff;stroke:#0000ff;" x="379.862424" xlink:href="#mafcd4414d3" y="396.191186"/>
     <use style="fill:#0000ff;stroke:#0000ff;" x="382.108539" xlink:href="#mafcd4414d3" y="395.679059"/>
     <use style="fill:#0000ff;stroke:#0000ff;" x="385.455049" xlink:href="#mafcd4414d3" y="394.866603"/>
     <use style="fill:#0000ff;stroke:#0000ff;" x="388.77477" xlink:href="#mafcd4414d3" y="393.997304"/>
     <use style="fill:#0000ff;stroke:#0000ff;" x="390.971972" xlink:href="#mafcd4414d3" y="393.383382"/>
     <use style="fill:#0000ff;stroke:#0000ff;" x="393.156528" xlink:href="#mafcd4414d3" y="392.724927"/>
     <use style="fill:#0000ff;stroke:#0000ff;" x="396.409156" xlink:href="#mafcd4414d3" y="391.665365"/>
     <use style="fill:#0000ff;stroke:#0000ff;" x="398.561579" xlink:href="#mafcd4414d3" y="390.903531"/>
     <use style="fill:#0000ff;stroke:#0000ff;" x="401.763818" xlink:href="#mafcd4414d3" y="389.671621"/>
     <use style="fill:#0000ff;stroke:#0000ff;" x="403.880628" xlink:href="#mafcd4414d3" y="388.795542"/>
     <use style="fill:#0000ff;stroke:#0000ff;" x="407.028926" xlink:href="#mafcd4414d3" y="387.406561"/>
     <use style="fill:#0000ff;stroke:#0000ff;" x="409.108735" xlink:href="#mafcd4414d3" y="386.427739"/>
     <use style="fill:#0000ff;stroke:#0000ff;" x="412.200324" xlink:href="#mafcd4414d3" y="384.885203"/>
     <use style="fill:#0000ff;stroke:#0000ff;" x="414.243372" xlink:href="#mafcd4414d3" y="383.807765"/>
     <use style="fill:#0000ff;stroke:#0000ff;" x="417.280156" xlink:href="#mafcd4414d3" y="382.12986"/>
     <use style="fill:#0000ff;stroke:#0000ff;" x="419.286382" xlink:href="#mafcd4414d3" y="380.968764"/>
     <use style="fill:#0000ff;stroke:#0000ff;" x="422.267957" xlink:href="#mafcd4414d3" y="379.164934"/>
     <use style="fill:#0000ff;stroke:#0000ff;" x="424.237232" xlink:href="#mafcd4414d3" y="377.924635"/>
     <use style="fill:#0000ff;stroke:#0000ff;" x="426.191351" xlink:href="#mafcd4414d3" y="376.649857"/>
     <use style="fill:#0000ff;stroke:#0000ff;" x="428.131158" xlink:href="#mafcd4414d3" y="375.348291"/>
     <use style="fill:#0000ff;stroke:#0000ff;" x="431.966354" xlink:href="#mafcd4414d3" y="372.651852"/>
     <use style="fill:#0000ff;stroke:#0000ff;" x="433.861304" xlink:href="#mafcd4414d3" y="371.248907"/>
     <use style="fill:#0000ff;stroke:#0000ff;" x="436.673868" xlink:href="#mafcd4414d3" y="369.075612"/>
     <use style="fill:#0000ff;stroke:#0000ff;" x="438.528969" xlink:href="#mafcd4414d3" y="367.582575"/>
     <use style="fill:#0000ff;stroke:#0000ff;" x="441.281401" xlink:href="#mafcd4414d3" y="365.278336"/>
     <use style="fill:#0000ff;stroke:#0000ff;" x="443.096351" xlink:href="#mafcd4414d3" y="363.697889"/>
     <use style="fill:#0000ff;stroke:#0000ff;" x="445.790592" xlink:href="#mafcd4414d3" y="361.266156"/>
     <use style="fill:#0000ff;stroke:#0000ff;" x="447.568564" xlink:href="#mafcd4414d3" y="359.609058"/>
     <use style="fill:#0000ff;stroke:#0000ff;" x="450.208258" xlink:href="#mafcd4414d3" y="357.070266"/>
     <use style="fill:#0000ff;stroke:#0000ff;" x="451.950463" xlink:href="#mafcd4414d3" y="355.348096"/>
     <use style="fill:#0000ff;stroke:#0000ff;" x="454.535804" xlink:href="#mafcd4414d3" y="352.705357"/>
     <use style="fill:#0000ff;stroke:#0000ff;" x="457.086261" xlink:href="#mafcd4414d3" y="349.991335"/>
     <use style="fill:#0000ff;stroke:#0000ff;" x="458.767544" xlink:href="#mafcd4414d3" y="348.143784"/>
     <use style="fill:#0000ff;stroke:#0000ff;" x="461.263323" xlink:href="#mafcd4414d3" y="345.312402"/>
     <use style="fill:#0000ff;stroke:#0000ff;" x="462.910043" xlink:href="#mafcd4414d3" y="343.391597"/>
     <use style="fill:#0000ff;stroke:#0000ff;" x="464.544571" xlink:href="#mafcd4414d3" y="341.443914"/>
     <use style="fill:#0000ff;stroke:#0000ff;" x="466.974672" xlink:href="#mafcd4414d3" y="338.464216"/>
     <use style="fill:#0000ff;stroke:#0000ff;" x="468.580935" xlink:href="#mafcd4414d3" y="336.432661"/>
     <use style="fill:#0000ff;stroke:#0000ff;" x="470.175425" xlink:href="#mafcd4414d3" y="334.344408"/>
     <use style="fill:#0000ff;stroke:#0000ff;" x="471.75801" xlink:href="#mafcd4414d3" y="332.200782"/>
     <use style="fill:#0000ff;stroke:#0000ff;" x="474.886748" xlink:href="#mafcd4414d3" y="327.732287"/>
     <use style="fill:#0000ff;stroke:#0000ff;" x="476.432642" xlink:href="#mafcd4414d3" y="325.419077"/>
     <use style="fill:#0000ff;stroke:#0000ff;" x="478.729231" xlink:href="#mafcd4414d3" y="321.858829"/>
     <use style="fill:#0000ff;stroke:#0000ff;" x="480.245199" xlink:href="#mafcd4414d3" y="319.41877"/>
     <use style="fill:#0000ff;stroke:#0000ff;" x="482.494215" xlink:href="#mafcd4414d3" y="315.652978"/>
     <use style="fill:#0000ff;stroke:#0000ff;" x="484.71217" xlink:href="#mafcd4414d3" y="311.754757"/>
     <use style="fill:#0000ff;stroke:#0000ff;" x="486.173705" xlink:href="#mafcd4414d3" y="309.088906"/>
     <use style="fill:#0000ff;stroke:#0000ff;" x="487.622236" xlink:href="#mafcd4414d3" y="306.37486"/>
     <use style="fill:#0000ff;stroke:#0000ff;" x="489.771448" xlink:href="#mafcd4414d3" y="302.218878"/>
     <use style="fill:#0000ff;stroke:#0000ff;" x="491.891043" xlink:href="#mafcd4414d3" y="297.966763"/>
     <use style="fill:#0000ff;stroke:#0000ff;" x="493.286912" xlink:href="#mafcd4414d3" y="295.072945"/>
     <use style="fill:#0000ff;stroke:#0000ff;" x="494.668414" xlink:href="#mafcd4414d3" y="292.132276"/>
     <use style="fill:#0000ff;stroke:#0000ff;" x="496.713061" xlink:href="#mafcd4414d3" y="287.634452"/>
     <use style="fill:#0000ff;stroke:#0000ff;" x="498.058671" xlink:href="#mafcd4414d3" y="284.582364"/>
     <use style="fill:#0000ff;stroke:#0000ff;" x="500.051892" xlink:href="#mafcd4414d3" y="279.925028"/>
     <use style="fill:#0000ff;stroke:#0000ff;" x="502.017968" xlink:href="#mafcd4414d3" y="275.171301"/>
     <use style="fill:#0000ff;stroke:#0000ff;" x="503.315138" xlink:href="#mafcd4414d3" y="271.951204"/>
     <use style="fill:#0000ff;stroke:#0000ff;" x="504.601341" xlink:href="#mafcd4414d3" y="268.690424"/>
     <use style="fill:#0000ff;stroke:#0000ff;" x="505.876494" xlink:href="#mafcd4414d3" y="265.386616"/>
     <use style="fill:#0000ff;stroke:#0000ff;" x="507.768528" xlink:href="#mafcd4414d3" y="260.347414"/>
     <use style="fill:#0000ff;stroke:#0000ff;" x="509.635248" xlink:href="#mafcd4414d3" y="255.21439"/>
     <use style="fill:#0000ff;stroke:#0000ff;" x="510.865922" xlink:href="#mafcd4414d3" y="251.74766"/>
     <use style="fill:#0000ff;stroke:#0000ff;" x="512.692892" xlink:href="#mafcd4414d3" y="246.487955"/>
     <use style="fill:#0000ff;stroke:#0000ff;" x="513.898906" xlink:href="#mafcd4414d3" y="242.941766"/>
     <use style="fill:#0000ff;stroke:#0000ff;" x="515.691493" xlink:href="#mafcd4414d3" y="237.567097"/>
     <use style="fill:#0000ff;stroke:#0000ff;" x="516.878183" xlink:href="#mafcd4414d3" y="233.937441"/>
     <use style="fill:#0000ff;stroke:#0000ff;" x="518.647035" xlink:href="#mafcd4414d3" y="228.423126"/>
     <use style="fill:#0000ff;stroke:#0000ff;" x="519.819986" xlink:href="#mafcd4414d3" y="224.695889"/>
     <use style="fill:#0000ff;stroke:#0000ff;" x="521.570907" xlink:href="#mafcd4414d3" y="219.033303"/>
     <use style="fill:#0000ff;stroke:#0000ff;" x="523.31165" xlink:href="#mafcd4414d3" y="213.294886"/>
     <use style="fill:#0000ff;stroke:#0000ff;" x="524.467287" xlink:href="#mafcd4414d3" y="209.428776"/>
     <use style="fill:#0000ff;stroke:#0000ff;" x="525.619043" xlink:href="#mafcd4414d3" y="205.53127"/>
     <use style="fill:#0000ff;stroke:#0000ff;" x="527.339458" xlink:href="#mafcd4414d3" y="199.62777"/>
     <use style="fill:#0000ff;stroke:#0000ff;" x="528.48129" xlink:href="#mafcd4414d3" y="195.660106"/>
     <use style="fill:#0000ff;stroke:#0000ff;" x="530.185349" xlink:href="#mafcd4414d3" y="189.6487"/>
     <use style="fill:#0000ff;stroke:#0000ff;" x="531.313939" xlink:href="#mafcd4414d3" y="185.606619"/>
     <use style="fill:#0000ff;stroke:#0000ff;" x="532.994609" xlink:href="#mafcd4414d3" y="179.498419"/>
     <use style="fill:#0000ff;stroke:#0000ff;" x="534.663127" xlink:href="#mafcd4414d3" y="173.34934"/>
     <use style="fill:#0000ff;stroke:#0000ff;" x="535.216979" xlink:href="#mafcd4414d3" y="171.293342"/>
     <use style="fill:#0000ff;stroke:#0000ff;" x="536.321338" xlink:href="#mafcd4414d3" y="167.176144"/>
     <use style="fill:#0000ff;stroke:#0000ff;" x="538.522481" xlink:href="#mafcd4414d3" y="158.918886"/>
     <use style="fill:#0000ff;stroke:#0000ff;" x="539.620432" xlink:href="#mafcd4414d3" y="154.795686"/>
     <use style="fill:#0000ff;stroke:#0000ff;" x="541.26356" xlink:href="#mafcd4414d3" y="148.628309"/>
     <use style="fill:#0000ff;stroke:#0000ff;" x="542.356703" xlink:href="#mafcd4414d3" y="144.530986"/>
     <use style="fill:#0000ff;stroke:#0000ff;" x="543.99346" xlink:href="#mafcd4414d3" y="138.415526"/>
     <use style="fill:#0000ff;stroke:#0000ff;" x="545.627679" xlink:href="#mafcd4414d3" y="132.321711"/>
     <use style="fill:#0000ff;stroke:#0000ff;" x="546.716138" xlink:href="#mafcd4414d3" y="128.266605"/>
     <use style="fill:#0000ff;stroke:#0000ff;" x="548.344889" xlink:href="#mafcd4414d3" y="122.180723"/>
     <use style="fill:#0000ff;stroke:#0000ff;" x="549.42761" xlink:href="#mafcd4414d3" y="118.116254"/>
     <use style="fill:#0000ff;stroke:#0000ff;" x="550.508776" xlink:href="#mafcd4414d3" y="114.042606"/>
     <use style="fill:#0000ff;stroke:#0000ff;" x="552.129414" xlink:href="#mafcd4414d3" y="107.895338"/>
     <use style="fill:#0000ff;stroke:#0000ff;" x="553.209923" xlink:href="#mafcd4414d3" y="103.778218"/>
     <use style="fill:#0000ff;stroke:#0000ff;" x="554.830962" xlink:href="#mafcd4414d3" y="97.571141"/>
     <use style="fill:#0000ff;stroke:#0000ff;" x="555.912663" xlink:href="#mafcd4414d3" y="93.41309"/>
     <use style="fill:#0000ff;stroke:#0000ff;" x="557.536949" xlink:href="#mafcd4414d3" y="87.148615"/>
     <use style="fill:#0000ff;stroke:#0000ff;" x="558.621741" xlink:href="#mafcd4414d3" y="82.955059"/>
     <use style="fill:#0000ff;stroke:#0000ff;" x="560.253596" xlink:href="#mafcd4414d3" y="76.645309"/>
     <use style="fill:#0000ff;stroke:#0000ff;" x="561.344461" xlink:href="#mafcd4414d3" y="72.42193"/>
    </g>
   </g>
   <g id="matplotlib.axis_1">
    <g id="xtick_1">
     <g id="line2d_1">
      <defs>
       <path d="M 0 0 
L 0 3.5 
" id="mec1d3ebbfd" style="stroke:#000000;stroke-width:0.8;"/>
      </defs>
      <g>
       <use style="stroke:#000000;stroke-width:0.8;" x="136.5" xlink:href="#mec1d3ebbfd" y="512.64"/>
      </g>
     </g>
     <g id="text_1">
      <!-- −340 -->
      <defs>
       <path d="M 10.59375 35.5 
L 73.1875 35.5 
L 73.1875 27.203125 
L 10.59375 27.203125 
z
" id="DejaVuSans-8722"/>
       <path d="M 40.578125 39.3125 
Q 47.65625 37.796875 51.625 33 
Q 55.609375 28.21875 55.609375 21.1875 
Q 55.609375 10.40625 48.1875 4.484375 
Q 40.765625 -1.421875 27.09375 -1.421875 
Q 22.515625 -1.421875 17.65625 -0.515625 
Q 12.796875 0.390625 7.625 2.203125 
L 7.625 11.71875 
Q 11.71875 9.328125 16.59375 8.109375 
Q 21.484375 6.890625 26.8125 6.890625 
Q 36.078125 6.890625 40.9375 10.546875 
Q 45.796875 14.203125 45.796875 21.1875 
Q 45.796875 27.640625 41.28125 31.265625 
Q 36.765625 34.90625 28.71875 34.90625 
L 20.21875 34.90625 
L 20.21875 43.015625 
L 29.109375 43.015625 
Q 36.375 43.015625 40.234375 45.921875 
Q 44.09375 48.828125 44.09375 54.296875 
Q 44.09375 59.90625 40.109375 62.90625 
Q 36.140625 65.921875 28.71875 65.921875 
Q 24.65625 65.921875 20.015625 65.03125 
Q 15.375 64.15625 9.8125 62.3125 
L 9.8125 71.09375 
Q 15.4375 72.65625 20.34375 73.4375 
Q 25.25 74.21875 29.59375 74.21875 
Q 40.828125 74.21875 47.359375 69.109375 
Q 53.90625 64.015625 53.90625 55.328125 
Q 53.90625 49.265625 50.4375 45.09375 
Q 46.96875 40.921875 40.578125 39.3125 
z
" id="DejaVuSans-51"/>
       <path d="M 37.796875 64.3125 
L 12.890625 25.390625 
L 37.796875 25.390625 
z
M 35.203125 72.90625 
L 47.609375 72.90625 
L 47.609375 25.390625 
L 58.015625 25.390625 
L 58.015625 17.1875 
L 47.609375 17.1875 
L 47.609375 0 
L 37.796875 0 
L 37.796875 17.1875 
L 4.890625 17.1875 
L 4.890625 26.703125 
z
" id="DejaVuSans-52"/>
       <path d="M 31.78125 66.40625 
Q 24.171875 66.40625 20.328125 58.90625 
Q 16.5 51.421875 16.5 36.375 
Q 16.5 21.390625 20.328125 13.890625 
Q 24.171875 6.390625 31.78125 6.390625 
Q 39.453125 6.390625 43.28125 13.890625 
Q 47.125 21.390625 47.125 36.375 
Q 47.125 51.421875 43.28125 58.90625 
Q 39.453125 66.40625 31.78125 66.40625 
z
M 31.78125 74.21875 
Q 44.046875 74.21875 50.515625 64.515625 
Q 56.984375 54.828125 56.984375 36.375 
Q 56.984375 17.96875 50.515625 8.265625 
Q 44.046875 -1.421875 31.78125 -1.421875 
Q 19.53125 -1.421875 13.0625 8.265625 
Q 6.59375 17.96875 6.59375 36.375 
Q 6.59375 54.828125 13.0625 64.515625 
Q 19.53125 74.21875 31.78125 74.21875 
z
" id="DejaVuSans-48"/>
      </defs>
      <g transform="translate(122.766406 527.238438)scale(0.1 -0.1)">
       <use xlink:href="#DejaVuSans-8722"/>
       <use x="83.789062" xlink:href="#DejaVuSans-51"/>
       <use x="147.412109" xlink:href="#DejaVuSans-52"/>
       <use x="211.035156" xlink:href="#DejaVuSans-48"/>
      </g>
     </g>
    </g>
    <g id="xtick_2">
     <g id="line2d_2">
      <g>
       <use style="stroke:#000000;stroke-width:0.8;" x="229.5" xlink:href="#mec1d3ebbfd" y="512.64"/>
      </g>
     </g>
     <g id="text_2">
      <!-- −320 -->
      <defs>
       <path d="M 19.1875 8.296875 
L 53.609375 8.296875 
L 53.609375 0 
L 7.328125 0 
L 7.328125 8.296875 
Q 12.9375 14.109375 22.625 23.890625 
Q 32.328125 33.6875 34.8125 36.53125 
Q 39.546875 41.84375 41.421875 45.53125 
Q 43.3125 49.21875 43.3125 52.78125 
Q 43.3125 58.59375 39.234375 62.25 
Q 35.15625 65.921875 28.609375 65.921875 
Q 23.96875 65.921875 18.8125 64.3125 
Q 13.671875 62.703125 7.8125 59.421875 
L 7.8125 69.390625 
Q 13.765625 71.78125 18.9375 73 
Q 24.125 74.21875 28.421875 74.21875 
Q 39.75 74.21875 46.484375 68.546875 
Q 53.21875 62.890625 53.21875 53.421875 
Q 53.21875 48.921875 51.53125 44.890625 
Q 49.859375 40.875 45.40625 35.40625 
Q 44.1875 33.984375 37.640625 27.21875 
Q 31.109375 20.453125 19.1875 8.296875 
z
" id="DejaVuSans-50"/>
      </defs>
      <g transform="translate(215.766406 527.238438)scale(0.1 -0.1)">
       <use xlink:href="#DejaVuSans-8722"/>
       <use x="83.789062" xlink:href="#DejaVuSans-51"/>
       <use x="147.412109" xlink:href="#DejaVuSans-50"/>
       <use x="211.035156" xlink:href="#DejaVuSans-48"/>
      </g>
     </g>
    </g>
    <g id="xtick_3">
     <g id="line2d_3">
      <g>
       <use style="stroke:#000000;stroke-width:0.8;" x="322.5" xlink:href="#mec1d3ebbfd" y="512.64"/>
      </g>
     </g>
     <g id="text_3">
      <!-- −300 -->
      <g transform="translate(308.766406 527.238438)scale(0.1 -0.1)">
       <use xlink:href="#DejaVuSans-8722"/>
       <use x="83.789062" xlink:href="#DejaVuSans-51"/>
       <use x="147.412109" xlink:href="#DejaVuSans-48"/>
       <use x="211.035156" xlink:href="#DejaVuSans-48"/>
      </g>
     </g>
    </g>
    <g id="xtick_4">
     <g id="line2d_4">
      <g>
       <use style="stroke:#000000;stroke-width:0.8;" x="415.5" xlink:href="#mec1d3ebbfd" y="512.64"/>
      </g>
     </g>
     <g id="text_4">
      <!-- −280 -->
      <defs>
       <path d="M 31.78125 34.625 
Q 24.75 34.625 20.71875 30.859375 
Q 16.703125 27.09375 16.703125 20.515625 
Q 16.703125 13.921875 20.71875 10.15625 
Q 24.75 6.390625 31.78125 6.390625 
Q 38.8125 6.390625 42.859375 10.171875 
Q 46.921875 13.96875 46.921875 20.515625 
Q 46.921875 27.09375 42.890625 30.859375 
Q 38.875 34.625 31.78125 34.625 
z
M 21.921875 38.8125 
Q 15.578125 40.375 12.03125 44.71875 
Q 8.5 49.078125 8.5 55.328125 
Q 8.5 64.0625 14.71875 69.140625 
Q 20.953125 74.21875 31.78125 74.21875 
Q 42.671875 74.21875 48.875 69.140625 
Q 55.078125 64.0625 55.078125 55.328125 
Q 55.078125 49.078125 51.53125 44.71875 
Q 48 40.375 41.703125 38.8125 
Q 48.828125 37.15625 52.796875 32.3125 
Q 56.78125 27.484375 56.78125 20.515625 
Q 56.78125 9.90625 50.3125 4.234375 
Q 43.84375 -1.421875 31.78125 -1.421875 
Q 19.734375 -1.421875 13.25 4.234375 
Q 6.78125 9.90625 6.78125 20.515625 
Q 6.78125 27.484375 10.78125 32.3125 
Q 14.796875 37.15625 21.921875 38.8125 
z
M 18.3125 54.390625 
Q 18.3125 48.734375 21.84375 45.5625 
Q 25.390625 42.390625 31.78125 42.390625 
Q 38.140625 42.390625 41.71875 45.5625 
Q 45.3125 48.734375 45.3125 54.390625 
Q 45.3125 60.0625 41.71875 63.234375 
Q 38.140625 66.40625 31.78125 66.40625 
Q 25.390625 66.40625 21.84375 63.234375 
Q 18.3125 60.0625 18.3125 54.390625 
z
" id="DejaVuSans-56"/>
      </defs>
      <g transform="translate(401.766406 527.238438)scale(0.1 -0.1)">
       <use xlink:href="#DejaVuSans-8722"/>
       <use x="83.789062" xlink:href="#DejaVuSans-50"/>
       <use x="147.412109" xlink:href="#DejaVuSans-56"/>
       <use x="211.035156" xlink:href="#DejaVuSans-48"/>
      </g>
     </g>
    </g>
    <g id="xtick_5">
     <g id="line2d_5">
      <g>
       <use style="stroke:#000000;stroke-width:0.8;" x="508.5" xlink:href="#mec1d3ebbfd" y="512.64"/>
      </g>
     </g>
     <g id="text_5">
      <!-- −260 -->
      <defs>
       <path d="M 33.015625 40.375 
Q 26.375 40.375 22.484375 35.828125 
Q 18.609375 31.296875 18.609375 23.390625 
Q 18.609375 15.53125 22.484375 10.953125 
Q 26.375 6.390625 33.015625 6.390625 
Q 39.65625 6.390625 43.53125 10.953125 
Q 47.40625 15.53125 47.40625 23.390625 
Q 47.40625 31.296875 43.53125 35.828125 
Q 39.65625 40.375 33.015625 40.375 
z
M 52.59375 71.296875 
L 52.59375 62.3125 
Q 48.875 64.0625 45.09375 64.984375 
Q 41.3125 65.921875 37.59375 65.921875 
Q 27.828125 65.921875 22.671875 59.328125 
Q 17.53125 52.734375 16.796875 39.40625 
Q 19.671875 43.65625 24.015625 45.921875 
Q 28.375 48.1875 33.59375 48.1875 
Q 44.578125 48.1875 50.953125 41.515625 
Q 57.328125 34.859375 57.328125 23.390625 
Q 57.328125 12.15625 50.6875 5.359375 
Q 44.046875 -1.421875 33.015625 -1.421875 
Q 20.359375 -1.421875 13.671875 8.265625 
Q 6.984375 17.96875 6.984375 36.375 
Q 6.984375 53.65625 15.1875 63.9375 
Q 23.390625 74.21875 37.203125 74.21875 
Q 40.921875 74.21875 44.703125 73.484375 
Q 48.484375 72.75 52.59375 71.296875 
z
" id="DejaVuSans-54"/>
      </defs>
      <g transform="translate(494.766406 527.238438)scale(0.1 -0.1)">
       <use xlink:href="#DejaVuSans-8722"/>
       <use x="83.789062" xlink:href="#DejaVuSans-50"/>
       <use x="147.412109" xlink:href="#DejaVuSans-54"/>
       <use x="211.035156" xlink:href="#DejaVuSans-48"/>
      </g>
     </g>
    </g>
    <g id="xtick_6">
     <g id="line2d_6">
      <g>
       <use style="stroke:#000000;stroke-width:0.8;" x="601.5" xlink:href="#mec1d3ebbfd" y="512.64"/>
      </g>
     </g>
     <g id="text_6">
      <!-- −240 -->
      <g transform="translate(587.766406 527.238438)scale(0.1 -0.1)">
       <use xlink:href="#DejaVuSans-8722"/>
       <use x="83.789062" xlink:href="#DejaVuSans-50"/>
       <use x="147.412109" xlink:href="#DejaVuSans-52"/>
       <use x="211.035156" xlink:href="#DejaVuSans-48"/>
      </g>
     </g>
    </g>
    <g id="text_7">
     <!-- x (m) -->
     <defs>
      <path d="M 54.890625 54.6875 
L 35.109375 28.078125 
L 55.90625 0 
L 45.3125 0 
L 29.390625 21.484375 
L 13.484375 0 
L 2.875 0 
L 24.125 28.609375 
L 4.6875 54.6875 
L 15.28125 54.6875 
L 29.78125 35.203125 
L 44.28125 54.6875 
z
" id="DejaVuSans-120"/>
      <path id="DejaVuSans-32"/>
      <path d="M 31 75.875 
Q 24.46875 64.65625 21.28125 53.65625 
Q 18.109375 42.671875 18.109375 31.390625 
Q 18.109375 20.125 21.3125 9.0625 
Q 24.515625 -2 31 -13.1875 
L 23.1875 -13.1875 
Q 15.875 -1.703125 12.234375 9.375 
Q 8.59375 20.453125 8.59375 31.390625 
Q 8.59375 42.28125 12.203125 53.3125 
Q 15.828125 64.359375 23.1875 75.875 
z
" id="DejaVuSans-40"/>
      <path d="M 52 44.1875 
Q 55.375 50.25 60.0625 53.125 
Q 64.75 56 71.09375 56 
Q 79.640625 56 84.28125 50.015625 
Q 88.921875 44.046875 88.921875 33.015625 
L 88.921875 0 
L 79.890625 0 
L 79.890625 32.71875 
Q 79.890625 40.578125 77.09375 44.375 
Q 74.3125 48.1875 68.609375 48.1875 
Q 61.625 48.1875 57.5625 43.546875 
Q 53.515625 38.921875 53.515625 30.90625 
L 53.515625 0 
L 44.484375 0 
L 44.484375 32.71875 
Q 44.484375 40.625 41.703125 44.40625 
Q 38.921875 48.1875 33.109375 48.1875 
Q 26.21875 48.1875 22.15625 43.53125 
Q 18.109375 38.875 18.109375 30.90625 
L 18.109375 0 
L 9.078125 0 
L 9.078125 54.6875 
L 18.109375 54.6875 
L 18.109375 46.1875 
Q 21.1875 51.21875 25.484375 53.609375 
Q 29.78125 56 35.6875 56 
Q 41.65625 56 45.828125 52.96875 
Q 50 49.953125 52 44.1875 
z
" id="DejaVuSans-109"/>
      <path d="M 8.015625 75.875 
L 15.828125 75.875 
Q 23.140625 64.359375 26.78125 53.3125 
Q 30.421875 42.28125 30.421875 31.390625 
Q 30.421875 20.453125 26.78125 9.375 
Q 23.140625 -1.703125 15.828125 -13.1875 
L 8.015625 -13.1875 
Q 14.5 -2 17.703125 9.0625 
Q 20.90625 20.125 20.90625 31.390625 
Q 20.90625 42.671875 17.703125 53.65625 
Q 14.5 64.65625 8.015625 75.875 
z
" id="DejaVuSans-41"/>
     </defs>
     <g transform="translate(355.679688 540.916563)scale(0.1 -0.1)">
      <use xlink:href="#DejaVuSans-120"/>
      <use x="59.179688" xlink:href="#DejaVuSans-32"/>
      <use x="90.966797" xlink:href="#DejaVuSans-40"/>
      <use x="129.980469" xlink:href="#DejaVuSans-109"/>
      <use x="227.392578" xlink:href="#DejaVuSans-41"/>
     </g>
    </g>
   </g>
   <g id="matplotlib.axis_2">
    <g id="ytick_1">
     <g id="line2d_7">
      <defs>
       <path d="M 0 0 
L -3.5 0 
" id="md12b26606d" style="stroke:#000000;stroke-width:0.8;"/>
      </defs>
      <g>
       <use style="stroke:#000000;stroke-width:0.8;" x="90" xlink:href="#md12b26606d" y="512.64"/>
      </g>
     </g>
     <g id="text_8">
      <!-- −310 -->
      <defs>
       <path d="M 12.40625 8.296875 
L 28.515625 8.296875 
L 28.515625 63.921875 
L 10.984375 60.40625 
L 10.984375 69.390625 
L 28.421875 72.90625 
L 38.28125 72.90625 
L 38.28125 8.296875 
L 54.390625 8.296875 
L 54.390625 0 
L 12.40625 0 
z
" id="DejaVuSans-49"/>
      </defs>
      <g transform="translate(55.532812 516.439219)scale(0.1 -0.1)">
       <use xlink:href="#DejaVuSans-8722"/>
       <use x="83.789062" xlink:href="#DejaVuSans-51"/>
       <use x="147.412109" xlink:href="#DejaVuSans-49"/>
       <use x="211.035156" xlink:href="#DejaVuSans-48"/>
      </g>
     </g>
    </g>
    <g id="ytick_2">
     <g id="line2d_8">
      <g>
       <use style="stroke:#000000;stroke-width:0.8;" x="90" xlink:href="#md12b26606d" y="438.72"/>
      </g>
     </g>
     <g id="text_9">
      <!-- −305 -->
      <defs>
       <path d="M 10.796875 72.90625 
L 49.515625 72.90625 
L 49.515625 64.59375 
L 19.828125 64.59375 
L 19.828125 46.734375 
Q 21.96875 47.46875 24.109375 47.828125 
Q 26.265625 48.1875 28.421875 48.1875 
Q 40.625 48.1875 47.75 41.5 
Q 54.890625 34.8125 54.890625 23.390625 
Q 54.890625 11.625 47.5625 5.09375 
Q 40.234375 -1.421875 26.90625 -1.421875 
Q 22.3125 -1.421875 17.546875 -0.640625 
Q 12.796875 0.140625 7.71875 1.703125 
L 7.71875 11.625 
Q 12.109375 9.234375 16.796875 8.0625 
Q 21.484375 6.890625 26.703125 6.890625 
Q 35.15625 6.890625 40.078125 11.328125 
Q 45.015625 15.765625 45.015625 23.390625 
Q 45.015625 31 40.078125 35.4375 
Q 35.15625 39.890625 26.703125 39.890625 
Q 22.75 39.890625 18.8125 39.015625 
Q 14.890625 38.140625 10.796875 36.28125 
z
" id="DejaVuSans-53"/>
      </defs>
      <g transform="translate(55.532812 442.519219)scale(0.1 -0.1)">
       <use xlink:href="#DejaVuSans-8722"/>
       <use x="83.789062" xlink:href="#DejaVuSans-51"/>
       <use x="147.412109" xlink:href="#DejaVuSans-48"/>
       <use x="211.035156" xlink:href="#DejaVuSans-53"/>
      </g>
     </g>
    </g>
    <g id="ytick_3">
     <g id="line2d_9">
      <g>
       <use style="stroke:#000000;stroke-width:0.8;" x="90" xlink:href="#md12b26606d" y="364.8"/>
      </g>
     </g>
     <g id="text_10">
      <!-- −300 -->
      <g transform="translate(55.532812 368.599219)scale(0.1 -0.1)">
       <use xlink:href="#DejaVuSans-8722"/>
       <use x="83.789062" xlink:href="#DejaVuSans-51"/>
       <use x="147.412109" xlink:href="#DejaVuSans-48"/>
       <use x="211.035156" xlink:href="#DejaVuSans-48"/>
      </g>
     </g>
    </g>
    <g id="ytick_4">
     <g id="line2d_10">
      <g>
       <use style="stroke:#000000;stroke-width:0.8;" x="90" xlink:href="#md12b26606d" y="290.88"/>
      </g>
     </g>
     <g id="text_11">
      <!-- −295 -->
      <defs>
       <path d="M 10.984375 1.515625 
L 10.984375 10.5 
Q 14.703125 8.734375 18.5 7.8125 
Q 22.3125 6.890625 25.984375 6.890625 
Q 35.75 6.890625 40.890625 13.453125 
Q 46.046875 20.015625 46.78125 33.40625 
Q 43.953125 29.203125 39.59375 26.953125 
Q 35.25 24.703125 29.984375 24.703125 
Q 19.046875 24.703125 12.671875 31.3125 
Q 6.296875 37.9375 6.296875 49.421875 
Q 6.296875 60.640625 12.9375 67.421875 
Q 19.578125 74.21875 30.609375 74.21875 
Q 43.265625 74.21875 49.921875 64.515625 
Q 56.59375 54.828125 56.59375 36.375 
Q 56.59375 19.140625 48.40625 8.859375 
Q 40.234375 -1.421875 26.421875 -1.421875 
Q 22.703125 -1.421875 18.890625 -0.6875 
Q 15.09375 0.046875 10.984375 1.515625 
z
M 30.609375 32.421875 
Q 37.25 32.421875 41.125 36.953125 
Q 45.015625 41.5 45.015625 49.421875 
Q 45.015625 57.28125 41.125 61.84375 
Q 37.25 66.40625 30.609375 66.40625 
Q 23.96875 66.40625 20.09375 61.84375 
Q 16.21875 57.28125 16.21875 49.421875 
Q 16.21875 41.5 20.09375 36.953125 
Q 23.96875 32.421875 30.609375 32.421875 
z
" id="DejaVuSans-57"/>
      </defs>
      <g transform="translate(55.532812 294.679219)scale(0.1 -0.1)">
       <use xlink:href="#DejaVuSans-8722"/>
       <use x="83.789062" xlink:href="#DejaVuSans-50"/>
       <use x="147.412109" xlink:href="#DejaVuSans-57"/>
       <use x="211.035156" xlink:href="#DejaVuSans-53"/>
      </g>
     </g>
    </g>
    <g id="ytick_5">
     <g id="line2d_11">
      <g>
       <use style="stroke:#000000;stroke-width:0.8;" x="90" xlink:href="#md12b26606d" y="216.96"/>
      </g>
     </g>
     <g id="text_12">
      <!-- −290 -->
      <g transform="translate(55.532812 220.759219)scale(0.1 -0.1)">
       <use xlink:href="#DejaVuSans-8722"/>
       <use x="83.789062" xlink:href="#DejaVuSans-50"/>
       <use x="147.412109" xlink:href="#DejaVuSans-57"/>
       <use x="211.035156" xlink:href="#DejaVuSans-48"/>
      </g>
     </g>
    </g>
    <g id="ytick_6">
     <g id="line2d_12">
      <g>
       <use style="stroke:#000000;stroke-width:0.8;" x="90" xlink:href="#md12b26606d" y="143.04"/>
      </g>
     </g>
     <g id="text_13">
      <!-- −285 -->
      <g transform="translate(55.532812 146.839219)scale(0.1 -0.1)">
       <use xlink:href="#DejaVuSans-8722"/>
       <use x="83.789062" xlink:href="#DejaVuSans-50"/>
       <use x="147.412109" xlink:href="#DejaVuSans-56"/>
       <use x="211.035156" xlink:href="#DejaVuSans-53"/>
      </g>
     </g>
    </g>
    <g id="ytick_7">
     <g id="line2d_13">
      <g>
       <use style="stroke:#000000;stroke-width:0.8;" x="90" xlink:href="#md12b26606d" y="69.12"/>
      </g>
     </g>
     <g id="text_14">
      <!-- −280 -->
      <g transform="translate(55.532812 72.919219)scale(0.1 -0.1)">
       <use xlink:href="#DejaVuSans-8722"/>
       <use x="83.789062" xlink:href="#DejaVuSans-50"/>
       <use x="147.412109" xlink:href="#DejaVuSans-56"/>
       <use x="211.035156" xlink:href="#DejaVuSans-48"/>
      </g>
     </g>
    </g>
    <g id="text_15">
     <!-- y (m) -->
     <defs>
      <path d="M 32.171875 -5.078125 
Q 28.375 -14.84375 24.75 -17.8125 
Q 21.140625 -20.796875 15.09375 -20.796875 
L 7.90625 -20.796875 
L 7.90625 -13.28125 
L 13.1875 -13.28125 
Q 16.890625 -13.28125 18.9375 -11.515625 
Q 21 -9.765625 23.484375 -3.21875 
L 25.09375 0.875 
L 2.984375 54.6875 
L 12.5 54.6875 
L 29.59375 11.921875 
L 46.6875 54.6875 
L 56.203125 54.6875 
z
" id="DejaVuSans-121"/>
     </defs>
     <g transform="translate(49.453125 304.200312)rotate(-90)scale(0.1 -0.1)">
      <use xlink:href="#DejaVuSans-121"/>
      <use x="59.179688" xlink:href="#DejaVuSans-32"/>
      <use x="90.966797" xlink:href="#DejaVuSans-40"/>
      <use x="129.980469" xlink:href="#DejaVuSans-109"/>
      <use x="227.392578" xlink:href="#DejaVuSans-41"/>
     </g>
    </g>
   </g>
   <g id="line2d_14">
    <path clip-path="url(#pca1e74c1fd)" d="M 115.599772 -1 
L 126.711901 63.97402 
L 139.125507 135.044645 
L 147.122807 179.982432 
L 151.861109 205.234299 
L 155.589431 223.743055 
L 158.189831 235.792609 
L 160.899329 247.557158 
L 163.729481 258.993299 
L 166.688481 270.06094 
L 169.781115 280.723777 
L 173.009038 290.949266 
L 176.37125 300.708306 
L 179.864637 309.974916 
L 183.484489 318.726203 
L 187.224931 326.942854 
L 191.07921 334.610305 
L 195.039863 341.720485 
L 199.098793 348.273884 
L 203.247296 354.281485 
L 207.476113 359.766017 
L 211.775546 364.762054 
L 216.135666 369.314732 
L 220.546621 373.477101 
L 224.998979 377.306577 
L 229.48408 380.860948 
L 233.994314 384.194609 
L 240.793182 388.883885 
L 247.618456 393.307378 
L 256.743249 398.918726 
L 265.88649 404.254723 
L 272.754598 408.059241 
L 279.632578 411.659825 
L 286.521445 415.0225 
L 293.421838 418.123 
L 300.333655 420.955337 
L 307.255939 423.535708 
L 314.186982 425.900976 
L 323.438248 428.807432 
L 337.32624 432.870742 
L 351.218141 436.72031 
L 360.480732 439.05367 
L 367.429429 440.556876 
L 372.063182 441.391621 
L 376.698152 442.064062 
L 381.334351 442.554985 
L 385.971611 442.851159 
L 390.609554 442.945233 
L 395.247551 442.834441 
L 399.884697 442.518388 
L 404.51977 441.996328 
L 409.151173 441.264422 
L 413.776871 440.313535 
L 418.394322 439.127854 
L 423.000407 437.684435 
L 427.591411 435.953881 
L 432.163024 433.901942 
L 436.710415 431.491897 
L 441.228336 428.687394 
L 445.711245 425.455256 
L 450.15341 421.767775 
L 454.548956 417.604063 
L 458.891858 412.950263 
L 463.175891 407.798703 
L 467.394607 402.146457 
L 471.541414 395.993858 
L 475.609826 389.343634 
L 479.593902 382.201067 
L 483.488855 374.575112 
L 487.291713 366.480137 
L 491.001896 357.937639 
L 494.621575 348.977276 
L 498.155697 339.63674 
L 501.611659 329.960292 
L 506.669499 314.921852 
L 511.606786 299.400335 
L 518.058476 278.201635 
L 525.991787 251.230636 
L 535.391461 218.475396 
L 546.218603 179.851553 
L 556.912003 140.846844 
L 573.558692 79.114495 
L 595.012163 -1 
L 595.012163 -1 
" style="fill:none;stroke:#008000;stroke-linecap:square;stroke-width:1.5;"/>
   </g>
   <g id="patch_3">
    <path d="M 90 512.64 
L 90 69.12 
" style="fill:none;stroke:#000000;stroke-linecap:square;stroke-linejoin:miter;stroke-width:0.8;"/>
   </g>
   <g id="patch_4">
    <path d="M 648 512.64 
L 648 69.12 
" style="fill:none;stroke:#000000;stroke-linecap:square;stroke-linejoin:miter;stroke-width:0.8;"/>
   </g>
   <g id="patch_5">
    <path d="M 90 512.64 
L 648 512.64 
" style="fill:none;stroke:#000000;stroke-linecap:square;stroke-linejoin:miter;stroke-width:0.8;"/>
   </g>
   <g id="patch_6">
    <path d="M 90 69.12 
L 648 69.12 
" style="fill:none;stroke:#000000;stroke-linecap:square;stroke-linejoin:miter;stroke-width:0.8;"/>
   </g>
   <g id="text_16">
    <!-- Vehicle Data vs Ground Truth Path -->
    <defs>
     <path d="M 28.609375 0 
L 0.78125 72.90625 
L 11.078125 72.90625 
L 34.1875 11.53125 
L 57.328125 72.90625 
L 67.578125 72.90625 
L 39.796875 0 
z
" id="DejaVuSans-86"/>
     <path d="M 56.203125 29.59375 
L 56.203125 25.203125 
L 14.890625 25.203125 
Q 15.484375 15.921875 20.484375 11.0625 
Q 25.484375 6.203125 34.421875 6.203125 
Q 39.59375 6.203125 44.453125 7.46875 
Q 49.3125 8.734375 54.109375 11.28125 
L 54.109375 2.78125 
Q 49.265625 0.734375 44.1875 -0.34375 
Q 39.109375 -1.421875 33.890625 -1.421875 
Q 20.796875 -1.421875 13.15625 6.1875 
Q 5.515625 13.8125 5.515625 26.8125 
Q 5.515625 40.234375 12.765625 48.109375 
Q 20.015625 56 32.328125 56 
Q 43.359375 56 49.78125 48.890625 
Q 56.203125 41.796875 56.203125 29.59375 
z
M 47.21875 32.234375 
Q 47.125 39.59375 43.09375 43.984375 
Q 39.0625 48.390625 32.421875 48.390625 
Q 24.90625 48.390625 20.390625 44.140625 
Q 15.875 39.890625 15.1875 32.171875 
z
" id="DejaVuSans-101"/>
     <path d="M 54.890625 33.015625 
L 54.890625 0 
L 45.90625 0 
L 45.90625 32.71875 
Q 45.90625 40.484375 42.875 44.328125 
Q 39.84375 48.1875 33.796875 48.1875 
Q 26.515625 48.1875 22.3125 43.546875 
Q 18.109375 38.921875 18.109375 30.90625 
L 18.109375 0 
L 9.078125 0 
L 9.078125 75.984375 
L 18.109375 75.984375 
L 18.109375 46.1875 
Q 21.34375 51.125 25.703125 53.5625 
Q 30.078125 56 35.796875 56 
Q 45.21875 56 50.046875 50.171875 
Q 54.890625 44.34375 54.890625 33.015625 
z
" id="DejaVuSans-104"/>
     <path d="M 9.421875 54.6875 
L 18.40625 54.6875 
L 18.40625 0 
L 9.421875 0 
z
M 9.421875 75.984375 
L 18.40625 75.984375 
L 18.40625 64.59375 
L 9.421875 64.59375 
z
" id="DejaVuSans-105"/>
     <path d="M 48.78125 52.59375 
L 48.78125 44.1875 
Q 44.96875 46.296875 41.140625 47.34375 
Q 37.3125 48.390625 33.40625 48.390625 
Q 24.65625 48.390625 19.8125 42.84375 
Q 14.984375 37.3125 14.984375 27.296875 
Q 14.984375 17.28125 19.8125 11.734375 
Q 24.65625 6.203125 33.40625 6.203125 
Q 37.3125 6.203125 41.140625 7.25 
Q 44.96875 8.296875 48.78125 10.40625 
L 48.78125 2.09375 
Q 45.015625 0.34375 40.984375 -0.53125 
Q 36.96875 -1.421875 32.421875 -1.421875 
Q 20.0625 -1.421875 12.78125 6.34375 
Q 5.515625 14.109375 5.515625 27.296875 
Q 5.515625 40.671875 12.859375 48.328125 
Q 20.21875 56 33.015625 56 
Q 37.15625 56 41.109375 55.140625 
Q 45.0625 54.296875 48.78125 52.59375 
z
" id="DejaVuSans-99"/>
     <path d="M 9.421875 75.984375 
L 18.40625 75.984375 
L 18.40625 0 
L 9.421875 0 
z
" id="DejaVuSans-108"/>
     <path d="M 19.671875 64.796875 
L 19.671875 8.109375 
L 31.59375 8.109375 
Q 46.6875 8.109375 53.6875 14.9375 
Q 60.6875 21.78125 60.6875 36.53125 
Q 60.6875 51.171875 53.6875 57.984375 
Q 46.6875 64.796875 31.59375 64.796875 
z
M 9.8125 72.90625 
L 30.078125 72.90625 
Q 51.265625 72.90625 61.171875 64.09375 
Q 71.09375 55.28125 71.09375 36.53125 
Q 71.09375 17.671875 61.125 8.828125 
Q 51.171875 0 30.078125 0 
L 9.8125 0 
z
" id="DejaVuSans-68"/>
     <path d="M 34.28125 27.484375 
Q 23.390625 27.484375 19.1875 25 
Q 14.984375 22.515625 14.984375 16.5 
Q 14.984375 11.71875 18.140625 8.90625 
Q 21.296875 6.109375 26.703125 6.109375 
Q 34.1875 6.109375 38.703125 11.40625 
Q 43.21875 16.703125 43.21875 25.484375 
L 43.21875 27.484375 
z
M 52.203125 31.203125 
L 52.203125 0 
L 43.21875 0 
L 43.21875 8.296875 
Q 40.140625 3.328125 35.546875 0.953125 
Q 30.953125 -1.421875 24.3125 -1.421875 
Q 15.921875 -1.421875 10.953125 3.296875 
Q 6 8.015625 6 15.921875 
Q 6 25.140625 12.171875 29.828125 
Q 18.359375 34.515625 30.609375 34.515625 
L 43.21875 34.515625 
L 43.21875 35.40625 
Q 43.21875 41.609375 39.140625 45 
Q 35.0625 48.390625 27.6875 48.390625 
Q 23 48.390625 18.546875 47.265625 
Q 14.109375 46.140625 10.015625 43.890625 
L 10.015625 52.203125 
Q 14.9375 54.109375 19.578125 55.046875 
Q 24.21875 56 28.609375 56 
Q 40.484375 56 46.34375 49.84375 
Q 52.203125 43.703125 52.203125 31.203125 
z
" id="DejaVuSans-97"/>
     <path d="M 18.3125 70.21875 
L 18.3125 54.6875 
L 36.8125 54.6875 
L 36.8125 47.703125 
L 18.3125 47.703125 
L 18.3125 18.015625 
Q 18.3125 11.328125 20.140625 9.421875 
Q 21.96875 7.515625 27.59375 7.515625 
L 36.8125 7.515625 
L 36.8125 0 
L 27.59375 0 
Q 17.1875 0 13.234375 3.875 
Q 9.28125 7.765625 9.28125 18.015625 
L 9.28125 47.703125 
L 2.6875 47.703125 
L 2.6875 54.6875 
L 9.28125 54.6875 
L 9.28125 70.21875 
z
" id="DejaVuSans-116"/>
     <path d="M 2.984375 54.6875 
L 12.5 54.6875 
L 29.59375 8.796875 
L 46.6875 54.6875 
L 56.203125 54.6875 
L 35.6875 0 
L 23.484375 0 
z
" id="DejaVuSans-118"/>
     <path d="M 44.28125 53.078125 
L 44.28125 44.578125 
Q 40.484375 46.53125 36.375 47.5 
Q 32.28125 48.484375 27.875 48.484375 
Q 21.1875 48.484375 17.84375 46.4375 
Q 14.5 44.390625 14.5 40.28125 
Q 14.5 37.15625 16.890625 35.375 
Q 19.28125 33.59375 26.515625 31.984375 
L 29.59375 31.296875 
Q 39.15625 29.25 43.1875 25.515625 
Q 47.21875 21.78125 47.21875 15.09375 
Q 47.21875 7.46875 41.1875 3.015625 
Q 35.15625 -1.421875 24.609375 -1.421875 
Q 20.21875 -1.421875 15.453125 -0.5625 
Q 10.6875 0.296875 5.421875 2 
L 5.421875 11.28125 
Q 10.40625 8.6875 15.234375 7.390625 
Q 20.0625 6.109375 24.8125 6.109375 
Q 31.15625 6.109375 34.5625 8.28125 
Q 37.984375 10.453125 37.984375 14.40625 
Q 37.984375 18.0625 35.515625 20.015625 
Q 33.0625 21.96875 24.703125 23.78125 
L 21.578125 24.515625 
Q 13.234375 26.265625 9.515625 29.90625 
Q 5.8125 33.546875 5.8125 39.890625 
Q 5.8125 47.609375 11.28125 51.796875 
Q 16.75 56 26.8125 56 
Q 31.78125 56 36.171875 55.265625 
Q 40.578125 54.546875 44.28125 53.078125 
z
" id="DejaVuSans-115"/>
     <path d="M 59.515625 10.40625 
L 59.515625 29.984375 
L 43.40625 29.984375 
L 43.40625 38.09375 
L 69.28125 38.09375 
L 69.28125 6.78125 
Q 63.578125 2.734375 56.6875 0.65625 
Q 49.8125 -1.421875 42 -1.421875 
Q 24.90625 -1.421875 15.25 8.5625 
Q 5.609375 18.5625 5.609375 36.375 
Q 5.609375 54.25 15.25 64.234375 
Q 24.90625 74.21875 42 74.21875 
Q 49.125 74.21875 55.546875 72.453125 
Q 61.96875 70.703125 67.390625 67.28125 
L 67.390625 56.78125 
Q 61.921875 61.421875 55.765625 63.765625 
Q 49.609375 66.109375 42.828125 66.109375 
Q 29.4375 66.109375 22.71875 58.640625 
Q 16.015625 51.171875 16.015625 36.375 
Q 16.015625 21.625 22.71875 14.15625 
Q 29.4375 6.6875 42.828125 6.6875 
Q 48.046875 6.6875 52.140625 7.59375 
Q 56.25 8.5 59.515625 10.40625 
z
" id="DejaVuSans-71"/>
     <path d="M 41.109375 46.296875 
Q 39.59375 47.171875 37.8125 47.578125 
Q 36.03125 48 33.890625 48 
Q 26.265625 48 22.1875 43.046875 
Q 18.109375 38.09375 18.109375 28.8125 
L 18.109375 0 
L 9.078125 0 
L 9.078125 54.6875 
L 18.109375 54.6875 
L 18.109375 46.1875 
Q 20.953125 51.171875 25.484375 53.578125 
Q 30.03125 56 36.53125 56 
Q 37.453125 56 38.578125 55.875 
Q 39.703125 55.765625 41.0625 55.515625 
z
" id="DejaVuSans-114"/>
     <path d="M 30.609375 48.390625 
Q 23.390625 48.390625 19.1875 42.75 
Q 14.984375 37.109375 14.984375 27.296875 
Q 14.984375 17.484375 19.15625 11.84375 
Q 23.34375 6.203125 30.609375 6.203125 
Q 37.796875 6.203125 41.984375 11.859375 
Q 46.1875 17.53125 46.1875 27.296875 
Q 46.1875 37.015625 41.984375 42.703125 
Q 37.796875 48.390625 30.609375 48.390625 
z
M 30.609375 56 
Q 42.328125 56 49.015625 48.375 
Q 55.71875 40.765625 55.71875 27.296875 
Q 55.71875 13.875 49.015625 6.21875 
Q 42.328125 -1.421875 30.609375 -1.421875 
Q 18.84375 -1.421875 12.171875 6.21875 
Q 5.515625 13.875 5.515625 27.296875 
Q 5.515625 40.765625 12.171875 48.375 
Q 18.84375 56 30.609375 56 
z
" id="DejaVuSans-111"/>
     <path d="M 8.5 21.578125 
L 8.5 54.6875 
L 17.484375 54.6875 
L 17.484375 21.921875 
Q 17.484375 14.15625 20.5 10.265625 
Q 23.53125 6.390625 29.59375 6.390625 
Q 36.859375 6.390625 41.078125 11.03125 
Q 45.3125 15.671875 45.3125 23.6875 
L 45.3125 54.6875 
L 54.296875 54.6875 
L 54.296875 0 
L 45.3125 0 
L 45.3125 8.40625 
Q 42.046875 3.421875 37.71875 1 
Q 33.40625 -1.421875 27.6875 -1.421875 
Q 18.265625 -1.421875 13.375 4.4375 
Q 8.5 10.296875 8.5 21.578125 
z
M 31.109375 56 
z
" id="DejaVuSans-117"/>
     <path d="M 54.890625 33.015625 
L 54.890625 0 
L 45.90625 0 
L 45.90625 32.71875 
Q 45.90625 40.484375 42.875 44.328125 
Q 39.84375 48.1875 33.796875 48.1875 
Q 26.515625 48.1875 22.3125 43.546875 
Q 18.109375 38.921875 18.109375 30.90625 
L 18.109375 0 
L 9.078125 0 
L 9.078125 54.6875 
L 18.109375 54.6875 
L 18.109375 46.1875 
Q 21.34375 51.125 25.703125 53.5625 
Q 30.078125 56 35.796875 56 
Q 45.21875 56 50.046875 50.171875 
Q 54.890625 44.34375 54.890625 33.015625 
z
" id="DejaVuSans-110"/>
     <path d="M 45.40625 46.390625 
L 45.40625 75.984375 
L 54.390625 75.984375 
L 54.390625 0 
L 45.40625 0 
L 45.40625 8.203125 
Q 42.578125 3.328125 38.25 0.953125 
Q 33.9375 -1.421875 27.875 -1.421875 
Q 17.96875 -1.421875 11.734375 6.484375 
Q 5.515625 14.40625 5.515625 27.296875 
Q 5.515625 40.1875 11.734375 48.09375 
Q 17.96875 56 27.875 56 
Q 33.9375 56 38.25 53.625 
Q 42.578125 51.265625 45.40625 46.390625 
z
M 14.796875 27.296875 
Q 14.796875 17.390625 18.875 11.75 
Q 22.953125 6.109375 30.078125 6.109375 
Q 37.203125 6.109375 41.296875 11.75 
Q 45.40625 17.390625 45.40625 27.296875 
Q 45.40625 37.203125 41.296875 42.84375 
Q 37.203125 48.484375 30.078125 48.484375 
Q 22.953125 48.484375 18.875 42.84375 
Q 14.796875 37.203125 14.796875 27.296875 
z
" id="DejaVuSans-100"/>
     <path d="M -0.296875 72.90625 
L 61.375 72.90625 
L 61.375 64.59375 
L 35.5 64.59375 
L 35.5 0 
L 25.59375 0 
L 25.59375 64.59375 
L -0.296875 64.59375 
z
" id="DejaVuSans-84"/>
     <path d="M 19.671875 64.796875 
L 19.671875 37.40625 
L 32.078125 37.40625 
Q 38.96875 37.40625 42.71875 40.96875 
Q 46.484375 44.53125 46.484375 51.125 
Q 46.484375 57.671875 42.71875 61.234375 
Q 38.96875 64.796875 32.078125 64.796875 
z
M 9.8125 72.90625 
L 32.078125 72.90625 
Q 44.34375 72.90625 50.609375 67.359375 
Q 56.890625 61.8125 56.890625 51.125 
Q 56.890625 40.328125 50.609375 34.8125 
Q 44.34375 29.296875 32.078125 29.296875 
L 19.671875 29.296875 
L 19.671875 0 
L 9.8125 0 
z
" id="DejaVuSans-80"/>
    </defs>
    <g transform="translate(264.825938 63.12)scale(0.12 -0.12)">
     <use xlink:href="#DejaVuSans-86"/>
     <use x="68.298828" xlink:href="#DejaVuSans-101"/>
     <use x="129.822266" xlink:href="#DejaVuSans-104"/>
     <use x="193.201172" xlink:href="#DejaVuSans-105"/>
     <use x="220.984375" xlink:href="#DejaVuSans-99"/>
     <use x="275.964844" xlink:href="#DejaVuSans-108"/>
     <use x="303.748047" xlink:href="#DejaVuSans-101"/>
     <use x="365.271484" xlink:href="#DejaVuSans-32"/>
     <use x="397.058594" xlink:href="#DejaVuSans-68"/>
     <use x="474.060547" xlink:href="#DejaVuSans-97"/>
     <use x="535.339844" xlink:href="#DejaVuSans-116"/>
     <use x="574.548828" xlink:href="#DejaVuSans-97"/>
     <use x="635.828125" xlink:href="#DejaVuSans-32"/>
     <use x="667.615234" xlink:href="#DejaVuSans-118"/>
     <use x="726.794922" xlink:href="#DejaVuSans-115"/>
     <use x="778.894531" xlink:href="#DejaVuSans-32"/>
     <use x="810.681641" xlink:href="#DejaVuSans-71"/>
     <use x="888.171875" xlink:href="#DejaVuSans-114"/>
     <use x="929.253906" xlink:href="#DejaVuSans-111"/>
     <use x="990.435547" xlink:href="#DejaVuSans-117"/>
     <use x="1053.814453" xlink:href="#DejaVuSans-110"/>
     <use x="1117.193359" xlink:href="#DejaVuSans-100"/>
     <use x="1180.669922" xlink:href="#DejaVuSans-32"/>
     <use x="1212.457031" xlink:href="#DejaVuSans-84"/>
     <use x="1273.322266" xlink:href="#DejaVuSans-114"/>
     <use x="1314.435547" xlink:href="#DejaVuSans-117"/>
     <use x="1377.814453" xlink:href="#DejaVuSans-116"/>
     <use x="1417.023438" xlink:href="#DejaVuSans-104"/>
     <use x="1480.402344" xlink:href="#DejaVuSans-32"/>
     <use x="1512.189453" xlink:href="#DejaVuSans-80"/>
     <use x="1572.429688" xlink:href="#DejaVuSans-97"/>
     <use x="1633.708984" xlink:href="#DejaVuSans-116"/>
     <use x="1672.917969" xlink:href="#DejaVuSans-104"/>
    </g>
   </g>
   <g id="legend_1">
    <g id="patch_7">
     <path d="M 97 507.64 
L 195.96875 507.64 
Q 197.96875 507.64 197.96875 505.64 
L 197.96875 477.28375 
Q 197.96875 475.28375 195.96875 475.28375 
L 97 475.28375 
Q 95 475.28375 95 477.28375 
L 95 505.64 
Q 95 507.64 97 507.64 
z
" style="fill:#ffffff;opacity:0.8;stroke:#cccccc;stroke-linejoin:miter;"/>
    </g>
    <g id="line2d_15">
     <path d="M 99 483.382187 
L 119 483.382187 
" style="fill:none;stroke:#008000;stroke-linecap:square;stroke-width:1.5;"/>
    </g>
    <g id="line2d_16"/>
    <g id="text_17">
     <!-- Ground Truth -->
     <g transform="translate(127 486.882187)scale(0.1 -0.1)">
      <use xlink:href="#DejaVuSans-71"/>
      <use x="77.490234" xlink:href="#DejaVuSans-114"/>
      <use x="118.572266" xlink:href="#DejaVuSans-111"/>
      <use x="179.753906" xlink:href="#DejaVuSans-117"/>
      <use x="243.132812" xlink:href="#DejaVuSans-110"/>
      <use x="306.511719" xlink:href="#DejaVuSans-100"/>
      <use x="369.988281" xlink:href="#DejaVuSans-32"/>
      <use x="401.775391" xlink:href="#DejaVuSans-84"/>
      <use x="462.640625" xlink:href="#DejaVuSans-114"/>
      <use x="503.753906" xlink:href="#DejaVuSans-117"/>
      <use x="567.132812" xlink:href="#DejaVuSans-116"/>
      <use x="606.341797" xlink:href="#DejaVuSans-104"/>
     </g>
    </g>
    <g id="PathCollection_2">
     <g>
      <use style="fill:#0000ff;stroke:#0000ff;" x="109" xlink:href="#mafcd4414d3" y="498.935313"/>
     </g>
    </g>
    <g id="text_18">
     <!-- Vehicle -->
     <g transform="translate(127 501.560313)scale(0.1 -0.1)">
      <use xlink:href="#DejaVuSans-86"/>
      <use x="68.298828" xlink:href="#DejaVuSans-101"/>
      <use x="129.822266" xlink:href="#DejaVuSans-104"/>
      <use x="193.201172" xlink:href="#DejaVuSans-105"/>
      <use x="220.984375" xlink:href="#DejaVuSans-99"/>
      <use x="275.964844" xlink:href="#DejaVuSans-108"/>
      <use x="303.748047" xlink:href="#DejaVuSans-101"/>
     </g>
    </g>
   </g>
  </g>
 </g>
 <defs>
  <clipPath id="pca1e74c1fd">
   <rect height="443.52" width="558" x="90" y="69.12"/>
  </clipPath>
 </defs>
</svg>
