<?xml version="1.0" encoding="utf-8" standalone="no"?>
<!DOCTYPE svg PUBLIC "-//W3C//DTD SVG 1.1//EN"
  "http://www.w3.org/Graphics/SVG/1.1/DTD/svg11.dtd">
<!-- Created with matplotlib (https://matplotlib.org/) -->
<svg height="720pt" version="1.1" viewBox="0 0 864 720" width="864pt" xmlns="http://www.w3.org/2000/svg" xmlns:xlink="http://www.w3.org/1999/xlink">
 <defs>
  <style type="text/css">
*{stroke-linecap:butt;stroke-linejoin:round;}
  </style>
 </defs>
 <g id="figure_1">
  <g id="patch_1">
   <path d="M 0 720 
L 864 720 
L 864 0 
L 0 0 
z
" style="fill:#ffffff;"/>
  </g>
  <g id="axes_1">
   <g id="patch_2">
    <path d="M 108 640.8 
L 777.6 640.8 
L 777.6 86.4 
L 108 86.4 
z
" style="fill:#ffffff;"/>
   </g>
   <g id="line2d_1">
    <path clip-path="url(#pce575fbc95)" d="M 138.760452 -1 
L 152.054281 79.967525 
L 165.59134 160.744801 
L 175.158843 217.002045 
L 180.787111 248.714833 
L 185.190851 272.032012 
L 188.252207 287.250801 
L 191.436174 302.141612 
L 194.758476 316.648589 
L 198.230998 330.719426 
L 201.861506 344.306347 
L 205.653806 357.366356 
L 209.608212 369.860983 
L 213.722171 381.755838 
L 217.990918 393.020345 
L 222.408049 403.627997 
L 226.965951 413.557388 
L 231.656078 422.794061 
L 236.469088 431.332951 
L 238.918551 435.342355 
L 241.394897 439.180965 
L 243.896755 442.851857 
L 246.422716 446.359054 
L 251.541145 452.903124 
L 256.73837 458.863305 
L 262.00247 464.301467 
L 267.321825 469.287251 
L 272.685528 473.893289 
L 278.083781 478.190237 
L 283.508173 482.242467 
L 291.679139 487.978907 
L 299.877032 493.421857 
L 308.091899 498.648408 
L 316.318997 503.68386 
L 324.557019 508.514976 
L 332.806507 513.105606 
L 341.068673 517.412316 
L 349.344499 521.399297 
L 357.634186 525.050611 
L 365.936929 528.377088 
L 374.250947 531.416898 
L 382.573779 534.228604 
L 393.679972 537.736871 
L 410.348039 542.725747 
L 424.240356 546.661617 
L 432.576878 548.817088 
L 440.915315 550.696096 
L 446.475819 551.739526 
L 452.037783 552.580077 
L 457.601221 553.193731 
L 463.165934 553.563948 
L 468.731465 553.681541 
L 474.297061 553.543052 
L 479.861636 553.147985 
L 485.423724 552.49541 
L 490.981408 551.580527 
L 496.532245 550.391919 
L 502.073186 548.909818 
L 507.600489 547.105544 
L 513.109693 544.942351 
L 518.595629 542.377428 
L 524.052499 539.364872 
L 526.768081 537.676415 
L 529.474004 535.859243 
L 532.169426 533.908326 
L 534.853495 531.81907 
L 537.525342 529.587384 
L 540.184092 527.209718 
L 542.82886 524.683091 
L 545.458748 522.005079 
L 548.072846 519.173792 
L 550.67023 516.187829 
L 553.249958 513.046223 
L 555.811069 509.748378 
L 560.873528 502.683072 
L 565.849697 494.992323 
L 570.731791 486.679543 
L 575.512682 477.751333 
L 580.186626 468.218889 
L 584.750055 458.100171 
L 589.202275 447.422049 
L 593.54589 436.221595 
L 597.786837 424.545924 
L 601.933991 412.450365 
L 605.998408 399.995327 
L 611.96675 380.77282 
L 617.817411 361.072152 
L 625.494488 334.325103 
L 634.96524 300.438923 
L 646.200008 259.354249 
L 657.304346 217.875454 
L 670.117476 169.063854 
L 688.270431 98.893118 
L 713.950385 -1 
L 713.950385 -1 
" style="fill:none;stroke:#008000;stroke-linecap:square;stroke-width:3;"/>
   </g>
   <g id="matplotlib.axis_1">
    <g id="xtick_1">
     <g id="line2d_2">
      <defs>
       <path d="M 0 0 
L 0 3.5 
" id="mb5ac66cdcd" style="stroke:#000000;stroke-width:0.8;"/>
      </defs>
      <g>
       <use style="stroke:#000000;stroke-width:0.8;" x="163.8" xlink:href="#mb5ac66cdcd" y="640.8"/>
      </g>
     </g>
     <g id="text_1">
      <!-- −340 -->
      <defs>
       <path d="M 10.59375 35.5 
L 73.1875 35.5 
L 73.1875 27.203125 
L 10.59375 27.203125 
z
" id="DejaVuSans-8722"/>
       <path d="M 40.578125 39.3125 
Q 47.65625 37.796875 51.625 33 
Q 55.609375 28.21875 55.609375 21.1875 
Q 55.609375 10.40625 48.1875 4.484375 
Q 40.765625 -1.421875 27.09375 -1.421875 
Q 22.515625 -1.421875 17.65625 -0.515625 
Q 12.796875 0.390625 7.625 2.203125 
L 7.625 11.71875 
Q 11.71875 9.328125 16.59375 8.109375 
Q 21.484375 6.890625 26.8125 6.890625 
Q 36.078125 6.890625 40.9375 10.546875 
Q 45.796875 14.203125 45.796875 21.1875 
Q 45.796875 27.640625 41.28125 31.265625 
Q 36.765625 34.90625 28.71875 34.90625 
L 20.21875 34.90625 
L 20.21875 43.015625 
L 29.109375 43.015625 
Q 36.375 43.015625 40.234375 45.921875 
Q 44.09375 48.828125 44.09375 54.296875 
Q 44.09375 59.90625 40.109375 62.90625 
Q 36.140625 65.921875 28.71875 65.921875 
Q 24.65625 65.921875 20.015625 65.03125 
Q 15.375 64.15625 9.8125 62.3125 
L 9.8125 71.09375 
Q 15.4375 72.65625 20.34375 73.4375 
Q 25.25 74.21875 29.59375 74.21875 
Q 40.828125 74.21875 47.359375 69.109375 
Q 53.90625 64.015625 53.90625 55.328125 
Q 53.90625 49.265625 50.4375 45.09375 
Q 46.96875 40.921875 40.578125 39.3125 
z
" id="DejaVuSans-51"/>
       <path d="M 37.796875 64.3125 
L 12.890625 25.390625 
L 37.796875 25.390625 
z
M 35.203125 72.90625 
L 47.609375 72.90625 
L 47.609375 25.390625 
L 58.015625 25.390625 
L 58.015625 17.1875 
L 47.609375 17.1875 
L 47.609375 0 
L 37.796875 0 
L 37.796875 17.1875 
L 4.890625 17.1875 
L 4.890625 26.703125 
z
" id="DejaVuSans-52"/>
       <path d="M 31.78125 66.40625 
Q 24.171875 66.40625 20.328125 58.90625 
Q 16.5 51.421875 16.5 36.375 
Q 16.5 21.390625 20.328125 13.890625 
Q 24.171875 6.390625 31.78125 6.390625 
Q 39.453125 6.390625 43.28125 13.890625 
Q 47.125 21.390625 47.125 36.375 
Q 47.125 51.421875 43.28125 58.90625 
Q 39.453125 66.40625 31.78125 66.40625 
z
M 31.78125 74.21875 
Q 44.046875 74.21875 50.515625 64.515625 
Q 56.984375 54.828125 56.984375 36.375 
Q 56.984375 17.96875 50.515625 8.265625 
Q 44.046875 -1.421875 31.78125 -1.421875 
Q 19.53125 -1.421875 13.0625 8.265625 
Q 6.59375 17.96875 6.59375 36.375 
Q 6.59375 54.828125 13.0625 64.515625 
Q 19.53125 74.21875 31.78125 74.21875 
z
" id="DejaVuSans-48"/>
      </defs>
      <g transform="translate(150.066406 655.398438)scale(0.1 -0.1)">
       <use xlink:href="#DejaVuSans-8722"/>
       <use x="83.789062" xlink:href="#DejaVuSans-51"/>
       <use x="147.412109" xlink:href="#DejaVuSans-52"/>
       <use x="211.035156" xlink:href="#DejaVuSans-48"/>
      </g>
     </g>
    </g>
    <g id="xtick_2">
     <g id="line2d_3">
      <g>
       <use style="stroke:#000000;stroke-width:0.8;" x="275.4" xlink:href="#mb5ac66cdcd" y="640.8"/>
      </g>
     </g>
     <g id="text_2">
      <!-- −320 -->
      <defs>
       <path d="M 19.1875 8.296875 
L 53.609375 8.296875 
L 53.609375 0 
L 7.328125 0 
L 7.328125 8.296875 
Q 12.9375 14.109375 22.625 23.890625 
Q 32.328125 33.6875 34.8125 36.53125 
Q 39.546875 41.84375 41.421875 45.53125 
Q 43.3125 49.21875 43.3125 52.78125 
Q 43.3125 58.59375 39.234375 62.25 
Q 35.15625 65.921875 28.609375 65.921875 
Q 23.96875 65.921875 18.8125 64.3125 
Q 13.671875 62.703125 7.8125 59.421875 
L 7.8125 69.390625 
Q 13.765625 71.78125 18.9375 73 
Q 24.125 74.21875 28.421875 74.21875 
Q 39.75 74.21875 46.484375 68.546875 
Q 53.21875 62.890625 53.21875 53.421875 
Q 53.21875 48.921875 51.53125 44.890625 
Q 49.859375 40.875 45.40625 35.40625 
Q 44.1875 33.984375 37.640625 27.21875 
Q 31.109375 20.453125 19.1875 8.296875 
z
" id="DejaVuSans-50"/>
      </defs>
      <g transform="translate(261.666406 655.398438)scale(0.1 -0.1)">
       <use xlink:href="#DejaVuSans-8722"/>
       <use x="83.789062" xlink:href="#DejaVuSans-51"/>
       <use x="147.412109" xlink:href="#DejaVuSans-50"/>
       <use x="211.035156" xlink:href="#DejaVuSans-48"/>
      </g>
     </g>
    </g>
    <g id="xtick_3">
     <g id="line2d_4">
      <g>
       <use style="stroke:#000000;stroke-width:0.8;" x="387" xlink:href="#mb5ac66cdcd" y="640.8"/>
      </g>
     </g>
     <g id="text_3">
      <!-- −300 -->
      <g transform="translate(373.266406 655.398438)scale(0.1 -0.1)">
       <use xlink:href="#DejaVuSans-8722"/>
       <use x="83.789062" xlink:href="#DejaVuSans-51"/>
       <use x="147.412109" xlink:href="#DejaVuSans-48"/>
       <use x="211.035156" xlink:href="#DejaVuSans-48"/>
      </g>
     </g>
    </g>
    <g id="xtick_4">
     <g id="line2d_5">
      <g>
       <use style="stroke:#000000;stroke-width:0.8;" x="498.6" xlink:href="#mb5ac66cdcd" y="640.8"/>
      </g>
     </g>
     <g id="text_4">
      <!-- −280 -->
      <defs>
       <path d="M 31.78125 34.625 
Q 24.75 34.625 20.71875 30.859375 
Q 16.703125 27.09375 16.703125 20.515625 
Q 16.703125 13.921875 20.71875 10.15625 
Q 24.75 6.390625 31.78125 6.390625 
Q 38.8125 6.390625 42.859375 10.171875 
Q 46.921875 13.96875 46.921875 20.515625 
Q 46.921875 27.09375 42.890625 30.859375 
Q 38.875 34.625 31.78125 34.625 
z
M 21.921875 38.8125 
Q 15.578125 40.375 12.03125 44.71875 
Q 8.5 49.078125 8.5 55.328125 
Q 8.5 64.0625 14.71875 69.140625 
Q 20.953125 74.21875 31.78125 74.21875 
Q 42.671875 74.21875 48.875 69.140625 
Q 55.078125 64.0625 55.078125 55.328125 
Q 55.078125 49.078125 51.53125 44.71875 
Q 48 40.375 41.703125 38.8125 
Q 48.828125 37.15625 52.796875 32.3125 
Q 56.78125 27.484375 56.78125 20.515625 
Q 56.78125 9.90625 50.3125 4.234375 
Q 43.84375 -1.421875 31.78125 -1.421875 
Q 19.734375 -1.421875 13.25 4.234375 
Q 6.78125 9.90625 6.78125 20.515625 
Q 6.78125 27.484375 10.78125 32.3125 
Q 14.796875 37.15625 21.921875 38.8125 
z
M 18.3125 54.390625 
Q 18.3125 48.734375 21.84375 45.5625 
Q 25.390625 42.390625 31.78125 42.390625 
Q 38.140625 42.390625 41.71875 45.5625 
Q 45.3125 48.734375 45.3125 54.390625 
Q 45.3125 60.0625 41.71875 63.234375 
Q 38.140625 66.40625 31.78125 66.40625 
Q 25.390625 66.40625 21.84375 63.234375 
Q 18.3125 60.0625 18.3125 54.390625 
z
" id="DejaVuSans-56"/>
      </defs>
      <g transform="translate(484.866406 655.398438)scale(0.1 -0.1)">
       <use xlink:href="#DejaVuSans-8722"/>
       <use x="83.789062" xlink:href="#DejaVuSans-50"/>
       <use x="147.412109" xlink:href="#DejaVuSans-56"/>
       <use x="211.035156" xlink:href="#DejaVuSans-48"/>
      </g>
     </g>
    </g>
    <g id="xtick_5">
     <g id="line2d_6">
      <g>
       <use style="stroke:#000000;stroke-width:0.8;" x="610.2" xlink:href="#mb5ac66cdcd" y="640.8"/>
      </g>
     </g>
     <g id="text_5">
      <!-- −260 -->
      <defs>
       <path d="M 33.015625 40.375 
Q 26.375 40.375 22.484375 35.828125 
Q 18.609375 31.296875 18.609375 23.390625 
Q 18.609375 15.53125 22.484375 10.953125 
Q 26.375 6.390625 33.015625 6.390625 
Q 39.65625 6.390625 43.53125 10.953125 
Q 47.40625 15.53125 47.40625 23.390625 
Q 47.40625 31.296875 43.53125 35.828125 
Q 39.65625 40.375 33.015625 40.375 
z
M 52.59375 71.296875 
L 52.59375 62.3125 
Q 48.875 64.0625 45.09375 64.984375 
Q 41.3125 65.921875 37.59375 65.921875 
Q 27.828125 65.921875 22.671875 59.328125 
Q 17.53125 52.734375 16.796875 39.40625 
Q 19.671875 43.65625 24.015625 45.921875 
Q 28.375 48.1875 33.59375 48.1875 
Q 44.578125 48.1875 50.953125 41.515625 
Q 57.328125 34.859375 57.328125 23.390625 
Q 57.328125 12.15625 50.6875 5.359375 
Q 44.046875 -1.421875 33.015625 -1.421875 
Q 20.359375 -1.421875 13.671875 8.265625 
Q 6.984375 17.96875 6.984375 36.375 
Q 6.984375 53.65625 15.1875 63.9375 
Q 23.390625 74.21875 37.203125 74.21875 
Q 40.921875 74.21875 44.703125 73.484375 
Q 48.484375 72.75 52.59375 71.296875 
z
" id="DejaVuSans-54"/>
      </defs>
      <g transform="translate(596.466406 655.398438)scale(0.1 -0.1)">
       <use xlink:href="#DejaVuSans-8722"/>
       <use x="83.789062" xlink:href="#DejaVuSans-50"/>
       <use x="147.412109" xlink:href="#DejaVuSans-54"/>
       <use x="211.035156" xlink:href="#DejaVuSans-48"/>
      </g>
     </g>
    </g>
    <g id="xtick_6">
     <g id="line2d_7">
      <g>
       <use style="stroke:#000000;stroke-width:0.8;" x="721.8" xlink:href="#mb5ac66cdcd" y="640.8"/>
      </g>
     </g>
     <g id="text_6">
      <!-- −240 -->
      <g transform="translate(708.066406 655.398438)scale(0.1 -0.1)">
       <use xlink:href="#DejaVuSans-8722"/>
       <use x="83.789062" xlink:href="#DejaVuSans-50"/>
       <use x="147.412109" xlink:href="#DejaVuSans-52"/>
       <use x="211.035156" xlink:href="#DejaVuSans-48"/>
      </g>
     </g>
    </g>
    <g id="text_7">
     <!-- x (m) -->
     <defs>
      <path d="M 54.890625 54.6875 
L 35.109375 28.078125 
L 55.90625 0 
L 45.3125 0 
L 29.390625 21.484375 
L 13.484375 0 
L 2.875 0 
L 24.125 28.609375 
L 4.6875 54.6875 
L 15.28125 54.6875 
L 29.78125 35.203125 
L 44.28125 54.6875 
z
" id="DejaVuSans-120"/>
      <path id="DejaVuSans-32"/>
      <path d="M 31 75.875 
Q 24.46875 64.65625 21.28125 53.65625 
Q 18.109375 42.671875 18.109375 31.390625 
Q 18.109375 20.125 21.3125 9.0625 
Q 24.515625 -2 31 -13.1875 
L 23.1875 -13.1875 
Q 15.875 -1.703125 12.234375 9.375 
Q 8.59375 20.453125 8.59375 31.390625 
Q 8.59375 42.28125 12.203125 53.3125 
Q 15.828125 64.359375 23.1875 75.875 
z
" id="DejaVuSans-40"/>
      <path d="M 52 44.1875 
Q 55.375 50.25 60.0625 53.125 
Q 64.75 56 71.09375 56 
Q 79.640625 56 84.28125 50.015625 
Q 88.921875 44.046875 88.921875 33.015625 
L 88.921875 0 
L 79.890625 0 
L 79.890625 32.71875 
Q 79.890625 40.578125 77.09375 44.375 
Q 74.3125 48.1875 68.609375 48.1875 
Q 61.625 48.1875 57.5625 43.546875 
Q 53.515625 38.921875 53.515625 30.90625 
L 53.515625 0 
L 44.484375 0 
L 44.484375 32.71875 
Q 44.484375 40.625 41.703125 44.40625 
Q 38.921875 48.1875 33.109375 48.1875 
Q 26.21875 48.1875 22.15625 43.53125 
Q 18.109375 38.875 18.109375 30.90625 
L 18.109375 0 
L 9.078125 0 
L 9.078125 54.6875 
L 18.109375 54.6875 
L 18.109375 46.1875 
Q 21.1875 51.21875 25.484375 53.609375 
Q 29.78125 56 35.6875 56 
Q 41.65625 56 45.828125 52.96875 
Q 50 49.953125 52 44.1875 
z
" id="DejaVuSans-109"/>
      <path d="M 8.015625 75.875 
L 15.828125 75.875 
Q 23.140625 64.359375 26.78125 53.3125 
Q 30.421875 42.28125 30.421875 31.390625 
Q 30.421875 20.453125 26.78125 9.375 
Q 23.140625 -1.703125 15.828125 -13.1875 
L 8.015625 -13.1875 
Q 14.5 -2 17.703125 9.0625 
Q 20.90625 20.125 20.90625 31.390625 
Q 20.90625 42.671875 17.703125 53.65625 
Q 14.5 64.65625 8.015625 75.875 
z
" id="DejaVuSans-41"/>
     </defs>
     <g transform="translate(429.479688 669.076563)scale(0.1 -0.1)">
      <use xlink:href="#DejaVuSans-120"/>
      <use x="59.179688" xlink:href="#DejaVuSans-32"/>
      <use x="90.966797" xlink:href="#DejaVuSans-40"/>
      <use x="129.980469" xlink:href="#DejaVuSans-109"/>
      <use x="227.392578" xlink:href="#DejaVuSans-41"/>
     </g>
    </g>
   </g>
   <g id="matplotlib.axis_2">
    <g id="ytick_1">
     <g id="line2d_8">
      <defs>
       <path d="M 0 0 
L -3.5 0 
" id="m898b0b67a8" style="stroke:#000000;stroke-width:0.8;"/>
      </defs>
      <g>
       <use style="stroke:#000000;stroke-width:0.8;" x="108" xlink:href="#m898b0b67a8" y="640.8"/>
      </g>
     </g>
     <g id="text_8">
      <!-- −310 -->
      <defs>
       <path d="M 12.40625 8.296875 
L 28.515625 8.296875 
L 28.515625 63.921875 
L 10.984375 60.40625 
L 10.984375 69.390625 
L 28.421875 72.90625 
L 38.28125 72.90625 
L 38.28125 8.296875 
L 54.390625 8.296875 
L 54.390625 0 
L 12.40625 0 
z
" id="DejaVuSans-49"/>
      </defs>
      <g transform="translate(73.532813 644.599219)scale(0.1 -0.1)">
       <use xlink:href="#DejaVuSans-8722"/>
       <use x="83.789062" xlink:href="#DejaVuSans-51"/>
       <use x="147.412109" xlink:href="#DejaVuSans-49"/>
       <use x="211.035156" xlink:href="#DejaVuSans-48"/>
      </g>
     </g>
    </g>
    <g id="ytick_2">
     <g id="line2d_9">
      <g>
       <use style="stroke:#000000;stroke-width:0.8;" x="108" xlink:href="#m898b0b67a8" y="548.4"/>
      </g>
     </g>
     <g id="text_9">
      <!-- −305 -->
      <defs>
       <path d="M 10.796875 72.90625 
L 49.515625 72.90625 
L 49.515625 64.59375 
L 19.828125 64.59375 
L 19.828125 46.734375 
Q 21.96875 47.46875 24.109375 47.828125 
Q 26.265625 48.1875 28.421875 48.1875 
Q 40.625 48.1875 47.75 41.5 
Q 54.890625 34.8125 54.890625 23.390625 
Q 54.890625 11.625 47.5625 5.09375 
Q 40.234375 -1.421875 26.90625 -1.421875 
Q 22.3125 -1.421875 17.546875 -0.640625 
Q 12.796875 0.140625 7.71875 1.703125 
L 7.71875 11.625 
Q 12.109375 9.234375 16.796875 8.0625 
Q 21.484375 6.890625 26.703125 6.890625 
Q 35.15625 6.890625 40.078125 11.328125 
Q 45.015625 15.765625 45.015625 23.390625 
Q 45.015625 31 40.078125 35.4375 
Q 35.15625 39.890625 26.703125 39.890625 
Q 22.75 39.890625 18.8125 39.015625 
Q 14.890625 38.140625 10.796875 36.28125 
z
" id="DejaVuSans-53"/>
      </defs>
      <g transform="translate(73.532813 552.199219)scale(0.1 -0.1)">
       <use xlink:href="#DejaVuSans-8722"/>
       <use x="83.789062" xlink:href="#DejaVuSans-51"/>
       <use x="147.412109" xlink:href="#DejaVuSans-48"/>
       <use x="211.035156" xlink:href="#DejaVuSans-53"/>
      </g>
     </g>
    </g>
    <g id="ytick_3">
     <g id="line2d_10">
      <g>
       <use style="stroke:#000000;stroke-width:0.8;" x="108" xlink:href="#m898b0b67a8" y="456"/>
      </g>
     </g>
     <g id="text_10">
      <!-- −300 -->
      <g transform="translate(73.532813 459.799219)scale(0.1 -0.1)">
       <use xlink:href="#DejaVuSans-8722"/>
       <use x="83.789062" xlink:href="#DejaVuSans-51"/>
       <use x="147.412109" xlink:href="#DejaVuSans-48"/>
       <use x="211.035156" xlink:href="#DejaVuSans-48"/>
      </g>
     </g>
    </g>
    <g id="ytick_4">
     <g id="line2d_11">
      <g>
       <use style="stroke:#000000;stroke-width:0.8;" x="108" xlink:href="#m898b0b67a8" y="363.6"/>
      </g>
     </g>
     <g id="text_11">
      <!-- −295 -->
      <defs>
       <path d="M 10.984375 1.515625 
L 10.984375 10.5 
Q 14.703125 8.734375 18.5 7.8125 
Q 22.3125 6.890625 25.984375 6.890625 
Q 35.75 6.890625 40.890625 13.453125 
Q 46.046875 20.015625 46.78125 33.40625 
Q 43.953125 29.203125 39.59375 26.953125 
Q 35.25 24.703125 29.984375 24.703125 
Q 19.046875 24.703125 12.671875 31.3125 
Q 6.296875 37.9375 6.296875 49.421875 
Q 6.296875 60.640625 12.9375 67.421875 
Q 19.578125 74.21875 30.609375 74.21875 
Q 43.265625 74.21875 49.921875 64.515625 
Q 56.59375 54.828125 56.59375 36.375 
Q 56.59375 19.140625 48.40625 8.859375 
Q 40.234375 -1.421875 26.421875 -1.421875 
Q 22.703125 -1.421875 18.890625 -0.6875 
Q 15.09375 0.046875 10.984375 1.515625 
z
M 30.609375 32.421875 
Q 37.25 32.421875 41.125 36.953125 
Q 45.015625 41.5 45.015625 49.421875 
Q 45.015625 57.28125 41.125 61.84375 
Q 37.25 66.40625 30.609375 66.40625 
Q 23.96875 66.40625 20.09375 61.84375 
Q 16.21875 57.28125 16.21875 49.421875 
Q 16.21875 41.5 20.09375 36.953125 
Q 23.96875 32.421875 30.609375 32.421875 
z
" id="DejaVuSans-57"/>
      </defs>
      <g transform="translate(73.532813 367.399219)scale(0.1 -0.1)">
       <use xlink:href="#DejaVuSans-8722"/>
       <use x="83.789062" xlink:href="#DejaVuSans-50"/>
       <use x="147.412109" xlink:href="#DejaVuSans-57"/>
       <use x="211.035156" xlink:href="#DejaVuSans-53"/>
      </g>
     </g>
    </g>
    <g id="ytick_5">
     <g id="line2d_12">
      <g>
       <use style="stroke:#000000;stroke-width:0.8;" x="108" xlink:href="#m898b0b67a8" y="271.2"/>
      </g>
     </g>
     <g id="text_12">
      <!-- −290 -->
      <g transform="translate(73.532813 274.999219)scale(0.1 -0.1)">
       <use xlink:href="#DejaVuSans-8722"/>
       <use x="83.789062" xlink:href="#DejaVuSans-50"/>
       <use x="147.412109" xlink:href="#DejaVuSans-57"/>
       <use x="211.035156" xlink:href="#DejaVuSans-48"/>
      </g>
     </g>
    </g>
    <g id="ytick_6">
     <g id="line2d_13">
      <g>
       <use style="stroke:#000000;stroke-width:0.8;" x="108" xlink:href="#m898b0b67a8" y="178.8"/>
      </g>
     </g>
     <g id="text_13">
      <!-- −285 -->
      <g transform="translate(73.532813 182.599219)scale(0.1 -0.1)">
       <use xlink:href="#DejaVuSans-8722"/>
       <use x="83.789062" xlink:href="#DejaVuSans-50"/>
       <use x="147.412109" xlink:href="#DejaVuSans-56"/>
       <use x="211.035156" xlink:href="#DejaVuSans-53"/>
      </g>
     </g>
    </g>
    <g id="ytick_7">
     <g id="line2d_14">
      <g>
       <use style="stroke:#000000;stroke-width:0.8;" x="108" xlink:href="#m898b0b67a8" y="86.4"/>
      </g>
     </g>
     <g id="text_14">
      <!-- −280 -->
      <g transform="translate(73.532813 90.199219)scale(0.1 -0.1)">
       <use xlink:href="#DejaVuSans-8722"/>
       <use x="83.789062" xlink:href="#DejaVuSans-50"/>
       <use x="147.412109" xlink:href="#DejaVuSans-56"/>
       <use x="211.035156" xlink:href="#DejaVuSans-48"/>
      </g>
     </g>
    </g>
    <g id="text_15">
     <!-- y (m) -->
     <defs>
      <path d="M 32.171875 -5.078125 
Q 28.375 -14.84375 24.75 -17.8125 
Q 21.140625 -20.796875 15.09375 -20.796875 
L 7.90625 -20.796875 
L 7.90625 -13.28125 
L 13.1875 -13.28125 
Q 16.890625 -13.28125 18.9375 -11.515625 
Q 21 -9.765625 23.484375 -3.21875 
L 25.09375 0.875 
L 2.984375 54.6875 
L 12.5 54.6875 
L 29.59375 11.921875 
L 46.6875 54.6875 
L 56.203125 54.6875 
z
" id="DejaVuSans-121"/>
     </defs>
     <g transform="translate(67.453125 376.920312)rotate(-90)scale(0.1 -0.1)">
      <use xlink:href="#DejaVuSans-121"/>
      <use x="59.179688" xlink:href="#DejaVuSans-32"/>
      <use x="90.966797" xlink:href="#DejaVuSans-40"/>
      <use x="129.980469" xlink:href="#DejaVuSans-109"/>
      <use x="227.392578" xlink:href="#DejaVuSans-41"/>
     </g>
    </g>
   </g>
   <g id="PathCollection_1">
    <defs>
     <path d="M -2.236068 2.236068 
L 2.236068 2.236068 
L 2.236068 -2.236068 
L -2.236068 -2.236068 
z
" id="mbd82db771b" style="stroke:#333333;"/>
    </defs>
    <g clip-path="url(#pce575fbc95)">
     <use style="fill:#333333;stroke:#333333;" x="154.205317" xlink:href="#mbd82db771b" y="90.277185"/>
     <use style="fill:#333333;stroke:#333333;" x="163.758274" xlink:href="#mbd82db771b" y="146.352905"/>
     <use style="fill:#333333;stroke:#333333;" x="173.894631" xlink:href="#mbd82db771b" y="205.667688"/>
     <use style="fill:#333333;stroke:#333333;" x="183.764501" xlink:href="#mbd82db771b" y="259.424263"/>
     <use style="fill:#333333;stroke:#333333;" x="196.332154" xlink:href="#mbd82db771b" y="318.161947"/>
     <use style="fill:#333333;stroke:#333333;" x="210.419869" xlink:href="#mbd82db771b" y="370.063658"/>
     <use style="fill:#333333;stroke:#333333;" x="228.80941" xlink:href="#mbd82db771b" y="420.161515"/>
     <use style="fill:#333333;stroke:#333333;" x="248.532205" xlink:href="#mbd82db771b" y="458.23711"/>
     <use style="fill:#333333;stroke:#333333;" x="272.322311" xlink:href="#mbd82db771b" y="490.153296"/>
     <use style="fill:#333333;stroke:#333333;" x="295.990096" xlink:href="#mbd82db771b" y="511.849921"/>
     <use style="fill:#333333;stroke:#333333;" x="323.081173" xlink:href="#mbd82db771b" y="528.563529"/>
     <use style="fill:#333333;stroke:#333333;" x="349.225383" xlink:href="#mbd82db771b" y="539.613042"/>
     <use style="fill:#333333;stroke:#333333;" x="378.686627" xlink:href="#mbd82db771b" y="548.233444"/>
     <use style="fill:#333333;stroke:#333333;" x="406.965822" xlink:href="#mbd82db771b" y="554.216398"/>
     <use style="fill:#333333;stroke:#333333;" x="438.838961" xlink:href="#mbd82db771b" y="558.470477"/>
     <use style="fill:#333333;stroke:#333333;" x="469.356137" xlink:href="#mbd82db771b" y="558.751687"/>
     <use style="fill:#333333;stroke:#333333;" x="503.492272" xlink:href="#mbd82db771b" y="551.802836"/>
     <use style="fill:#333333;stroke:#333333;" x="535.52859" xlink:href="#mbd82db771b" y="533.689299"/>
     <use style="fill:#333333;stroke:#333333;" x="569.84694" xlink:href="#mbd82db771b" y="495.906104"/>
     <use style="fill:#333333;stroke:#333333;" x="600.087384" xlink:href="#mbd82db771b" y="442.337481"/>
     <use style="fill:#333333;stroke:#333333;" x="630.451456" xlink:href="#mbd82db771b" y="366.421651"/>
     <use style="fill:#333333;stroke:#333333;" x="655.967906" xlink:href="#mbd82db771b" y="284.281996"/>
     <use style="fill:#333333;stroke:#333333;" x="681.387855" xlink:href="#mbd82db771b" y="187.439402"/>
     <use style="fill:#333333;stroke:#333333;" x="703.443063" xlink:href="#mbd82db771b" y="94.277959"/>
    </g>
   </g>
   <g id="PathCollection_2">
    <defs>
     <path d="M 0 -2.236068 
L -2.236068 2.236068 
L 2.236068 2.236068 
z
" id="m9953fbfd33" style="stroke:#ff0000;"/>
    </defs>
    <g clip-path="url(#pce575fbc95)">
     <use style="fill:#ff0000;stroke:#ff0000;" x="151.021686" xlink:href="#m9953fbfd33" y="86.723265"/>
     <use style="fill:#ff0000;stroke:#ff0000;" x="154.314763" xlink:href="#m9953fbfd33" y="106.975078"/>
     <use style="fill:#ff0000;stroke:#ff0000;" x="158.671074" xlink:href="#m9953fbfd33" y="133.819892"/>
     <use style="fill:#ff0000;stroke:#ff0000;" x="162.418007" xlink:href="#m9953fbfd33" y="156.971027"/>
     <use style="fill:#ff0000;stroke:#ff0000;" x="166.833292" xlink:href="#m9953fbfd33" y="183.667675"/>
     <use style="fill:#ff0000;stroke:#ff0000;" x="171.092224" xlink:href="#m9953fbfd33" y="208.916964"/>
     <use style="fill:#ff0000;stroke:#ff0000;" x="177.179886" xlink:href="#m9953fbfd33" y="243.651092"/>
     <use style="fill:#ff0000;stroke:#ff0000;" x="183.476771" xlink:href="#m9953fbfd33" y="277.092385"/>
     <use style="fill:#ff0000;stroke:#ff0000;" x="192.493442" xlink:href="#m9953fbfd33" y="319.321212"/>
     <use style="fill:#ff0000;stroke:#ff0000;" x="202.285239" xlink:href="#m9953fbfd33" y="354.86748"/>
     <use style="fill:#ff0000;stroke:#ff0000;" x="216.176908" xlink:href="#m9953fbfd33" y="394.735729"/>
     <use style="fill:#ff0000;stroke:#ff0000;" x="230.039048" xlink:href="#m9953fbfd33" y="425.236801"/>
     <use style="fill:#ff0000;stroke:#ff0000;" x="249.334869" xlink:href="#m9953fbfd33" y="455.194052"/>
     <use style="fill:#ff0000;stroke:#ff0000;" x="265.886849" xlink:href="#m9953fbfd33" y="472.653315"/>
     <use style="fill:#ff0000;stroke:#ff0000;" x="287.018719" xlink:href="#m9953fbfd33" y="489.0554"/>
     <use style="fill:#ff0000;stroke:#ff0000;" x="305.20204" xlink:href="#m9953fbfd33" y="500.956465"/>
     <use style="fill:#ff0000;stroke:#ff0000;" x="326.703915" xlink:href="#m9953fbfd33" y="513.801386"/>
     <use style="fill:#ff0000;stroke:#ff0000;" x="345.152389" xlink:href="#m9953fbfd33" y="523.545909"/>
     <use style="fill:#ff0000;stroke:#ff0000;" x="367.032177" xlink:href="#m9953fbfd33" y="532.773019"/>
     <use style="fill:#ff0000;stroke:#ff0000;" x="385.875247" xlink:href="#m9953fbfd33" y="539.140427"/>
     <use style="fill:#ff0000;stroke:#ff0000;" x="409.032262" xlink:href="#m9953fbfd33" y="546.085813"/>
     <use style="fill:#ff0000;stroke:#ff0000;" x="427.156234" xlink:href="#m9953fbfd33" y="551.175652"/>
     <use style="fill:#ff0000;stroke:#ff0000;" x="449.974912" xlink:href="#m9953fbfd33" y="555.965554"/>
     <use style="fill:#ff0000;stroke:#ff0000;" x="467.782362" xlink:href="#m9953fbfd33" y="557.297278"/>
     <use style="fill:#ff0000;stroke:#ff0000;" x="490.372757" xlink:href="#m9953fbfd33" y="555.277198"/>
     <use style="fill:#ff0000;stroke:#ff0000;" x="507.943334" xlink:href="#m9953fbfd33" y="550.477326"/>
     <use style="fill:#ff0000;stroke:#ff0000;" x="529.930264" xlink:href="#m9953fbfd33" y="539.040533"/>
     <use style="fill:#ff0000;stroke:#ff0000;" x="546.824398" xlink:href="#m9953fbfd33" y="524.128589"/>
     <use style="fill:#ff0000;stroke:#ff0000;" x="567.514538" xlink:href="#m9953fbfd33" y="495.896004"/>
     <use style="fill:#ff0000;stroke:#ff0000;" x="582.900127" xlink:href="#m9953fbfd33" y="466.298173"/>
     <use style="fill:#ff0000;stroke:#ff0000;" x="600.929082" xlink:href="#m9953fbfd33" y="419.630803"/>
     <use style="fill:#ff0000;stroke:#ff0000;" x="614.086704" xlink:href="#m9953fbfd33" y="377.881547"/>
     <use style="fill:#ff0000;stroke:#ff0000;" x="630.250276" xlink:href="#m9953fbfd33" y="321.611371"/>
     <use style="fill:#ff0000;stroke:#ff0000;" x="642.805871" xlink:href="#m9953fbfd33" y="276.086991"/>
     <use style="fill:#ff0000;stroke:#ff0000;" x="658.668337" xlink:href="#m9953fbfd33" y="217.13295"/>
     <use style="fill:#ff0000;stroke:#ff0000;" x="671.090548" xlink:href="#m9953fbfd33" y="169.704639"/>
     <use style="fill:#ff0000;stroke:#ff0000;" x="687.359904" xlink:href="#m9953fbfd33" y="106.760745"/>
    </g>
   </g>
   <g id="PathCollection_3">
    <defs>
     <path d="M 0 2.236068 
C 0.593012 2.236068 1.161816 2.000462 1.581139 1.581139 
C 2.000462 1.161816 2.236068 0.593012 2.236068 0 
C 2.236068 -0.593012 2.000462 -1.161816 1.581139 -1.581139 
C 1.161816 -2.000462 0.593012 -2.236068 0 -2.236068 
C -0.593012 -2.236068 -1.161816 -2.000462 -1.581139 -1.581139 
C -2.000462 -1.161816 -2.236068 -0.593012 -2.236068 0 
C -2.236068 0.593012 -2.000462 1.161816 -1.581139 1.581139 
C -1.161816 2.000462 -0.593012 2.236068 0 2.236068 
z
" id="m93d9007985" style="stroke:#0000ff;"/>
    </defs>
    <g clip-path="url(#pce575fbc95)">
     <use style="fill:#0000ff;stroke:#0000ff;" x="155.267841" xlink:href="#m93d9007985" y="99.18514"/>
     <use style="fill:#0000ff;stroke:#0000ff;" x="157.4323" xlink:href="#m93d9007985" y="112.080808"/>
     <use style="fill:#0000ff;stroke:#0000ff;" x="159.9222" xlink:href="#m93d9007985" y="126.916551"/>
     <use style="fill:#0000ff;stroke:#0000ff;" x="163.104995" xlink:href="#m93d9007985" y="145.732754"/>
     <use style="fill:#0000ff;stroke:#0000ff;" x="167.149123" xlink:href="#m93d9007985" y="169.725883"/>
     <use style="fill:#0000ff;stroke:#0000ff;" x="172.109436" xlink:href="#m93d9007985" y="198.736265"/>
     <use style="fill:#0000ff;stroke:#0000ff;" x="178.064196" xlink:href="#m93d9007985" y="232.628522"/>
     <use style="fill:#0000ff;stroke:#0000ff;" x="185.228682" xlink:href="#m93d9007985" y="270.438815"/>
     <use style="fill:#0000ff;stroke:#0000ff;" x="193.908457" xlink:href="#m93d9007985" y="310.759863"/>
     <use style="fill:#0000ff;stroke:#0000ff;" x="204.48284" xlink:href="#m93d9007985" y="351.60635"/>
     <use style="fill:#0000ff;stroke:#0000ff;" x="217.246348" xlink:href="#m93d9007985" y="390.755892"/>
     <use style="fill:#0000ff;stroke:#0000ff;" x="232.305699" xlink:href="#m93d9007985" y="425.917511"/>
     <use style="fill:#0000ff;stroke:#0000ff;" x="249.265796" xlink:href="#m93d9007985" y="455.452893"/>
     <use style="fill:#0000ff;stroke:#0000ff;" x="267.690378" xlink:href="#m93d9007985" y="478.659363"/>
     <use style="fill:#0000ff;stroke:#0000ff;" x="286.92562" xlink:href="#m93d9007985" y="496.228643"/>
     <use style="fill:#0000ff;stroke:#0000ff;" x="306.512599" xlink:href="#m93d9007985" y="509.298506"/>
     <use style="fill:#0000ff;stroke:#0000ff;" x="326.378986" xlink:href="#m93d9007985" y="519.192139"/>
     <use style="fill:#0000ff;stroke:#0000ff;" x="346.450935" xlink:href="#m93d9007985" y="526.962736"/>
     <use style="fill:#0000ff;stroke:#0000ff;" x="366.681963" xlink:href="#m93d9007985" y="533.285639"/>
     <use style="fill:#0000ff;stroke:#0000ff;" x="387.11549" xlink:href="#m93d9007985" y="538.696263"/>
     <use style="fill:#0000ff;stroke:#0000ff;" x="407.757166" xlink:href="#m93d9007985" y="543.58078"/>
     <use style="fill:#0000ff;stroke:#0000ff;" x="428.364964" xlink:href="#m93d9007985" y="547.571062"/>
     <use style="fill:#0000ff;stroke:#0000ff;" x="448.771382" xlink:href="#m93d9007985" y="550.125481"/>
     <use style="fill:#0000ff;stroke:#0000ff;" x="469.058827" xlink:href="#m93d9007985" y="550.888534"/>
     <use style="fill:#0000ff;stroke:#0000ff;" x="489.221852" xlink:href="#m93d9007985" y="548.958286"/>
     <use style="fill:#0000ff;stroke:#0000ff;" x="509.1717" xlink:href="#m93d9007985" y="543.312184"/>
     <use style="fill:#0000ff;stroke:#0000ff;" x="528.815968" xlink:href="#m93d9007985" y="532.655094"/>
     <use style="fill:#0000ff;stroke:#0000ff;" x="548.084403" xlink:href="#m93d9007985" y="515.830166"/>
     <use style="fill:#0000ff;stroke:#0000ff;" x="566.723996" xlink:href="#m93d9007985" y="491.400349"/>
     <use style="fill:#0000ff;stroke:#0000ff;" x="584.516143" xlink:href="#m93d9007985" y="459.130098"/>
     <use style="fill:#0000ff;stroke:#0000ff;" x="601.30372" xlink:href="#m93d9007985" y="420.001171"/>
     <use style="fill:#0000ff;stroke:#0000ff;" x="617.058707" xlink:href="#m93d9007985" y="375.031104"/>
     <use style="fill:#0000ff;stroke:#0000ff;" x="631.951439" xlink:href="#m93d9007985" y="325.674311"/>
     <use style="fill:#0000ff;stroke:#0000ff;" x="646.197986" xlink:href="#m93d9007985" y="273.337064"/>
     <use style="fill:#0000ff;stroke:#0000ff;" x="660.018224" xlink:href="#m93d9007985" y="219.152565"/>
     <use style="fill:#0000ff;stroke:#0000ff;" x="673.630749" xlink:href="#m93d9007985" y="163.91256"/>
     <use style="fill:#0000ff;stroke:#0000ff;" x="687.439614" xlink:href="#m93d9007985" y="107.191051"/>
    </g>
   </g>
   <g id="patch_3">
    <path d="M 108 640.8 
L 108 86.4 
" style="fill:none;stroke:#000000;stroke-linecap:square;stroke-linejoin:miter;stroke-width:0.8;"/>
   </g>
   <g id="patch_4">
    <path d="M 777.6 640.8 
L 777.6 86.4 
" style="fill:none;stroke:#000000;stroke-linecap:square;stroke-linejoin:miter;stroke-width:0.8;"/>
   </g>
   <g id="patch_5">
    <path d="M 108 640.8 
L 777.6 640.8 
" style="fill:none;stroke:#000000;stroke-linecap:square;stroke-linejoin:miter;stroke-width:0.8;"/>
   </g>
   <g id="patch_6">
    <path d="M 108 86.4 
L 777.6 86.4 
" style="fill:none;stroke:#000000;stroke-linecap:square;stroke-linejoin:miter;stroke-width:0.8;"/>
   </g>
   <g id="legend_1">
    <g id="patch_7">
     <path d="M 671.63125 153.1125 
L 770.6 153.1125 
Q 772.6 153.1125 772.6 151.1125 
L 772.6 93.4 
Q 772.6 91.4 770.6 91.4 
L 671.63125 91.4 
Q 669.63125 91.4 669.63125 93.4 
L 669.63125 151.1125 
Q 669.63125 153.1125 671.63125 153.1125 
z
" style="fill:#ffffff;opacity:0.8;stroke:#cccccc;stroke-linejoin:miter;"/>
    </g>
    <g id="line2d_15">
     <path d="M 673.63125 99.498437 
L 693.63125 99.498437 
" style="fill:none;stroke:#008000;stroke-linecap:square;stroke-width:3;"/>
    </g>
    <g id="line2d_16"/>
    <g id="text_16">
     <!-- Ground Truth -->
     <defs>
      <path d="M 59.515625 10.40625 
L 59.515625 29.984375 
L 43.40625 29.984375 
L 43.40625 38.09375 
L 69.28125 38.09375 
L 69.28125 6.78125 
Q 63.578125 2.734375 56.6875 0.65625 
Q 49.8125 -1.421875 42 -1.421875 
Q 24.90625 -1.421875 15.25 8.5625 
Q 5.609375 18.5625 5.609375 36.375 
Q 5.609375 54.25 15.25 64.234375 
Q 24.90625 74.21875 42 74.21875 
Q 49.125 74.21875 55.546875 72.453125 
Q 61.96875 70.703125 67.390625 67.28125 
L 67.390625 56.78125 
Q 61.921875 61.421875 55.765625 63.765625 
Q 49.609375 66.109375 42.828125 66.109375 
Q 29.4375 66.109375 22.71875 58.640625 
Q 16.015625 51.171875 16.015625 36.375 
Q 16.015625 21.625 22.71875 14.15625 
Q 29.4375 6.6875 42.828125 6.6875 
Q 48.046875 6.6875 52.140625 7.59375 
Q 56.25 8.5 59.515625 10.40625 
z
" id="DejaVuSans-71"/>
      <path d="M 41.109375 46.296875 
Q 39.59375 47.171875 37.8125 47.578125 
Q 36.03125 48 33.890625 48 
Q 26.265625 48 22.1875 43.046875 
Q 18.109375 38.09375 18.109375 28.8125 
L 18.109375 0 
L 9.078125 0 
L 9.078125 54.6875 
L 18.109375 54.6875 
L 18.109375 46.1875 
Q 20.953125 51.171875 25.484375 53.578125 
Q 30.03125 56 36.53125 56 
Q 37.453125 56 38.578125 55.875 
Q 39.703125 55.765625 41.0625 55.515625 
z
" id="DejaVuSans-114"/>
      <path d="M 30.609375 48.390625 
Q 23.390625 48.390625 19.1875 42.75 
Q 14.984375 37.109375 14.984375 27.296875 
Q 14.984375 17.484375 19.15625 11.84375 
Q 23.34375 6.203125 30.609375 6.203125 
Q 37.796875 6.203125 41.984375 11.859375 
Q 46.1875 17.53125 46.1875 27.296875 
Q 46.1875 37.015625 41.984375 42.703125 
Q 37.796875 48.390625 30.609375 48.390625 
z
M 30.609375 56 
Q 42.328125 56 49.015625 48.375 
Q 55.71875 40.765625 55.71875 27.296875 
Q 55.71875 13.875 49.015625 6.21875 
Q 42.328125 -1.421875 30.609375 -1.421875 
Q 18.84375 -1.421875 12.171875 6.21875 
Q 5.515625 13.875 5.515625 27.296875 
Q 5.515625 40.765625 12.171875 48.375 
Q 18.84375 56 30.609375 56 
z
" id="DejaVuSans-111"/>
      <path d="M 8.5 21.578125 
L 8.5 54.6875 
L 17.484375 54.6875 
L 17.484375 21.921875 
Q 17.484375 14.15625 20.5 10.265625 
Q 23.53125 6.390625 29.59375 6.390625 
Q 36.859375 6.390625 41.078125 11.03125 
Q 45.3125 15.671875 45.3125 23.6875 
L 45.3125 54.6875 
L 54.296875 54.6875 
L 54.296875 0 
L 45.3125 0 
L 45.3125 8.40625 
Q 42.046875 3.421875 37.71875 1 
Q 33.40625 -1.421875 27.6875 -1.421875 
Q 18.265625 -1.421875 13.375 4.4375 
Q 8.5 10.296875 8.5 21.578125 
z
M 31.109375 56 
z
" id="DejaVuSans-117"/>
      <path d="M 54.890625 33.015625 
L 54.890625 0 
L 45.90625 0 
L 45.90625 32.71875 
Q 45.90625 40.484375 42.875 44.328125 
Q 39.84375 48.1875 33.796875 48.1875 
Q 26.515625 48.1875 22.3125 43.546875 
Q 18.109375 38.921875 18.109375 30.90625 
L 18.109375 0 
L 9.078125 0 
L 9.078125 54.6875 
L 18.109375 54.6875 
L 18.109375 46.1875 
Q 21.34375 51.125 25.703125 53.5625 
Q 30.078125 56 35.796875 56 
Q 45.21875 56 50.046875 50.171875 
Q 54.890625 44.34375 54.890625 33.015625 
z
" id="DejaVuSans-110"/>
      <path d="M 45.40625 46.390625 
L 45.40625 75.984375 
L 54.390625 75.984375 
L 54.390625 0 
L 45.40625 0 
L 45.40625 8.203125 
Q 42.578125 3.328125 38.25 0.953125 
Q 33.9375 -1.421875 27.875 -1.421875 
Q 17.96875 -1.421875 11.734375 6.484375 
Q 5.515625 14.40625 5.515625 27.296875 
Q 5.515625 40.1875 11.734375 48.09375 
Q 17.96875 56 27.875 56 
Q 33.9375 56 38.25 53.625 
Q 42.578125 51.265625 45.40625 46.390625 
z
M 14.796875 27.296875 
Q 14.796875 17.390625 18.875 11.75 
Q 22.953125 6.109375 30.078125 6.109375 
Q 37.203125 6.109375 41.296875 11.75 
Q 45.40625 17.390625 45.40625 27.296875 
Q 45.40625 37.203125 41.296875 42.84375 
Q 37.203125 48.484375 30.078125 48.484375 
Q 22.953125 48.484375 18.875 42.84375 
Q 14.796875 37.203125 14.796875 27.296875 
z
" id="DejaVuSans-100"/>
      <path d="M -0.296875 72.90625 
L 61.375 72.90625 
L 61.375 64.59375 
L 35.5 64.59375 
L 35.5 0 
L 25.59375 0 
L 25.59375 64.59375 
L -0.296875 64.59375 
z
" id="DejaVuSans-84"/>
      <path d="M 18.3125 70.21875 
L 18.3125 54.6875 
L 36.8125 54.6875 
L 36.8125 47.703125 
L 18.3125 47.703125 
L 18.3125 18.015625 
Q 18.3125 11.328125 20.140625 9.421875 
Q 21.96875 7.515625 27.59375 7.515625 
L 36.8125 7.515625 
L 36.8125 0 
L 27.59375 0 
Q 17.1875 0 13.234375 3.875 
Q 9.28125 7.765625 9.28125 18.015625 
L 9.28125 47.703125 
L 2.6875 47.703125 
L 2.6875 54.6875 
L 9.28125 54.6875 
L 9.28125 70.21875 
z
" id="DejaVuSans-116"/>
      <path d="M 54.890625 33.015625 
L 54.890625 0 
L 45.90625 0 
L 45.90625 32.71875 
Q 45.90625 40.484375 42.875 44.328125 
Q 39.84375 48.1875 33.796875 48.1875 
Q 26.515625 48.1875 22.3125 43.546875 
Q 18.109375 38.921875 18.109375 30.90625 
L 18.109375 0 
L 9.078125 0 
L 9.078125 75.984375 
L 18.109375 75.984375 
L 18.109375 46.1875 
Q 21.34375 51.125 25.703125 53.5625 
Q 30.078125 56 35.796875 56 
Q 45.21875 56 50.046875 50.171875 
Q 54.890625 44.34375 54.890625 33.015625 
z
" id="DejaVuSans-104"/>
     </defs>
     <g transform="translate(701.63125 102.998437)scale(0.1 -0.1)">
      <use xlink:href="#DejaVuSans-71"/>
      <use x="77.490234" xlink:href="#DejaVuSans-114"/>
      <use x="118.572266" xlink:href="#DejaVuSans-111"/>
      <use x="179.753906" xlink:href="#DejaVuSans-117"/>
      <use x="243.132812" xlink:href="#DejaVuSans-110"/>
      <use x="306.511719" xlink:href="#DejaVuSans-100"/>
      <use x="369.988281" xlink:href="#DejaVuSans-32"/>
      <use x="401.775391" xlink:href="#DejaVuSans-84"/>
      <use x="462.640625" xlink:href="#DejaVuSans-114"/>
      <use x="503.753906" xlink:href="#DejaVuSans-117"/>
      <use x="567.132812" xlink:href="#DejaVuSans-116"/>
      <use x="606.341797" xlink:href="#DejaVuSans-104"/>
     </g>
    </g>
    <g id="PathCollection_4">
     <g>
      <use style="fill:#333333;stroke:#333333;" x="683.63125" xlink:href="#mbd82db771b" y="115.051562"/>
     </g>
    </g>
    <g id="text_17">
     <!-- MPC -->
     <defs>
      <path d="M 9.8125 72.90625 
L 24.515625 72.90625 
L 43.109375 23.296875 
L 61.8125 72.90625 
L 76.515625 72.90625 
L 76.515625 0 
L 66.890625 0 
L 66.890625 64.015625 
L 48.09375 14.015625 
L 38.1875 14.015625 
L 19.390625 64.015625 
L 19.390625 0 
L 9.8125 0 
z
" id="DejaVuSans-77"/>
      <path d="M 19.671875 64.796875 
L 19.671875 37.40625 
L 32.078125 37.40625 
Q 38.96875 37.40625 42.71875 40.96875 
Q 46.484375 44.53125 46.484375 51.125 
Q 46.484375 57.671875 42.71875 61.234375 
Q 38.96875 64.796875 32.078125 64.796875 
z
M 9.8125 72.90625 
L 32.078125 72.90625 
Q 44.34375 72.90625 50.609375 67.359375 
Q 56.890625 61.8125 56.890625 51.125 
Q 56.890625 40.328125 50.609375 34.8125 
Q 44.34375 29.296875 32.078125 29.296875 
L 19.671875 29.296875 
L 19.671875 0 
L 9.8125 0 
z
" id="DejaVuSans-80"/>
      <path d="M 64.40625 67.28125 
L 64.40625 56.890625 
Q 59.421875 61.53125 53.78125 63.8125 
Q 48.140625 66.109375 41.796875 66.109375 
Q 29.296875 66.109375 22.65625 58.46875 
Q 16.015625 50.828125 16.015625 36.375 
Q 16.015625 21.96875 22.65625 14.328125 
Q 29.296875 6.6875 41.796875 6.6875 
Q 48.140625 6.6875 53.78125 8.984375 
Q 59.421875 11.28125 64.40625 15.921875 
L 64.40625 5.609375 
Q 59.234375 2.09375 53.4375 0.328125 
Q 47.65625 -1.421875 41.21875 -1.421875 
Q 24.65625 -1.421875 15.125 8.703125 
Q 5.609375 18.84375 5.609375 36.375 
Q 5.609375 53.953125 15.125 64.078125 
Q 24.65625 74.21875 41.21875 74.21875 
Q 47.75 74.21875 53.53125 72.484375 
Q 59.328125 70.75 64.40625 67.28125 
z
" id="DejaVuSans-67"/>
     </defs>
     <g transform="translate(701.63125 117.676562)scale(0.1 -0.1)">
      <use xlink:href="#DejaVuSans-77"/>
      <use x="86.279297" xlink:href="#DejaVuSans-80"/>
      <use x="146.582031" xlink:href="#DejaVuSans-67"/>
     </g>
    </g>
    <g id="PathCollection_5">
     <g>
      <use style="fill:#ff0000;stroke:#ff0000;" x="683.63125" xlink:href="#m9953fbfd33" y="129.729687"/>
     </g>
    </g>
    <g id="text_18">
     <!-- Stanley -->
     <defs>
      <path d="M 53.515625 70.515625 
L 53.515625 60.890625 
Q 47.90625 63.578125 42.921875 64.890625 
Q 37.9375 66.21875 33.296875 66.21875 
Q 25.25 66.21875 20.875 63.09375 
Q 16.5 59.96875 16.5 54.203125 
Q 16.5 49.359375 19.40625 46.890625 
Q 22.3125 44.4375 30.421875 42.921875 
L 36.375 41.703125 
Q 47.40625 39.59375 52.65625 34.296875 
Q 57.90625 29 57.90625 20.125 
Q 57.90625 9.515625 50.796875 4.046875 
Q 43.703125 -1.421875 29.984375 -1.421875 
Q 24.8125 -1.421875 18.96875 -0.25 
Q 13.140625 0.921875 6.890625 3.21875 
L 6.890625 13.375 
Q 12.890625 10.015625 18.65625 8.296875 
Q 24.421875 6.59375 29.984375 6.59375 
Q 38.421875 6.59375 43.015625 9.90625 
Q 47.609375 13.234375 47.609375 19.390625 
Q 47.609375 24.75 44.3125 27.78125 
Q 41.015625 30.8125 33.5 32.328125 
L 27.484375 33.5 
Q 16.453125 35.6875 11.515625 40.375 
Q 6.59375 45.0625 6.59375 53.421875 
Q 6.59375 63.09375 13.40625 68.65625 
Q 20.21875 74.21875 32.171875 74.21875 
Q 37.3125 74.21875 42.625 73.28125 
Q 47.953125 72.359375 53.515625 70.515625 
z
" id="DejaVuSans-83"/>
      <path d="M 34.28125 27.484375 
Q 23.390625 27.484375 19.1875 25 
Q 14.984375 22.515625 14.984375 16.5 
Q 14.984375 11.71875 18.140625 8.90625 
Q 21.296875 6.109375 26.703125 6.109375 
Q 34.1875 6.109375 38.703125 11.40625 
Q 43.21875 16.703125 43.21875 25.484375 
L 43.21875 27.484375 
z
M 52.203125 31.203125 
L 52.203125 0 
L 43.21875 0 
L 43.21875 8.296875 
Q 40.140625 3.328125 35.546875 0.953125 
Q 30.953125 -1.421875 24.3125 -1.421875 
Q 15.921875 -1.421875 10.953125 3.296875 
Q 6 8.015625 6 15.921875 
Q 6 25.140625 12.171875 29.828125 
Q 18.359375 34.515625 30.609375 34.515625 
L 43.21875 34.515625 
L 43.21875 35.40625 
Q 43.21875 41.609375 39.140625 45 
Q 35.0625 48.390625 27.6875 48.390625 
Q 23 48.390625 18.546875 47.265625 
Q 14.109375 46.140625 10.015625 43.890625 
L 10.015625 52.203125 
Q 14.9375 54.109375 19.578125 55.046875 
Q 24.21875 56 28.609375 56 
Q 40.484375 56 46.34375 49.84375 
Q 52.203125 43.703125 52.203125 31.203125 
z
" id="DejaVuSans-97"/>
      <path d="M 9.421875 75.984375 
L 18.40625 75.984375 
L 18.40625 0 
L 9.421875 0 
z
" id="DejaVuSans-108"/>
      <path d="M 56.203125 29.59375 
L 56.203125 25.203125 
L 14.890625 25.203125 
Q 15.484375 15.921875 20.484375 11.0625 
Q 25.484375 6.203125 34.421875 6.203125 
Q 39.59375 6.203125 44.453125 7.46875 
Q 49.3125 8.734375 54.109375 11.28125 
L 54.109375 2.78125 
Q 49.265625 0.734375 44.1875 -0.34375 
Q 39.109375 -1.421875 33.890625 -1.421875 
Q 20.796875 -1.421875 13.15625 6.1875 
Q 5.515625 13.8125 5.515625 26.8125 
Q 5.515625 40.234375 12.765625 48.109375 
Q 20.015625 56 32.328125 56 
Q 43.359375 56 49.78125 48.890625 
Q 56.203125 41.796875 56.203125 29.59375 
z
M 47.21875 32.234375 
Q 47.125 39.59375 43.09375 43.984375 
Q 39.0625 48.390625 32.421875 48.390625 
Q 24.90625 48.390625 20.390625 44.140625 
Q 15.875 39.890625 15.1875 32.171875 
z
" id="DejaVuSans-101"/>
     </defs>
     <g transform="translate(701.63125 132.354687)scale(0.1 -0.1)">
      <use xlink:href="#DejaVuSans-83"/>
      <use x="63.476562" xlink:href="#DejaVuSans-116"/>
      <use x="102.685547" xlink:href="#DejaVuSans-97"/>
      <use x="163.964844" xlink:href="#DejaVuSans-110"/>
      <use x="227.34375" xlink:href="#DejaVuSans-108"/>
      <use x="255.126953" xlink:href="#DejaVuSans-101"/>
      <use x="316.650391" xlink:href="#DejaVuSans-121"/>
     </g>
    </g>
    <g id="PathCollection_6">
     <g>
      <use style="fill:#0000ff;stroke:#0000ff;" x="683.63125" xlink:href="#m93d9007985" y="144.407812"/>
     </g>
    </g>
    <g id="text_19">
     <!-- Pure Pursuit -->
     <defs>
      <path d="M 44.28125 53.078125 
L 44.28125 44.578125 
Q 40.484375 46.53125 36.375 47.5 
Q 32.28125 48.484375 27.875 48.484375 
Q 21.1875 48.484375 17.84375 46.4375 
Q 14.5 44.390625 14.5 40.28125 
Q 14.5 37.15625 16.890625 35.375 
Q 19.28125 33.59375 26.515625 31.984375 
L 29.59375 31.296875 
Q 39.15625 29.25 43.1875 25.515625 
Q 47.21875 21.78125 47.21875 15.09375 
Q 47.21875 7.46875 41.1875 3.015625 
Q 35.15625 -1.421875 24.609375 -1.421875 
Q 20.21875 -1.421875 15.453125 -0.5625 
Q 10.6875 0.296875 5.421875 2 
L 5.421875 11.28125 
Q 10.40625 8.6875 15.234375 7.390625 
Q 20.0625 6.109375 24.8125 6.109375 
Q 31.15625 6.109375 34.5625 8.28125 
Q 37.984375 10.453125 37.984375 14.40625 
Q 37.984375 18.0625 35.515625 20.015625 
Q 33.0625 21.96875 24.703125 23.78125 
L 21.578125 24.515625 
Q 13.234375 26.265625 9.515625 29.90625 
Q 5.8125 33.546875 5.8125 39.890625 
Q 5.8125 47.609375 11.28125 51.796875 
Q 16.75 56 26.8125 56 
Q 31.78125 56 36.171875 55.265625 
Q 40.578125 54.546875 44.28125 53.078125 
z
" id="DejaVuSans-115"/>
      <path d="M 9.421875 54.6875 
L 18.40625 54.6875 
L 18.40625 0 
L 9.421875 0 
z
M 9.421875 75.984375 
L 18.40625 75.984375 
L 18.40625 64.59375 
L 9.421875 64.59375 
z
" id="DejaVuSans-105"/>
     </defs>
     <g transform="translate(701.63125 147.032812)scale(0.1 -0.1)">
      <use xlink:href="#DejaVuSans-80"/>
      <use x="60.287109" xlink:href="#DejaVuSans-117"/>
      <use x="123.666016" xlink:href="#DejaVuSans-114"/>
      <use x="164.748047" xlink:href="#DejaVuSans-101"/>
      <use x="226.271484" xlink:href="#DejaVuSans-32"/>
      <use x="258.058594" xlink:href="#DejaVuSans-80"/>
      <use x="318.345703" xlink:href="#DejaVuSans-117"/>
      <use x="381.724609" xlink:href="#DejaVuSans-114"/>
      <use x="422.837891" xlink:href="#DejaVuSans-115"/>
      <use x="474.9375" xlink:href="#DejaVuSans-117"/>
      <use x="538.316406" xlink:href="#DejaVuSans-105"/>
      <use x="566.099609" xlink:href="#DejaVuSans-116"/>
     </g>
    </g>
   </g>
  </g>
 </g>
 <defs>
  <clipPath id="pce575fbc95">
   <rect height="554.4" width="669.6" x="108" y="86.4"/>
  </clipPath>
 </defs>
</svg>
