<?xml version="1.0" encoding="utf-8" standalone="no"?>
<!DOCTYPE svg PUBLIC "-//W3C//DTD SVG 1.1//EN"
  "http://www.w3.org/Graphics/SVG/1.1/DTD/svg11.dtd">
<!-- Created with matplotlib (https://matplotlib.org/) -->
<svg height="720pt" version="1.1" viewBox="0 0 864 720" width="864pt" xmlns="http://www.w3.org/2000/svg" xmlns:xlink="http://www.w3.org/1999/xlink">
 <defs>
  <style type="text/css">
*{stroke-linecap:butt;stroke-linejoin:round;}
  </style>
 </defs>
 <g id="figure_1">
  <g id="patch_1">
   <path d="M 0 720 
L 864 720 
L 864 0 
L 0 0 
z
" style="fill:#ffffff;"/>
  </g>
  <g id="axes_1">
   <g id="patch_2">
    <path d="M 108 640.8 
L 777.6 640.8 
L 777.6 86.4 
L 108 86.4 
z
" style="fill:#ffffff;"/>
   </g>
   <g id="line2d_1">
    <path clip-path="url(#p0f91546cd3)" d="M 865 464.340443 
L 819.500727 428.023181 
L 779.797583 396.629372 
L 720.228977 349.554027 
L 666.544383 306.731563 
L 632.584196 279.75471 
L 618.327657 268.645796 
L 606.800752 259.91301 
L 598.041557 253.512333 
L 589.150661 247.289968 
L 580.099643 241.294199 
L 573.964866 237.446629 
L 567.743037 233.734759 
L 561.430164 230.171475 
L 555.023672 226.76851 
L 548.522456 223.536002 
L 541.926948 220.48204 
L 535.239161 217.61235 
L 528.462636 214.930151 
L 521.602284 212.436361 
L 514.6641 210.130074 
L 507.654806 208.009262 
L 500.581475 206.071508 
L 493.451214 204.314714 
L 486.270955 202.73771 
L 479.047389 201.340751 
L 471.786974 200.125832 
L 464.496027 199.096844 
L 457.180882 198.259611 
L 449.84806 197.621731 
L 442.504481 197.192239 
L 435.157692 196.981165 
L 427.8161 196.999071 
L 420.489195 197.25666 
L 413.187755 197.764518 
L 405.923968 198.532971 
L 398.711427 199.572002 
L 391.56493 200.89111 
L 384.500076 202.498944 
L 377.53266 204.402649 
L 370.677932 206.60703 
L 363.949849 209.113657 
L 357.360444 211.920166 
L 350.919414 215.019959 
L 344.63394 218.402418 
L 338.508668 222.053511 
L 332.54572 225.956636 
L 326.74458 230.093403 
L 321.101802 234.444156 
L 315.610604 238.98814 
L 310.260507 243.703459 
L 305.037249 248.56697 
L 297.400811 256.086846 
L 289.94064 263.801969 
L 277.711588 276.885967 
L 248.438808 308.355036 
L 233.894025 324.096506 
L 224.376303 334.706866 
L 215.068923 345.465313 
L 208.248 353.649158 
L 201.572654 361.938929 
L 195.04512 370.33671 
L 188.662757 378.840821 
L 180.363755 390.334356 
L 172.268968 401.978246 
L 160.362849 419.619903 
L 146.462689 440.202727 
L 138.337508 451.836441 
L 129.996647 463.317033 
L 123.577489 471.811095 
L 117.011239 480.200366 
L 110.299049 488.485637 
L 101.136093 499.380636 
L 91.761277 510.124782 
L 79.820787 523.397199 
L 60.460814 544.452946 
L 31.423417 576.042736 
L -1 611.728853 
L -1 611.728853 
" style="fill:none;stroke:#008000;stroke-linecap:square;stroke-width:3;"/>
   </g>
   <g id="matplotlib.axis_1">
    <g id="xtick_1">
     <g id="line2d_2">
      <defs>
       <path d="M 0 0 
L 0 3.5 
" id="meceb3c318f" style="stroke:#000000;stroke-width:0.8;"/>
      </defs>
      <g>
       <use style="stroke:#000000;stroke-width:0.8;" x="145.2" xlink:href="#meceb3c318f" y="640.8"/>
      </g>
     </g>
     <g id="text_1">
      <!-- −760 -->
      <defs>
       <path d="M 10.59375 35.5 
L 73.1875 35.5 
L 73.1875 27.203125 
L 10.59375 27.203125 
z
" id="DejaVuSans-8722"/>
       <path d="M 8.203125 72.90625 
L 55.078125 72.90625 
L 55.078125 68.703125 
L 28.609375 0 
L 18.3125 0 
L 43.21875 64.59375 
L 8.203125 64.59375 
z
" id="DejaVuSans-55"/>
       <path d="M 33.015625 40.375 
Q 26.375 40.375 22.484375 35.828125 
Q 18.609375 31.296875 18.609375 23.390625 
Q 18.609375 15.53125 22.484375 10.953125 
Q 26.375 6.390625 33.015625 6.390625 
Q 39.65625 6.390625 43.53125 10.953125 
Q 47.40625 15.53125 47.40625 23.390625 
Q 47.40625 31.296875 43.53125 35.828125 
Q 39.65625 40.375 33.015625 40.375 
z
M 52.59375 71.296875 
L 52.59375 62.3125 
Q 48.875 64.0625 45.09375 64.984375 
Q 41.3125 65.921875 37.59375 65.921875 
Q 27.828125 65.921875 22.671875 59.328125 
Q 17.53125 52.734375 16.796875 39.40625 
Q 19.671875 43.65625 24.015625 45.921875 
Q 28.375 48.1875 33.59375 48.1875 
Q 44.578125 48.1875 50.953125 41.515625 
Q 57.328125 34.859375 57.328125 23.390625 
Q 57.328125 12.15625 50.6875 5.359375 
Q 44.046875 -1.421875 33.015625 -1.421875 
Q 20.359375 -1.421875 13.671875 8.265625 
Q 6.984375 17.96875 6.984375 36.375 
Q 6.984375 53.65625 15.1875 63.9375 
Q 23.390625 74.21875 37.203125 74.21875 
Q 40.921875 74.21875 44.703125 73.484375 
Q 48.484375 72.75 52.59375 71.296875 
z
" id="DejaVuSans-54"/>
       <path d="M 31.78125 66.40625 
Q 24.171875 66.40625 20.328125 58.90625 
Q 16.5 51.421875 16.5 36.375 
Q 16.5 21.390625 20.328125 13.890625 
Q 24.171875 6.390625 31.78125 6.390625 
Q 39.453125 6.390625 43.28125 13.890625 
Q 47.125 21.390625 47.125 36.375 
Q 47.125 51.421875 43.28125 58.90625 
Q 39.453125 66.40625 31.78125 66.40625 
z
M 31.78125 74.21875 
Q 44.046875 74.21875 50.515625 64.515625 
Q 56.984375 54.828125 56.984375 36.375 
Q 56.984375 17.96875 50.515625 8.265625 
Q 44.046875 -1.421875 31.78125 -1.421875 
Q 19.53125 -1.421875 13.0625 8.265625 
Q 6.59375 17.96875 6.59375 36.375 
Q 6.59375 54.828125 13.0625 64.515625 
Q 19.53125 74.21875 31.78125 74.21875 
z
" id="DejaVuSans-48"/>
      </defs>
      <g transform="translate(131.466406 655.398438)scale(0.1 -0.1)">
       <use xlink:href="#DejaVuSans-8722"/>
       <use x="83.789062" xlink:href="#DejaVuSans-55"/>
       <use x="147.412109" xlink:href="#DejaVuSans-54"/>
       <use x="211.035156" xlink:href="#DejaVuSans-48"/>
      </g>
     </g>
    </g>
    <g id="xtick_2">
     <g id="line2d_3">
      <g>
       <use style="stroke:#000000;stroke-width:0.8;" x="219.6" xlink:href="#meceb3c318f" y="640.8"/>
      </g>
     </g>
     <g id="text_2">
      <!-- −750 -->
      <defs>
       <path d="M 10.796875 72.90625 
L 49.515625 72.90625 
L 49.515625 64.59375 
L 19.828125 64.59375 
L 19.828125 46.734375 
Q 21.96875 47.46875 24.109375 47.828125 
Q 26.265625 48.1875 28.421875 48.1875 
Q 40.625 48.1875 47.75 41.5 
Q 54.890625 34.8125 54.890625 23.390625 
Q 54.890625 11.625 47.5625 5.09375 
Q 40.234375 -1.421875 26.90625 -1.421875 
Q 22.3125 -1.421875 17.546875 -0.640625 
Q 12.796875 0.140625 7.71875 1.703125 
L 7.71875 11.625 
Q 12.109375 9.234375 16.796875 8.0625 
Q 21.484375 6.890625 26.703125 6.890625 
Q 35.15625 6.890625 40.078125 11.328125 
Q 45.015625 15.765625 45.015625 23.390625 
Q 45.015625 31 40.078125 35.4375 
Q 35.15625 39.890625 26.703125 39.890625 
Q 22.75 39.890625 18.8125 39.015625 
Q 14.890625 38.140625 10.796875 36.28125 
z
" id="DejaVuSans-53"/>
      </defs>
      <g transform="translate(205.866406 655.398438)scale(0.1 -0.1)">
       <use xlink:href="#DejaVuSans-8722"/>
       <use x="83.789062" xlink:href="#DejaVuSans-55"/>
       <use x="147.412109" xlink:href="#DejaVuSans-53"/>
       <use x="211.035156" xlink:href="#DejaVuSans-48"/>
      </g>
     </g>
    </g>
    <g id="xtick_3">
     <g id="line2d_4">
      <g>
       <use style="stroke:#000000;stroke-width:0.8;" x="294" xlink:href="#meceb3c318f" y="640.8"/>
      </g>
     </g>
     <g id="text_3">
      <!-- −740 -->
      <defs>
       <path d="M 37.796875 64.3125 
L 12.890625 25.390625 
L 37.796875 25.390625 
z
M 35.203125 72.90625 
L 47.609375 72.90625 
L 47.609375 25.390625 
L 58.015625 25.390625 
L 58.015625 17.1875 
L 47.609375 17.1875 
L 47.609375 0 
L 37.796875 0 
L 37.796875 17.1875 
L 4.890625 17.1875 
L 4.890625 26.703125 
z
" id="DejaVuSans-52"/>
      </defs>
      <g transform="translate(280.266406 655.398438)scale(0.1 -0.1)">
       <use xlink:href="#DejaVuSans-8722"/>
       <use x="83.789062" xlink:href="#DejaVuSans-55"/>
       <use x="147.412109" xlink:href="#DejaVuSans-52"/>
       <use x="211.035156" xlink:href="#DejaVuSans-48"/>
      </g>
     </g>
    </g>
    <g id="xtick_4">
     <g id="line2d_5">
      <g>
       <use style="stroke:#000000;stroke-width:0.8;" x="368.4" xlink:href="#meceb3c318f" y="640.8"/>
      </g>
     </g>
     <g id="text_4">
      <!-- −730 -->
      <defs>
       <path d="M 40.578125 39.3125 
Q 47.65625 37.796875 51.625 33 
Q 55.609375 28.21875 55.609375 21.1875 
Q 55.609375 10.40625 48.1875 4.484375 
Q 40.765625 -1.421875 27.09375 -1.421875 
Q 22.515625 -1.421875 17.65625 -0.515625 
Q 12.796875 0.390625 7.625 2.203125 
L 7.625 11.71875 
Q 11.71875 9.328125 16.59375 8.109375 
Q 21.484375 6.890625 26.8125 6.890625 
Q 36.078125 6.890625 40.9375 10.546875 
Q 45.796875 14.203125 45.796875 21.1875 
Q 45.796875 27.640625 41.28125 31.265625 
Q 36.765625 34.90625 28.71875 34.90625 
L 20.21875 34.90625 
L 20.21875 43.015625 
L 29.109375 43.015625 
Q 36.375 43.015625 40.234375 45.921875 
Q 44.09375 48.828125 44.09375 54.296875 
Q 44.09375 59.90625 40.109375 62.90625 
Q 36.140625 65.921875 28.71875 65.921875 
Q 24.65625 65.921875 20.015625 65.03125 
Q 15.375 64.15625 9.8125 62.3125 
L 9.8125 71.09375 
Q 15.4375 72.65625 20.34375 73.4375 
Q 25.25 74.21875 29.59375 74.21875 
Q 40.828125 74.21875 47.359375 69.109375 
Q 53.90625 64.015625 53.90625 55.328125 
Q 53.90625 49.265625 50.4375 45.09375 
Q 46.96875 40.921875 40.578125 39.3125 
z
" id="DejaVuSans-51"/>
      </defs>
      <g transform="translate(354.666406 655.398438)scale(0.1 -0.1)">
       <use xlink:href="#DejaVuSans-8722"/>
       <use x="83.789062" xlink:href="#DejaVuSans-55"/>
       <use x="147.412109" xlink:href="#DejaVuSans-51"/>
       <use x="211.035156" xlink:href="#DejaVuSans-48"/>
      </g>
     </g>
    </g>
    <g id="xtick_5">
     <g id="line2d_6">
      <g>
       <use style="stroke:#000000;stroke-width:0.8;" x="442.8" xlink:href="#meceb3c318f" y="640.8"/>
      </g>
     </g>
     <g id="text_5">
      <!-- −720 -->
      <defs>
       <path d="M 19.1875 8.296875 
L 53.609375 8.296875 
L 53.609375 0 
L 7.328125 0 
L 7.328125 8.296875 
Q 12.9375 14.109375 22.625 23.890625 
Q 32.328125 33.6875 34.8125 36.53125 
Q 39.546875 41.84375 41.421875 45.53125 
Q 43.3125 49.21875 43.3125 52.78125 
Q 43.3125 58.59375 39.234375 62.25 
Q 35.15625 65.921875 28.609375 65.921875 
Q 23.96875 65.921875 18.8125 64.3125 
Q 13.671875 62.703125 7.8125 59.421875 
L 7.8125 69.390625 
Q 13.765625 71.78125 18.9375 73 
Q 24.125 74.21875 28.421875 74.21875 
Q 39.75 74.21875 46.484375 68.546875 
Q 53.21875 62.890625 53.21875 53.421875 
Q 53.21875 48.921875 51.53125 44.890625 
Q 49.859375 40.875 45.40625 35.40625 
Q 44.1875 33.984375 37.640625 27.21875 
Q 31.109375 20.453125 19.1875 8.296875 
z
" id="DejaVuSans-50"/>
      </defs>
      <g transform="translate(429.066406 655.398438)scale(0.1 -0.1)">
       <use xlink:href="#DejaVuSans-8722"/>
       <use x="83.789062" xlink:href="#DejaVuSans-55"/>
       <use x="147.412109" xlink:href="#DejaVuSans-50"/>
       <use x="211.035156" xlink:href="#DejaVuSans-48"/>
      </g>
     </g>
    </g>
    <g id="xtick_6">
     <g id="line2d_7">
      <g>
       <use style="stroke:#000000;stroke-width:0.8;" x="517.2" xlink:href="#meceb3c318f" y="640.8"/>
      </g>
     </g>
     <g id="text_6">
      <!-- −710 -->
      <defs>
       <path d="M 12.40625 8.296875 
L 28.515625 8.296875 
L 28.515625 63.921875 
L 10.984375 60.40625 
L 10.984375 69.390625 
L 28.421875 72.90625 
L 38.28125 72.90625 
L 38.28125 8.296875 
L 54.390625 8.296875 
L 54.390625 0 
L 12.40625 0 
z
" id="DejaVuSans-49"/>
      </defs>
      <g transform="translate(503.466406 655.398438)scale(0.1 -0.1)">
       <use xlink:href="#DejaVuSans-8722"/>
       <use x="83.789062" xlink:href="#DejaVuSans-55"/>
       <use x="147.412109" xlink:href="#DejaVuSans-49"/>
       <use x="211.035156" xlink:href="#DejaVuSans-48"/>
      </g>
     </g>
    </g>
    <g id="xtick_7">
     <g id="line2d_8">
      <g>
       <use style="stroke:#000000;stroke-width:0.8;" x="591.6" xlink:href="#meceb3c318f" y="640.8"/>
      </g>
     </g>
     <g id="text_7">
      <!-- −700 -->
      <g transform="translate(577.866406 655.398438)scale(0.1 -0.1)">
       <use xlink:href="#DejaVuSans-8722"/>
       <use x="83.789062" xlink:href="#DejaVuSans-55"/>
       <use x="147.412109" xlink:href="#DejaVuSans-48"/>
       <use x="211.035156" xlink:href="#DejaVuSans-48"/>
      </g>
     </g>
    </g>
    <g id="xtick_8">
     <g id="line2d_9">
      <g>
       <use style="stroke:#000000;stroke-width:0.8;" x="666" xlink:href="#meceb3c318f" y="640.8"/>
      </g>
     </g>
     <g id="text_8">
      <!-- −690 -->
      <defs>
       <path d="M 10.984375 1.515625 
L 10.984375 10.5 
Q 14.703125 8.734375 18.5 7.8125 
Q 22.3125 6.890625 25.984375 6.890625 
Q 35.75 6.890625 40.890625 13.453125 
Q 46.046875 20.015625 46.78125 33.40625 
Q 43.953125 29.203125 39.59375 26.953125 
Q 35.25 24.703125 29.984375 24.703125 
Q 19.046875 24.703125 12.671875 31.3125 
Q 6.296875 37.9375 6.296875 49.421875 
Q 6.296875 60.640625 12.9375 67.421875 
Q 19.578125 74.21875 30.609375 74.21875 
Q 43.265625 74.21875 49.921875 64.515625 
Q 56.59375 54.828125 56.59375 36.375 
Q 56.59375 19.140625 48.40625 8.859375 
Q 40.234375 -1.421875 26.421875 -1.421875 
Q 22.703125 -1.421875 18.890625 -0.6875 
Q 15.09375 0.046875 10.984375 1.515625 
z
M 30.609375 32.421875 
Q 37.25 32.421875 41.125 36.953125 
Q 45.015625 41.5 45.015625 49.421875 
Q 45.015625 57.28125 41.125 61.84375 
Q 37.25 66.40625 30.609375 66.40625 
Q 23.96875 66.40625 20.09375 61.84375 
Q 16.21875 57.28125 16.21875 49.421875 
Q 16.21875 41.5 20.09375 36.953125 
Q 23.96875 32.421875 30.609375 32.421875 
z
" id="DejaVuSans-57"/>
      </defs>
      <g transform="translate(652.266406 655.398438)scale(0.1 -0.1)">
       <use xlink:href="#DejaVuSans-8722"/>
       <use x="83.789062" xlink:href="#DejaVuSans-54"/>
       <use x="147.412109" xlink:href="#DejaVuSans-57"/>
       <use x="211.035156" xlink:href="#DejaVuSans-48"/>
      </g>
     </g>
    </g>
    <g id="xtick_9">
     <g id="line2d_10">
      <g>
       <use style="stroke:#000000;stroke-width:0.8;" x="740.4" xlink:href="#meceb3c318f" y="640.8"/>
      </g>
     </g>
     <g id="text_9">
      <!-- −680 -->
      <defs>
       <path d="M 31.78125 34.625 
Q 24.75 34.625 20.71875 30.859375 
Q 16.703125 27.09375 16.703125 20.515625 
Q 16.703125 13.921875 20.71875 10.15625 
Q 24.75 6.390625 31.78125 6.390625 
Q 38.8125 6.390625 42.859375 10.171875 
Q 46.921875 13.96875 46.921875 20.515625 
Q 46.921875 27.09375 42.890625 30.859375 
Q 38.875 34.625 31.78125 34.625 
z
M 21.921875 38.8125 
Q 15.578125 40.375 12.03125 44.71875 
Q 8.5 49.078125 8.5 55.328125 
Q 8.5 64.0625 14.71875 69.140625 
Q 20.953125 74.21875 31.78125 74.21875 
Q 42.671875 74.21875 48.875 69.140625 
Q 55.078125 64.0625 55.078125 55.328125 
Q 55.078125 49.078125 51.53125 44.71875 
Q 48 40.375 41.703125 38.8125 
Q 48.828125 37.15625 52.796875 32.3125 
Q 56.78125 27.484375 56.78125 20.515625 
Q 56.78125 9.90625 50.3125 4.234375 
Q 43.84375 -1.421875 31.78125 -1.421875 
Q 19.734375 -1.421875 13.25 4.234375 
Q 6.78125 9.90625 6.78125 20.515625 
Q 6.78125 27.484375 10.78125 32.3125 
Q 14.796875 37.15625 21.921875 38.8125 
z
M 18.3125 54.390625 
Q 18.3125 48.734375 21.84375 45.5625 
Q 25.390625 42.390625 31.78125 42.390625 
Q 38.140625 42.390625 41.71875 45.5625 
Q 45.3125 48.734375 45.3125 54.390625 
Q 45.3125 60.0625 41.71875 63.234375 
Q 38.140625 66.40625 31.78125 66.40625 
Q 25.390625 66.40625 21.84375 63.234375 
Q 18.3125 60.0625 18.3125 54.390625 
z
" id="DejaVuSans-56"/>
      </defs>
      <g transform="translate(726.666406 655.398438)scale(0.1 -0.1)">
       <use xlink:href="#DejaVuSans-8722"/>
       <use x="83.789062" xlink:href="#DejaVuSans-54"/>
       <use x="147.412109" xlink:href="#DejaVuSans-56"/>
       <use x="211.035156" xlink:href="#DejaVuSans-48"/>
      </g>
     </g>
    </g>
    <g id="text_10">
     <!-- x (m) -->
     <defs>
      <path d="M 54.890625 54.6875 
L 35.109375 28.078125 
L 55.90625 0 
L 45.3125 0 
L 29.390625 21.484375 
L 13.484375 0 
L 2.875 0 
L 24.125 28.609375 
L 4.6875 54.6875 
L 15.28125 54.6875 
L 29.78125 35.203125 
L 44.28125 54.6875 
z
" id="DejaVuSans-120"/>
      <path id="DejaVuSans-32"/>
      <path d="M 31 75.875 
Q 24.46875 64.65625 21.28125 53.65625 
Q 18.109375 42.671875 18.109375 31.390625 
Q 18.109375 20.125 21.3125 9.0625 
Q 24.515625 -2 31 -13.1875 
L 23.1875 -13.1875 
Q 15.875 -1.703125 12.234375 9.375 
Q 8.59375 20.453125 8.59375 31.390625 
Q 8.59375 42.28125 12.203125 53.3125 
Q 15.828125 64.359375 23.1875 75.875 
z
" id="DejaVuSans-40"/>
      <path d="M 52 44.1875 
Q 55.375 50.25 60.0625 53.125 
Q 64.75 56 71.09375 56 
Q 79.640625 56 84.28125 50.015625 
Q 88.921875 44.046875 88.921875 33.015625 
L 88.921875 0 
L 79.890625 0 
L 79.890625 32.71875 
Q 79.890625 40.578125 77.09375 44.375 
Q 74.3125 48.1875 68.609375 48.1875 
Q 61.625 48.1875 57.5625 43.546875 
Q 53.515625 38.921875 53.515625 30.90625 
L 53.515625 0 
L 44.484375 0 
L 44.484375 32.71875 
Q 44.484375 40.625 41.703125 44.40625 
Q 38.921875 48.1875 33.109375 48.1875 
Q 26.21875 48.1875 22.15625 43.53125 
Q 18.109375 38.875 18.109375 30.90625 
L 18.109375 0 
L 9.078125 0 
L 9.078125 54.6875 
L 18.109375 54.6875 
L 18.109375 46.1875 
Q 21.1875 51.21875 25.484375 53.609375 
Q 29.78125 56 35.6875 56 
Q 41.65625 56 45.828125 52.96875 
Q 50 49.953125 52 44.1875 
z
" id="DejaVuSans-109"/>
      <path d="M 8.015625 75.875 
L 15.828125 75.875 
Q 23.140625 64.359375 26.78125 53.3125 
Q 30.421875 42.28125 30.421875 31.390625 
Q 30.421875 20.453125 26.78125 9.375 
Q 23.140625 -1.703125 15.828125 -13.1875 
L 8.015625 -13.1875 
Q 14.5 -2 17.703125 9.0625 
Q 20.90625 20.125 20.90625 31.390625 
Q 20.90625 42.671875 17.703125 53.65625 
Q 14.5 64.65625 8.015625 75.875 
z
" id="DejaVuSans-41"/>
     </defs>
     <g transform="translate(429.479688 669.076563)scale(0.1 -0.1)">
      <use xlink:href="#DejaVuSans-120"/>
      <use x="59.179688" xlink:href="#DejaVuSans-32"/>
      <use x="90.966797" xlink:href="#DejaVuSans-40"/>
      <use x="129.980469" xlink:href="#DejaVuSans-109"/>
      <use x="227.392578" xlink:href="#DejaVuSans-41"/>
     </g>
    </g>
   </g>
   <g id="matplotlib.axis_2">
    <g id="ytick_1">
     <g id="line2d_11">
      <defs>
       <path d="M 0 0 
L -3.5 0 
" id="m22e6d0a9bf" style="stroke:#000000;stroke-width:0.8;"/>
      </defs>
      <g>
       <use style="stroke:#000000;stroke-width:0.8;" x="108" xlink:href="#m22e6d0a9bf" y="640.8"/>
      </g>
     </g>
     <g id="text_11">
      <!-- 930 -->
      <g transform="translate(81.9125 644.599219)scale(0.1 -0.1)">
       <use xlink:href="#DejaVuSans-57"/>
       <use x="63.623047" xlink:href="#DejaVuSans-51"/>
       <use x="127.246094" xlink:href="#DejaVuSans-48"/>
      </g>
     </g>
    </g>
    <g id="ytick_2">
     <g id="line2d_12">
      <g>
       <use style="stroke:#000000;stroke-width:0.8;" x="108" xlink:href="#m22e6d0a9bf" y="571.5"/>
      </g>
     </g>
     <g id="text_12">
      <!-- 940 -->
      <g transform="translate(81.9125 575.299219)scale(0.1 -0.1)">
       <use xlink:href="#DejaVuSans-57"/>
       <use x="63.623047" xlink:href="#DejaVuSans-52"/>
       <use x="127.246094" xlink:href="#DejaVuSans-48"/>
      </g>
     </g>
    </g>
    <g id="ytick_3">
     <g id="line2d_13">
      <g>
       <use style="stroke:#000000;stroke-width:0.8;" x="108" xlink:href="#m22e6d0a9bf" y="502.2"/>
      </g>
     </g>
     <g id="text_13">
      <!-- 950 -->
      <g transform="translate(81.9125 505.999219)scale(0.1 -0.1)">
       <use xlink:href="#DejaVuSans-57"/>
       <use x="63.623047" xlink:href="#DejaVuSans-53"/>
       <use x="127.246094" xlink:href="#DejaVuSans-48"/>
      </g>
     </g>
    </g>
    <g id="ytick_4">
     <g id="line2d_14">
      <g>
       <use style="stroke:#000000;stroke-width:0.8;" x="108" xlink:href="#m22e6d0a9bf" y="432.9"/>
      </g>
     </g>
     <g id="text_14">
      <!-- 960 -->
      <g transform="translate(81.9125 436.699219)scale(0.1 -0.1)">
       <use xlink:href="#DejaVuSans-57"/>
       <use x="63.623047" xlink:href="#DejaVuSans-54"/>
       <use x="127.246094" xlink:href="#DejaVuSans-48"/>
      </g>
     </g>
    </g>
    <g id="ytick_5">
     <g id="line2d_15">
      <g>
       <use style="stroke:#000000;stroke-width:0.8;" x="108" xlink:href="#m22e6d0a9bf" y="363.6"/>
      </g>
     </g>
     <g id="text_15">
      <!-- 970 -->
      <g transform="translate(81.9125 367.399219)scale(0.1 -0.1)">
       <use xlink:href="#DejaVuSans-57"/>
       <use x="63.623047" xlink:href="#DejaVuSans-55"/>
       <use x="127.246094" xlink:href="#DejaVuSans-48"/>
      </g>
     </g>
    </g>
    <g id="ytick_6">
     <g id="line2d_16">
      <g>
       <use style="stroke:#000000;stroke-width:0.8;" x="108" xlink:href="#m22e6d0a9bf" y="294.3"/>
      </g>
     </g>
     <g id="text_16">
      <!-- 980 -->
      <g transform="translate(81.9125 298.099219)scale(0.1 -0.1)">
       <use xlink:href="#DejaVuSans-57"/>
       <use x="63.623047" xlink:href="#DejaVuSans-56"/>
       <use x="127.246094" xlink:href="#DejaVuSans-48"/>
      </g>
     </g>
    </g>
    <g id="ytick_7">
     <g id="line2d_17">
      <g>
       <use style="stroke:#000000;stroke-width:0.8;" x="108" xlink:href="#m22e6d0a9bf" y="225"/>
      </g>
     </g>
     <g id="text_17">
      <!-- 990 -->
      <g transform="translate(81.9125 228.799219)scale(0.1 -0.1)">
       <use xlink:href="#DejaVuSans-57"/>
       <use x="63.623047" xlink:href="#DejaVuSans-57"/>
       <use x="127.246094" xlink:href="#DejaVuSans-48"/>
      </g>
     </g>
    </g>
    <g id="ytick_8">
     <g id="line2d_18">
      <g>
       <use style="stroke:#000000;stroke-width:0.8;" x="108" xlink:href="#m22e6d0a9bf" y="155.7"/>
      </g>
     </g>
     <g id="text_18">
      <!-- 1000 -->
      <g transform="translate(75.55 159.499219)scale(0.1 -0.1)">
       <use xlink:href="#DejaVuSans-49"/>
       <use x="63.623047" xlink:href="#DejaVuSans-48"/>
       <use x="127.246094" xlink:href="#DejaVuSans-48"/>
       <use x="190.869141" xlink:href="#DejaVuSans-48"/>
      </g>
     </g>
    </g>
    <g id="ytick_9">
     <g id="line2d_19">
      <g>
       <use style="stroke:#000000;stroke-width:0.8;" x="108" xlink:href="#m22e6d0a9bf" y="86.4"/>
      </g>
     </g>
     <g id="text_19">
      <!-- 1010 -->
      <g transform="translate(75.55 90.199219)scale(0.1 -0.1)">
       <use xlink:href="#DejaVuSans-49"/>
       <use x="63.623047" xlink:href="#DejaVuSans-48"/>
       <use x="127.246094" xlink:href="#DejaVuSans-49"/>
       <use x="190.869141" xlink:href="#DejaVuSans-48"/>
      </g>
     </g>
    </g>
    <g id="text_20">
     <!-- y (m) -->
     <defs>
      <path d="M 32.171875 -5.078125 
Q 28.375 -14.84375 24.75 -17.8125 
Q 21.140625 -20.796875 15.09375 -20.796875 
L 7.90625 -20.796875 
L 7.90625 -13.28125 
L 13.1875 -13.28125 
Q 16.890625 -13.28125 18.9375 -11.515625 
Q 21 -9.765625 23.484375 -3.21875 
L 25.09375 0.875 
L 2.984375 54.6875 
L 12.5 54.6875 
L 29.59375 11.921875 
L 46.6875 54.6875 
L 56.203125 54.6875 
z
" id="DejaVuSans-121"/>
     </defs>
     <g transform="translate(69.470312 376.920312)rotate(-90)scale(0.1 -0.1)">
      <use xlink:href="#DejaVuSans-121"/>
      <use x="59.179688" xlink:href="#DejaVuSans-32"/>
      <use x="90.966797" xlink:href="#DejaVuSans-40"/>
      <use x="129.980469" xlink:href="#DejaVuSans-109"/>
      <use x="227.392578" xlink:href="#DejaVuSans-41"/>
     </g>
    </g>
   </g>
   <g id="PathCollection_1">
    <defs>
     <path d="M -2.236068 2.236068 
L 2.236068 2.236068 
L 2.236068 -2.236068 
L -2.236068 -2.236068 
z
" id="m14b16e78cf" style="stroke:#333333;"/>
    </defs>
    <g clip-path="url(#p0f91546cd3)">
     <use style="fill:#333333;stroke:#333333;" x="775.51255" xlink:href="#m14b16e78cf" y="391.32961"/>
     <use style="fill:#333333;stroke:#333333;" x="746.9602" xlink:href="#m14b16e78cf" y="369.838608"/>
     <use style="fill:#333333;stroke:#333333;" x="721.019437" xlink:href="#m14b16e78cf" y="350.164702"/>
     <use style="fill:#333333;stroke:#333333;" x="698.181432" xlink:href="#m14b16e78cf" y="332.560509"/>
     <use style="fill:#333333;stroke:#333333;" x="678.662693" xlink:href="#m14b16e78cf" y="317.202942"/>
     <use style="fill:#333333;stroke:#333333;" x="662.334975" xlink:href="#m14b16e78cf" y="304.085227"/>
     <use style="fill:#333333;stroke:#333333;" x="648.740368" xlink:href="#m14b16e78cf" y="292.962227"/>
     <use style="fill:#333333;stroke:#333333;" x="637.179197" xlink:href="#m14b16e78cf" y="283.375741"/>
     <use style="fill:#333333;stroke:#333333;" x="626.835305" xlink:href="#m14b16e78cf" y="274.743647"/>
     <use style="fill:#333333;stroke:#333333;" x="616.898024" xlink:href="#m14b16e78cf" y="266.470787"/>
     <use style="fill:#333333;stroke:#333333;" x="606.654775" xlink:href="#m14b16e78cf" y="258.046907"/>
     <use style="fill:#333333;stroke:#333333;" x="595.543594" xlink:href="#m14b16e78cf" y="249.115104"/>
     <use style="fill:#333333;stroke:#333333;" x="583.166487" xlink:href="#m14b16e78cf" y="239.509693"/>
     <use style="fill:#333333;stroke:#333333;" x="569.270683" xlink:href="#m14b16e78cf" y="229.266865"/>
     <use style="fill:#333333;stroke:#333333;" x="553.71571" xlink:href="#m14b16e78cf" y="218.616766"/>
     <use style="fill:#333333;stroke:#333333;" x="536.446716" xlink:href="#m14b16e78cf" y="207.96744"/>
     <use style="fill:#333333;stroke:#333333;" x="517.4901" xlink:href="#m14b16e78cf" y="197.886526"/>
     <use style="fill:#333333;stroke:#333333;" x="496.972641" xlink:href="#m14b16e78cf" y="189.074314"/>
     <use style="fill:#333333;stroke:#333333;" x="475.151998" xlink:href="#m14b16e78cf" y="182.313419"/>
     <use style="fill:#333333;stroke:#333333;" x="452.434982" xlink:href="#m14b16e78cf" y="178.383294"/>
     <use style="fill:#333333;stroke:#333333;" x="429.360377" xlink:href="#m14b16e78cf" y="177.945648"/>
     <use style="fill:#333333;stroke:#333333;" x="406.529688" xlink:href="#m14b16e78cf" y="181.424876"/>
     <use style="fill:#333333;stroke:#333333;" x="384.491076" xlink:href="#m14b16e78cf" y="188.918571"/>
     <use style="fill:#333333;stroke:#333333;" x="363.605485" xlink:href="#m14b16e78cf" y="200.168875"/>
     <use style="fill:#333333;stroke:#333333;" x="343.943779" xlink:href="#m14b16e78cf" y="214.609407"/>
     <use style="fill:#333333;stroke:#333333;" x="325.263187" xlink:href="#m14b16e78cf" y="231.482948"/>
     <use style="fill:#333333;stroke:#333333;" x="307.085243" xlink:href="#m14b16e78cf" y="250.001557"/>
     <use style="fill:#333333;stroke:#333333;" x="288.850157" xlink:href="#m14b16e78cf" y="269.503678"/>
     <use style="fill:#333333;stroke:#333333;" x="270.084172" xlink:href="#m14b16e78cf" y="289.561245"/>
     <use style="fill:#333333;stroke:#333333;" x="250.512318" xlink:href="#m14b16e78cf" y="310.011584"/>
     <use style="fill:#333333;stroke:#333333;" x="230.084525" xlink:href="#m14b16e78cf" y="330.920249"/>
     <use style="fill:#333333;stroke:#333333;" x="208.92767" xlink:href="#m14b16e78cf" y="352.503531"/>
     <use style="fill:#333333;stroke:#333333;" x="187.2617" xlink:href="#m14b16e78cf" y="375.038617"/>
     <use style="fill:#333333;stroke:#333333;" x="165.311973" xlink:href="#m14b16e78cf" y="398.780329"/>
     <use style="fill:#333333;stroke:#333333;" x="143.234635" xlink:href="#m14b16e78cf" y="423.894831"/>
     <use style="fill:#333333;stroke:#333333;" x="121.064214" xlink:href="#m14b16e78cf" y="450.422046"/>
    </g>
   </g>
   <g id="PathCollection_2">
    <defs>
     <path d="M 0 -2.236068 
L -2.236068 2.236068 
L 2.236068 2.236068 
z
" id="mac03c7a4d2" style="stroke:#ff0000;"/>
    </defs>
    <g clip-path="url(#p0f91546cd3)">
     <use style="fill:#ff0000;stroke:#ff0000;" x="777.542498" xlink:href="#mac03c7a4d2" y="393.25272"/>
     <use style="fill:#ff0000;stroke:#ff0000;" x="753.044481" xlink:href="#mac03c7a4d2" y="374.414495"/>
     <use style="fill:#ff0000;stroke:#ff0000;" x="732.073497" xlink:href="#mac03c7a4d2" y="358.4287"/>
     <use style="fill:#ff0000;stroke:#ff0000;" x="711.403415" xlink:href="#mac03c7a4d2" y="342.92443"/>
     <use style="fill:#ff0000;stroke:#ff0000;" x="694.762695" xlink:href="#mac03c7a4d2" y="330.393808"/>
     <use style="fill:#ff0000;stroke:#ff0000;" x="679.784348" xlink:href="#mac03c7a4d2" y="318.830092"/>
     <use style="fill:#ff0000;stroke:#ff0000;" x="668.370111" xlink:href="#mac03c7a4d2" y="309.866268"/>
     <use style="fill:#ff0000;stroke:#ff0000;" x="659.955084" xlink:href="#mac03c7a4d2" y="303.193283"/>
     <use style="fill:#ff0000;stroke:#ff0000;" x="654.775787" xlink:href="#mac03c7a4d2" y="299.046319"/>
     <use style="fill:#ff0000;stroke:#ff0000;" x="642.727789" xlink:href="#mac03c7a4d2" y="289.506414"/>
     <use style="fill:#ff0000;stroke:#ff0000;" x="637.980466" xlink:href="#mac03c7a4d2" y="285.700306"/>
     <use style="fill:#ff0000;stroke:#ff0000;" x="631.74689" xlink:href="#mac03c7a4d2" y="280.756868"/>
     <use style="fill:#ff0000;stroke:#ff0000;" x="623.715313" xlink:href="#mac03c7a4d2" y="274.430093"/>
     <use style="fill:#ff0000;stroke:#ff0000;" x="613.805598" xlink:href="#mac03c7a4d2" y="266.77074"/>
     <use style="fill:#ff0000;stroke:#ff0000;" x="601.989823" xlink:href="#mac03c7a4d2" y="257.878995"/>
     <use style="fill:#ff0000;stroke:#ff0000;" x="588.236708" xlink:href="#mac03c7a4d2" y="248.079088"/>
     <use style="fill:#ff0000;stroke:#ff0000;" x="572.454075" xlink:href="#mac03c7a4d2" y="237.832794"/>
     <use style="fill:#ff0000;stroke:#ff0000;" x="554.550063" xlink:href="#mac03c7a4d2" y="227.690215"/>
     <use style="fill:#ff0000;stroke:#ff0000;" x="534.442807" xlink:href="#mac03c7a4d2" y="218.237365"/>
     <use style="fill:#ff0000;stroke:#ff0000;" x="512.023258" xlink:href="#mac03c7a4d2" y="210.010864"/>
     <use style="fill:#ff0000;stroke:#ff0000;" x="487.640495" xlink:href="#mac03c7a4d2" y="203.532247"/>
     <use style="fill:#ff0000;stroke:#ff0000;" x="462.120607" xlink:href="#mac03c7a4d2" y="199.04122"/>
     <use style="fill:#ff0000;stroke:#ff0000;" x="436.04626" xlink:href="#mac03c7a4d2" y="197.046432"/>
     <use style="fill:#ff0000;stroke:#ff0000;" x="409.790261" xlink:href="#mac03c7a4d2" y="197.886558"/>
     <use style="fill:#ff0000;stroke:#ff0000;" x="383.644359" xlink:href="#mac03c7a4d2" y="202.210567"/>
     <use style="fill:#ff0000;stroke:#ff0000;" x="358.67332" xlink:href="#mac03c7a4d2" y="210.702495"/>
     <use style="fill:#ff0000;stroke:#ff0000;" x="335.524224" xlink:href="#mac03c7a4d2" y="222.890177"/>
     <use style="fill:#ff0000;stroke:#ff0000;" x="314.369304" xlink:href="#mac03c7a4d2" y="238.449031"/>
     <use style="fill:#ff0000;stroke:#ff0000;" x="295.075525" xlink:href="#mac03c7a4d2" y="256.370413"/>
     <use style="fill:#ff0000;stroke:#ff0000;" x="276.692585" xlink:href="#mac03c7a4d2" y="275.503622"/>
     <use style="fill:#ff0000;stroke:#ff0000;" x="257.991318" xlink:href="#mac03c7a4d2" y="295.44751"/>
     <use style="fill:#ff0000;stroke:#ff0000;" x="238.231628" xlink:href="#mac03c7a4d2" y="316.395643"/>
     <use style="fill:#ff0000;stroke:#ff0000;" x="218.397392" xlink:href="#mac03c7a4d2" y="338.234894"/>
     <use style="fill:#ff0000;stroke:#ff0000;" x="199.053494" xlink:href="#mac03c7a4d2" y="361.450496"/>
     <use style="fill:#ff0000;stroke:#ff0000;" x="180.168677" xlink:href="#mac03c7a4d2" y="386.544189"/>
     <use style="fill:#ff0000;stroke:#ff0000;" x="161.594724" xlink:href="#mac03c7a4d2" y="413.302949"/>
     <use style="fill:#ff0000;stroke:#ff0000;" x="143.069535" xlink:href="#mac03c7a4d2" y="440.743125"/>
     <use style="fill:#ff0000;stroke:#ff0000;" x="123.331701" xlink:href="#mac03c7a4d2" y="468.209112"/>
    </g>
   </g>
   <g id="PathCollection_3">
    <defs>
     <path d="M 0 2.236068 
C 0.593012 2.236068 1.161816 2.000462 1.581139 1.581139 
C 2.000462 1.161816 2.236068 0.593012 2.236068 0 
C 2.236068 -0.593012 2.000462 -1.161816 1.581139 -1.581139 
C 1.161816 -2.000462 0.593012 -2.236068 0 -2.236068 
C -0.593012 -2.236068 -1.161816 -2.000462 -1.581139 -1.581139 
C -2.000462 -1.161816 -2.236068 -0.593012 -2.236068 0 
C -2.236068 0.593012 -2.000462 1.161816 -1.581139 1.581139 
C -1.161816 2.000462 -0.593012 2.236068 0 2.236068 
z
" id="m7113a87b1d" style="stroke:#0000ff;"/>
    </defs>
    <g clip-path="url(#p0f91546cd3)">
     <use style="fill:#0000ff;stroke:#0000ff;" x="777.353023" xlink:href="#m7113a87b1d" y="391.443341"/>
     <use style="fill:#0000ff;stroke:#0000ff;" x="759.144489" xlink:href="#m7113a87b1d" y="377.162855"/>
     <use style="fill:#0000ff;stroke:#0000ff;" x="742.637392" xlink:href="#m7113a87b1d" y="364.269277"/>
     <use style="fill:#0000ff;stroke:#0000ff;" x="727.700231" xlink:href="#m7113a87b1d" y="352.611897"/>
     <use style="fill:#0000ff;stroke:#0000ff;" x="714.084304" xlink:href="#m7113a87b1d" y="342.079626"/>
     <use style="fill:#0000ff;stroke:#0000ff;" x="701.757697" xlink:href="#m7113a87b1d" y="332.525968"/>
     <use style="fill:#0000ff;stroke:#0000ff;" x="690.649507" xlink:href="#m7113a87b1d" y="323.956838"/>
     <use style="fill:#0000ff;stroke:#0000ff;" x="680.775054" xlink:href="#m7113a87b1d" y="316.337849"/>
     <use style="fill:#0000ff;stroke:#0000ff;" x="672.124631" xlink:href="#m7113a87b1d" y="309.676577"/>
     <use style="fill:#0000ff;stroke:#0000ff;" x="664.678615" xlink:href="#m7113a87b1d" y="303.931772"/>
     <use style="fill:#0000ff;stroke:#0000ff;" x="658.389435" xlink:href="#m7113a87b1d" y="299.120788"/>
     <use style="fill:#0000ff;stroke:#0000ff;" x="653.271393" xlink:href="#m7113a87b1d" y="295.216869"/>
     <use style="fill:#0000ff;stroke:#0000ff;" x="631.671715" xlink:href="#m7113a87b1d" y="278.512659"/>
     <use style="fill:#0000ff;stroke:#0000ff;" x="626.524647" xlink:href="#m7113a87b1d" y="274.540158"/>
     <use style="fill:#0000ff;stroke:#0000ff;" x="619.839609" xlink:href="#m7113a87b1d" y="269.40673"/>
     <use style="fill:#0000ff;stroke:#0000ff;" x="611.014399" xlink:href="#m7113a87b1d" y="262.713073"/>
     <use style="fill:#0000ff;stroke:#0000ff;" x="600.619492" xlink:href="#m7113a87b1d" y="255.028912"/>
     <use style="fill:#0000ff;stroke:#0000ff;" x="588.261341" xlink:href="#m7113a87b1d" y="246.289132"/>
     <use style="fill:#0000ff;stroke:#0000ff;" x="573.847462" xlink:href="#m7113a87b1d" y="236.888305"/>
     <use style="fill:#0000ff;stroke:#0000ff;" x="557.301912" xlink:href="#m7113a87b1d" y="227.33644"/>
     <use style="fill:#0000ff;stroke:#0000ff;" x="538.5722" xlink:href="#m7113a87b1d" y="218.151576"/>
     <use style="fill:#0000ff;stroke:#0000ff;" x="517.544039" xlink:href="#m7113a87b1d" y="209.768024"/>
     <use style="fill:#0000ff;stroke:#0000ff;" x="494.239127" xlink:href="#m7113a87b1d" y="202.705846"/>
     <use style="fill:#0000ff;stroke:#0000ff;" x="469.171301" xlink:href="#m7113a87b1d" y="197.532367"/>
     <use style="fill:#0000ff;stroke:#0000ff;" x="443.057724" xlink:href="#m7113a87b1d" y="194.821633"/>
     <use style="fill:#0000ff;stroke:#0000ff;" x="416.500982" xlink:href="#m7113a87b1d" y="195.108575"/>
     <use style="fill:#0000ff;stroke:#0000ff;" x="389.981038" xlink:href="#m7113a87b1d" y="198.655599"/>
     <use style="fill:#0000ff;stroke:#0000ff;" x="364.239628" xlink:href="#m7113a87b1d" y="205.975489"/>
     <use style="fill:#0000ff;stroke:#0000ff;" x="339.962602" xlink:href="#m7113a87b1d" y="216.835507"/>
     <use style="fill:#0000ff;stroke:#0000ff;" x="317.276162" xlink:href="#m7113a87b1d" y="231.014966"/>
     <use style="fill:#0000ff;stroke:#0000ff;" x="296.371706" xlink:href="#m7113a87b1d" y="247.989086"/>
     <use style="fill:#0000ff;stroke:#0000ff;" x="276.974054" xlink:href="#m7113a87b1d" y="266.945687"/>
     <use style="fill:#0000ff;stroke:#0000ff;" x="258.377342" xlink:href="#m7113a87b1d" y="287.622947"/>
     <use style="fill:#0000ff;stroke:#0000ff;" x="239.577757" xlink:href="#m7113a87b1d" y="309.961091"/>
     <use style="fill:#0000ff;stroke:#0000ff;" x="221.123742" xlink:href="#m7113a87b1d" y="333.119231"/>
     <use style="fill:#0000ff;stroke:#0000ff;" x="202.613342" xlink:href="#m7113a87b1d" y="357.360149"/>
     <use style="fill:#0000ff;stroke:#0000ff;" x="183.944367" xlink:href="#m7113a87b1d" y="382.933925"/>
     <use style="fill:#0000ff;stroke:#0000ff;" x="164.821212" xlink:href="#m7113a87b1d" y="409.753561"/>
     <use style="fill:#0000ff;stroke:#0000ff;" x="145.166575" xlink:href="#m7113a87b1d" y="437.319775"/>
     <use style="fill:#0000ff;stroke:#0000ff;" x="124.870432" xlink:href="#m7113a87b1d" y="465.101917"/>
    </g>
   </g>
   <g id="patch_3">
    <path d="M 108 640.8 
L 108 86.4 
" style="fill:none;stroke:#000000;stroke-linecap:square;stroke-linejoin:miter;stroke-width:0.8;"/>
   </g>
   <g id="patch_4">
    <path d="M 777.6 640.8 
L 777.6 86.4 
" style="fill:none;stroke:#000000;stroke-linecap:square;stroke-linejoin:miter;stroke-width:0.8;"/>
   </g>
   <g id="patch_5">
    <path d="M 108 640.8 
L 777.6 640.8 
" style="fill:none;stroke:#000000;stroke-linecap:square;stroke-linejoin:miter;stroke-width:0.8;"/>
   </g>
   <g id="patch_6">
    <path d="M 108 86.4 
L 777.6 86.4 
" style="fill:none;stroke:#000000;stroke-linecap:square;stroke-linejoin:miter;stroke-width:0.8;"/>
   </g>
   <g id="legend_1">
    <g id="patch_7">
     <path d="M 671.63125 153.1125 
L 770.6 153.1125 
Q 772.6 153.1125 772.6 151.1125 
L 772.6 93.4 
Q 772.6 91.4 770.6 91.4 
L 671.63125 91.4 
Q 669.63125 91.4 669.63125 93.4 
L 669.63125 151.1125 
Q 669.63125 153.1125 671.63125 153.1125 
z
" style="fill:#ffffff;opacity:0.8;stroke:#cccccc;stroke-linejoin:miter;"/>
    </g>
    <g id="line2d_20">
     <path d="M 673.63125 99.498437 
L 693.63125 99.498437 
" style="fill:none;stroke:#008000;stroke-linecap:square;stroke-width:3;"/>
    </g>
    <g id="line2d_21"/>
    <g id="text_21">
     <!-- Ground Truth -->
     <defs>
      <path d="M 59.515625 10.40625 
L 59.515625 29.984375 
L 43.40625 29.984375 
L 43.40625 38.09375 
L 69.28125 38.09375 
L 69.28125 6.78125 
Q 63.578125 2.734375 56.6875 0.65625 
Q 49.8125 -1.421875 42 -1.421875 
Q 24.90625 -1.421875 15.25 8.5625 
Q 5.609375 18.5625 5.609375 36.375 
Q 5.609375 54.25 15.25 64.234375 
Q 24.90625 74.21875 42 74.21875 
Q 49.125 74.21875 55.546875 72.453125 
Q 61.96875 70.703125 67.390625 67.28125 
L 67.390625 56.78125 
Q 61.921875 61.421875 55.765625 63.765625 
Q 49.609375 66.109375 42.828125 66.109375 
Q 29.4375 66.109375 22.71875 58.640625 
Q 16.015625 51.171875 16.015625 36.375 
Q 16.015625 21.625 22.71875 14.15625 
Q 29.4375 6.6875 42.828125 6.6875 
Q 48.046875 6.6875 52.140625 7.59375 
Q 56.25 8.5 59.515625 10.40625 
z
" id="DejaVuSans-71"/>
      <path d="M 41.109375 46.296875 
Q 39.59375 47.171875 37.8125 47.578125 
Q 36.03125 48 33.890625 48 
Q 26.265625 48 22.1875 43.046875 
Q 18.109375 38.09375 18.109375 28.8125 
L 18.109375 0 
L 9.078125 0 
L 9.078125 54.6875 
L 18.109375 54.6875 
L 18.109375 46.1875 
Q 20.953125 51.171875 25.484375 53.578125 
Q 30.03125 56 36.53125 56 
Q 37.453125 56 38.578125 55.875 
Q 39.703125 55.765625 41.0625 55.515625 
z
" id="DejaVuSans-114"/>
      <path d="M 30.609375 48.390625 
Q 23.390625 48.390625 19.1875 42.75 
Q 14.984375 37.109375 14.984375 27.296875 
Q 14.984375 17.484375 19.15625 11.84375 
Q 23.34375 6.203125 30.609375 6.203125 
Q 37.796875 6.203125 41.984375 11.859375 
Q 46.1875 17.53125 46.1875 27.296875 
Q 46.1875 37.015625 41.984375 42.703125 
Q 37.796875 48.390625 30.609375 48.390625 
z
M 30.609375 56 
Q 42.328125 56 49.015625 48.375 
Q 55.71875 40.765625 55.71875 27.296875 
Q 55.71875 13.875 49.015625 6.21875 
Q 42.328125 -1.421875 30.609375 -1.421875 
Q 18.84375 -1.421875 12.171875 6.21875 
Q 5.515625 13.875 5.515625 27.296875 
Q 5.515625 40.765625 12.171875 48.375 
Q 18.84375 56 30.609375 56 
z
" id="DejaVuSans-111"/>
      <path d="M 8.5 21.578125 
L 8.5 54.6875 
L 17.484375 54.6875 
L 17.484375 21.921875 
Q 17.484375 14.15625 20.5 10.265625 
Q 23.53125 6.390625 29.59375 6.390625 
Q 36.859375 6.390625 41.078125 11.03125 
Q 45.3125 15.671875 45.3125 23.6875 
L 45.3125 54.6875 
L 54.296875 54.6875 
L 54.296875 0 
L 45.3125 0 
L 45.3125 8.40625 
Q 42.046875 3.421875 37.71875 1 
Q 33.40625 -1.421875 27.6875 -1.421875 
Q 18.265625 -1.421875 13.375 4.4375 
Q 8.5 10.296875 8.5 21.578125 
z
M 31.109375 56 
z
" id="DejaVuSans-117"/>
      <path d="M 54.890625 33.015625 
L 54.890625 0 
L 45.90625 0 
L 45.90625 32.71875 
Q 45.90625 40.484375 42.875 44.328125 
Q 39.84375 48.1875 33.796875 48.1875 
Q 26.515625 48.1875 22.3125 43.546875 
Q 18.109375 38.921875 18.109375 30.90625 
L 18.109375 0 
L 9.078125 0 
L 9.078125 54.6875 
L 18.109375 54.6875 
L 18.109375 46.1875 
Q 21.34375 51.125 25.703125 53.5625 
Q 30.078125 56 35.796875 56 
Q 45.21875 56 50.046875 50.171875 
Q 54.890625 44.34375 54.890625 33.015625 
z
" id="DejaVuSans-110"/>
      <path d="M 45.40625 46.390625 
L 45.40625 75.984375 
L 54.390625 75.984375 
L 54.390625 0 
L 45.40625 0 
L 45.40625 8.203125 
Q 42.578125 3.328125 38.25 0.953125 
Q 33.9375 -1.421875 27.875 -1.421875 
Q 17.96875 -1.421875 11.734375 6.484375 
Q 5.515625 14.40625 5.515625 27.296875 
Q 5.515625 40.1875 11.734375 48.09375 
Q 17.96875 56 27.875 56 
Q 33.9375 56 38.25 53.625 
Q 42.578125 51.265625 45.40625 46.390625 
z
M 14.796875 27.296875 
Q 14.796875 17.390625 18.875 11.75 
Q 22.953125 6.109375 30.078125 6.109375 
Q 37.203125 6.109375 41.296875 11.75 
Q 45.40625 17.390625 45.40625 27.296875 
Q 45.40625 37.203125 41.296875 42.84375 
Q 37.203125 48.484375 30.078125 48.484375 
Q 22.953125 48.484375 18.875 42.84375 
Q 14.796875 37.203125 14.796875 27.296875 
z
" id="DejaVuSans-100"/>
      <path d="M -0.296875 72.90625 
L 61.375 72.90625 
L 61.375 64.59375 
L 35.5 64.59375 
L 35.5 0 
L 25.59375 0 
L 25.59375 64.59375 
L -0.296875 64.59375 
z
" id="DejaVuSans-84"/>
      <path d="M 18.3125 70.21875 
L 18.3125 54.6875 
L 36.8125 54.6875 
L 36.8125 47.703125 
L 18.3125 47.703125 
L 18.3125 18.015625 
Q 18.3125 11.328125 20.140625 9.421875 
Q 21.96875 7.515625 27.59375 7.515625 
L 36.8125 7.515625 
L 36.8125 0 
L 27.59375 0 
Q 17.1875 0 13.234375 3.875 
Q 9.28125 7.765625 9.28125 18.015625 
L 9.28125 47.703125 
L 2.6875 47.703125 
L 2.6875 54.6875 
L 9.28125 54.6875 
L 9.28125 70.21875 
z
" id="DejaVuSans-116"/>
      <path d="M 54.890625 33.015625 
L 54.890625 0 
L 45.90625 0 
L 45.90625 32.71875 
Q 45.90625 40.484375 42.875 44.328125 
Q 39.84375 48.1875 33.796875 48.1875 
Q 26.515625 48.1875 22.3125 43.546875 
Q 18.109375 38.921875 18.109375 30.90625 
L 18.109375 0 
L 9.078125 0 
L 9.078125 75.984375 
L 18.109375 75.984375 
L 18.109375 46.1875 
Q 21.34375 51.125 25.703125 53.5625 
Q 30.078125 56 35.796875 56 
Q 45.21875 56 50.046875 50.171875 
Q 54.890625 44.34375 54.890625 33.015625 
z
" id="DejaVuSans-104"/>
     </defs>
     <g transform="translate(701.63125 102.998437)scale(0.1 -0.1)">
      <use xlink:href="#DejaVuSans-71"/>
      <use x="77.490234" xlink:href="#DejaVuSans-114"/>
      <use x="118.572266" xlink:href="#DejaVuSans-111"/>
      <use x="179.753906" xlink:href="#DejaVuSans-117"/>
      <use x="243.132812" xlink:href="#DejaVuSans-110"/>
      <use x="306.511719" xlink:href="#DejaVuSans-100"/>
      <use x="369.988281" xlink:href="#DejaVuSans-32"/>
      <use x="401.775391" xlink:href="#DejaVuSans-84"/>
      <use x="462.640625" xlink:href="#DejaVuSans-114"/>
      <use x="503.753906" xlink:href="#DejaVuSans-117"/>
      <use x="567.132812" xlink:href="#DejaVuSans-116"/>
      <use x="606.341797" xlink:href="#DejaVuSans-104"/>
     </g>
    </g>
    <g id="PathCollection_4">
     <g>
      <use style="fill:#333333;stroke:#333333;" x="683.63125" xlink:href="#m14b16e78cf" y="115.051562"/>
     </g>
    </g>
    <g id="text_22">
     <!-- MPC -->
     <defs>
      <path d="M 9.8125 72.90625 
L 24.515625 72.90625 
L 43.109375 23.296875 
L 61.8125 72.90625 
L 76.515625 72.90625 
L 76.515625 0 
L 66.890625 0 
L 66.890625 64.015625 
L 48.09375 14.015625 
L 38.1875 14.015625 
L 19.390625 64.015625 
L 19.390625 0 
L 9.8125 0 
z
" id="DejaVuSans-77"/>
      <path d="M 19.671875 64.796875 
L 19.671875 37.40625 
L 32.078125 37.40625 
Q 38.96875 37.40625 42.71875 40.96875 
Q 46.484375 44.53125 46.484375 51.125 
Q 46.484375 57.671875 42.71875 61.234375 
Q 38.96875 64.796875 32.078125 64.796875 
z
M 9.8125 72.90625 
L 32.078125 72.90625 
Q 44.34375 72.90625 50.609375 67.359375 
Q 56.890625 61.8125 56.890625 51.125 
Q 56.890625 40.328125 50.609375 34.8125 
Q 44.34375 29.296875 32.078125 29.296875 
L 19.671875 29.296875 
L 19.671875 0 
L 9.8125 0 
z
" id="DejaVuSans-80"/>
      <path d="M 64.40625 67.28125 
L 64.40625 56.890625 
Q 59.421875 61.53125 53.78125 63.8125 
Q 48.140625 66.109375 41.796875 66.109375 
Q 29.296875 66.109375 22.65625 58.46875 
Q 16.015625 50.828125 16.015625 36.375 
Q 16.015625 21.96875 22.65625 14.328125 
Q 29.296875 6.6875 41.796875 6.6875 
Q 48.140625 6.6875 53.78125 8.984375 
Q 59.421875 11.28125 64.40625 15.921875 
L 64.40625 5.609375 
Q 59.234375 2.09375 53.4375 0.328125 
Q 47.65625 -1.421875 41.21875 -1.421875 
Q 24.65625 -1.421875 15.125 8.703125 
Q 5.609375 18.84375 5.609375 36.375 
Q 5.609375 53.953125 15.125 64.078125 
Q 24.65625 74.21875 41.21875 74.21875 
Q 47.75 74.21875 53.53125 72.484375 
Q 59.328125 70.75 64.40625 67.28125 
z
" id="DejaVuSans-67"/>
     </defs>
     <g transform="translate(701.63125 117.676562)scale(0.1 -0.1)">
      <use xlink:href="#DejaVuSans-77"/>
      <use x="86.279297" xlink:href="#DejaVuSans-80"/>
      <use x="146.582031" xlink:href="#DejaVuSans-67"/>
     </g>
    </g>
    <g id="PathCollection_5">
     <g>
      <use style="fill:#ff0000;stroke:#ff0000;" x="683.63125" xlink:href="#mac03c7a4d2" y="129.729687"/>
     </g>
    </g>
    <g id="text_23">
     <!-- Stanley -->
     <defs>
      <path d="M 53.515625 70.515625 
L 53.515625 60.890625 
Q 47.90625 63.578125 42.921875 64.890625 
Q 37.9375 66.21875 33.296875 66.21875 
Q 25.25 66.21875 20.875 63.09375 
Q 16.5 59.96875 16.5 54.203125 
Q 16.5 49.359375 19.40625 46.890625 
Q 22.3125 44.4375 30.421875 42.921875 
L 36.375 41.703125 
Q 47.40625 39.59375 52.65625 34.296875 
Q 57.90625 29 57.90625 20.125 
Q 57.90625 9.515625 50.796875 4.046875 
Q 43.703125 -1.421875 29.984375 -1.421875 
Q 24.8125 -1.421875 18.96875 -0.25 
Q 13.140625 0.921875 6.890625 3.21875 
L 6.890625 13.375 
Q 12.890625 10.015625 18.65625 8.296875 
Q 24.421875 6.59375 29.984375 6.59375 
Q 38.421875 6.59375 43.015625 9.90625 
Q 47.609375 13.234375 47.609375 19.390625 
Q 47.609375 24.75 44.3125 27.78125 
Q 41.015625 30.8125 33.5 32.328125 
L 27.484375 33.5 
Q 16.453125 35.6875 11.515625 40.375 
Q 6.59375 45.0625 6.59375 53.421875 
Q 6.59375 63.09375 13.40625 68.65625 
Q 20.21875 74.21875 32.171875 74.21875 
Q 37.3125 74.21875 42.625 73.28125 
Q 47.953125 72.359375 53.515625 70.515625 
z
" id="DejaVuSans-83"/>
      <path d="M 34.28125 27.484375 
Q 23.390625 27.484375 19.1875 25 
Q 14.984375 22.515625 14.984375 16.5 
Q 14.984375 11.71875 18.140625 8.90625 
Q 21.296875 6.109375 26.703125 6.109375 
Q 34.1875 6.109375 38.703125 11.40625 
Q 43.21875 16.703125 43.21875 25.484375 
L 43.21875 27.484375 
z
M 52.203125 31.203125 
L 52.203125 0 
L 43.21875 0 
L 43.21875 8.296875 
Q 40.140625 3.328125 35.546875 0.953125 
Q 30.953125 -1.421875 24.3125 -1.421875 
Q 15.921875 -1.421875 10.953125 3.296875 
Q 6 8.015625 6 15.921875 
Q 6 25.140625 12.171875 29.828125 
Q 18.359375 34.515625 30.609375 34.515625 
L 43.21875 34.515625 
L 43.21875 35.40625 
Q 43.21875 41.609375 39.140625 45 
Q 35.0625 48.390625 27.6875 48.390625 
Q 23 48.390625 18.546875 47.265625 
Q 14.109375 46.140625 10.015625 43.890625 
L 10.015625 52.203125 
Q 14.9375 54.109375 19.578125 55.046875 
Q 24.21875 56 28.609375 56 
Q 40.484375 56 46.34375 49.84375 
Q 52.203125 43.703125 52.203125 31.203125 
z
" id="DejaVuSans-97"/>
      <path d="M 9.421875 75.984375 
L 18.40625 75.984375 
L 18.40625 0 
L 9.421875 0 
z
" id="DejaVuSans-108"/>
      <path d="M 56.203125 29.59375 
L 56.203125 25.203125 
L 14.890625 25.203125 
Q 15.484375 15.921875 20.484375 11.0625 
Q 25.484375 6.203125 34.421875 6.203125 
Q 39.59375 6.203125 44.453125 7.46875 
Q 49.3125 8.734375 54.109375 11.28125 
L 54.109375 2.78125 
Q 49.265625 0.734375 44.1875 -0.34375 
Q 39.109375 -1.421875 33.890625 -1.421875 
Q 20.796875 -1.421875 13.15625 6.1875 
Q 5.515625 13.8125 5.515625 26.8125 
Q 5.515625 40.234375 12.765625 48.109375 
Q 20.015625 56 32.328125 56 
Q 43.359375 56 49.78125 48.890625 
Q 56.203125 41.796875 56.203125 29.59375 
z
M 47.21875 32.234375 
Q 47.125 39.59375 43.09375 43.984375 
Q 39.0625 48.390625 32.421875 48.390625 
Q 24.90625 48.390625 20.390625 44.140625 
Q 15.875 39.890625 15.1875 32.171875 
z
" id="DejaVuSans-101"/>
     </defs>
     <g transform="translate(701.63125 132.354687)scale(0.1 -0.1)">
      <use xlink:href="#DejaVuSans-83"/>
      <use x="63.476562" xlink:href="#DejaVuSans-116"/>
      <use x="102.685547" xlink:href="#DejaVuSans-97"/>
      <use x="163.964844" xlink:href="#DejaVuSans-110"/>
      <use x="227.34375" xlink:href="#DejaVuSans-108"/>
      <use x="255.126953" xlink:href="#DejaVuSans-101"/>
      <use x="316.650391" xlink:href="#DejaVuSans-121"/>
     </g>
    </g>
    <g id="PathCollection_6">
     <g>
      <use style="fill:#0000ff;stroke:#0000ff;" x="683.63125" xlink:href="#m7113a87b1d" y="144.407812"/>
     </g>
    </g>
    <g id="text_24">
     <!-- Pure Pursuit -->
     <defs>
      <path d="M 44.28125 53.078125 
L 44.28125 44.578125 
Q 40.484375 46.53125 36.375 47.5 
Q 32.28125 48.484375 27.875 48.484375 
Q 21.1875 48.484375 17.84375 46.4375 
Q 14.5 44.390625 14.5 40.28125 
Q 14.5 37.15625 16.890625 35.375 
Q 19.28125 33.59375 26.515625 31.984375 
L 29.59375 31.296875 
Q 39.15625 29.25 43.1875 25.515625 
Q 47.21875 21.78125 47.21875 15.09375 
Q 47.21875 7.46875 41.1875 3.015625 
Q 35.15625 -1.421875 24.609375 -1.421875 
Q 20.21875 -1.421875 15.453125 -0.5625 
Q 10.6875 0.296875 5.421875 2 
L 5.421875 11.28125 
Q 10.40625 8.6875 15.234375 7.390625 
Q 20.0625 6.109375 24.8125 6.109375 
Q 31.15625 6.109375 34.5625 8.28125 
Q 37.984375 10.453125 37.984375 14.40625 
Q 37.984375 18.0625 35.515625 20.015625 
Q 33.0625 21.96875 24.703125 23.78125 
L 21.578125 24.515625 
Q 13.234375 26.265625 9.515625 29.90625 
Q 5.8125 33.546875 5.8125 39.890625 
Q 5.8125 47.609375 11.28125 51.796875 
Q 16.75 56 26.8125 56 
Q 31.78125 56 36.171875 55.265625 
Q 40.578125 54.546875 44.28125 53.078125 
z
" id="DejaVuSans-115"/>
      <path d="M 9.421875 54.6875 
L 18.40625 54.6875 
L 18.40625 0 
L 9.421875 0 
z
M 9.421875 75.984375 
L 18.40625 75.984375 
L 18.40625 64.59375 
L 9.421875 64.59375 
z
" id="DejaVuSans-105"/>
     </defs>
     <g transform="translate(701.63125 147.032812)scale(0.1 -0.1)">
      <use xlink:href="#DejaVuSans-80"/>
      <use x="60.287109" xlink:href="#DejaVuSans-117"/>
      <use x="123.666016" xlink:href="#DejaVuSans-114"/>
      <use x="164.748047" xlink:href="#DejaVuSans-101"/>
      <use x="226.271484" xlink:href="#DejaVuSans-32"/>
      <use x="258.058594" xlink:href="#DejaVuSans-80"/>
      <use x="318.345703" xlink:href="#DejaVuSans-117"/>
      <use x="381.724609" xlink:href="#DejaVuSans-114"/>
      <use x="422.837891" xlink:href="#DejaVuSans-115"/>
      <use x="474.9375" xlink:href="#DejaVuSans-117"/>
      <use x="538.316406" xlink:href="#DejaVuSans-105"/>
      <use x="566.099609" xlink:href="#DejaVuSans-116"/>
     </g>
    </g>
   </g>
  </g>
 </g>
 <defs>
  <clipPath id="p0f91546cd3">
   <rect height="554.4" width="669.6" x="108" y="86.4"/>
  </clipPath>
 </defs>
</svg>
