<svg xmlns="http://www.w3.org/2000/svg" width="200" height="200" viewBox="0 0 200 200" version="1.1"><path d="" stroke="none" fill="#1864dc" fill-rule="evenodd"/><path d="M 68.462 8.064 C 61.543 10.076, 61.560 10.036, 31.451 94.979 C 10.312 154.619, 3 176.403, 3 179.742 C 3 183.628, 3.524 184.760, 6.882 188.118 L 10.765 192 100 192 L 189.235 192 193.118 188.118 C 196.442 184.793, 197 183.608, 197 179.868 C 197 174.083, 143.772 14.009, 141.021 11.519 C 136.602 7.519, 132.694 7.086, 101.500 7.134 C 85 7.160, 70.133 7.578, 68.462 8.064 M 68.200 14.750 C 66.816 15.948, 57.501 41.990, 38.653 97.352 C 9.550 182.835, 9.966 181.306, 15.043 184.023 C 16.654 184.885, 17.878 184.879, 20.004 183.998 C 23.177 182.684, 21.071 188.453, 57.521 81.250 L 76.306 26 81.653 26 C 85.249 26, 87.009 26.409, 87.028 27.250 C 87.043 27.938, 89.029 39.503, 91.443 52.951 C 96.032 78.529, 96.579 80, 101.500 80 C 106.542 80, 107.072 78.568, 111.901 51.935 L 116.500 26.563 121.500 26.562 L 126.500 26.560 129.333 34.530 C 130.891 38.914, 142.730 73.550, 155.642 111.500 C 168.554 149.450, 179.778 181.512, 180.583 182.750 C 182.036 184.985, 185.197 185.629, 188.495 184.364 C 193.179 182.566, 193.122 182.361, 164.481 98.310 C 149.366 53.950, 136.254 16.833, 135.344 15.828 C 133.907 14.240, 132.022 14, 121 14 C 107.008 14, 105.787 14.485, 104.661 20.500 C 102.597 31.519, 101.772 35.105, 101.391 34.725 C 101.153 34.486, 100.316 30.640, 99.531 26.178 C 97.961 17.247, 96.868 14.547, 94.446 13.618 C 93.561 13.278, 87.748 13, 81.529 13 C 72.197 13, 69.868 13.306, 68.200 14.750 M 97.571 100.571 C 96.285 101.858, 96 104.819, 96 116.916 C 96 129.959, 96.214 131.884, 97.829 133.345 C 100.244 135.531, 104.284 135.448, 106.345 133.171 C 107.726 131.645, 108 128.925, 108 116.743 C 108 100.645, 107.444 99, 102 99 C 100.429 99, 98.436 99.707, 97.571 100.571 M 97.655 150.829 C 96.275 152.354, 96 155.070, 96 167.174 C 96 179.967, 96.217 181.886, 97.829 183.345 C 100.139 185.435, 104.380 185.477, 106.429 183.429 C 107.715 182.142, 108 179.181, 108 167.084 C 108 154.041, 107.786 152.116, 106.171 150.655 C 103.756 148.469, 99.716 148.552, 97.655 150.829" stroke="none" fill="#1464dc" fill-rule="evenodd"/></svg>